<?xml version="1.0" encoding="utf-8"?>
<!-- Generator: Adobe Illustrator 27.8.1, SVG Export Plug-In . SVG Version: 6.00 Build 0)  -->
<svg version="1.1" id="圖層_1" xmlns="http://www.w3.org/2000/svg" xmlns:xlink="http://www.w3.org/1999/xlink" x="0px" y="0px"
	 viewBox="0 0 125.4 37.9" style="enable-background:new 0 0 125.4 37.9;" xml:space="preserve">
<style type="text/css">
	.st0{fill:#BAA03F;}
	.st1{stroke:#FFFFFF;stroke-width:0.25;stroke-miterlimit:10;}
</style>
<g>
	<path class="st0" d="M19.1,21.9h-0.5h-2.9v8.5c0,0.9,0.8,1.7,1.7,1.7c0.9,0,1.7-0.8,1.7-1.7L19.1,21.9z"/>
	<path class="st0" d="M20.3,32.5h-6c-0.4,0-0.8,0.3-0.8,0.7V34c0,0.4,0.3,0.7,0.8,0.7h6c0.4,0,0.8-0.3,0.8-0.7v-0.8
		C21.1,32.8,20.8,32.5,20.3,32.5z"/>
	<path class="st0" d="M21.5,35.4h-8.3c-0.6,0-1,0.3-1,0.7v0.8c0,0.4,0.4,0.7,1,0.7h8.3c0.6,0,1-0.3,1-0.7v-0.8
		C22.5,35.7,22.1,35.4,21.5,35.4z"/>
	<path class="st0" d="M34.1,11.1c0-0.3-0.2-0.5-0.4-0.7c-0.4-0.3-1-0.2-1.4,0.1c-1.1,1.1-2.8,1.7-4.5,1.7s-3.3-0.6-4.4-1.6
		c-1.5-1.4-3.6-2.2-5.9-2.2c-2.1,0-4.2,0.7-5.7,2l0,0l-0.2,0.2l0,0c-1.1,1.1-2.8,1.7-4.5,1.7c-1.8,0-3.4-0.6-4.5-1.7
		c-0.2-0.2-0.4-0.3-0.7-0.3c-0.2,0-0.5,0-0.7,0.2s-0.4,0.4-0.4,0.6l0,0v0.1c0,0.2,0.1,0.5,0.3,0.6c1.5,1.5,3.7,2.3,6.1,2.3
		c2.2,0,4.2-0.7,5.7-2l0,0l0,0L13,12c1.1-1.1,2.8-1.7,4.5-1.7s3.3,0.6,4.4,1.6c1.5,1.4,3.6,2.2,5.9,2.2c2.4,0,4.6-0.9,6.1-2.3
		c0.2-0.2,0.3-0.4,0.3-0.6C34.1,11.2,34.1,11.1,34.1,11.1z M34.1,11.1L34.1,11.1L34.1,11.1L34.1,11.1z"/>
	<path class="st0" d="M20.9,4.7c0,2-1.6,3.6-3.6,3.6s-3.6-1.6-3.6-3.6s1.6-3.6,3.6-3.6C19.3,1.1,20.9,2.7,20.9,4.7z"/>
	<path class="st0" d="M12.1,26.7L6.6,14.3c-0.1-0.2-0.3-0.4-0.5-0.4S5.6,14,5.6,14.3l0,0L0.1,26.7c-0.1,0.2-0.1,0.5,0,0.6
		c1,2,3.4,3.3,6,3.3s5-1.3,6-3.3C12.2,27.1,12.2,26.9,12.1,26.7z M6.1,16.1c0.3,0.7,4.5,10.1,4.8,10.8H1.3c0.3-0.6,3.2-7.2,3.2-7.2
		S5.8,16.8,6.1,16.1z"/>
	<path class="st0" d="M34.8,26.7l-5.5-12.4c-0.1-0.2-0.3-0.4-0.5-0.4s-0.5,0.1-0.5,0.4l0,0l-5.5,12.4c-0.1,0.2-0.1,0.5,0,0.6
		c1,2,3.4,3.3,6,3.3s5-1.3,6-3.3C34.8,27.1,34.9,26.9,34.8,26.7z M28.7,16.1c0.3,0.7,4.5,10.1,4.8,10.8H24c0.2-0.5,2.1-4.7,2.1-4.7
		S28.4,16.8,28.7,16.1z"/>
	<path class="st0" d="M23.1,13.3c-1,0-0.9,1-0.9,1H21v-0.5h-7.3v0.5h-1.2c0,0,0.1-1-0.9-1c0,0-0.8,0-0.8,1.1v4.5
		c0,1.1,0.8,1.1,0.8,1.1c1,0,0.9-0.9,0.9-0.9h1.2v0.5h1.9v1.6H19v-1.6h2V19h1.2c0,0-0.1,0.9,0.9,0.9c0,0,0.8,0,0.8-1.1v-4.5
		C23.9,13.3,23.1,13.3,23.1,13.3z"/>
</g>
<path class="st1" d="M108.9,28.7"/>
<g>
	<path d="M65.5,19.2c0,1.4-0.3,2.2-1.2,2.5c-0.9,0.4-2.4,0.5-4.5,0.4c-0.1-0.6-0.5-1.8-0.8-2.4c1.5,0.1,3.1,0.1,3.6,0
		c0.5,0,0.6-0.1,0.6-0.6V3.8h-17V1.7h19.2L65.5,19.2L65.5,19.2z M60.6,7.9H46.4V6h14.2C60.6,6,60.6,7.9,60.6,7.9z M50,18v1.8h-2.2
		v-9.5h11.3V18H50z M50,12.1V16h7v-3.9H50z"/>
	<path d="M78.4,11.1c-0.9-0.8-2.9-1.9-4.4-2.6l1.2-1.7c1.5,0.6,3.5,1.6,4.5,2.4L78.4,11.1z M74.8,20.4c1.3-1.8,3.1-4.9,4.5-7.6
		l1.6,1.5c-1.2,2.5-2.8,5.4-4.2,7.6L74.8,20.4z M76.5,0.5C78,1.1,80,2.1,81,2.9l-1.3,1.8c-0.9-0.8-2.9-2-4.5-2.7L76.5,0.5z
		 M93.6,22.2c-0.2-0.6-0.5-1.4-1-2.3c-8.5,1-9.6,1.2-10.3,1.6c-0.1-0.5-0.5-1.6-0.8-2.2c0.5-0.1,1-0.7,1.5-1.6c0.5-0.7,1.9-3,3-5.5
		h-4.9v-2.1H87V6.2h-4.9V4.1H87V0.2h2.3v3.9h5.1v2.1h-5.1v3.9h6v2.1h-6.6c-1.1,2.4-2.5,4.7-3.8,6.6l6.7-0.7c-0.6-1-1.2-1.9-1.9-2.8
		l1.8-0.9c1.7,2.1,3.4,4.9,4.1,6.8L93.6,22.2z"/>
	<path d="M110.8,1.9c-0.7,2-1.5,4.3-2.2,6.2c1.6,2,1.9,3.7,1.9,5.1s-0.3,2.4-1,2.9c-0.4,0.3-0.8,0.4-1.3,0.5c-0.4,0-1,0-1.6,0
		c0-0.6-0.2-1.4-0.5-1.9c0.5,0,0.9,0,1.2,0c0.3,0,0.5-0.1,0.7-0.2c0.3-0.3,0.5-0.9,0.5-1.6c0-1.2-0.4-2.8-2-4.6
		c0.6-1.6,1.2-3.6,1.7-5.2h-2.6v19h-2v-21h5.4l0.3-0.1L110.8,1.9z M122.4,20c0.5,0,0.6-0.4,0.6-3c0.5,0.4,1.3,0.7,1.9,0.8
		c-0.2,3.2-0.7,4-2.2,4h-1.9c-1.8,0-2.3-0.6-2.3-2.6v-5.7h-2.1c-0.4,4.2-1.5,7-6.1,8.6c-0.2-0.6-0.8-1.4-1.3-1.8
		c4-1.3,4.9-3.4,5.2-6.8h-3.1v-2h13.5v2h-4v5.6c0,0.6,0.1,0.7,0.5,0.7h1.3V20z M112.9,7.5H111V3.1h5.8c-0.3-0.8-0.7-1.8-1.1-2.5
		l2.1-0.6c0.6,1,1.2,2.2,1.5,3.1h5.2v4.4h-1.9v1.8h-9.7V7.5z M113.1,5v2.4h9.3V5H113.1z"/>
</g>
<g>
	<path d="M48.2,28.5h0.9v6.2c0,0.9-0.1,1.6-0.2,2c-0.1,0.4-0.4,0.7-0.7,0.9s-0.8,0.3-1.2,0.3s-0.7-0.1-1.1-0.2s-0.8-0.4-1.2-0.8
		l0.5-0.7c0.5,0.3,0.9,0.6,1.2,0.7C46.6,37,46.8,37,47,37c0.3,0,0.5-0.1,0.7-0.2c0.2-0.2,0.4-0.4,0.4-0.6c0.1-0.3,0.1-0.8,0.1-1.5
		V28.5z"/>
	<path d="M51.1,30.9H52v3.2c0,0.8,0,1.3,0.1,1.6c0.1,0.4,0.4,0.7,0.7,1c0.3,0.2,0.8,0.4,1.3,0.4s0.9-0.1,1.2-0.3s0.6-0.5,0.7-0.9
		c0.1-0.3,0.1-0.8,0.1-1.7V31H57v3.3c0,0.9-0.1,1.6-0.3,2.1s-0.5,0.8-1,1.1c-0.4,0.3-1,0.4-1.6,0.4s-1.2-0.1-1.6-0.4s-0.8-0.6-1-1.1
		s-0.3-1.2-0.3-2.2v-3.3H51.1z"/>
	<path d="M65.6,28.3v9.4h-0.9v-1.2c-0.4,0.4-0.8,0.8-1.2,1c-0.5,0.2-0.9,0.3-1.5,0.3c-1,0-1.8-0.3-2.4-1c-0.7-0.7-1-1.5-1-2.5
		s0.3-1.8,1-2.5s1.5-1,2.5-1c0.6,0,1.1,0.1,1.5,0.4c0.4,0.2,0.8,0.6,1.2,1.1v-3.8h0.8V28.3z M62.2,31.6c-0.5,0-0.9,0.1-1.3,0.4
		c-0.4,0.2-0.7,0.6-1,1c-0.2,0.4-0.4,0.9-0.4,1.4s0.1,0.9,0.4,1.4s0.6,0.8,1,1s0.9,0.4,1.3,0.4c0.5,0,0.9-0.1,1.3-0.4
		c0.4-0.2,0.8-0.6,1-1s0.3-0.9,0.3-1.4c0-0.8-0.3-1.4-0.8-2C63.6,31.8,62.9,31.6,62.2,31.6z"/>
	<path d="M67.9,28.1c0.2,0,0.4,0.1,0.5,0.2s0.2,0.3,0.2,0.5s-0.1,0.4-0.2,0.5s-0.3,0.2-0.5,0.2s-0.4-0.1-0.5-0.2s-0.2-0.3-0.2-0.5
		s0.1-0.4,0.2-0.5C67.6,28.2,67.7,28.1,67.9,28.1z M67.5,30.9h0.9v6.7h-0.9V30.9z"/>
	<path d="M76.7,32.3L76,32.7c-0.6-0.8-1.4-1.2-2.4-1.2c-0.8,0-1.5,0.3-2,0.8s-0.8,1.2-0.8,1.9c0,0.5,0.1,1,0.4,1.4s0.6,0.8,1,1
		S73,37,73.6,37c1,0,1.8-0.4,2.4-1.2l0.7,0.5c-0.3,0.5-0.8,0.9-1.3,1.1c-0.5,0.3-1.2,0.4-1.9,0.4c-1.1,0-2-0.3-2.7-1
		s-1.1-1.5-1.1-2.5c0-0.7,0.2-1.3,0.5-1.8c0.3-0.6,0.8-1,1.4-1.3s1.2-0.5,1.9-0.5c0.4,0,0.9,0.1,1.3,0.2s0.8,0.3,1.1,0.5
		C76.3,31.7,76.5,32,76.7,32.3z"/>
	<path d="M78.7,28.1c0.2,0,0.4,0.1,0.5,0.2s0.2,0.3,0.2,0.5s-0.1,0.4-0.2,0.5s-0.3,0.2-0.5,0.2s-0.4-0.1-0.5-0.2
		C78,29.2,78,29,78,28.9c0-0.2,0.1-0.4,0.2-0.5C78.3,28.2,78.5,28.1,78.7,28.1z M78.2,30.9h0.9v6.7h-0.9V30.9z"/>
	<path d="M87.6,30.9v6.7h-0.9v-1.2c-0.4,0.4-0.8,0.8-1.2,1c-0.5,0.2-0.9,0.3-1.5,0.3c-1,0-1.8-0.3-2.4-1c-0.7-0.7-1-1.5-1-2.5
		s0.3-1.8,1-2.5s1.5-1,2.5-1c0.6,0,1.1,0.1,1.5,0.4c0.4,0.2,0.8,0.6,1.2,1.1V31L87.6,30.9L87.6,30.9z M84.2,31.6
		c-0.5,0-0.9,0.1-1.3,0.4s-0.7,0.6-1,1s-0.4,0.9-0.4,1.4s0.1,0.9,0.4,1.4c0.2,0.4,0.6,0.8,1,1s0.9,0.4,1.3,0.4
		c0.5,0,0.9-0.1,1.4-0.4c0.4-0.2,0.8-0.6,1-1s0.3-0.9,0.3-1.4c0-0.8-0.3-1.4-0.8-2C85.6,31.8,84.9,31.6,84.2,31.6z"/>
	<path d="M89.5,28.3h0.9v9.4h-0.9V28.3z"/>
	<path d="M95.1,28.5h1l2.3,3.8l2.3-3.8h1.1l-2.9,4.8v4.4H98v-4.4L95.1,28.5z"/>
	<path d="M103.1,30.9h0.9v3.2c0,0.8,0,1.3,0.1,1.6c0.1,0.4,0.4,0.7,0.7,1c0.3,0.2,0.8,0.4,1.3,0.4s0.9-0.1,1.2-0.3
		c0.3-0.2,0.6-0.5,0.7-0.9c0.1-0.3,0.1-0.8,0.1-1.7V31h0.9v3.3c0,0.9-0.1,1.6-0.3,2.1s-0.5,0.8-1,1.1c-0.4,0.3-1,0.4-1.6,0.4
		s-1.2-0.1-1.6-0.4s-0.8-0.6-1-1.1s-0.3-1.2-0.3-2.2L103.1,30.9L103.1,30.9z"/>
	<path d="M117.6,30.9v6.7h-0.9v-1.2c-0.4,0.4-0.8,0.8-1.2,1c-0.5,0.2-0.9,0.3-1.5,0.3c-1,0-1.8-0.3-2.4-1c-0.7-0.7-1-1.5-1-2.5
		s0.3-1.8,1-2.5s1.5-1,2.5-1c0.6,0,1.1,0.1,1.5,0.4c0.4,0.2,0.8,0.6,1.2,1.1V31L117.6,30.9L117.6,30.9z M114.1,31.6
		c-0.5,0-0.9,0.1-1.3,0.4s-0.7,0.6-1,1s-0.4,0.9-0.4,1.4s0.1,0.9,0.4,1.4c0.2,0.4,0.6,0.8,1,1s0.9,0.4,1.3,0.4
		c0.5,0,0.9-0.1,1.4-0.4c0.4-0.2,0.8-0.6,1-1s0.3-0.9,0.3-1.4c0-0.8-0.3-1.4-0.8-2C115.5,31.8,114.9,31.6,114.1,31.6z"/>
	<path d="M119.6,30.9h0.9v1.2c0.3-0.5,0.7-0.8,1.2-1c0.4-0.2,0.9-0.3,1.4-0.3s1,0.1,1.3,0.4c0.4,0.3,0.7,0.6,0.9,1
		c0.2,0.4,0.3,1.1,0.3,2v3.5h-0.9v-3.2c0-0.8,0-1.3-0.1-1.6c-0.1-0.4-0.3-0.8-0.6-1s-0.7-0.3-1.1-0.3c-0.5,0-1,0.2-1.4,0.5
		s-0.7,0.8-0.8,1.3c-0.1,0.3-0.1,0.9-0.1,1.8v2.5h-0.9v-6.8H119.6z"/>
</g>
</svg>
