<?xml version="1.0" encoding="utf-8"?>
<!-- Generator: Adobe Illustrator 24.0.2, SVG Export Plug-In . SVG Version: 6.00 Build 0)  -->
<svg version="1.1" id="圖層_1" xmlns="http://www.w3.org/2000/svg" xmlns:xlink="http://www.w3.org/1999/xlink" x="0px" y="0px"
	 viewBox="0 0 270.8 64" style="enable-background:new 0 0 270.8 64;" xml:space="preserve">
<style type="text/css">
	.st0{fill:#333333;}
	.st1{fill:#FFFFFF;}
	.st2{fill:url(#SVGID_1_);}
	.st3{fill:#005BAB;}
	.st4{fill:#B7A246;}
	.st5{fill:none;stroke:#FFFFFF;stroke-width:0.25;stroke-miterlimit:10;}
</style>
<g>
	<path class="st0" d="M74.7,24.8c-0.9-0.8-2.9-1.9-4.4-2.6l1.2-1.7c1.5,0.6,3.5,1.6,4.5,2.4L74.7,24.8z M71.1,34.1
		c1.3-1.8,3.1-4.9,4.5-7.6l1.6,1.5c-1.2,2.5-2.8,5.4-4.2,7.6L71.1,34.1z M72.9,14.1c1.5,0.6,3.5,1.7,4.5,2.4l-1.3,1.8
		c-0.9-0.8-2.9-2-4.5-2.7L72.9,14.1z M89.9,35.9c-0.2-0.6-0.5-1.4-1-2.3c-8.5,1-9.6,1.2-10.3,1.6c-0.1-0.5-0.5-1.6-0.8-2.2
		c0.5-0.1,1-0.7,1.5-1.6c0.5-0.7,1.9-3,3-5.5h-4.9v-2.1h5.9v-3.9h-4.9v-2.1h4.9v-3.9h2.3v3.9h5.1v2.1h-5.1v3.9h6v2.1H85
		c-1.1,2.4-2.5,4.7-3.8,6.6l6.7-0.7c-0.6-1-1.2-1.9-1.9-2.8l1.8-0.9c1.7,2.1,3.4,4.9,4.1,6.8L89.9,35.9z"/>
	<path class="st0" d="M119,16v4.4h-2.4v-2.3h-15.8v2.3h-2.2V16h9.5c-0.2-0.6-0.4-1.2-0.7-1.8l2.3-0.5c0.4,0.7,0.7,1.6,1,2.3H119z
		 M103.9,28.2h13v7.5h-2.3v-0.9h-10.7v1h-2.3v-16H116v6.4h-12.1V28.2z M103.9,21.8v2.5h9.9v-2.5H103.9z M103.9,30.2v2.7h10.7v-2.7
		H103.9z"/>
	<path class="st0" d="M147.1,31.4h-9.3v2.3c0,1.1-0.2,1.6-1.1,1.9c-0.9,0.3-2.1,0.3-4,0.3c-0.1-0.6-0.4-1.4-0.7-1.9
		c1.3,0,2.7,0,3.1,0c0.4,0,0.5-0.1,0.5-0.4v-2.2h-9.8v-1.8h9.8v-0.9c1.1-0.4,2.2-1,3.2-1.6h-8.6v-1.6h10.9l0.5-0.1l1.3,1.2
		c-1.4,1.1-3.3,2.1-5.1,2.9v0.2h9.3V31.4z M128.4,27h-2.1v-4.6h1.8l-0.4-7.1c1.4-0.2,3.5-0.8,4.7-1.2l1,1.3c-1,0.4-2.3,0.7-3.5,0.9
		l0.1,1h3.3v1.4h-3.2l0.1,1.1h3.2v1.4c0.7-0.3,1.4-0.7,2-1.1c-0.5-0.3-1.1-0.6-1.6-0.9l1.1-0.9c0.5,0.3,1.1,0.6,1.7,0.9
		c0.4-0.4,0.8-0.8,1.1-1.2l1.5,0.5c-0.4,0.5-0.8,1-1.3,1.5c0.6,0.4,1.2,0.8,1.6,1.2l-1.1,1c-0.4-0.4-0.9-0.8-1.6-1.3
		c-0.7,0.6-1.5,1-2.2,1.4h8.4c0-0.4,0.1-0.7,0.1-1.1h-3.2v-1.5h3.3l0.1-1.1h-3.3v-1.4h3.4l0-1.1h-3.5v-1.5h5.7
		c-0.1,2.4-0.3,5.5-0.5,7.7h1.8V27h-2.2v-2.9h-16.2V27z M130.2,22.4h4.1c-0.2-0.3-0.8-0.9-1.1-1.1h-3L130.2,22.4z M138.1,18
		c-0.4-0.4-0.9-0.7-1.5-1.1c-0.7,0.5-1.4,1-2.1,1.3c-0.3-0.2-0.8-0.8-1.2-1c0.7-0.3,1.4-0.7,2-1.1c-0.5-0.3-1-0.6-1.5-0.8l1.1-0.9
		c0.5,0.2,1.1,0.5,1.6,0.8c0.4-0.3,0.7-0.7,1-1.1l1.5,0.4c-0.4,0.5-0.8,1-1.2,1.4c0.6,0.4,1.1,0.7,1.5,1.1L138.1,18z"/>
	<path class="st0" d="M161.1,15.6c-0.7,2-1.5,4.3-2.2,6.2c1.6,2,1.9,3.7,1.9,5.1c0,1.4-0.3,2.4-1,2.9c-0.4,0.3-0.8,0.4-1.3,0.5
		c-0.4,0-1,0-1.6,0c0-0.6-0.2-1.4-0.5-1.9c0.5,0,0.9,0,1.2,0c0.3,0,0.5-0.1,0.7-0.2c0.3-0.3,0.5-0.9,0.5-1.6c0-1.2-0.4-2.8-2-4.6
		c0.6-1.6,1.2-3.6,1.7-5.2h-2.6v19h-2v-21h5.4l0.3-0.1L161.1,15.6z M172.8,33.7c0.5,0,0.6-0.4,0.6-3c0.5,0.4,1.3,0.7,1.9,0.8
		c-0.2,3.2-0.7,4-2.2,4h-1.9c-1.8,0-2.3-0.6-2.3-2.6v-5.7h-2.1c-0.4,4.2-1.5,7-6.1,8.6c-0.2-0.6-0.8-1.4-1.3-1.8
		c4-1.3,4.9-3.4,5.2-6.8h-3.1v-2h13.5v2h-4v5.6c0,0.6,0.1,0.7,0.5,0.7H172.8z M163.2,21.2h-1.9v-4.4h5.8c-0.3-0.8-0.7-1.8-1.1-2.5
		l2.1-0.6c0.6,1,1.2,2.2,1.5,3.1h5.2v4.4h-1.9V23h-9.7V21.2z M163.4,18.7V21h9.3v-2.4H163.4z"/>
</g>
<g>
	<path class="st0" d="M75.5,42.5h0.9v5.8c0,0.9-0.1,1.5-0.2,1.9s-0.4,0.6-0.7,0.8s-0.7,0.3-1.2,0.3c-0.3,0-0.7-0.1-1-0.2
		s-0.7-0.4-1.1-0.7l0.5-0.7c0.5,0.3,0.8,0.5,1.1,0.7c0.2,0.1,0.4,0.1,0.6,0.1c0.2,0,0.5-0.1,0.7-0.2c0.2-0.1,0.3-0.3,0.4-0.6
		s0.1-0.7,0.1-1.4V42.5z"/>
	<path class="st0" d="M78.3,44.7h0.8v3c0,0.7,0,1.2,0.1,1.5c0.1,0.4,0.3,0.7,0.7,0.9c0.3,0.2,0.7,0.3,1.2,0.3s0.8-0.1,1.2-0.3
		c0.3-0.2,0.5-0.5,0.7-0.9C83,49,83,48.5,83,47.7v-3h0.8v3.1c0,0.9-0.1,1.5-0.3,2s-0.5,0.8-0.9,1s-0.9,0.4-1.5,0.4s-1.1-0.1-1.6-0.4
		s-0.7-0.6-0.9-1.1s-0.3-1.1-0.3-2V44.7z"/>
	<path class="st0" d="M92.1,42.2v8.8h-0.8V50c-0.3,0.4-0.7,0.7-1.2,0.9s-0.9,0.3-1.4,0.3c-0.9,0-1.7-0.3-2.3-1s-1-1.5-1-2.4
		c0-0.9,0.3-1.7,1-2.4s1.4-1,2.3-1c0.5,0,1,0.1,1.4,0.3s0.8,0.6,1.1,1v-3.6H92.1z M88.8,45.3c-0.5,0-0.9,0.1-1.3,0.3
		c-0.4,0.2-0.7,0.5-0.9,0.9c-0.2,0.4-0.3,0.8-0.3,1.3c0,0.4,0.1,0.9,0.3,1.3c0.2,0.4,0.5,0.7,0.9,1c0.4,0.2,0.8,0.3,1.2,0.3
		c0.4,0,0.9-0.1,1.3-0.3c0.4-0.2,0.7-0.5,0.9-0.9c0.2-0.4,0.3-0.8,0.3-1.3c0-0.7-0.2-1.4-0.7-1.8C90.1,45.6,89.5,45.3,88.8,45.3z"/>
	<path class="st0" d="M99.5,44.7h0.8v5.1c0,0.9-0.1,1.5-0.2,2c-0.2,0.6-0.6,1-1.1,1.4s-1.2,0.5-1.9,0.5c-0.5,0-1-0.1-1.5-0.2
		c-0.4-0.2-0.8-0.4-1.1-0.6c-0.3-0.3-0.5-0.6-0.8-1.1h0.9c0.2,0.4,0.6,0.7,0.9,0.9c0.4,0.2,0.9,0.3,1.4,0.3c0.6,0,1-0.1,1.4-0.3
		c0.4-0.2,0.7-0.5,0.8-0.8s0.2-0.8,0.2-1.5v-0.3c-0.3,0.4-0.7,0.7-1.1,0.9c-0.4,0.2-0.9,0.3-1.4,0.3c-0.6,0-1.1-0.1-1.7-0.4
		c-0.5-0.3-0.9-0.7-1.2-1.2c-0.3-0.5-0.4-1-0.4-1.6s0.1-1.1,0.4-1.6c0.3-0.5,0.7-0.9,1.2-1.2c0.5-0.3,1.1-0.4,1.6-0.4
		c0.5,0,0.9,0.1,1.3,0.3c0.4,0.2,0.8,0.5,1.2,1V44.7z M97.1,45.3c-0.5,0-0.9,0.1-1.3,0.3s-0.7,0.5-0.9,0.9s-0.3,0.8-0.3,1.3
		c0,0.7,0.2,1.3,0.7,1.7s1.1,0.7,1.8,0.7c0.8,0,1.4-0.2,1.8-0.7s0.7-1,0.7-1.8c0-0.5-0.1-0.9-0.3-1.3s-0.5-0.7-0.9-0.9
		S97.5,45.3,97.1,45.3z"/>
	<path class="st0" d="M107.5,49l0.7,0.4c-0.2,0.4-0.5,0.8-0.8,1.1c-0.3,0.3-0.6,0.5-1,0.6c-0.4,0.1-0.8,0.2-1.3,0.2
		c-1,0-1.9-0.3-2.4-1c-0.6-0.7-0.9-1.5-0.9-2.3c0-0.8,0.2-1.5,0.7-2.2c0.6-0.8,1.5-1.2,2.5-1.2c1.1,0,2,0.4,2.6,1.2
		c0.5,0.6,0.7,1.3,0.7,2.2h-5.7c0,0.7,0.3,1.3,0.7,1.8c0.5,0.5,1,0.7,1.7,0.7c0.3,0,0.6-0.1,0.9-0.2c0.3-0.1,0.6-0.3,0.8-0.4
		C107,49.7,107.2,49.4,107.5,49z M107.5,47.2c-0.1-0.4-0.3-0.8-0.5-1c-0.2-0.3-0.5-0.5-0.8-0.6c-0.3-0.2-0.7-0.2-1.1-0.2
		c-0.6,0-1.2,0.2-1.6,0.6c-0.3,0.3-0.6,0.7-0.7,1.3H107.5z"/>
	<path class="st0" d="M113.2,45.4l-0.5,0.5c-0.4-0.4-0.9-0.6-1.3-0.6c-0.3,0-0.5,0.1-0.7,0.3c-0.2,0.2-0.3,0.4-0.3,0.6
		c0,0.2,0.1,0.4,0.2,0.6c0.2,0.2,0.5,0.4,1,0.7c0.6,0.3,1,0.6,1.2,0.9c0.2,0.3,0.3,0.6,0.3,1c0,0.5-0.2,1-0.6,1.3s-0.8,0.5-1.4,0.5
		c-0.4,0-0.7-0.1-1.1-0.2c-0.3-0.2-0.6-0.4-0.8-0.7l0.5-0.6c0.4,0.5,0.9,0.7,1.3,0.7c0.3,0,0.6-0.1,0.8-0.3c0.2-0.2,0.3-0.5,0.3-0.7
		c0-0.2-0.1-0.4-0.2-0.6c-0.2-0.2-0.5-0.4-1-0.7c-0.6-0.3-1-0.6-1.2-0.9c-0.2-0.3-0.3-0.6-0.3-1c0-0.5,0.2-0.9,0.5-1.2
		c0.3-0.3,0.7-0.5,1.3-0.5C112,44.5,112.6,44.8,113.2,45.4z"/>
	<path class="st0" d="M121.7,42.5l4,8.6h-0.9l-1.4-2.8h-3.7l-1.3,2.8h-1l4.1-8.6H121.7z M121.6,44.3l-1.5,3.1h2.9L121.6,44.3z"/>
	<path class="st0" d="M133.1,46l-0.7,0.4c-0.6-0.7-1.3-1.1-2.3-1.1c-0.8,0-1.4,0.2-1.9,0.7c-0.5,0.5-0.8,1.1-0.8,1.8
		c0,0.5,0.1,0.9,0.4,1.3c0.2,0.4,0.6,0.7,1,1c0.4,0.2,0.9,0.3,1.4,0.3c0.9,0,1.7-0.4,2.3-1.1l0.7,0.4c-0.3,0.5-0.7,0.8-1.2,1.1
		c-0.5,0.3-1.1,0.4-1.8,0.4c-1,0-1.8-0.3-2.5-1s-1-1.4-1-2.3c0-0.6,0.2-1.2,0.5-1.7s0.7-0.9,1.3-1.2s1.2-0.4,1.8-0.4
		c0.4,0,0.8,0.1,1.2,0.2s0.7,0.3,1,0.5S132.9,45.7,133.1,46z"/>
	<path class="st0" d="M141.1,44.7v6.4h-0.8V50c-0.3,0.4-0.7,0.7-1.2,0.9s-0.9,0.3-1.4,0.3c-0.9,0-1.7-0.3-2.3-1s-1-1.5-1-2.4
		c0-0.9,0.3-1.7,1-2.4s1.4-1,2.3-1c0.5,0,1,0.1,1.4,0.3s0.8,0.6,1.1,1v-1.2H141.1z M137.8,45.3c-0.5,0-0.9,0.1-1.3,0.3
		c-0.4,0.2-0.7,0.5-0.9,0.9c-0.2,0.4-0.3,0.8-0.3,1.3c0,0.4,0.1,0.9,0.3,1.3c0.2,0.4,0.5,0.7,0.9,1c0.4,0.2,0.8,0.3,1.2,0.3
		c0.4,0,0.9-0.1,1.3-0.3c0.4-0.2,0.7-0.5,0.9-0.9c0.2-0.4,0.3-0.8,0.3-1.3c0-0.7-0.2-1.4-0.7-1.8C139.1,45.6,138.5,45.3,137.8,45.3z
		"/>
	<path class="st0" d="M149.4,42.2v8.8h-0.8V50c-0.3,0.4-0.7,0.7-1.2,0.9s-0.9,0.3-1.4,0.3c-0.9,0-1.7-0.3-2.3-1s-1-1.5-1-2.4
		c0-0.9,0.3-1.7,1-2.4s1.4-1,2.3-1c0.5,0,1,0.1,1.4,0.3s0.8,0.6,1.1,1v-3.6H149.4z M146.1,45.3c-0.5,0-0.9,0.1-1.3,0.3
		c-0.4,0.2-0.7,0.5-0.9,0.9c-0.2,0.4-0.3,0.8-0.3,1.3c0,0.4,0.1,0.9,0.3,1.3c0.2,0.4,0.5,0.7,0.9,1c0.4,0.2,0.8,0.3,1.2,0.3
		c0.4,0,0.9-0.1,1.3-0.3c0.4-0.2,0.7-0.5,0.9-0.9c0.2-0.4,0.3-0.8,0.3-1.3c0-0.7-0.2-1.4-0.7-1.8C147.4,45.6,146.8,45.3,146.1,45.3z
		"/>
	<path class="st0" d="M156.6,49l0.7,0.4c-0.2,0.4-0.5,0.8-0.8,1.1c-0.3,0.3-0.6,0.5-1,0.6c-0.4,0.1-0.8,0.2-1.3,0.2
		c-1,0-1.9-0.3-2.4-1c-0.6-0.7-0.9-1.5-0.9-2.3c0-0.8,0.2-1.5,0.7-2.2c0.6-0.8,1.5-1.2,2.5-1.2c1.1,0,2,0.4,2.6,1.2
		c0.5,0.6,0.7,1.3,0.7,2.2h-5.7c0,0.7,0.3,1.3,0.7,1.8c0.5,0.5,1,0.7,1.7,0.7c0.3,0,0.6-0.1,0.9-0.2c0.3-0.1,0.6-0.3,0.8-0.4
		C156.2,49.7,156.4,49.4,156.6,49z M156.6,47.2c-0.1-0.4-0.3-0.8-0.5-1c-0.2-0.3-0.5-0.5-0.8-0.6c-0.3-0.2-0.7-0.2-1.1-0.2
		c-0.6,0-1.2,0.2-1.6,0.6c-0.3,0.3-0.6,0.7-0.7,1.3H156.6z"/>
	<path class="st0" d="M159.1,44.7h0.8v1.1c0.3-0.4,0.6-0.7,0.9-0.9c0.4-0.2,0.9-0.4,1.3-0.4c0.3,0,0.6,0.1,0.9,0.2
		c0.3,0.1,0.5,0.3,0.7,0.5c0.2,0.2,0.3,0.5,0.5,0.9c0.3-0.5,0.6-0.9,1-1.1c0.4-0.3,0.8-0.4,1.3-0.4c0.4,0,0.8,0.1,1.2,0.3
		c0.3,0.2,0.6,0.5,0.8,0.9c0.2,0.4,0.2,1,0.2,1.8v3.5h-0.8v-3.5c0-0.7,0-1.2-0.1-1.4c-0.1-0.3-0.3-0.5-0.5-0.6s-0.5-0.2-0.8-0.2
		c-0.4,0-0.8,0.1-1.1,0.4s-0.6,0.5-0.7,0.9c-0.2,0.4-0.2,1-0.2,2v2.5h-0.8v-3.3c0-0.8,0-1.3-0.1-1.6s-0.3-0.5-0.5-0.7
		s-0.5-0.2-0.8-0.2c-0.4,0-0.7,0.1-1.1,0.3s-0.6,0.5-0.7,0.9s-0.2,1-0.2,1.8v2.7h-0.8V44.7z"/>
	<path class="st0" d="M169.7,44.7h0.9l2.2,4.9l2.1-4.9h0.9l-3.8,8.7h-0.9l1.2-2.8L169.7,44.7z"/>
</g>
<g>
	<circle class="st1" cx="32.8" cy="31.3" r="30.3"/>
</g>
<linearGradient id="SVGID_1_" gradientUnits="userSpaceOnUse" x1="32.8223" y1="60.7278" x2="32.8223" y2="37.472">
	<stop  offset="0.6854" style="stop-color:#B7A246"/>
	<stop  offset="1" style="stop-color:#FFFFFF"/>
</linearGradient>
<path class="st2" d="M61.7,37.7c-3,13-14.9,23-28.8,23c-13.9,0-25.9-10.2-28.9-23.3h7.4c2.8,9,11.5,16.1,21.5,16.1
	c10,0,18.6-6.8,21.4-15.8H61.7z"/>
<g>
	<path class="st3" d="M53.8,31.2c0,11.6-9.4,21-21,21s-21-9.4-21-21c0-11.6,9.4-21,21-21S53.8,19.7,53.8,31.2z"/>
</g>
<g>
	<path class="st1" d="M34.5,33.7H34h-2.8V42c0,0.9,0.8,1.7,1.7,1.7c0.9,0,1.6-0.8,1.6-1.7L34.5,33.7z"/>
	<path class="st1" d="M35.7,43.9h-5.8c-0.4,0-0.8,0.3-0.8,0.6v0.8c0,0.4,0.3,0.7,0.8,0.7h5.8c0.4,0,0.8-0.3,0.8-0.7v-0.8
		C36.5,44.2,36.2,43.9,35.7,43.9z"/>
	<path class="st1" d="M36.9,46.8h-8c-0.6,0-1,0.3-1,0.7v0.8c0,0.4,0.4,0.7,1,0.7h8c0.6,0,1-0.3,1-0.7v-0.8
		C37.8,47.1,37.4,46.8,36.9,46.8z"/>
	<path class="st1" d="M49.1,23.2c0-0.3-0.2-0.5-0.4-0.6c-0.4-0.3-1-0.2-1.4,0.1c-1.1,1.1-2.7,1.7-4.4,1.7c-1.7,0-3.2-0.6-4.3-1.6
		c-1.5-1.3-3.5-2.1-5.7-2.1c-2.1,0-4.1,0.7-5.5,1.9l0,0l-0.2,0.2l0,0c-1.1,1.1-2.7,1.7-4.4,1.7c-1.7,0-3.3-0.6-4.4-1.7
		c-0.2-0.2-0.4-0.3-0.7-0.3c-0.2,0-0.5,0-0.7,0.2c-0.2,0.2-0.4,0.4-0.4,0.6l0,0v0.1c0,0.2,0.1,0.4,0.3,0.6c1.5,1.4,3.6,2.3,5.9,2.3
		c2.1,0,4-0.7,5.5-1.9l0,0c0,0,0,0,0,0c0,0,0.1-0.1,0.1-0.1c1.1-1.1,2.7-1.7,4.4-1.7c1.7,0,3.2,0.6,4.3,1.6c1.4,1.3,3.5,2.1,5.7,2.1
		c2.3,0,4.4-0.8,5.9-2.3C49,23.8,49.1,23.5,49.1,23.2C49.1,23.3,49.1,23.3,49.1,23.2z M49.1,23.2C49.1,23.2,49.1,23.2,49.1,23.2
		C49.1,23.2,49.1,23.2,49.1,23.2L49.1,23.2z"/>
	<path class="st1" d="M36.3,17c0,1.9-1.5,3.5-3.5,3.5c-1.9,0-3.4-1.5-3.4-3.5c0-1.9,1.5-3.5,3.4-3.5C34.8,13.5,36.3,15.1,36.3,17z"
		/>
	<path class="st1" d="M27.8,38.3l-5.3-12c-0.1-0.2-0.3-0.3-0.5-0.3c-0.2,0-0.4,0.1-0.5,0.4v0l-5.3,12c-0.1,0.2-0.1,0.4,0,0.6
		c1,1.9,3.3,3.2,5.8,3.2c2.5,0,4.8-1.2,5.8-3.2C27.8,38.8,27.8,38.5,27.8,38.3z M21.9,28.1c0.3,0.7,4.3,9.8,4.6,10.4h-9.2
		c0.2-0.5,3.1-7,3.1-7S21.6,28.7,21.9,28.1z"/>
	<path class="st1" d="M49.7,38.3l-5.3-12c-0.1-0.2-0.3-0.3-0.5-0.3c-0.2,0-0.4,0.1-0.5,0.4v0l-5.3,12c-0.1,0.2-0.1,0.4,0,0.6
		c1,1.9,3.3,3.2,5.8,3.2c2.5,0,4.8-1.2,5.8-3.2C49.8,38.8,49.8,38.5,49.7,38.3z M43.9,28.1c0.3,0.7,4.3,9.8,4.6,10.4h-9.2
		c0.2-0.4,2-4.5,2-4.5S43.6,28.8,43.9,28.1z"/>
	<path class="st1" d="M38.4,25.4c-1,0-0.9,0.9-0.9,0.9h-1.2v-0.5h-7v0.5h-1.2c0,0,0.1-0.9-0.9-0.9c0,0-0.8,0-0.8,1v4.4
		c0,1.1,0.8,1,0.8,1c1,0,0.9-0.9,0.9-0.9h1.2v0.5h1.8l0,1.6l3.3,0v-1.6h1.9v-0.5h1.2c0,0-0.1,0.9,0.9,0.9c0,0,0.8,0,0.8-1v-4.4
		C39.2,25.4,38.4,25.4,38.4,25.4z"/>
</g>
<g>
	<path class="st1" d="M21.5,55c-0.7,0.6-1.3,1.1-1.8,1.4l-0.2-0.3c0.5-0.3,1.2-0.8,1.8-1.4L21.5,55z M21.8,54.1l-0.3,0.1
		c-0.1-0.3-0.3-0.7-0.7-1.1l0.3-0.1C21.5,53.5,21.7,53.9,21.8,54.1z M25.6,56.2l-1.9-0.8c-0.7,0.6-1.4,1.1-2.1,1.4
		c0.9,0.3,1.7,0.5,2.5,0.6c-0.1-0.4-0.2-0.8-0.3-1.1l0.3,0c0.2,0.9,0.4,1.6,0.4,2.2l-0.3,0.1c0-0.3,0-0.5-0.1-0.8
		c-0.9-0.2-2-0.4-3.1-0.8v-0.3c0.2,0,0.5-0.1,1-0.4c0.4-0.3,0.9-0.6,1.3-0.9l-1.4-0.6l0.1-0.3l1.7,0.7l0.5-1.1l-1.4-0.6l0.1-0.3
		l1.4,0.6l0.4-0.9l0.3,0.1l-0.4,0.9l1.4,0.6l-0.1,0.3l-1.4-0.6L24,55.2l1.7,0.7L25.6,56.2z M22.5,52.8l-0.3,0.1
		c-0.2-0.4-0.4-0.8-0.7-1.1l0.3-0.1C22.1,52.1,22.4,52.4,22.5,52.8z"/>
	<path class="st1" d="M32.2,56.3l-0.3,0l0.1-0.9l-4.4-0.5l-0.1,0.9l-0.3,0l0.1-1.2l2.4,0.3c0-0.2-0.1-0.4-0.2-0.6l0.4,0
		c0.1,0.2,0.2,0.4,0.2,0.7l2.3,0.3L32.2,56.3z M31.4,59.3l-3.7-0.4l0,0.3l-0.3,0l0.4-3.7l3.8,0.4l-0.2,1.4L28,56.8l-0.1,0.6l3.7,0.4
		L31.4,59.3z M31.1,58.9l0.1-0.9l-3.4-0.4l-0.1,0.9L31.1,58.9z M31.1,56.8l0.1-0.8l-3.1-0.4L28,56.5L31.1,56.8z"/>
	<path class="st1" d="M39,57.2l-0.3,0l-0.1-0.7L34,57l0.1,0.8l-0.3,0l-0.1-1l0.3,0l-0.3-2.1c0.4-0.1,0.8-0.2,1.1-0.4l0.2,0.2
		c-0.3,0.2-0.6,0.3-1,0.4l0.1,0.4l1-0.1l0,0.3l-1,0.1l0.1,0.5l1-0.1l0,0.3l-1,0.1l0.1,0.5l3.9-0.5l-0.1-0.5l-1,0.1l0-0.3l1-0.1
		L38,55l-1,0.1l0-0.3l1-0.1l0-0.4l-1.1,0.1l0-0.3l1.4-0.2l0.2,2.2l0.4,0L39,57.2z M39.2,57.9l-2.6,0.3l0.1,0.6c0,0.1,0,0.2-0.1,0.3
		c-0.1,0.1-0.2,0.1-0.3,0.1l-0.8,0.1l-0.1-0.3c0.1,0,0.2,0,0.4,0c0.3,0,0.5-0.1,0.5-0.1s0.1-0.1,0.1-0.2l-0.1-0.5l-2.6,0.3l0-0.3
		l2.6-0.3l0-0.2c0.4-0.2,0.7-0.4,1-0.5l-2.5,0.3l0-0.3l3.2-0.4l0,0.3c-0.4,0.3-0.8,0.5-1.3,0.8l0,0.1l2.6-0.3L39.2,57.9z M36.9,54.9
		l-0.2,0.2c-0.2-0.1-0.4-0.2-0.6-0.3c-0.2,0.2-0.4,0.3-0.7,0.5L35.3,55c0.2-0.1,0.4-0.2,0.6-0.4c-0.2-0.1-0.3-0.2-0.5-0.3l0.2-0.2
		c0.3,0.1,0.4,0.2,0.5,0.3c0.2-0.2,0.3-0.3,0.4-0.5l0.3,0.1c-0.1,0.1-0.2,0.3-0.4,0.5C36.4,54.6,36.6,54.7,36.9,54.9z M37,56
		l-0.2,0.2c-0.1,0-0.3-0.2-0.6-0.4c-0.3,0.2-0.5,0.4-0.7,0.5l-0.2-0.2c0.1-0.1,0.3-0.2,0.6-0.4c-0.1-0.1-0.2-0.1-0.3-0.2
		c-0.1-0.1-0.2-0.1-0.3-0.1l0.2-0.2c0.3,0.2,0.5,0.3,0.6,0.3c0.2-0.2,0.3-0.3,0.4-0.4l0.3,0.1c0,0.1-0.2,0.2-0.4,0.4
		C36.5,55.7,36.7,55.8,37,56z"/>
	<path class="st1" d="M41.2,54.8c0.5,0.3,0.8,0.6,1,1.1c0.1,0.2,0.1,0.3,0,0.5c0,0.1-0.2,0.3-0.5,0.4c-0.1,0-0.1,0.1-0.2,0.1
		l-0.2-0.2l0.3-0.1c0.2-0.1,0.3-0.1,0.3-0.2c0-0.1,0-0.1,0-0.2c-0.2-0.4-0.5-0.8-1-1c0-0.4-0.1-0.9-0.1-1.5l-0.9,0.4l1.9,4.4
		l-0.3,0.1l-2-4.7l1.5-0.6l0.1,0.3C41.1,53.8,41.1,54.3,41.2,54.8z M44.9,53.1l-0.3,0.1l-0.4-0.8l-2.5,1.1l0.4,0.8l-0.3,0.1
		l-0.5-1.1l1.4-0.6c-0.1-0.1-0.2-0.3-0.4-0.4l0.3-0.2c0.2,0.1,0.3,0.3,0.5,0.5l1.4-0.6L44.9,53.1z M45.9,55.1
		c0.1,0.3,0.2,0.5,0.2,0.7s0,0.3-0.1,0.4c-0.1,0.1-0.2,0.2-0.5,0.3c-0.3,0.1-0.5,0.1-0.6-0.1l-0.7-1.7L43.5,55
		c0.2,0.6,0.3,1.2,0.2,1.5s-0.3,0.8-0.7,1.2l-0.3-0.1c0.4-0.3,0.6-0.7,0.7-1.1s0-0.8-0.2-1.3l-0.9,0.4l-0.1-0.3l3.1-1.3l0.1,0.3
		l-0.9,0.4l0.7,1.6c0,0,0,0.1,0.1,0.1c0,0,0.1,0,0.3-0.1c0.1-0.1,0.2-0.1,0.2-0.1c0,0,0.1-0.1,0.1-0.1c0,0,0-0.1-0.1-0.3
		s-0.1-0.3-0.2-0.5L45.9,55.1z M44.4,53.4l-2,0.9L42.3,54l2-0.9L44.4,53.4z"/>
</g>
<g>
	<path class="st4" d="M13.8,14.8c0.9,0.7,1.1,1.3,0.7,1.9C14.3,16.9,14,17,13.7,17l-0.2-0.7c0.2,0.1,0.4,0,0.5-0.1
		c0.1-0.1,0.1-0.2,0-0.3c-0.1-0.1-0.3-0.4-0.7-0.7L11,13.4l0.4-0.5L13.8,14.8z"/>
	<path class="st4" d="M12.1,12l0.4-0.4l1.8,1.9c0.7,0.7,1.2,0.9,1.6,0.6c0.4-0.3,0.2-0.9-0.5-1.6l-1.8-1.9l0.4-0.4l1.9,2
		c0.9,1,1.1,1.8,0.4,2.4C15.8,15.1,15,15,14.1,14L12.1,12z"/>
	<path class="st4" d="M15.1,9.3l0.8-0.6c0.4-0.3,0.9-0.4,1.4-0.2s1,0.5,1.4,1.1s0.6,1.1,0.6,1.6s-0.2,1-0.6,1.3l-0.8,0.6L15.1,9.3z
		 M17.9,12.1l0.2-0.1c0.7-0.5,0.7-1.2,0.1-2.1c-0.6-0.9-1.3-1.1-2-0.5L16,9.5L17.9,12.1z"/>
	<path class="st4" d="M22.3,7.4l0.1,0.1c0.3,0.7,0.5,1.3,0.4,1.8c-0.1,0.5-0.3,0.9-0.8,1.2c-0.4,0.2-0.9,0.2-1.4,0
		c-0.5-0.3-0.9-0.7-1.2-1.3c-0.3-0.6-0.5-1.2-0.4-1.8c0.1-0.6,0.4-1,0.8-1.2c0.6-0.3,1.2-0.2,1.8,0.3L21.2,7
		c-0.4-0.4-0.8-0.5-1.2-0.3c-0.3,0.2-0.4,0.4-0.5,0.8c0,0.4,0.1,0.8,0.3,1.3s0.5,0.8,0.9,1c0.3,0.2,0.7,0.2,1,0.1
		c0.3-0.1,0.4-0.4,0.4-0.7c0-0.3,0-0.6-0.2-0.9l-0.8,0.4l-0.3-0.6L22.3,7.4z"/>
	<path class="st4" d="M23.1,5.5l0.4,1.1l1.2-0.4l0.2,0.6l-1.2,0.4l0.5,1.4l1.2-0.4l0.2,0.6l-1.8,0.7l-1.6-4.4L24,4.5l0.2,0.6
		L23.1,5.5z"/>
	<path class="st4" d="M27.1,4.6c-0.2-0.2-0.4-0.3-0.7-0.3c-0.1,0-0.3,0.1-0.3,0.3c-0.1,0.1-0.1,0.3,0,0.5s0.3,0.4,0.7,0.5
		c0.4,0.2,0.7,0.3,0.7,0.3c0.3,0.2,0.5,0.4,0.6,0.8c0.1,0.5,0.1,0.9,0,1.2c-0.1,0.3-0.4,0.6-0.8,0.6c-0.5,0.1-0.9-0.1-1.3-0.6
		l0.3-0.6c0.1,0.2,0.2,0.3,0.4,0.4c0.2,0.1,0.3,0.1,0.5,0.1c0.2,0,0.3-0.2,0.4-0.3s0.1-0.4,0-0.6c0-0.2-0.1-0.3-0.2-0.4
		c-0.1-0.1-0.4-0.2-0.9-0.4s-0.8-0.4-0.9-0.9c-0.1-0.4-0.1-0.7,0.1-1c0.1-0.3,0.4-0.5,0.6-0.6c0.4-0.1,0.8,0,1.1,0.3L27.1,4.6z"/>
	<path class="st4" d="M31.6,6.7l-0.3,1.1l-0.7,0L32,3l0.6,0L34,7.7l-0.7,0l-0.3-1L31.6,6.7z M32.2,4.1l-0.5,2l1.1,0L32.2,4.1z"/>
	<path class="st4" d="M37.2,4.5C37,4.2,36.8,4,36.4,3.9c-0.3,0-0.6,0.1-0.9,0.4c-0.3,0.3-0.4,0.7-0.5,1.2c0,0.4,0,0.8,0.2,1.2
		s0.4,0.6,0.8,0.6c0.3,0,0.6-0.1,0.9-0.4l-0.1,1c-0.3,0.1-0.6,0.2-0.9,0.2C35.4,8,35,7.7,34.7,7.2s-0.4-1.1-0.3-1.8
		c0.1-0.7,0.3-1.2,0.7-1.7c0.4-0.4,0.9-0.6,1.4-0.6c0.3,0,0.5,0.2,0.8,0.4L37.2,4.5z"/>
	<path class="st4" d="M38.3,7.3l-0.6,0.9l-0.6-0.2l2.6-4.3l0.5,0.1l0.2,5l-0.6-0.2l0-1.1L38.3,7.3z M39.6,5l-1,1.8L39.7,7L39.6,5z"
		/>
	<path class="st4" d="M42.5,4.8l0.9,0.4c0.5,0.2,0.8,0.6,0.9,1.1c0.1,0.5,0.1,1.1-0.2,1.7c-0.3,0.6-0.6,1.1-1.1,1.4
		c-0.5,0.3-1,0.3-1.4,0.1l-0.9-0.4L42.5,4.8z M41.6,8.7l0.2,0.1c0.8,0.3,1.4,0,1.8-1c0.4-1,0.2-1.7-0.6-2l-0.2-0.1L41.6,8.7z"/>
	<path class="st4" d="M46.2,7.2l-0.6,1.1l1.1,0.6l-0.3,0.6l-1.1-0.6l-0.7,1.3l1.1,0.6l-0.3,0.6l-1.7-0.9L46,6.3l1.7,0.9l-0.3,0.6
		L46.2,7.2z"/>
	<path class="st4" d="M50,10.8l-2.7,2l-0.1-0.1l1.3-3.1l-2.3,2.2l-0.5-0.4l3.4-3.4l0.4,0.3l-1.2,3.1l2.7-2l0.4,0.3l-2.5,4.1
		l-0.5-0.4L50,10.8z"/>
	<path class="st4" d="M52.3,10.8l0.5,0.5l-0.8,1.7l1.8-0.6l0.5,0.5l-2.7,0.9l-1.5,1.5l-0.4-0.5l1.5-1.5L52.3,10.8z"/>
</g>
<path class="st5" d="M3.2,42.1"/>
</svg>
