<?xml version="1.0" encoding="utf-8"?>
<!-- Generator: Adobe Illustrator 24.0.2, SVG Export Plug-In . SVG Version: 6.00 Build 0)  -->
<svg version="1.1" id="圖層_1" xmlns="http://www.w3.org/2000/svg" xmlns:xlink="http://www.w3.org/1999/xlink" x="0px" y="0px"
	 viewBox="0 0 270.8 64" style="enable-background:new 0 0 270.8 64;" xml:space="preserve">
<style type="text/css">
	.st0{fill:#333333;}
	.st1{fill:#FFFFFF;}
	.st2{fill:url(#SVGID_1_);}
	.st3{fill:#005BAB;}
	.st4{fill:none;stroke:#FFFFFF;stroke-width:0.25;stroke-miterlimit:10;}
	.st5{fill:#B7A246;}
</style>
<g>
	<path class="st0" d="M91.7,15.2v1.5h-9.4v1h7.6V19H72.6v-1.4H80v-1h-9.2v-1.5H80v-1.3h2.3v1.3H91.7z M82.3,33.8h9.4v1.6H70.8v-1.6
		H80v-1.1h-6.9v-1.4H80v-1c-4.4,0.1-5.1,0.2-5.6,0.3c-0.1-0.3-0.3-1.1-0.5-1.5c0.4,0,0.8-0.1,1.3-0.3c0.3-0.1,1.2-0.5,2-1h-3.7v-1.3
		h15.2v1.3h-2.3c1.2,0.7,2.3,1.5,3.1,2.1l-1.3,1.1c-0.3-0.3-0.7-0.6-1.2-1l-4.7,0.1v1h7.2v1.4h-7.2V33.8z M71.2,24.3h20.2v3.5h-2.1
		v-2H73.2v2h-2V24.3z M89,19.9v3.5H73.6v-3.5H89z M86.8,21.1H75.7v1.2h11.1V21.1z M79.8,27.9c-0.7,0.5-1.4,0.8-2.1,1.2l7.6-0.1
		c-0.5-0.3-1.1-0.6-1.6-0.9l0.2-0.1H79.8z"/>
	<path class="st0" d="M105.6,29.6l0.4,2c-3.4,1.4-7.1,3-9.9,4.1l-1-2.3c1.7-0.6,4.1-1.4,6.6-2.3v-9.1h-5.8v-2.2h5.8v-5.4h2.3v15.9
		L105.6,29.6z M113.5,32.8c1,0,1.1-1.1,1.3-5.6c0.6,0.5,1.5,0.9,2.1,1.1c-0.2,4.9-0.7,6.7-3.2,6.7h-3c-2.3,0-3-0.8-3-3.6V14.3h2.3
		v5.4h6.5v2.2h-6.5v9.5c0,1.2,0.1,1.4,1,1.4H113.5z"/>
	<path class="st0" d="M141.7,16.3v1.9h-20.9v-1.9h9.5c-0.2-0.6-0.5-1.4-0.7-2l2.3-0.5c0.3,0.8,0.7,1.7,0.9,2.5H141.7z M141,33.7
		c0,1.1-0.3,1.5-1,1.8c-0.7,0.3-1.8,0.3-3.5,0.3c-0.1-0.5-0.4-1.2-0.7-1.7c1,0,2.2,0,2.5,0c0.3,0,0.4-0.1,0.4-0.4v-6.5h-15.1v8.7
		h-2.2V25.4H141V33.7z M138.6,19.3v4.9h-14.4v-4.9H138.6z M128.1,33.5v1.1H126v-6.2h10.2v5.1H128.1z M136.2,20.9h-9.8v1.8h9.8V20.9z
		 M128.1,30v1.8h6.1V30H128.1z"/>
	<path class="st0" d="M149.1,17.4c-0.7,1.1-1.5,2-2.3,2.8c-0.3-0.4-1.1-1.2-1.5-1.5c1.5-1.2,2.9-3.1,3.6-4.9l2,0.6
		c-0.2,0.4-0.4,0.8-0.6,1.2h5.8v1.9h-4c0.7,0.6,1.5,1.3,1.9,1.9l-1.4,1.3c-0.5-0.6-1.6-1.7-2.4-2.4l0.8-0.7H149.1z M162.2,28.3h4.6
		v1.8h-4.6v3.6c0,1.1-0.3,1.7-1.2,1.9c-0.9,0.3-2.3,0.3-4.3,0.3c-0.1-0.6-0.4-1.3-0.6-1.8c1.4,0.1,2.9,0,3.3,0
		c0.4,0,0.5-0.1,0.5-0.5v-3.5h-8.6c1.3,1,3,2.5,3.8,3.4l-1.7,1.3c-0.8-0.9-2.5-2.5-3.8-3.6l1.5-1.1h-5.4v-1.8h14.2v-1.5h2.3V28.3z
		 M167.2,15.5v1.9h-4.8c0.7,0.7,1.5,1.5,1.9,2.1l-1.5,1.3c-0.4-0.7-1.4-1.8-2.2-2.6l1-0.8h-2.1c-0.6,1.1-1.3,2.1-2,2.9l-0.1-0.1v0.7
		h8.6v1.9h-8.6v1.8h7.2v1.8h-16.8v-1.8h7.3v-1.8h-8.5v-1.9h8.5v-1.3h1.5c-0.3-0.2-0.6-0.5-0.8-0.6c1.3-1.3,2.4-3.3,3-5.3l2,0.5
		c-0.1,0.5-0.3,0.9-0.5,1.3H167.2z"/>
	<path class="st0" d="M178.7,19.8c-0.7,1.2-1.6,2.5-2.6,3.7v12.5h-2.2v-10c-0.8,0.8-1.6,1.5-2.4,2.2c-0.3-0.5-1.1-1.5-1.5-1.9
		c2.4-1.8,5-4.5,6.6-7.2L178.7,19.8z M177.7,14.7c-1.6,2.1-4.1,4.5-6.3,6.1c-0.3-0.5-0.9-1.4-1.3-1.8c2-1.3,4.3-3.4,5.5-5.2
		L177.7,14.7z M192.1,23.9h-3.5v9.2c0,1.3-0.3,1.9-1.2,2.3c-0.9,0.3-2.3,0.4-4.5,0.4c-0.1-0.6-0.4-1.6-0.7-2.2c1.5,0,3.1,0,3.6,0
		c0.5,0,0.6-0.1,0.6-0.5v-9.2h-7.6v-2.1h13.3V23.9z M191.5,17.4h-11.6v-2.1h11.6V17.4z"/>
	<path class="st0" d="M215.7,20.3c-0.6,3.8-1.5,7-3,9.5c1.2,1.8,2.8,3.2,4.8,4.1c-0.5,0.5-1.2,1.3-1.5,1.9c-1.9-1-3.4-2.4-4.6-4
		c-1.3,1.7-3,3-5.2,4.1c-0.2-0.5-0.9-1.5-1.3-2c2.2-1,3.9-2.4,5.2-4.2c-1-1.8-1.7-3.8-2.2-6c-0.4,0.7-0.8,1.3-1.2,1.9
		c-0.3-0.3-0.9-0.8-1.3-1.2h-2.7V30l3.8-0.8l0.2,2c-3.9,0.9-8.1,1.9-11.1,2.6l-0.4-2.2l1.3-0.3V20.8h2v10l2-0.4V17.6h-4.9v-2.2h10.9
		v2.2h-3.8v4.8h3v0.7c1.6-2.4,2.6-5.7,3.2-9.2l2.2,0.4c-0.3,1.4-0.6,2.7-1,4h7.2v2.1H215.7z M209.3,20.7c0.5,2.5,1.2,4.8,2.2,6.9
		c1-2,1.6-4.4,2-7.3h-4.1L209.3,20.7z"/>
	<path class="st0" d="M224.8,24.8c-0.9-0.8-2.9-1.9-4.4-2.6l1.2-1.7c1.5,0.6,3.5,1.6,4.5,2.4L224.8,24.8z M221.1,34.1
		c1.3-1.8,3.1-4.9,4.5-7.6l1.6,1.5c-1.2,2.5-2.8,5.4-4.2,7.6L221.1,34.1z M222.9,14.1c1.5,0.6,3.5,1.7,4.5,2.4l-1.3,1.8
		c-0.9-0.8-2.9-2-4.5-2.7L222.9,14.1z M240,35.9c-0.2-0.6-0.5-1.4-1-2.3c-8.5,1-9.6,1.2-10.3,1.6c-0.1-0.5-0.5-1.6-0.8-2.2
		c0.5-0.1,1-0.7,1.5-1.6c0.5-0.7,1.9-3,3-5.5h-4.9v-2.1h5.9v-3.9h-4.9v-2.1h4.9v-3.9h2.3v3.9h5.1v2.1h-5.1v3.9h6v2.1h-6.6
		c-1.1,2.4-2.5,4.7-3.8,6.6l6.7-0.7c-0.6-1-1.2-1.9-1.9-2.8l1.8-0.9c1.7,2.1,3.4,4.9,4.1,6.8L240,35.9z"/>
	<path class="st0" d="M253.3,15.6c-0.7,2-1.5,4.3-2.2,6.2c1.6,2,1.9,3.7,1.9,5.1c0,1.4-0.3,2.4-1,2.9c-0.4,0.3-0.8,0.4-1.3,0.5
		c-0.4,0-1,0-1.6,0c0-0.6-0.2-1.4-0.5-1.9c0.5,0,0.9,0,1.2,0c0.3,0,0.5-0.1,0.7-0.2c0.3-0.3,0.5-0.9,0.5-1.6c0-1.2-0.4-2.8-2-4.6
		c0.6-1.6,1.2-3.6,1.7-5.2h-2.6v19h-2v-21h5.4l0.3-0.1L253.3,15.6z M265,33.7c0.5,0,0.6-0.4,0.6-3c0.5,0.4,1.3,0.7,1.9,0.8
		c-0.2,3.2-0.7,4-2.2,4h-1.9c-1.8,0-2.3-0.6-2.3-2.6v-5.7h-2.1c-0.4,4.2-1.5,7-6.1,8.6c-0.2-0.6-0.8-1.4-1.3-1.8
		c4-1.3,4.9-3.4,5.2-6.8h-3.1v-2h13.5v2h-4v5.6c0,0.6,0.1,0.7,0.5,0.7H265z M255.5,21.2h-1.9v-4.4h5.8c-0.3-0.8-0.7-1.8-1.1-2.5
		l2.1-0.6c0.6,1,1.2,2.2,1.5,3.1h5.2v4.4h-1.9V23h-9.7V21.2z M255.7,18.7V21h9.3v-2.4H255.7z"/>
</g>
<g>
	<path class="st0" d="M71.8,44.2v-0.9h4.8v0.9h-1.9v7.8h-0.9v-7.8H71.8z"/>
	<path class="st0" d="M84.4,45.6v6.4h-0.8V51c-0.3,0.4-0.7,0.7-1.2,1c-0.4,0.2-0.9,0.3-1.4,0.3c-0.9,0-1.7-0.3-2.3-1
		c-0.6-0.7-1-1.5-1-2.4c0-0.9,0.3-1.7,1-2.4c0.6-0.7,1.4-1,2.3-1c0.5,0,1,0.1,1.4,0.3c0.4,0.2,0.8,0.6,1.1,1v-1.2H84.4z M81.1,46.3
		c-0.5,0-0.9,0.1-1.3,0.3c-0.4,0.2-0.7,0.5-0.9,1s-0.3,0.8-0.3,1.3c0,0.5,0.1,0.9,0.3,1.3s0.5,0.7,0.9,1c0.4,0.2,0.8,0.3,1.3,0.3
		c0.5,0,0.9-0.1,1.3-0.3c0.4-0.2,0.7-0.5,0.9-0.9s0.3-0.8,0.3-1.3c0-0.7-0.2-1.4-0.7-1.9C82.4,46.5,81.8,46.3,81.1,46.3z"/>
	<path class="st0" d="M86.9,43c0.2,0,0.3,0.1,0.5,0.2c0.1,0.1,0.2,0.3,0.2,0.5c0,0.2-0.1,0.3-0.2,0.5c-0.1,0.1-0.3,0.2-0.5,0.2
		c-0.2,0-0.3-0.1-0.5-0.2c-0.1-0.1-0.2-0.3-0.2-0.5c0-0.2,0.1-0.4,0.2-0.5C86.5,43.1,86.7,43,86.9,43z M86.4,45.6h0.8v6.4h-0.8V45.6
		z"/>
	<path class="st0" d="M89.3,45.6h0.8v1.2c0.3-0.4,0.7-0.8,1.1-1s0.9-0.3,1.4-0.3c0.9,0,1.7,0.3,2.3,1c0.6,0.7,1,1.4,1,2.4
		c0,0.9-0.3,1.7-1,2.4c-0.6,0.7-1.4,1-2.3,1c-0.5,0-1-0.1-1.4-0.3c-0.4-0.2-0.8-0.5-1.2-1v3.5h-0.8V45.6z M92.6,46.3
		c-0.7,0-1.3,0.2-1.8,0.8c-0.5,0.5-0.7,1.1-0.7,1.9c0,0.5,0.1,0.9,0.3,1.3c0.2,0.4,0.5,0.7,0.9,0.9c0.4,0.2,0.8,0.3,1.3,0.3
		c0.4,0,0.9-0.1,1.3-0.3c0.4-0.2,0.7-0.6,0.9-1c0.2-0.4,0.3-0.8,0.3-1.3c0-0.5-0.1-0.9-0.3-1.3c-0.2-0.4-0.5-0.7-0.9-1
		C93.5,46.4,93.1,46.3,92.6,46.3z"/>
	<path class="st0" d="M103.3,49.9l0.7,0.4c-0.2,0.4-0.5,0.8-0.8,1.1c-0.3,0.3-0.6,0.5-1,0.6c-0.4,0.1-0.8,0.2-1.3,0.2
		c-1,0-1.9-0.3-2.5-1c-0.6-0.7-0.9-1.5-0.9-2.3c0-0.8,0.2-1.5,0.8-2.2c0.6-0.8,1.5-1.2,2.5-1.2c1.1,0,2,0.4,2.6,1.2
		c0.5,0.6,0.7,1.3,0.7,2.2h-5.8c0,0.7,0.3,1.4,0.7,1.8c0.5,0.5,1,0.7,1.7,0.7c0.3,0,0.6-0.1,1-0.2c0.3-0.1,0.6-0.3,0.8-0.5
		C102.8,50.7,103,50.4,103.3,49.9z M103.3,48.2c-0.1-0.4-0.3-0.8-0.5-1.1c-0.2-0.3-0.5-0.5-0.8-0.6c-0.3-0.2-0.7-0.2-1.1-0.2
		c-0.6,0-1.2,0.2-1.6,0.6c-0.3,0.3-0.6,0.7-0.8,1.3H103.3z"/>
	<path class="st0" d="M106.3,43c0.2,0,0.3,0.1,0.5,0.2c0.1,0.1,0.2,0.3,0.2,0.5c0,0.2-0.1,0.3-0.2,0.5c-0.1,0.1-0.3,0.2-0.5,0.2
		c-0.2,0-0.3-0.1-0.5-0.2c-0.1-0.1-0.2-0.3-0.2-0.5c0-0.2,0.1-0.4,0.2-0.5C106,43.1,106.1,43,106.3,43z M105.9,45.6h0.8v6.4h-0.8
		V45.6z"/>
	<path class="st0" d="M112.5,43.4h0.9V47h4.4v-3.6h0.9v8.7h-0.9v-4.2h-4.4v4.2h-0.9V43.4z"/>
	<path class="st0" d="M121.2,43c0.2,0,0.3,0.1,0.5,0.2c0.1,0.1,0.2,0.3,0.2,0.5c0,0.2-0.1,0.3-0.2,0.5c-0.1,0.1-0.3,0.2-0.5,0.2
		c-0.2,0-0.3-0.1-0.5-0.2c-0.1-0.1-0.2-0.3-0.2-0.5c0-0.2,0.1-0.4,0.2-0.5C120.9,43.1,121.1,43,121.2,43z M120.8,45.6h0.8v6.4h-0.8
		V45.6z"/>
	<path class="st0" d="M129.2,45.6h0.8v5.1c0,0.9-0.1,1.6-0.2,2c-0.2,0.6-0.6,1-1.1,1.4c-0.5,0.3-1.2,0.5-1.9,0.5
		c-0.6,0-1-0.1-1.5-0.2c-0.4-0.2-0.8-0.4-1.1-0.6s-0.5-0.6-0.8-1.2h0.9c0.2,0.4,0.6,0.7,0.9,0.9c0.4,0.2,0.9,0.3,1.4,0.3
		c0.6,0,1-0.1,1.4-0.3s0.7-0.5,0.8-0.8c0.2-0.3,0.2-0.8,0.2-1.5v-0.3c-0.3,0.4-0.7,0.7-1.1,0.9c-0.4,0.2-0.9,0.3-1.4,0.3
		c-0.6,0-1.1-0.1-1.7-0.4c-0.5-0.3-0.9-0.7-1.2-1.2c-0.3-0.5-0.4-1-0.4-1.6s0.1-1.1,0.4-1.7c0.3-0.5,0.7-0.9,1.2-1.2
		c0.5-0.3,1.1-0.4,1.7-0.4c0.5,0,0.9,0.1,1.3,0.3s0.8,0.5,1.2,1V45.6z M126.8,46.3c-0.5,0-0.9,0.1-1.3,0.3s-0.7,0.5-0.9,0.9
		s-0.3,0.8-0.3,1.3c0,0.7,0.2,1.3,0.7,1.7s1.1,0.7,1.8,0.7c0.8,0,1.4-0.2,1.8-0.7s0.7-1.1,0.7-1.8c0-0.5-0.1-0.9-0.3-1.3
		c-0.2-0.4-0.5-0.7-0.9-0.9C127.7,46.4,127.2,46.3,126.8,46.3z"/>
	<path class="st0" d="M132.1,43.2h0.8v3.6c0.3-0.4,0.7-0.8,1.1-1c0.4-0.2,0.8-0.3,1.3-0.3c0.5,0,0.9,0.1,1.3,0.4s0.6,0.6,0.8,1
		c0.2,0.4,0.3,1.1,0.3,1.9v3.3h-0.8V49c0-0.7,0-1.2-0.1-1.5c-0.1-0.4-0.3-0.7-0.6-1c-0.3-0.2-0.6-0.3-1.1-0.3
		c-0.5,0-0.9,0.2-1.3,0.5c-0.4,0.3-0.7,0.7-0.8,1.2c-0.1,0.3-0.1,0.9-0.1,1.7v2.4h-0.8V43.2z"/>
	<path class="st0" d="M147.1,43.4l4.1,8.7h-0.9l-1.4-2.9h-3.7l-1.4,2.9h-1l4.1-8.7H147.1z M147,45.2l-1.5,3.1h3L147,45.2z"/>
	<path class="st0" d="M159.1,43.2v8.9h-0.8V51c-0.3,0.4-0.7,0.7-1.2,1c-0.4,0.2-0.9,0.3-1.4,0.3c-0.9,0-1.7-0.3-2.3-1
		c-0.6-0.7-1-1.5-1-2.4c0-0.9,0.3-1.7,1-2.4c0.6-0.7,1.4-1,2.3-1c0.5,0,1,0.1,1.4,0.3c0.4,0.2,0.8,0.6,1.1,1v-3.7H159.1z
		 M155.8,46.3c-0.5,0-0.9,0.1-1.3,0.3c-0.4,0.2-0.7,0.5-0.9,1s-0.3,0.8-0.3,1.3c0,0.5,0.1,0.9,0.3,1.3s0.5,0.7,0.9,1
		c0.4,0.2,0.8,0.3,1.3,0.3c0.5,0,0.9-0.1,1.3-0.3c0.4-0.2,0.7-0.5,0.9-0.9c0.2-0.4,0.3-0.8,0.3-1.3c0-0.7-0.2-1.4-0.7-1.9
		C157.1,46.5,156.5,46.3,155.8,46.3z"/>
	<path class="st0" d="M161.3,45.6h0.8v1.1c0.3-0.4,0.6-0.7,0.9-0.9c0.4-0.3,0.9-0.4,1.3-0.4c0.3,0,0.6,0.1,0.9,0.2
		c0.3,0.1,0.5,0.3,0.7,0.5s0.3,0.5,0.5,0.9c0.3-0.5,0.6-0.9,1-1.1c0.4-0.3,0.9-0.4,1.3-0.4c0.4,0,0.8,0.1,1.2,0.3s0.6,0.5,0.8,0.9
		c0.2,0.4,0.2,1,0.2,1.8v3.5h-0.8v-3.5c0-0.7,0-1.2-0.1-1.4c-0.1-0.3-0.3-0.5-0.5-0.6c-0.2-0.2-0.5-0.2-0.9-0.2
		c-0.4,0-0.8,0.1-1.1,0.4c-0.3,0.2-0.6,0.6-0.7,0.9c-0.2,0.4-0.2,1.1-0.2,2v2.5h-0.8v-3.3c0-0.8,0-1.3-0.1-1.6
		c-0.1-0.3-0.3-0.5-0.5-0.7c-0.2-0.2-0.5-0.3-0.9-0.3c-0.4,0-0.7,0.1-1.1,0.3s-0.6,0.5-0.7,0.9c-0.2,0.4-0.2,1-0.2,1.8v2.7h-0.8
		V45.6z"/>
	<path class="st0" d="M173.2,43c0.2,0,0.3,0.1,0.5,0.2c0.1,0.1,0.2,0.3,0.2,0.5c0,0.2-0.1,0.3-0.2,0.5c-0.1,0.1-0.3,0.2-0.5,0.2
		c-0.2,0-0.3-0.1-0.5-0.2c-0.1-0.1-0.2-0.3-0.2-0.5c0-0.2,0.1-0.4,0.2-0.5C172.9,43.1,173.1,43,173.2,43z M172.8,45.6h0.8v6.4h-0.8
		V45.6z"/>
	<path class="st0" d="M175.7,45.6h0.8v1.2c0.3-0.4,0.7-0.8,1.1-1c0.4-0.2,0.8-0.3,1.3-0.3c0.5,0,0.9,0.1,1.3,0.4s0.6,0.6,0.8,1
		c0.2,0.4,0.3,1.1,0.3,1.9v3.3h-0.8V49c0-0.7,0-1.2-0.1-1.5c-0.1-0.4-0.3-0.7-0.6-1c-0.3-0.2-0.6-0.3-1.1-0.3
		c-0.5,0-0.9,0.2-1.3,0.5c-0.4,0.3-0.7,0.7-0.8,1.2c-0.1,0.3-0.1,0.9-0.1,1.7v2.4h-0.8V45.6z"/>
	<path class="st0" d="M183.7,43c0.2,0,0.3,0.1,0.5,0.2c0.1,0.1,0.2,0.3,0.2,0.5c0,0.2-0.1,0.3-0.2,0.5c-0.1,0.1-0.3,0.2-0.5,0.2
		c-0.2,0-0.3-0.1-0.5-0.2c-0.1-0.1-0.2-0.3-0.2-0.5c0-0.2,0.1-0.4,0.2-0.5C183.3,43.1,183.5,43,183.7,43z M183.2,45.6h0.8v6.4h-0.8
		V45.6z"/>
	<path class="st0" d="M189.3,46.3l-0.5,0.5c-0.4-0.4-0.9-0.6-1.3-0.6c-0.3,0-0.5,0.1-0.7,0.3c-0.2,0.2-0.3,0.4-0.3,0.6
		c0,0.2,0.1,0.4,0.2,0.6c0.2,0.2,0.5,0.4,1,0.7c0.6,0.3,1,0.6,1.3,0.9c0.2,0.3,0.3,0.6,0.3,1c0,0.5-0.2,1-0.6,1.3
		c-0.4,0.4-0.8,0.5-1.4,0.5c-0.4,0-0.7-0.1-1.1-0.2c-0.3-0.2-0.6-0.4-0.8-0.7l0.5-0.6c0.4,0.5,0.9,0.7,1.3,0.7
		c0.3,0,0.6-0.1,0.8-0.3c0.2-0.2,0.3-0.5,0.3-0.8c0-0.2-0.1-0.4-0.2-0.6c-0.2-0.2-0.5-0.4-1-0.7c-0.6-0.3-1-0.6-1.2-0.9
		c-0.2-0.3-0.3-0.6-0.3-1c0-0.5,0.2-0.9,0.5-1.2c0.3-0.3,0.8-0.5,1.3-0.5C188.1,45.5,188.7,45.8,189.3,46.3z"/>
	<path class="st0" d="M191.8,43.3h0.8v2.4h1.3v0.7h-1.3v5.7h-0.8v-5.7h-1.1v-0.7h1.1V43.3z"/>
	<path class="st0" d="M195.2,45.6h0.8v0.9c0.3-0.4,0.5-0.6,0.8-0.8c0.3-0.2,0.6-0.3,0.9-0.3c0.2,0,0.5,0.1,0.7,0.2l-0.4,0.7
		c-0.2-0.1-0.3-0.1-0.4-0.1c-0.3,0-0.5,0.1-0.8,0.3c-0.3,0.2-0.5,0.6-0.6,1.1c-0.1,0.4-0.2,1.1-0.2,2.2v2.2h-0.8V45.6z"/>
	<path class="st0" d="M205.8,45.6v6.4H205V51c-0.3,0.4-0.7,0.7-1.2,1c-0.4,0.2-0.9,0.3-1.4,0.3c-0.9,0-1.7-0.3-2.3-1
		c-0.6-0.7-1-1.5-1-2.4c0-0.9,0.3-1.7,1-2.4c0.6-0.7,1.4-1,2.3-1c0.5,0,1,0.1,1.4,0.3c0.4,0.2,0.8,0.6,1.1,1v-1.2H205.8z
		 M202.5,46.3c-0.5,0-0.9,0.1-1.3,0.3c-0.4,0.2-0.7,0.5-0.9,1s-0.3,0.8-0.3,1.3c0,0.5,0.1,0.9,0.3,1.3s0.5,0.7,0.9,1
		c0.4,0.2,0.8,0.3,1.3,0.3c0.5,0,0.9-0.1,1.3-0.3c0.4-0.2,0.7-0.5,0.9-0.9s0.3-0.8,0.3-1.3c0-0.7-0.2-1.4-0.7-1.9
		C203.9,46.5,203.2,46.3,202.5,46.3z"/>
	<path class="st0" d="M208.7,43.3h0.8v2.4h1.3v0.7h-1.3v5.7h-0.8v-5.7h-1.1v-0.7h1.1V43.3z"/>
	<path class="st0" d="M212.7,43c0.2,0,0.3,0.1,0.5,0.2c0.1,0.1,0.2,0.3,0.2,0.5c0,0.2-0.1,0.3-0.2,0.5c-0.1,0.1-0.3,0.2-0.5,0.2
		c-0.2,0-0.3-0.1-0.5-0.2c-0.1-0.1-0.2-0.3-0.2-0.5c0-0.2,0.1-0.4,0.2-0.5C212.3,43.1,212.5,43,212.7,43z M212.3,45.6h0.8v6.4h-0.8
		V45.6z"/>
	<path class="st0" d="M214.5,45.6h0.9l2.2,4.7l2.1-4.7h0.9l-2.9,6.4h-0.2L214.5,45.6z"/>
	<path class="st0" d="M227.6,49.9l0.7,0.4c-0.2,0.4-0.5,0.8-0.8,1.1c-0.3,0.3-0.6,0.5-1,0.6c-0.4,0.1-0.8,0.2-1.3,0.2
		c-1,0-1.9-0.3-2.5-1c-0.6-0.7-0.9-1.5-0.9-2.3c0-0.8,0.2-1.5,0.8-2.2c0.6-0.8,1.5-1.2,2.5-1.2c1.1,0,2,0.4,2.6,1.2
		c0.5,0.6,0.7,1.3,0.7,2.2h-5.8c0,0.7,0.3,1.4,0.7,1.8c0.5,0.5,1,0.7,1.7,0.7c0.3,0,0.6-0.1,1-0.2c0.3-0.1,0.6-0.3,0.8-0.5
		C227.1,50.7,227.3,50.4,227.6,49.9z M227.6,48.2c-0.1-0.4-0.3-0.8-0.5-1.1c-0.2-0.3-0.5-0.5-0.8-0.6c-0.3-0.2-0.7-0.2-1.1-0.2
		c-0.6,0-1.2,0.2-1.6,0.6c-0.3,0.3-0.6,0.7-0.8,1.3H227.6z"/>
	<path class="st0" d="M242.2,45l-0.7,0.5c-0.4-0.5-0.8-0.9-1.4-1.1c-0.5-0.3-1.1-0.4-1.7-0.4c-0.7,0-1.3,0.2-1.9,0.5
		c-0.6,0.3-1,0.8-1.4,1.3c-0.3,0.6-0.5,1.2-0.5,1.9c0,1.1,0.4,1.9,1.1,2.7c0.7,0.7,1.6,1.1,2.8,1.1c1.2,0,2.2-0.5,3.1-1.4l0.7,0.5
		c-0.4,0.6-1,1-1.6,1.3c-0.6,0.3-1.4,0.5-2.2,0.5c-1.5,0-2.7-0.5-3.6-1.5c-0.7-0.9-1.1-1.9-1.1-3.1c0-1.3,0.4-2.3,1.3-3.2
		c0.9-0.9,2-1.3,3.4-1.3c0.8,0,1.5,0.2,2.2,0.5C241.2,44,241.8,44.4,242.2,45z"/>
	<path class="st0" d="M247.1,45.5c1,0,1.8,0.4,2.5,1.1c0.6,0.7,0.9,1.4,0.9,2.3c0,0.9-0.3,1.7-0.9,2.4c-0.6,0.7-1.4,1-2.4,1
		c-1,0-1.8-0.3-2.4-1c-0.6-0.7-0.9-1.5-0.9-2.4c0-0.9,0.3-1.7,0.9-2.3C245.3,45.8,246.1,45.5,247.1,45.5z M247.1,46.3
		c-0.7,0-1.3,0.3-1.8,0.8c-0.5,0.5-0.7,1.1-0.7,1.8c0,0.5,0.1,0.9,0.3,1.3c0.2,0.4,0.5,0.7,0.9,0.9c0.4,0.2,0.8,0.3,1.3,0.3
		c0.5,0,0.9-0.1,1.3-0.3c0.4-0.2,0.7-0.5,0.9-0.9c0.2-0.4,0.3-0.8,0.3-1.3c0-0.7-0.2-1.3-0.7-1.8C248.4,46.5,247.8,46.3,247.1,46.3z
		"/>
	<path class="st0" d="M252.2,45.6h0.8v3c0,0.7,0,1.2,0.1,1.5c0.1,0.4,0.3,0.7,0.7,0.9s0.7,0.3,1.2,0.3c0.5,0,0.9-0.1,1.2-0.3
		c0.3-0.2,0.5-0.5,0.7-0.9c0.1-0.2,0.1-0.8,0.1-1.6v-3h0.8v3.2c0,0.9-0.1,1.6-0.3,2c-0.2,0.4-0.5,0.8-0.9,1.1
		c-0.4,0.3-0.9,0.4-1.6,0.4c-0.6,0-1.1-0.1-1.6-0.4c-0.4-0.3-0.7-0.6-0.9-1.1c-0.2-0.5-0.3-1.1-0.3-2.1V45.6z"/>
	<path class="st0" d="M259.7,45.6h0.8v0.9c0.3-0.4,0.5-0.6,0.8-0.8c0.3-0.2,0.6-0.3,0.9-0.3c0.2,0,0.5,0.1,0.7,0.2l-0.4,0.7
		c-0.2-0.1-0.3-0.1-0.4-0.1c-0.3,0-0.5,0.1-0.8,0.3c-0.3,0.2-0.5,0.6-0.6,1.1c-0.1,0.4-0.2,1.1-0.2,2.2v2.2h-0.8V45.6z"/>
	<path class="st0" d="M264.6,43.3h0.8v2.4h1.3v0.7h-1.3v5.7h-0.8v-5.7h-1.1v-0.7h1.1V43.3z"/>
</g>
<g>
	<circle class="st1" cx="32.6" cy="31.4" r="30.3"/>
</g>
<linearGradient id="SVGID_1_" gradientUnits="userSpaceOnUse" x1="32.6453" y1="60.7748" x2="32.6453" y2="37.519">
	<stop  offset="0.6854" style="stop-color:#B7A246"/>
	<stop  offset="1" style="stop-color:#FFFFFF"/>
</linearGradient>
<path class="st2" d="M61.5,37.8c-3,13-14.9,23-28.8,23c-13.9,0-25.9-10.2-28.9-23.3h7.4c2.8,9,11.5,16.1,21.5,16.1
	c10,0,18.6-6.8,21.4-15.8H61.5z"/>
<g>
	<path class="st3" d="M53.6,31.3c0,11.6-9.4,21-21,21s-21-9.4-21-21c0-11.6,9.4-21,21-21S53.6,19.7,53.6,31.3z"/>
</g>
<g>
	<path class="st1" d="M34.3,33.8h-0.5H31V42c0,0.9,0.8,1.7,1.7,1.7c0.9,0,1.6-0.8,1.6-1.7L34.3,33.8z"/>
	<path class="st1" d="M35.6,44h-5.8c-0.4,0-0.8,0.3-0.8,0.6v0.8c0,0.4,0.3,0.7,0.8,0.7h5.8c0.4,0,0.8-0.3,0.8-0.7v-0.8
		C36.3,44.3,36,44,35.6,44z"/>
	<path class="st1" d="M36.7,46.9h-8c-0.6,0-1,0.3-1,0.7v0.8c0,0.4,0.4,0.7,1,0.7h8c0.6,0,1-0.3,1-0.7v-0.8
		C37.6,47.2,37.2,46.9,36.7,46.9z"/>
	<path class="st1" d="M48.9,23.3c0-0.3-0.2-0.5-0.4-0.6c-0.4-0.3-1-0.2-1.4,0.1c-1.1,1.1-2.7,1.7-4.4,1.7c-1.7,0-3.2-0.6-4.3-1.6
		c-1.5-1.3-3.5-2.1-5.7-2.1c-2.1,0-4.1,0.7-5.5,1.9l0,0l-0.2,0.2l0,0c-1.1,1.1-2.7,1.7-4.4,1.7c-1.7,0-3.3-0.6-4.4-1.7
		c-0.2-0.2-0.4-0.3-0.7-0.3c-0.2,0-0.5,0-0.7,0.2c-0.2,0.2-0.4,0.4-0.4,0.6l0,0v0.1c0,0.2,0.1,0.4,0.3,0.6c1.5,1.4,3.6,2.3,5.9,2.3
		c2.1,0,4-0.7,5.5-1.9l0,0c0,0,0,0,0,0c0,0,0.1-0.1,0.1-0.1c1.1-1.1,2.7-1.7,4.4-1.7c1.7,0,3.2,0.6,4.3,1.6c1.4,1.3,3.5,2.1,5.7,2.1
		c2.3,0,4.4-0.8,5.9-2.3C48.8,23.8,48.9,23.6,48.9,23.3C48.9,23.3,48.9,23.3,48.9,23.3z M48.9,23.3C48.9,23.3,48.9,23.3,48.9,23.3
		C48.9,23.3,48.9,23.3,48.9,23.3L48.9,23.3z"/>
	<path class="st1" d="M36.1,17c0,1.9-1.5,3.5-3.5,3.5c-1.9,0-3.4-1.5-3.4-3.5c0-1.9,1.5-3.5,3.4-3.5C34.6,13.6,36.1,15.1,36.1,17z"
		/>
	<path class="st1" d="M27.6,38.4l-5.3-12C22.2,26.2,22,26,21.7,26c-0.2,0-0.4,0.1-0.5,0.4v0l-5.3,12c-0.1,0.2-0.1,0.4,0,0.6
		c1,1.9,3.3,3.2,5.8,3.2c2.5,0,4.8-1.2,5.8-3.2C27.6,38.8,27.7,38.6,27.6,38.4z M21.7,28.1c0.3,0.7,4.3,9.8,4.6,10.4h-9.2
		c0.2-0.5,3.1-7,3.1-7S21.5,28.8,21.7,28.1z"/>
	<path class="st1" d="M49.5,38.4l-5.3-12c-0.1-0.2-0.3-0.3-0.5-0.3c-0.2,0-0.4,0.1-0.5,0.4v0l-5.3,12c-0.1,0.2-0.1,0.4,0,0.6
		c1,1.9,3.3,3.2,5.8,3.2c2.5,0,4.8-1.2,5.8-3.2C49.6,38.8,49.6,38.6,49.5,38.4z M43.7,28.1c0.3,0.7,4.3,9.8,4.6,10.4h-9.2
		c0.2-0.4,2-4.5,2-4.5S43.4,28.8,43.7,28.1z"/>
	<path class="st1" d="M38.3,25.4c-1,0-0.9,0.9-0.9,0.9h-1.2v-0.5h-7v0.5H28c0,0,0.1-0.9-0.9-0.9c0,0-0.8,0-0.8,1v4.4
		c0,1.1,0.8,1,0.8,1c1,0,0.9-0.9,0.9-0.9h1.2v0.5H31l0,1.6l3.3,0v-1.6h1.9v-0.5h1.2c0,0-0.1,0.9,0.9,0.9c0,0,0.8,0,0.8-1v-4.4
		C39,25.4,38.3,25.4,38.3,25.4z"/>
</g>
<path class="st4" d="M135.4,41.9"/>
<g>
	<path class="st1" d="M12.7,51.4l-3.4-4.2L9.5,47l1.6,2l0.3-0.2L10,47.1l0.2-0.2l1.4,1.7l0.3-0.2c-0.2-0.2-0.6-0.7-1.2-1.5l0.2-0.2
		c0.2,0.3,0.6,0.5,1,0.6l-0.5-0.7l0.2-0.2l2.4,3l-0.2,0.2l-0.3-0.3c0,0.3-0.1,0.6-0.1,0.9L13,50.1c0-0.1,0.1-0.2,0.1-0.3
		c-0.5-0.5-0.8-0.9-1-1.1l-0.3,0.2l1.4,1.7L13,50.7L11.6,49l-0.3,0.2l1.6,2L12.7,51.4z M14.1,50.1l-0.2-0.3l0.4-0.4L11.5,46
		l-0.4,0.3l-0.2-0.3l0.6-0.5l3.3,4L14.1,50.1z M13.1,49.4c0-0.1,0-0.2,0-0.3l0.2,0l-1.2-1.4c-0.3,0-0.6-0.1-0.8-0.3
		C11.7,47.8,12.2,48.5,13.1,49.4z M14.6,49l-2.5-3.1l0.6-0.5l2.5,3.1L14.6,49z M14.6,48.5l0.3-0.2l-2.1-2.6L12.5,46L14.6,48.5z
		 M16.4,48.4l-1.6-2l-0.2,0.2l1.4,1.7l-0.2,0.2l-3-3.7l0.2-0.2l1.4,1.7l0.2-0.2l-1.6-2l0.2-0.2l1.6,2l0.2-0.2l0.2,0.3L15,46.3l1.6,2
		L16.4,48.4z"/>
	<path class="st1" d="M16.6,53.6c-1.1-0.4-2-0.7-2.7-1l0.1-0.3c0.5,0.2,1.1,0.5,1.7,0.7l1.4-1.8l-1.4-1l0.2-0.3l1.4,1l1.1-1.5
		l0.3,0.2l-2.6,3.5c0.2,0.1,0.5,0.2,0.8,0.3L16.6,53.6z M19.2,54.6c-0.1,0.2-0.3,0.4-0.5,0.6s-0.3,0.3-0.4,0.3c-0.1,0-0.1,0-0.2,0.1
		c-0.1,0-0.2,0-0.2-0.1c-0.1,0-0.2-0.1-0.4-0.3c-0.4-0.3-0.6-0.5-0.7-0.6s-0.1-0.2-0.1-0.3c0-0.1,0.1-0.2,0.1-0.3l2.8-3.7l0.3,0.2
		L18.8,52l1.5,1.1l-0.2,0.3l-1.5-1.1l-1.5,2c0,0,0,0.1,0,0.2s0.2,0.2,0.5,0.5c0.2,0.2,0.4,0.3,0.4,0.3c0.1,0,0.1,0,0.2,0
		c0.1,0,0.2-0.1,0.3-0.3c0.2-0.2,0.3-0.4,0.5-0.6L19.2,54.6z"/>
	<path class="st1" d="M24.7,58.1c-0.1,0.1-0.1,0.2-0.2,0.3s-0.3,0-0.6-0.1c-0.1,0-0.2-0.1-0.3-0.1l0-0.3c0.2,0.1,0.4,0.2,0.5,0.2
		c0.2,0.1,0.3,0,0.3-0.1l0.6-1.6l-3.9-1.5l-0.8,2l-0.3-0.1l0.9-2.3l4.5,1.8L24.7,58.1z M23.8,57.6l-2.4-1l0.4-1.1l2.4,1L23.8,57.6z
		 M26.4,54.5l-5-2l0.1-0.3l2.4,0.9c0-0.1,0-0.3,0-0.5l0.3,0c0,0.2,0,0.4,0,0.6l2.3,0.9L26.4,54.5z M25,55.6l-3.3-1.3l0.4-1.1
		l3.3,1.3L25,55.6z M23.5,57.2l0.2-0.5L22,55.9l-0.2,0.5L23.5,57.2z M24.8,55.2l0.2-0.5l-2.7-1.1l-0.2,0.5L24.8,55.2z"/>
	<path class="st1" d="M32.2,58.2L31,58.1L30.9,59c0,0.2-0.1,0.4-0.2,0.4c-0.1,0.1-0.4,0.1-0.7,0c-0.1,0-0.3,0-0.5-0.1l-0.1-0.3
		c0.2,0,0.4,0.1,0.6,0.1c0.2,0,0.3,0,0.4,0c0.1,0,0.1-0.1,0.1-0.2l0.1-1l-4-0.5l0-0.3l4,0.5l0.1-0.6l-3.4-0.4l0-0.3l2,0.2l0.1-0.5
		l-2.3-0.3l0-0.3l2.3,0.3l0-0.4l0.3,0l0,0.4l2.3,0.3l0,0.3l-2.3-0.3l-0.1,0.5l2,0.2l0,0.3l-0.6-0.1L31,57.8l1.1,0.1L32.2,58.2z
		 M29.7,55l-1.8-0.2c-0.2,0.2-0.5,0.4-0.7,0.6L27,55.1c0.5-0.2,0.9-0.6,1.2-1.2l0.3,0.1c-0.1,0.1-0.2,0.3-0.3,0.4l1.6,0.2L29.7,55z
		 M29,58.9L28.7,59c-0.3-0.4-0.6-0.7-0.9-0.9l0.3-0.2C28.5,58.3,28.8,58.6,29,58.9z M28.8,55.5l-0.3,0.1c-0.1-0.2-0.2-0.3-0.4-0.5
		l0.3-0.1C28.6,55.1,28.7,55.3,28.8,55.5z M32.4,55.3l-2-0.2c-0.2,0.1-0.3,0.2-0.4,0.3l-0.2-0.2c0.4-0.3,0.7-0.6,0.9-1l0.3,0.1
		c-0.1,0.2-0.2,0.3-0.3,0.4l1.8,0.2L32.4,55.3z M31.5,55.8L31.2,56c-0.1-0.2-0.2-0.3-0.4-0.5l0.3-0.1C31.3,55.5,31.5,55.7,31.5,55.8
		z"/>
	<path class="st1" d="M34.7,54.4c-0.3,0.5-0.8,1-1.4,1.4L33,55.7c0.6-0.5,1.1-0.9,1.4-1.4L34.7,54.4z M35,55.6
		c-0.1,0.3-0.3,0.6-0.5,0.9l0.4,3l-0.3,0l-0.3-2.7c-0.2,0.3-0.4,0.5-0.7,0.8l-0.2-0.2c0.7-0.7,1.2-1.4,1.4-2L35,55.6z M38.7,55.9
		l-1,0.1l0.3,2.6c0,0.1,0,0.2-0.1,0.3c-0.1,0.1-0.1,0.1-0.2,0.2s-0.3,0.1-0.5,0.1c-0.2,0-0.4,0-0.6,0.1L36.4,59c0.2,0,0.4,0,0.6-0.1
		c0.4,0,0.6-0.1,0.6-0.1s0.1-0.1,0-0.1l-0.3-2.7l-2.2,0.3l0-0.3l3.6-0.4L38.7,55.9z M38.2,54.4l-3,0.4l0-0.3l3-0.4L38.2,54.4z"/>
	<path class="st1" d="M42.8,56.4c-0.8,0.8-1.5,1.4-2.2,1.9l-0.2-0.2c0.2-0.1,0.3-0.2,0.3-0.3l-1.1-2.7l0.3-0.1l1.1,2.6
		c0.1-0.1,0.3-0.2,0.5-0.4l-1.4-3.4l-1.2,0.5L38.8,54l2.5-1l0.1,0.3l-1,0.4l0.6,1.4l0.8-0.3l0.1,0.3L41,55.3l0.6,1.6
		c0.2-0.2,0.5-0.5,0.9-0.8L42.8,56.4z M45.7,56.3l-0.1,0.3c-0.7-0.1-1.3-0.2-1.7-0.4c-0.3,0.6-0.6,1.1-1,1.5l-0.3-0.1
		c0.5-0.6,0.8-1.1,1-1.6c-0.4-0.3-0.8-0.6-1.1-1.1l0.2-0.2c0.3,0.4,0.7,0.8,1,1c0.2-0.7,0.1-1.5-0.3-2.5l-1.1,0.4c0,0.5,0,1,0,1.4
		L42,54.9c0.1-0.8,0.1-1.6-0.2-2.5l0.3-0.1c0.1,0.3,0.1,0.6,0.2,0.9l1.7-0.7l0.1,0.3L43.8,53c0.4,1.2,0.5,2.1,0.2,2.8
		C44.5,56.1,45.1,56.2,45.7,56.3z"/>
	<path class="st1" d="M45.6,51.3l-0.1,0.3c-0.4,0-0.8,0-1.3,0l0-0.3C44.8,51.2,45.2,51.2,45.6,51.3z M46.4,52.5l0,0.3
		c-0.3-0.1-0.8-0.1-1.3,0l0-0.3C45.7,52.5,46.1,52.5,46.4,52.5z M50,50.3l-1.6,1.2c0.2,0.9,0.2,1.8,0.1,2.5c0.7-0.6,1.3-1.3,1.8-1.9
		c-0.4-0.1-0.8-0.3-1.1-0.3l0.1-0.3c0.9,0.2,1.6,0.5,2.1,0.7l-0.1,0.3c-0.3-0.1-0.5-0.2-0.7-0.3c-0.6,0.7-1.4,1.5-2.2,2.3l-0.3-0.2
		c0.1-0.2,0.2-0.5,0.1-1c0-0.5-0.1-1-0.2-1.6l-1.2,0.9l-0.2-0.2l1.5-1.1l-0.7-0.9l-1.2,0.9L46,51.1l1.2-0.9l-0.6-0.7l0.3-0.2
		l0.6,0.7l1.2-0.9l0.2,0.2l-1.2,0.9l0.7,0.9l1.4-1.1L50,50.3z M47,53.3c0.2,0.9,0.3,1.7,0.3,2.3l-0.3,0c0-0.6-0.1-1.4-0.3-2.3
		L47,53.3z"/>
	<path class="st1" d="M50.8,48.1c0.6,0,1,0.2,1.4,0.5c0.1,0.1,0.2,0.2,0.3,0.4c0,0.2-0.1,0.4-0.3,0.6c-0.1,0.1-0.1,0.1-0.2,0.2
		l-0.3-0.1l0.2-0.3c0.1-0.2,0.2-0.3,0.2-0.3c0-0.1,0-0.1-0.1-0.2c-0.4-0.3-0.8-0.4-1.4-0.4c-0.2-0.4-0.5-0.8-0.8-1.3l-0.6,0.7l3.7,3
		l-0.2,0.3l-4-3.2l1-1.2l0.2,0.2C50.3,47.2,50.6,47.7,50.8,48.1z M53.4,44.9l-0.2,0.3l-0.7-0.6l-1.7,2.1l0.7,0.6l-0.2,0.3l-0.9-0.8
		l0.9-1.2c-0.1-0.1-0.3-0.1-0.6-0.2l0.1-0.3c0.2,0,0.4,0.1,0.6,0.2l1-1.2L53.4,44.9z M53.1,45.4l-1.4,1.7l-0.2-0.2l1.4-1.7
		L53.1,45.4z M55.2,46.2c0.2,0.2,0.4,0.4,0.5,0.5c0.1,0.1,0.1,0.3,0.1,0.4c0,0.1-0.1,0.3-0.3,0.5c-0.2,0.3-0.4,0.3-0.6,0.2l-1.4-1.2
		L53,47.2c0.5,0.5,0.8,0.9,0.9,1.3c0.1,0.4,0.1,0.8-0.1,1.4l-0.4,0c0.2-0.5,0.2-0.9,0.1-1.3c-0.1-0.4-0.3-0.7-0.8-1.1l-0.6,0.7
		L52,48l2.1-2.6l0.2,0.2l-0.6,0.8l1.4,1.1c0,0,0.1,0,0.1,0s0.1-0.1,0.2-0.2c0.1-0.1,0.1-0.2,0.2-0.2s0-0.1,0-0.1
		c0,0-0.1-0.1-0.2-0.2s-0.2-0.2-0.4-0.3L55.2,46.2z"/>
</g>
<g>
	<path class="st5" d="M9.4,36l0.1,0.6l-3.9,0.8l0.2,0.8l-0.7,0.1l-0.4-2.2L5.3,36l0.2,0.8L9.4,36z"/>
	<path class="st5" d="M8.1,34.2l1.1,0.2l0.1,0.7l-4.9-1l0-0.6l4.7-1.8L9,32.4l-1,0.4L8.1,34.2z M5.4,33.7l2,0.4L7.4,33L5.4,33.7z"/>
	<path class="st5" d="M9,30.8l0,0.6l-4.7-0.1l0-0.6L9,30.8z"/>
	<path class="st5" d="M9.1,29.5L9,30.1l-4.7-0.5l0.1-1c0.1-0.8,0.6-1.2,1.6-1.1c1,0.1,1.4,0.5,1.4,1.3l0,0.5L9.1,29.5z M6.7,29.2
		l0-0.3c0-0.5-0.2-0.7-0.8-0.8c-0.5-0.1-0.8,0.2-0.9,0.6l0,0.3L6.7,29.2z"/>
	<path class="st5" d="M5.5,26l1.2,0.3L7,25l0.7,0.1l-0.3,1.2l1.4,0.3L9,25.4l0.7,0.1l-0.4,1.9l-4.6-1l0.4-1.9l0.7,0.1L5.5,26z"/>
	<path class="st5" d="M10.1,24.4L9.9,25l-4.5-1.3l0.2-0.6L10.1,24.4z"/>
	<path class="st5" d="M9.5,18.6l-1.7-0.9l0.3-0.5l4.1,2.2L12,19.9l-1.9-1l-0.7,1.3l1.9,1L11,21.8l-4.1-2.2l0.3-0.6L8.8,20L9.5,18.6z
		"/>
	<path class="st5" d="M13,18.3l-0.3,0.5l-3.9-2.6l0.3-0.5L13,18.3z"/>
	<path class="st5" d="M13.5,13.6L13.5,13.6c0.7,0.5,1,1,1.2,1.6s0.1,1-0.2,1.4c-0.3,0.4-0.8,0.6-1.3,0.5c-0.6,0-1.1-0.3-1.7-0.7
		c-0.5-0.4-0.9-1-1.1-1.5c-0.2-0.6-0.1-1,0.3-1.4c0.4-0.5,1-0.7,1.8-0.4l-0.1,0.7c-0.5-0.2-0.9-0.1-1.2,0.2c-0.2,0.3-0.2,0.6-0.1,1
		c0.1,0.4,0.4,0.7,0.8,1.1c0.4,0.3,0.8,0.5,1.2,0.5c0.4,0.1,0.7-0.1,0.9-0.3c0.2-0.2,0.2-0.5,0.1-0.8c-0.1-0.3-0.3-0.6-0.5-0.8
		L13,15.2l-0.5-0.4L13.5,13.6z"/>
	<path class="st5" d="M15.5,11.3l-1.3-1.4l0.5-0.4l3.1,3.5l-0.5,0.4l-1.4-1.6l-1.1,1l1.4,1.6l-0.5,0.4l-3.1-3.5l0.5-0.4l1.3,1.4
		L15.5,11.3z"/>
	<path class="st5" d="M20.2,10.1l0.2,1.1l-0.6,0.3l-1.1-4.9l0.5-0.3l3.5,3.5l-0.6,0.3l-0.8-0.8L20.2,10.1z M19.5,7.5l0.5,2l1-0.5
		L19.5,7.5z"/>
	<path class="st5" d="M21.5,5.4l1-0.4c0.5-0.2,1-0.1,1.4,0.2c0.5,0.3,0.8,0.8,1,1.4c0.2,0.6,0.3,1.2,0.1,1.7c-0.2,0.5-0.5,0.9-1,1.1
		l-1,0.4L21.5,5.4z M23.4,8.9l0.2-0.1c0.8-0.3,1-1,0.7-2c-0.4-1-1-1.4-1.8-1.1l-0.2,0.1L23.4,8.9z"/>
	<path class="st5" d="M28.3,5L28,8.3l-0.1,0l-1.5-3l0.2,3.2L26,8.7l-0.3-4.8l0.5-0.1l1.6,3L28,3.4l0.5-0.1l1.5,4.6L29.3,8L28.3,5z"
		/>
	<path class="st5" d="M31,7.9l-0.6,0.1L30,3.3l0.6-0.1L31,7.9z"/>
	<path class="st5" d="M31.8,3l0.5,0l2,3.6l0.1-3.4l0.6,0l-0.1,4.8l-0.5,0l-2-3.6l-0.1,3.4l-0.6,0L31.8,3z"/>
	<path class="st5" d="M36.1,8.1L35.5,8l0.6-4.6l0.6,0.1L36.1,8.1z"/>
	<path class="st5" d="M39.3,4.9c-0.1-0.3-0.3-0.5-0.5-0.5c-0.1,0-0.3,0-0.4,0.1c-0.1,0.1-0.2,0.2-0.3,0.4c0,0.2,0.1,0.5,0.4,0.8
		C38.9,6,39,6.2,39,6.2c0.2,0.3,0.3,0.6,0.2,1c-0.1,0.5-0.3,0.8-0.6,1.1s-0.6,0.3-1,0.2c-0.5-0.1-0.8-0.5-0.9-1.1l0.5-0.4
		c0,0.2,0.1,0.4,0.2,0.5c0.1,0.2,0.2,0.3,0.4,0.3c0.2,0,0.3,0,0.5-0.1c0.1-0.1,0.2-0.3,0.3-0.5c0-0.2,0-0.3,0-0.4S38.3,6.3,37.9,6
		c-0.4-0.3-0.5-0.7-0.4-1.2c0.1-0.4,0.3-0.7,0.5-0.9c0.3-0.2,0.5-0.3,0.8-0.2c0.4,0.1,0.7,0.3,0.9,0.7L39.3,4.9z"/>
	<path class="st5" d="M40.4,9.1l-0.5-0.2l1.3-3.8l-0.8-0.3l0.2-0.6l2.1,0.7l-0.2,0.6l-0.8-0.3L40.4,9.1z"/>
	<path class="st5" d="M43.8,10.5l-0.7-0.3L43,7.9l-0.9,1.9l-0.6-0.3l2-4.2l0.9,0.4c0.7,0.3,0.9,0.9,0.5,1.8
		c-0.1,0.3-0.3,0.6-0.6,0.7c-0.2,0.2-0.5,0.2-0.7,0.1L43.8,10.5z M43.1,7.6l0.2,0.1c0.5,0.2,0.8,0.1,1-0.4c0.2-0.5,0.1-0.8-0.4-1.1
		l-0.2-0.1L43.1,7.6z"/>
	<path class="st5" d="M45.2,10.2l-0.8,0.7l-0.6-0.4l3.8-3.3l0.5,0.3l-1.4,4.8L46.1,12l0.3-1.1L45.2,10.2z M47.2,8.4l-1.5,1.4
		l0.9,0.6L47.2,8.4z"/>
	<path class="st5" d="M47.8,13.3L47.4,13l2.5-3.1l-0.6-0.5l0.4-0.5l1.7,1.4L51,10.7l-0.6-0.5L47.8,13.3z"/>
	<path class="st5" d="M49.2,14.5l-0.5-0.4l3.2-3.4l0.5,0.4L49.2,14.5z"/>
	<path class="st5" d="M51.4,15.2l3.2-1.6l0.5,0.5l-4.6,2.1l-0.3-0.3l2.7-4.2l0.4,0.5L51.4,15.2z"/>
	<path class="st5" d="M55.4,15.7l-1,0.7l0.7,1l-0.6,0.4l-0.7-1l-1.2,0.8l0.7,1.1L52.8,19l-1.1-1.6l3.9-2.6l1.1,1.6l-0.6,0.4
		L55.4,15.7z"/>
	<path class="st5" d="M58.3,22.3c0.2-0.3,0.3-0.6,0.2-0.9c-0.1-0.3-0.4-0.5-0.8-0.6s-0.8,0-1.2,0.1c-0.4,0.2-0.7,0.4-1,0.8
		c-0.2,0.3-0.3,0.7-0.2,1c0.1,0.3,0.4,0.5,0.8,0.6l-0.9,0.4c-0.3-0.2-0.5-0.4-0.6-0.7c-0.2-0.5-0.1-1,0.2-1.5s0.8-0.9,1.4-1.1
		c0.6-0.3,1.2-0.3,1.8-0.2s1,0.4,1.2,0.9c0.1,0.3,0.1,0.5,0.1,0.9L58.3,22.3z"/>
	<path class="st5" d="M57.5,23.5c0.7-0.2,1.3-0.1,1.8,0.1c0.6,0.2,0.9,0.6,1,1.1c0.1,0.5,0,1-0.4,1.4s-0.9,0.8-1.6,0.9
		c-0.7,0.2-1.3,0.1-1.8-0.1c-0.5-0.2-0.9-0.6-1-1.1s0-1,0.4-1.4C56.3,24,56.8,23.7,57.5,23.5z M57.7,24.2c-0.4,0.1-0.8,0.3-1.1,0.6
		c-0.3,0.3-0.4,0.6-0.3,0.9c0.1,0.3,0.3,0.6,0.7,0.7c0.4,0.1,0.8,0.1,1.3,0c0.4-0.1,0.8-0.3,1.1-0.6s0.3-0.6,0.3-0.9
		c-0.1-0.3-0.3-0.6-0.7-0.7C58.5,24.1,58.1,24.1,57.7,24.2z"/>
	<path class="st5" d="M60.8,27.7l0.1,0.6l-2.6,0.2c-1,0.1-1.5,0.4-1.4,0.9c0,0.5,0.6,0.7,1.6,0.6l2.6-0.2l0.1,0.6l-2.8,0.2
		c-1.3,0.1-2-0.3-2.1-1.2s0.6-1.4,1.9-1.5L60.8,27.7z"/>
	<path class="st5" d="M56.2,33.9l0-0.8l2.1-0.9l-2.1-0.1l0-0.6l4.7,0.2l0,1c0,0.8-0.5,1.2-1.5,1.2c-0.4,0-0.6-0.1-0.9-0.3
		c-0.2-0.2-0.4-0.4-0.4-0.6L56.2,33.9z M58.7,32.2l0,0.2c0,0.5,0.2,0.8,0.8,0.8c0.5,0,0.8-0.2,0.8-0.7l0-0.2L58.7,32.2z"/>
	<path class="st5" d="M56,35.4l0.1-0.6l4,0.6l0.1-0.8l0.7,0.1l-0.3,2.2l-0.7-0.1l0.1-0.8L56,35.4z"/>
</g>
<path class="st4" d="M3,42.1"/>
</svg>
