<?xml version="1.0" encoding="utf-8"?>
<!-- Generator: Adobe Illustrator 24.0.2, SVG Export Plug-In . SVG Version: 6.00 Build 0)  -->
<svg version="1.1" id="圖層_1" xmlns="http://www.w3.org/2000/svg" xmlns:xlink="http://www.w3.org/1999/xlink" x="0px" y="0px"
	 viewBox="0 0 270.8 64" style="enable-background:new 0 0 270.8 64;" xml:space="preserve">
<style type="text/css">
	.st0{fill:#333333;}
	.st1{fill:#FFFFFF;}
	.st2{fill:url(#SVGID_1_);}
	.st3{fill:#005BAB;}
	.st4{fill:none;stroke:#FFFFFF;stroke-width:0.25;stroke-miterlimit:10;}
	.st5{fill:#B7A246;}
</style>
<g>
	<path class="st0" d="M91.7,15.2v1.5h-9.4v1h7.6V19H72.6v-1.4H80v-1h-9.2v-1.5H80v-1.3h2.3v1.3H91.7z M82.3,33.8h9.4v1.6H70.8v-1.6
		H80v-1.1h-6.9v-1.4H80v-1c-4.4,0.1-5.1,0.2-5.6,0.3c-0.1-0.3-0.3-1.1-0.5-1.5c0.4,0,0.8-0.1,1.3-0.3c0.3-0.1,1.2-0.5,2-1h-3.7v-1.3
		h15.2v1.3h-2.3c1.2,0.7,2.3,1.5,3.1,2.1l-1.3,1.1c-0.3-0.3-0.7-0.6-1.2-1l-4.7,0.1v1h7.2v1.4h-7.2V33.8z M71.2,24.3h20.2v3.5h-2.1
		v-2H73.2v2h-2V24.3z M89,19.9v3.5H73.6v-3.5H89z M86.8,21.1H75.7v1.2h11.1V21.1z M79.8,27.9c-0.7,0.5-1.4,0.8-2.1,1.2l7.6-0.1
		c-0.5-0.3-1.1-0.6-1.6-0.9l0.2-0.1H79.8z"/>
	<path class="st0" d="M116.1,18.1v11.5h-2.3v-1.3h-6.2v7.6h-2.3v-7.6H99v1.4h-2.2V18.1h8.4v-4.2h2.3v4.2H116.1z M105.2,26.1v-5.8H99
		v5.8H105.2z M113.8,26.1v-5.8h-6.2v5.8H113.8z"/>
	<path class="st0" d="M142.1,16.3v1.9h-20.9v-1.9h9.5c-0.2-0.6-0.5-1.4-0.7-2l2.3-0.5c0.3,0.8,0.7,1.7,0.9,2.5H142.1z M141.4,33.7
		c0,1.1-0.3,1.5-1,1.8c-0.7,0.3-1.8,0.3-3.5,0.3c-0.1-0.5-0.4-1.2-0.7-1.7c1,0,2.2,0,2.5,0c0.3,0,0.4-0.1,0.4-0.4v-6.5h-15.1v8.7
		h-2.2V25.4h19.5V33.7z M139,19.3v4.9h-14.4v-4.9H139z M128.5,33.5v1.1h-2.1v-6.2h10.2v5.1H128.5z M136.6,20.9h-9.8v1.8h9.8V20.9z
		 M128.5,30v1.8h6.1V30H128.5z"/>
	<path class="st0" d="M149.7,17.4c-0.7,1.1-1.5,2-2.3,2.8c-0.3-0.4-1.1-1.2-1.5-1.5c1.5-1.2,2.9-3.1,3.6-4.9l2,0.6
		c-0.2,0.4-0.4,0.8-0.6,1.2h5.8v1.9h-4c0.7,0.6,1.5,1.3,1.9,1.9l-1.4,1.3c-0.5-0.6-1.6-1.7-2.4-2.4l0.8-0.7H149.7z M162.7,28.3h4.6
		v1.8h-4.6v3.6c0,1.1-0.3,1.7-1.2,1.9c-0.9,0.3-2.3,0.3-4.3,0.3c-0.1-0.6-0.4-1.3-0.6-1.8c1.4,0.1,2.9,0,3.3,0
		c0.4,0,0.5-0.1,0.5-0.5v-3.5h-8.6c1.3,1,3,2.5,3.8,3.4l-1.7,1.3c-0.8-0.9-2.5-2.5-3.8-3.6l1.5-1.1h-5.4v-1.8h14.2v-1.5h2.3V28.3z
		 M167.8,15.5v1.9H163c0.7,0.7,1.5,1.5,1.9,2.1l-1.5,1.3c-0.4-0.7-1.4-1.8-2.2-2.6l1-0.8H160c-0.6,1.1-1.3,2.1-2,2.9l-0.1-0.1v0.7
		h8.6v1.9H158v1.8h7.2v1.8h-16.8v-1.8h7.3v-1.8h-8.5v-1.9h8.5v-1.3h1.5c-0.3-0.2-0.6-0.5-0.8-0.6c1.3-1.3,2.4-3.3,3-5.3l2,0.5
		c-0.1,0.5-0.3,0.9-0.5,1.3H167.8z"/>
	<path class="st0" d="M179.4,19.8c-0.7,1.2-1.6,2.5-2.6,3.7v12.5h-2.2v-10c-0.8,0.8-1.6,1.5-2.4,2.2c-0.3-0.5-1.1-1.5-1.5-1.9
		c2.4-1.8,5-4.5,6.6-7.2L179.4,19.8z M178.5,14.7c-1.6,2.1-4.1,4.5-6.3,6.1c-0.3-0.5-0.9-1.4-1.3-1.8c2-1.3,4.3-3.4,5.5-5.2
		L178.5,14.7z M192.9,23.9h-3.5v9.2c0,1.3-0.3,1.9-1.2,2.3c-0.9,0.3-2.3,0.4-4.5,0.4c-0.1-0.6-0.4-1.6-0.7-2.2c1.5,0,3.1,0,3.6,0
		c0.5,0,0.6-0.1,0.6-0.5v-9.2h-7.6v-2.1h13.3V23.9z M192.2,17.4h-11.6v-2.1h11.6V17.4z"/>
	<path class="st0" d="M216.7,20.3c-0.6,3.8-1.5,7-3,9.5c1.2,1.8,2.8,3.2,4.8,4.1c-0.5,0.5-1.2,1.3-1.5,1.9c-1.9-1-3.4-2.4-4.6-4
		c-1.3,1.7-3,3-5.2,4.1c-0.2-0.5-0.9-1.5-1.3-2c2.2-1,3.9-2.4,5.2-4.2c-1-1.8-1.7-3.8-2.2-6c-0.4,0.7-0.8,1.3-1.2,1.9
		c-0.3-0.3-0.9-0.8-1.3-1.2h-2.7V30l3.8-0.8l0.2,2c-3.9,0.9-8.1,1.9-11.1,2.6l-0.4-2.2l1.3-0.3V20.8h2v10l2-0.4V17.6h-4.9v-2.2h10.9
		v2.2h-3.8v4.8h3v0.7c1.6-2.4,2.6-5.7,3.2-9.2l2.2,0.4c-0.3,1.4-0.6,2.7-1,4h7.2v2.1H216.7z M210.2,20.7c0.5,2.5,1.2,4.8,2.2,6.9
		c1-2,1.6-4.4,2-7.3h-4.1L210.2,20.7z"/>
	<path class="st0" d="M225.9,24.8c-0.9-0.8-2.9-1.9-4.4-2.6l1.2-1.7c1.5,0.6,3.5,1.6,4.5,2.4L225.9,24.8z M222.3,34.1
		c1.3-1.8,3.1-4.9,4.5-7.6l1.6,1.5c-1.2,2.5-2.8,5.4-4.2,7.6L222.3,34.1z M224.1,14.1c1.5,0.6,3.5,1.7,4.5,2.4l-1.3,1.8
		c-0.9-0.8-2.9-2-4.5-2.7L224.1,14.1z M241.1,35.9c-0.2-0.6-0.5-1.4-1-2.3c-8.5,1-9.6,1.2-10.3,1.6c-0.1-0.5-0.5-1.6-0.8-2.2
		c0.5-0.1,1-0.7,1.5-1.6c0.5-0.7,1.9-3,3-5.5h-4.9v-2.1h5.9v-3.9h-4.9v-2.1h4.9v-3.9h2.3v3.9h5.1v2.1h-5.1v3.9h6v2.1h-6.6
		c-1.1,2.4-2.5,4.7-3.8,6.6l6.7-0.7c-0.6-1-1.2-1.9-1.9-2.8l1.8-0.9c1.7,2.1,3.4,4.9,4.1,6.8L241.1,35.9z"/>
	<path class="st0" d="M254.7,15.6c-0.7,2-1.5,4.3-2.2,6.2c1.6,2,1.9,3.7,1.9,5.1c0,1.4-0.3,2.4-1,2.9c-0.4,0.3-0.8,0.4-1.3,0.5
		c-0.4,0-1,0-1.6,0c0-0.6-0.2-1.4-0.5-1.9c0.5,0,0.9,0,1.2,0c0.3,0,0.5-0.1,0.7-0.2c0.3-0.3,0.5-0.9,0.5-1.6c0-1.2-0.4-2.8-2-4.6
		c0.6-1.6,1.2-3.6,1.7-5.2h-2.6v19h-2v-21h5.4l0.3-0.1L254.7,15.6z M266.4,33.7c0.5,0,0.6-0.4,0.6-3c0.5,0.4,1.3,0.7,1.9,0.8
		c-0.2,3.2-0.7,4-2.2,4h-1.9c-1.8,0-2.3-0.6-2.3-2.6v-5.7h-2.1c-0.4,4.2-1.5,7-6.1,8.6c-0.2-0.6-0.8-1.4-1.3-1.8
		c4-1.3,4.9-3.4,5.2-6.8H255v-2h13.5v2h-4v5.6c0,0.6,0.1,0.7,0.5,0.7H266.4z M256.8,21.2h-1.9v-4.4h5.8c-0.3-0.8-0.7-1.8-1.1-2.5
		l2.1-0.6c0.6,1,1.2,2.2,1.5,3.1h5.2v4.4h-1.9V23h-9.7V21.2z M257,18.7V21h9.3v-2.4H257z"/>
</g>
<g>
	<path class="st0" d="M71.8,44.9v-0.8h4.3v0.8h-1.8v7.1h-0.8v-7.1H71.8z"/>
	<path class="st0" d="M83.2,46.2v5.8h-0.7v-1c-0.3,0.4-0.7,0.7-1.1,0.9c-0.4,0.2-0.8,0.3-1.3,0.3c-0.8,0-1.5-0.3-2.1-0.9
		c-0.6-0.6-0.9-1.3-0.9-2.2c0-0.8,0.3-1.6,0.9-2.2c0.6-0.6,1.3-0.9,2.1-0.9c0.5,0,0.9,0.1,1.3,0.3s0.7,0.5,1,0.9v-1.1H83.2z
		 M80.2,46.8c-0.4,0-0.8,0.1-1.2,0.3c-0.4,0.2-0.6,0.5-0.8,0.9s-0.3,0.8-0.3,1.2c0,0.4,0.1,0.8,0.3,1.2c0.2,0.4,0.5,0.7,0.8,0.9
		c0.4,0.2,0.7,0.3,1.1,0.3c0.4,0,0.8-0.1,1.2-0.3c0.4-0.2,0.7-0.5,0.9-0.8c0.2-0.4,0.3-0.8,0.3-1.2c0-0.7-0.2-1.2-0.7-1.7
		C81.4,47,80.9,46.8,80.2,46.8z"/>
	<path class="st0" d="M85.5,43.8c0.2,0,0.3,0.1,0.4,0.2c0.1,0.1,0.2,0.3,0.2,0.4c0,0.2-0.1,0.3-0.2,0.4c-0.1,0.1-0.3,0.2-0.4,0.2
		c-0.2,0-0.3-0.1-0.4-0.2c-0.1-0.1-0.2-0.3-0.2-0.4c0-0.2,0.1-0.3,0.2-0.4C85.2,43.9,85.3,43.8,85.5,43.8z M85.1,46.2h0.8v5.8h-0.8
		V46.2z"/>
	<path class="st0" d="M93.4,47.4l-0.6,0.4c-0.5-0.7-1.2-1-2.1-1c-0.7,0-1.3,0.2-1.8,0.7c-0.5,0.5-0.7,1-0.7,1.7
		c0,0.4,0.1,0.8,0.3,1.2c0.2,0.4,0.5,0.7,0.9,0.9c0.4,0.2,0.8,0.3,1.3,0.3c0.9,0,1.6-0.3,2.1-1l0.6,0.4c-0.3,0.4-0.7,0.7-1.1,1
		s-1,0.3-1.6,0.3c-0.9,0-1.7-0.3-2.3-0.9c-0.6-0.6-0.9-1.3-0.9-2.1c0-0.6,0.1-1.1,0.4-1.6c0.3-0.5,0.7-0.9,1.2-1.1
		c0.5-0.3,1.1-0.4,1.7-0.4c0.4,0,0.8,0.1,1.1,0.2c0.4,0.1,0.7,0.3,0.9,0.5C93,46.9,93.2,47.2,93.4,47.4z"/>
	<path class="st0" d="M95.1,44h0.8v3.3c0.3-0.4,0.6-0.7,1-0.9c0.4-0.2,0.8-0.3,1.2-0.3c0.4,0,0.8,0.1,1.2,0.3
		c0.3,0.2,0.6,0.5,0.7,0.9s0.2,1,0.2,1.8v3h-0.8v-2.8c0-0.7,0-1.1-0.1-1.3c-0.1-0.4-0.3-0.7-0.5-0.9c-0.2-0.2-0.6-0.3-1-0.3
		c-0.5,0-0.9,0.2-1.2,0.5c-0.4,0.3-0.6,0.7-0.7,1.1c-0.1,0.3-0.1,0.8-0.1,1.6v2.1h-0.8V44z"/>
	<path class="st0" d="M102,46.2h0.8V49c0,0.7,0,1.1,0.1,1.4c0.1,0.4,0.3,0.6,0.6,0.8c0.3,0.2,0.7,0.3,1.1,0.3c0.4,0,0.8-0.1,1.1-0.3
		c0.3-0.2,0.5-0.5,0.6-0.8c0.1-0.2,0.1-0.7,0.1-1.4v-2.7h0.8v2.9c0,0.8-0.1,1.4-0.3,1.8c-0.2,0.4-0.5,0.7-0.8,1
		c-0.4,0.2-0.9,0.3-1.4,0.3c-0.6,0-1-0.1-1.4-0.3c-0.4-0.2-0.7-0.6-0.9-1c-0.2-0.4-0.3-1-0.3-1.9V46.2z"/>
	<path class="st0" d="M109,46.2h0.8v1c0.3-0.4,0.6-0.7,1-0.9c0.4-0.2,0.8-0.3,1.2-0.3c0.4,0,0.8,0.1,1.2,0.3
		c0.3,0.2,0.6,0.5,0.7,0.9s0.2,1,0.2,1.8v3h-0.8v-2.8c0-0.7,0-1.1-0.1-1.3c-0.1-0.4-0.3-0.7-0.5-0.9c-0.2-0.2-0.6-0.3-1-0.3
		c-0.5,0-0.9,0.2-1.2,0.5c-0.4,0.3-0.6,0.7-0.7,1.1c-0.1,0.3-0.1,0.8-0.1,1.6v2.1H109V46.2z"/>
	<path class="st0" d="M121,46.2h0.8v4.7c0,0.8-0.1,1.4-0.2,1.8c-0.2,0.5-0.5,1-1,1.2c-0.5,0.3-1.1,0.4-1.8,0.4c-0.5,0-1-0.1-1.4-0.2
		s-0.7-0.3-1-0.6c-0.2-0.2-0.5-0.6-0.7-1h0.8c0.2,0.4,0.5,0.7,0.9,0.9c0.4,0.2,0.8,0.3,1.3,0.3c0.5,0,0.9-0.1,1.3-0.3
		c0.4-0.2,0.6-0.4,0.8-0.7s0.2-0.8,0.2-1.4V51c-0.3,0.4-0.6,0.6-1,0.8c-0.4,0.2-0.8,0.3-1.3,0.3c-0.5,0-1-0.1-1.5-0.4
		c-0.5-0.3-0.8-0.6-1.1-1.1c-0.3-0.5-0.4-0.9-0.4-1.5c0-0.5,0.1-1,0.4-1.5c0.3-0.5,0.6-0.8,1.1-1.1c0.5-0.3,1-0.4,1.5-0.4
		c0.4,0,0.8,0.1,1.2,0.3c0.4,0.2,0.7,0.5,1.1,0.9V46.2z M118.8,46.8c-0.4,0-0.8,0.1-1.2,0.3s-0.7,0.5-0.9,0.9
		c-0.2,0.4-0.3,0.8-0.3,1.2c0,0.6,0.2,1.2,0.6,1.6s1,0.6,1.7,0.6c0.7,0,1.2-0.2,1.7-0.6c0.4-0.4,0.6-1,0.6-1.6
		c0-0.4-0.1-0.8-0.3-1.2c-0.2-0.3-0.5-0.6-0.8-0.8C119.6,46.9,119.2,46.8,118.8,46.8z"/>
	<path class="st0" d="M127.1,44.2h0.8v3.3h4v-3.3h0.8v7.9h-0.8v-3.8h-4v3.8h-0.8V44.2z"/>
	<path class="st0" d="M135.1,43.8c0.2,0,0.3,0.1,0.4,0.2c0.1,0.1,0.2,0.3,0.2,0.4c0,0.2-0.1,0.3-0.2,0.4c-0.1,0.1-0.3,0.2-0.4,0.2
		c-0.2,0-0.3-0.1-0.4-0.2c-0.1-0.1-0.2-0.3-0.2-0.4c0-0.2,0.1-0.3,0.2-0.4C134.7,43.9,134.9,43.8,135.1,43.8z M134.7,46.2h0.8v5.8
		h-0.8V46.2z"/>
	<path class="st0" d="M142.3,46.2h0.8v4.7c0,0.8-0.1,1.4-0.2,1.8c-0.2,0.5-0.5,1-1,1.2c-0.5,0.3-1.1,0.4-1.8,0.4
		c-0.5,0-1-0.1-1.4-0.2s-0.7-0.3-1-0.6c-0.2-0.2-0.5-0.6-0.7-1h0.8c0.2,0.4,0.5,0.7,0.9,0.9c0.4,0.2,0.8,0.3,1.3,0.3
		c0.5,0,0.9-0.1,1.3-0.3c0.4-0.2,0.6-0.4,0.8-0.7s0.2-0.8,0.2-1.4V51c-0.3,0.4-0.6,0.6-1,0.8c-0.4,0.2-0.8,0.3-1.3,0.3
		c-0.5,0-1-0.1-1.5-0.4c-0.5-0.3-0.8-0.6-1.1-1.1c-0.3-0.5-0.4-0.9-0.4-1.5c0-0.5,0.1-1,0.4-1.5c0.3-0.5,0.6-0.8,1.1-1.1
		c0.5-0.3,1-0.4,1.5-0.4c0.4,0,0.8,0.1,1.2,0.3c0.4,0.2,0.7,0.5,1.1,0.9V46.2z M140.1,46.8c-0.4,0-0.8,0.1-1.2,0.3s-0.7,0.5-0.9,0.9
		c-0.2,0.4-0.3,0.8-0.3,1.2c0,0.6,0.2,1.2,0.6,1.6s1,0.6,1.7,0.6c0.7,0,1.2-0.2,1.7-0.6c0.4-0.4,0.6-1,0.6-1.6
		c0-0.4-0.1-0.8-0.3-1.2c-0.2-0.3-0.5-0.6-0.8-0.8C140.9,46.9,140.5,46.8,140.1,46.8z"/>
	<path class="st0" d="M144.9,44h0.8v3.3c0.3-0.4,0.6-0.7,1-0.9c0.4-0.2,0.8-0.3,1.2-0.3c0.4,0,0.8,0.1,1.2,0.3
		c0.3,0.2,0.6,0.5,0.7,0.9s0.2,1,0.2,1.8v3h-0.8v-2.8c0-0.7,0-1.1-0.1-1.3c-0.1-0.4-0.3-0.7-0.5-0.9c-0.2-0.2-0.6-0.3-1-0.3
		c-0.5,0-0.9,0.2-1.2,0.5c-0.4,0.3-0.6,0.7-0.7,1.1c-0.1,0.3-0.1,0.8-0.1,1.6v2.1h-0.8V44z"/>
	<path class="st0" d="M158.6,44.2l3.7,7.9h-0.9l-1.2-2.6h-3.4l-1.2,2.6h-0.9l3.7-7.9H158.6z M158.5,45.9l-1.4,2.9h2.7L158.5,45.9z"
		/>
	<path class="st0" d="M169.5,44v8.1h-0.7v-1c-0.3,0.4-0.7,0.7-1.1,0.9c-0.4,0.2-0.8,0.3-1.3,0.3c-0.8,0-1.5-0.3-2.1-0.9
		c-0.6-0.6-0.9-1.3-0.9-2.2c0-0.8,0.3-1.6,0.9-2.2c0.6-0.6,1.3-0.9,2.1-0.9c0.5,0,0.9,0.1,1.3,0.3s0.7,0.5,1,0.9V44H169.5z
		 M166.5,46.8c-0.4,0-0.8,0.1-1.2,0.3c-0.4,0.2-0.6,0.5-0.8,0.9s-0.3,0.8-0.3,1.2c0,0.4,0.1,0.8,0.3,1.2c0.2,0.4,0.5,0.7,0.8,0.9
		c0.4,0.2,0.7,0.3,1.1,0.3c0.4,0,0.8-0.1,1.2-0.3c0.4-0.2,0.7-0.5,0.9-0.8c0.2-0.4,0.3-0.8,0.3-1.2c0-0.7-0.2-1.2-0.7-1.7
		C167.7,47,167.1,46.8,166.5,46.8z"/>
	<path class="st0" d="M171.5,46.2h0.8v1c0.3-0.4,0.5-0.6,0.8-0.8c0.4-0.2,0.8-0.3,1.2-0.3c0.3,0,0.6,0.1,0.8,0.2
		c0.3,0.1,0.5,0.3,0.6,0.4c0.2,0.2,0.3,0.4,0.4,0.8c0.2-0.5,0.6-0.8,0.9-1s0.8-0.4,1.2-0.4c0.4,0,0.8,0.1,1.1,0.3
		c0.3,0.2,0.5,0.5,0.7,0.9c0.1,0.4,0.2,0.9,0.2,1.6v3.2h-0.8v-3.2c0-0.6,0-1.1-0.1-1.3c-0.1-0.2-0.2-0.4-0.5-0.6
		c-0.2-0.1-0.5-0.2-0.8-0.2c-0.4,0-0.7,0.1-1,0.3s-0.5,0.5-0.7,0.9c-0.1,0.4-0.2,1-0.2,1.8v2.3h-0.8v-3c0-0.7,0-1.2-0.1-1.4
		c-0.1-0.3-0.2-0.5-0.5-0.6c-0.2-0.2-0.5-0.2-0.8-0.2c-0.3,0-0.7,0.1-1,0.3c-0.3,0.2-0.5,0.5-0.7,0.8c-0.1,0.4-0.2,0.9-0.2,1.6v2.5
		h-0.8V46.2z"/>
	<path class="st0" d="M182.3,43.8c0.2,0,0.3,0.1,0.4,0.2c0.1,0.1,0.2,0.3,0.2,0.4c0,0.2-0.1,0.3-0.2,0.4c-0.1,0.1-0.3,0.2-0.4,0.2
		c-0.2,0-0.3-0.1-0.4-0.2c-0.1-0.1-0.2-0.3-0.2-0.4c0-0.2,0.1-0.3,0.2-0.4C182,43.9,182.2,43.8,182.3,43.8z M182,46.2h0.8v5.8H182
		V46.2z"/>
	<path class="st0" d="M184.5,46.2h0.8v1c0.3-0.4,0.6-0.7,1-0.9c0.4-0.2,0.8-0.3,1.2-0.3c0.4,0,0.8,0.1,1.2,0.3
		c0.3,0.2,0.6,0.5,0.7,0.9s0.2,1,0.2,1.8v3h-0.8v-2.8c0-0.7,0-1.1-0.1-1.3c-0.1-0.4-0.3-0.7-0.5-0.9c-0.2-0.2-0.6-0.3-1-0.3
		c-0.5,0-0.9,0.2-1.2,0.5c-0.4,0.3-0.6,0.7-0.7,1.1c-0.1,0.3-0.1,0.8-0.1,1.6v2.1h-0.8V46.2z"/>
	<path class="st0" d="M191.8,43.8c0.2,0,0.3,0.1,0.4,0.2c0.1,0.1,0.2,0.3,0.2,0.4c0,0.2-0.1,0.3-0.2,0.4c-0.1,0.1-0.3,0.2-0.4,0.2
		c-0.2,0-0.3-0.1-0.4-0.2c-0.1-0.1-0.2-0.3-0.2-0.4c0-0.2,0.1-0.3,0.2-0.4C191.5,43.9,191.6,43.8,191.8,43.8z M191.4,46.2h0.8v5.8
		h-0.8V46.2z"/>
	<path class="st0" d="M196.9,46.9l-0.5,0.5c-0.4-0.4-0.8-0.6-1.2-0.6c-0.2,0-0.5,0.1-0.6,0.2c-0.2,0.2-0.3,0.3-0.3,0.6
		c0,0.2,0.1,0.4,0.2,0.5c0.1,0.2,0.4,0.4,0.9,0.6c0.6,0.3,0.9,0.6,1.1,0.8c0.2,0.3,0.3,0.6,0.3,0.9c0,0.5-0.2,0.9-0.5,1.2
		s-0.8,0.5-1.3,0.5c-0.3,0-0.7-0.1-1-0.2c-0.3-0.1-0.6-0.3-0.8-0.6l0.5-0.5c0.4,0.4,0.8,0.7,1.2,0.7c0.3,0,0.6-0.1,0.8-0.3
		s0.3-0.4,0.3-0.7c0-0.2-0.1-0.4-0.2-0.6c-0.1-0.2-0.5-0.4-0.9-0.6c-0.5-0.3-0.9-0.5-1.1-0.8c-0.2-0.3-0.3-0.6-0.3-0.9
		c0-0.4,0.2-0.8,0.5-1.1c0.3-0.3,0.7-0.4,1.1-0.4C195.9,46.1,196.4,46.3,196.9,46.9z"/>
	<path class="st0" d="M199.2,44.1h0.8v2.2h1.2v0.7H200v5.2h-0.8v-5.2h-1v-0.7h1V44.1z"/>
	<path class="st0" d="M202.3,46.2h0.8v0.9c0.2-0.3,0.5-0.6,0.7-0.8c0.3-0.2,0.5-0.2,0.8-0.2c0.2,0,0.4,0.1,0.7,0.2l-0.4,0.6
		c-0.2-0.1-0.3-0.1-0.4-0.1c-0.3,0-0.5,0.1-0.7,0.3c-0.2,0.2-0.4,0.5-0.5,1c-0.1,0.3-0.1,1-0.1,2v2h-0.8V46.2z"/>
	<path class="st0" d="M212,46.2v5.8h-0.7v-1c-0.3,0.4-0.7,0.7-1.1,0.9c-0.4,0.2-0.8,0.3-1.3,0.3c-0.8,0-1.5-0.3-2.1-0.9
		c-0.6-0.6-0.9-1.3-0.9-2.2c0-0.8,0.3-1.6,0.9-2.2c0.6-0.6,1.3-0.9,2.1-0.9c0.5,0,0.9,0.1,1.3,0.3s0.7,0.5,1,0.9v-1.1H212z
		 M209,46.8c-0.4,0-0.8,0.1-1.2,0.3c-0.4,0.2-0.6,0.5-0.8,0.9s-0.3,0.8-0.3,1.2c0,0.4,0.1,0.8,0.3,1.2c0.2,0.4,0.5,0.7,0.8,0.9
		c0.4,0.2,0.7,0.3,1.1,0.3c0.4,0,0.8-0.1,1.2-0.3c0.4-0.2,0.7-0.5,0.9-0.8c0.2-0.4,0.3-0.8,0.3-1.2c0-0.7-0.2-1.2-0.7-1.7
		C210.2,47,209.6,46.8,209,46.8z"/>
	<path class="st0" d="M214.6,44.1h0.8v2.2h1.2v0.7h-1.2v5.2h-0.8v-5.2h-1v-0.7h1V44.1z"/>
	<path class="st0" d="M218.2,43.8c0.2,0,0.3,0.1,0.4,0.2c0.1,0.1,0.2,0.3,0.2,0.4c0,0.2-0.1,0.3-0.2,0.4c-0.1,0.1-0.3,0.2-0.4,0.2
		c-0.2,0-0.3-0.1-0.4-0.2c-0.1-0.1-0.2-0.3-0.2-0.4c0-0.2,0.1-0.3,0.2-0.4C217.9,43.9,218,43.8,218.2,43.8z M217.8,46.2h0.8v5.8
		h-0.8V46.2z"/>
	<path class="st0" d="M219.8,46.2h0.8l2,4.3l1.9-4.3h0.8l-2.7,5.8h-0.1L219.8,46.2z"/>
	<path class="st0" d="M231.7,50.1l0.6,0.3c-0.2,0.4-0.4,0.7-0.7,1c-0.3,0.2-0.6,0.4-0.9,0.6c-0.3,0.1-0.7,0.2-1.2,0.2
		c-1,0-1.7-0.3-2.2-0.9c-0.5-0.6-0.8-1.3-0.8-2.1c0-0.7,0.2-1.4,0.7-2c0.6-0.7,1.3-1.1,2.3-1.1c1,0,1.8,0.4,2.4,1.1
		c0.4,0.5,0.6,1.2,0.6,2h-5.3c0,0.7,0.2,1.2,0.7,1.7c0.4,0.4,0.9,0.7,1.6,0.7c0.3,0,0.6-0.1,0.9-0.2c0.3-0.1,0.5-0.2,0.7-0.4
		S231.5,50.5,231.7,50.1z M231.7,48.6c-0.1-0.4-0.2-0.7-0.4-1c-0.2-0.2-0.4-0.4-0.8-0.6c-0.3-0.1-0.6-0.2-1-0.2
		c-0.6,0-1.1,0.2-1.5,0.6c-0.3,0.3-0.5,0.7-0.7,1.2H231.7z"/>
	<path class="st0" d="M245,45.6l-0.6,0.5c-0.3-0.4-0.8-0.8-1.2-1c-0.5-0.2-1-0.3-1.6-0.3c-0.6,0-1.2,0.2-1.8,0.5
		c-0.5,0.3-1,0.7-1.2,1.2c-0.3,0.5-0.4,1.1-0.4,1.7c0,1,0.3,1.8,1,2.4c0.7,0.6,1.5,1,2.5,1c1.1,0,2-0.4,2.8-1.3l0.6,0.5
		c-0.4,0.5-0.9,0.9-1.5,1.2c-0.6,0.3-1.2,0.4-2,0.4c-1.4,0-2.5-0.5-3.3-1.4c-0.7-0.8-1-1.7-1-2.8c0-1.2,0.4-2.1,1.2-2.9
		c0.8-0.8,1.8-1.2,3-1.2c0.7,0,1.4,0.1,2,0.4C244.1,44.7,244.6,45.1,245,45.6z"/>
	<path class="st0" d="M249.5,46.1c0.9,0,1.6,0.3,2.2,1c0.5,0.6,0.8,1.3,0.8,2.1c0,0.8-0.3,1.5-0.9,2.1c-0.6,0.6-1.3,0.9-2.2,0.9
		c-0.9,0-1.6-0.3-2.2-0.9c-0.6-0.6-0.9-1.3-0.9-2.1c0-0.8,0.3-1.5,0.8-2.1C247.8,46.4,248.6,46.1,249.5,46.1z M249.5,46.8
		c-0.6,0-1.2,0.2-1.6,0.7s-0.7,1-0.7,1.7c0,0.4,0.1,0.8,0.3,1.2s0.5,0.6,0.8,0.8c0.3,0.2,0.7,0.3,1.1,0.3s0.8-0.1,1.1-0.3
		c0.3-0.2,0.6-0.5,0.8-0.8c0.2-0.4,0.3-0.8,0.3-1.2c0-0.7-0.2-1.2-0.7-1.7S250.1,46.8,249.5,46.8z"/>
	<path class="st0" d="M254.1,46.2h0.8V49c0,0.7,0,1.1,0.1,1.4c0.1,0.4,0.3,0.6,0.6,0.8c0.3,0.2,0.7,0.3,1.1,0.3
		c0.4,0,0.8-0.1,1.1-0.3c0.3-0.2,0.5-0.5,0.6-0.8c0.1-0.2,0.1-0.7,0.1-1.4v-2.7h0.8v2.9c0,0.8-0.1,1.4-0.3,1.8
		c-0.2,0.4-0.5,0.7-0.8,1c-0.4,0.2-0.9,0.3-1.4,0.3c-0.6,0-1-0.1-1.4-0.3c-0.4-0.2-0.7-0.6-0.9-1c-0.2-0.4-0.3-1-0.3-1.9V46.2z"/>
	<path class="st0" d="M260.9,46.2h0.8v0.9c0.2-0.3,0.5-0.6,0.7-0.8c0.3-0.2,0.5-0.2,0.8-0.2c0.2,0,0.4,0.1,0.7,0.2l-0.4,0.6
		c-0.2-0.1-0.3-0.1-0.4-0.1c-0.3,0-0.5,0.1-0.7,0.3c-0.2,0.2-0.4,0.5-0.5,1c-0.1,0.3-0.1,1-0.1,2v2h-0.8V46.2z"/>
	<path class="st0" d="M265.4,44.1h0.8v2.2h1.2v0.7h-1.2v5.2h-0.8v-5.2h-1v-0.7h1V44.1z"/>
</g>
<g>
	<circle class="st1" cx="32.6" cy="31.4" r="30.3"/>
</g>
<linearGradient id="SVGID_1_" gradientUnits="userSpaceOnUse" x1="32.6453" y1="60.7748" x2="32.6453" y2="37.519">
	<stop  offset="0.6854" style="stop-color:#B7A246"/>
	<stop  offset="1" style="stop-color:#FFFFFF"/>
</linearGradient>
<path class="st2" d="M61.5,37.8c-3,13-14.9,23-28.8,23c-13.9,0-25.9-10.2-28.9-23.3h7.4c2.8,9,11.5,16.1,21.5,16.1
	c10,0,18.6-6.8,21.4-15.8H61.5z"/>
<g>
	<path class="st3" d="M53.6,31.3c0,11.6-9.4,21-21,21s-21-9.4-21-21c0-11.6,9.4-21,21-21S53.6,19.7,53.6,31.3z"/>
</g>
<g>
	<path class="st1" d="M34.3,33.8h-0.5H31V42c0,0.9,0.8,1.7,1.7,1.7c0.9,0,1.6-0.8,1.6-1.7L34.3,33.8z"/>
	<path class="st1" d="M35.6,44h-5.8c-0.4,0-0.8,0.3-0.8,0.6v0.8c0,0.4,0.3,0.7,0.8,0.7h5.8c0.4,0,0.8-0.3,0.8-0.7v-0.8
		C36.3,44.3,36,44,35.6,44z"/>
	<path class="st1" d="M36.7,46.9h-8c-0.6,0-1,0.3-1,0.7v0.8c0,0.4,0.4,0.7,1,0.7h8c0.6,0,1-0.3,1-0.7v-0.8
		C37.6,47.2,37.2,46.9,36.7,46.9z"/>
	<path class="st1" d="M48.9,23.3c0-0.3-0.2-0.5-0.4-0.6c-0.4-0.3-1-0.2-1.4,0.1c-1.1,1.1-2.7,1.7-4.4,1.7c-1.7,0-3.2-0.6-4.3-1.6
		c-1.5-1.3-3.5-2.1-5.7-2.1c-2.1,0-4.1,0.7-5.5,1.9l0,0l-0.2,0.2l0,0c-1.1,1.1-2.7,1.7-4.4,1.7c-1.7,0-3.3-0.6-4.4-1.7
		c-0.2-0.2-0.4-0.3-0.7-0.3c-0.2,0-0.5,0-0.7,0.2c-0.2,0.2-0.4,0.4-0.4,0.6l0,0v0.1c0,0.2,0.1,0.4,0.3,0.6c1.5,1.4,3.6,2.3,5.9,2.3
		c2.1,0,4-0.7,5.5-1.9l0,0c0,0,0,0,0,0c0,0,0.1-0.1,0.1-0.1c1.1-1.1,2.7-1.7,4.4-1.7c1.7,0,3.2,0.6,4.3,1.6c1.4,1.3,3.5,2.1,5.7,2.1
		c2.3,0,4.4-0.8,5.9-2.3C48.8,23.8,48.9,23.6,48.9,23.3C48.9,23.3,48.9,23.3,48.9,23.3z M48.9,23.3C48.9,23.3,48.9,23.3,48.9,23.3
		C48.9,23.3,48.9,23.3,48.9,23.3L48.9,23.3z"/>
	<path class="st1" d="M36.1,17c0,1.9-1.5,3.5-3.5,3.5c-1.9,0-3.4-1.5-3.4-3.5c0-1.9,1.5-3.5,3.4-3.5C34.6,13.6,36.1,15.1,36.1,17z"
		/>
	<path class="st1" d="M27.6,38.4l-5.3-12C22.2,26.2,22,26,21.7,26c-0.2,0-0.4,0.1-0.5,0.4v0l-5.3,12c-0.1,0.2-0.1,0.4,0,0.6
		c1,1.9,3.3,3.2,5.8,3.2c2.5,0,4.8-1.2,5.8-3.2C27.6,38.8,27.7,38.6,27.6,38.4z M21.7,28.1c0.3,0.7,4.3,9.8,4.6,10.4h-9.2
		c0.2-0.5,3.1-7,3.1-7S21.5,28.8,21.7,28.1z"/>
	<path class="st1" d="M49.5,38.4l-5.3-12c-0.1-0.2-0.3-0.3-0.5-0.3c-0.2,0-0.4,0.1-0.5,0.4v0l-5.3,12c-0.1,0.2-0.1,0.4,0,0.6
		c1,1.9,3.3,3.2,5.8,3.2c2.5,0,4.8-1.2,5.8-3.2C49.6,38.8,49.6,38.6,49.5,38.4z M43.7,28.1c0.3,0.7,4.3,9.8,4.6,10.4h-9.2
		c0.2-0.4,2-4.5,2-4.5S43.4,28.8,43.7,28.1z"/>
	<path class="st1" d="M38.3,25.4c-1,0-0.9,0.9-0.9,0.9h-1.2v-0.5h-7v0.5H28c0,0,0.1-0.9-0.9-0.9c0,0-0.8,0-0.8,1v4.4
		c0,1.1,0.8,1,0.8,1c1,0,0.9-0.9,0.9-0.9h1.2v0.5H31l0,1.6l3.3,0v-1.6h1.9v-0.5h1.2c0,0-0.1,0.9,0.9,0.9c0,0,0.8,0,0.8-1v-4.4
		C39,25.4,38.3,25.4,38.3,25.4z"/>
</g>
<path class="st4" d="M135.4,41.9"/>
<g>
	<path class="st1" d="M12.7,51.4l-3.4-4.2L9.5,47l1.6,2l0.3-0.2L10,47.1l0.2-0.2l1.4,1.7l0.3-0.2c-0.2-0.2-0.6-0.7-1.2-1.5l0.2-0.2
		c0.2,0.3,0.6,0.5,1,0.6l-0.5-0.7l0.2-0.2l2.4,3l-0.2,0.2l-0.3-0.3c0,0.3-0.1,0.6-0.1,0.9L13,50.1c0-0.1,0.1-0.2,0.1-0.3
		c-0.5-0.5-0.8-0.9-1-1.1l-0.3,0.2l1.4,1.7L13,50.7L11.6,49l-0.3,0.2l1.6,2L12.7,51.4z M14.1,50.1l-0.2-0.3l0.4-0.4L11.5,46
		l-0.4,0.3l-0.2-0.3l0.6-0.5l3.3,4L14.1,50.1z M13.1,49.4c0-0.1,0-0.2,0-0.3l0.2,0l-1.2-1.4c-0.3,0-0.6-0.1-0.8-0.3
		C11.7,47.8,12.2,48.5,13.1,49.4z M14.6,49l-2.5-3.1l0.6-0.5l2.5,3.1L14.6,49z M14.6,48.5l0.3-0.2l-2.1-2.6L12.5,46L14.6,48.5z
		 M16.4,48.4l-1.6-2l-0.2,0.2l1.4,1.7l-0.2,0.2l-3-3.7l0.2-0.2l1.4,1.7l0.2-0.2l-1.6-2l0.2-0.2l1.6,2l0.2-0.2l0.2,0.3L15,46.3l1.6,2
		L16.4,48.4z"/>
	<path class="st1" d="M19.1,54.2l-1.8-1.3l-1.1,1.4L16,54.1l1.1-1.4l-1.8-1.4l1.4-1.9l1.8,1.4l0.6-0.9l0.3,0.2L18.8,51l1.8,1.3
		L19.1,54.2z M17.2,52.4l1-1.4l-1.5-1.2l-1,1.4L17.2,52.4z M19,53.8l1-1.4l-1.5-1.1l-1,1.4L19,53.8z"/>
	<path class="st1" d="M24.7,58.1c-0.1,0.1-0.1,0.2-0.2,0.3s-0.3,0-0.6-0.1c-0.1,0-0.2-0.1-0.3-0.1l0-0.3c0.2,0.1,0.4,0.2,0.5,0.2
		c0.2,0.1,0.3,0,0.3-0.1l0.6-1.6l-3.9-1.5l-0.8,2l-0.3-0.1l0.9-2.3l4.5,1.8L24.7,58.1z M23.8,57.6l-2.4-1l0.4-1.1l2.4,1L23.8,57.6z
		 M26.4,54.5l-5-2l0.1-0.3l2.4,0.9c0-0.1,0-0.3,0-0.5l0.3,0c0,0.2,0,0.4,0,0.6l2.3,0.9L26.4,54.5z M25,55.6l-3.3-1.3l0.4-1.1
		l3.3,1.3L25,55.6z M23.5,57.2l0.2-0.5L22,55.9l-0.2,0.5L23.5,57.2z M24.8,55.2l0.2-0.5l-2.7-1.1l-0.2,0.5L24.8,55.2z"/>
	<path class="st1" d="M32.2,58.2L31,58.1L30.9,59c0,0.2-0.1,0.4-0.2,0.4c-0.1,0.1-0.4,0.1-0.7,0c-0.1,0-0.3,0-0.5-0.1l-0.1-0.3
		c0.2,0,0.4,0.1,0.6,0.1c0.2,0,0.3,0,0.4,0c0.1,0,0.1-0.1,0.1-0.2l0.1-1l-4-0.5l0-0.3l4,0.5l0.1-0.6l-3.4-0.4l0-0.3l2,0.2l0.1-0.5
		l-2.3-0.3l0-0.3l2.3,0.3l0-0.4l0.3,0l0,0.4l2.3,0.3l0,0.3l-2.3-0.3l-0.1,0.5l2,0.2l0,0.3l-0.6-0.1L31,57.8l1.1,0.1L32.2,58.2z
		 M29.7,55l-1.8-0.2c-0.2,0.2-0.5,0.4-0.7,0.6L27,55.1c0.5-0.2,0.9-0.6,1.2-1.2l0.3,0.1c-0.1,0.1-0.2,0.3-0.3,0.4l1.6,0.2L29.7,55z
		 M29,58.9L28.7,59c-0.3-0.4-0.6-0.7-0.9-0.9l0.3-0.2C28.5,58.3,28.8,58.6,29,58.9z M28.8,55.5l-0.3,0.1c-0.1-0.2-0.2-0.3-0.4-0.5
		l0.3-0.1C28.6,55.1,28.7,55.3,28.8,55.5z M32.4,55.3l-2-0.2c-0.2,0.1-0.3,0.2-0.4,0.3l-0.2-0.2c0.4-0.3,0.7-0.6,0.9-1l0.3,0.1
		c-0.1,0.2-0.2,0.3-0.3,0.4l1.8,0.2L32.4,55.3z M31.5,55.8L31.2,56c-0.1-0.2-0.2-0.3-0.4-0.5l0.3-0.1C31.3,55.5,31.5,55.7,31.5,55.8
		z"/>
	<path class="st1" d="M34.7,54.4c-0.3,0.5-0.8,1-1.4,1.4L33,55.7c0.6-0.5,1.1-0.9,1.4-1.4L34.7,54.4z M35,55.6
		c-0.1,0.3-0.3,0.6-0.5,0.9l0.4,3l-0.3,0l-0.3-2.7c-0.2,0.3-0.4,0.5-0.7,0.8l-0.2-0.2c0.7-0.7,1.2-1.4,1.4-2L35,55.6z M38.7,55.9
		l-1,0.1l0.3,2.6c0,0.1,0,0.2-0.1,0.3c-0.1,0.1-0.1,0.1-0.2,0.2s-0.3,0.1-0.5,0.1c-0.2,0-0.4,0-0.6,0.1L36.4,59c0.2,0,0.4,0,0.6-0.1
		c0.4,0,0.6-0.1,0.6-0.1s0.1-0.1,0-0.1l-0.3-2.7l-2.2,0.3l0-0.3l3.6-0.4L38.7,55.9z M38.2,54.4l-3,0.4l0-0.3l3-0.4L38.2,54.4z"/>
	<path class="st1" d="M42.8,56.4c-0.8,0.8-1.5,1.4-2.2,1.9l-0.2-0.2c0.2-0.1,0.3-0.2,0.3-0.3l-1.1-2.7l0.3-0.1l1.1,2.6
		c0.1-0.1,0.3-0.2,0.5-0.4l-1.4-3.4l-1.2,0.5L38.8,54l2.5-1l0.1,0.3l-1,0.4l0.6,1.4l0.8-0.3l0.1,0.3L41,55.3l0.6,1.6
		c0.2-0.2,0.5-0.5,0.9-0.8L42.8,56.4z M45.7,56.3l-0.1,0.3c-0.7-0.1-1.3-0.2-1.7-0.4c-0.3,0.6-0.6,1.1-1,1.5l-0.3-0.1
		c0.5-0.6,0.8-1.1,1-1.6c-0.4-0.3-0.8-0.6-1.1-1.1l0.2-0.2c0.3,0.4,0.7,0.8,1,1c0.2-0.7,0.1-1.5-0.3-2.5l-1.1,0.4c0,0.5,0,1,0,1.4
		L42,54.9c0.1-0.8,0.1-1.6-0.2-2.5l0.3-0.1c0.1,0.3,0.1,0.6,0.2,0.9l1.7-0.7l0.1,0.3L43.8,53c0.4,1.2,0.5,2.1,0.2,2.8
		C44.5,56.1,45.1,56.2,45.7,56.3z"/>
	<path class="st1" d="M45.6,51.3l-0.1,0.3c-0.4,0-0.8,0-1.3,0l0-0.3C44.8,51.2,45.2,51.2,45.6,51.3z M46.4,52.5l0,0.3
		c-0.3-0.1-0.8-0.1-1.3,0l0-0.3C45.7,52.5,46.1,52.5,46.4,52.5z M50,50.3l-1.6,1.2c0.2,0.9,0.2,1.8,0.1,2.5c0.7-0.6,1.3-1.3,1.8-1.9
		c-0.4-0.1-0.8-0.3-1.1-0.3l0.1-0.3c0.9,0.2,1.6,0.5,2.1,0.7l-0.1,0.3c-0.3-0.1-0.5-0.2-0.7-0.3c-0.6,0.7-1.4,1.5-2.2,2.3l-0.3-0.2
		c0.1-0.2,0.2-0.5,0.1-1c0-0.5-0.1-1-0.2-1.6l-1.2,0.9l-0.2-0.2l1.5-1.1l-0.7-0.9l-1.2,0.9L46,51.1l1.2-0.9l-0.6-0.7l0.3-0.2
		l0.6,0.7l1.2-0.9l0.2,0.2l-1.2,0.9l0.7,0.9l1.4-1.1L50,50.3z M47,53.3c0.2,0.9,0.3,1.7,0.3,2.3l-0.3,0c0-0.6-0.1-1.4-0.3-2.3
		L47,53.3z"/>
	<path class="st1" d="M50.8,48.1c0.6,0,1,0.2,1.4,0.5c0.1,0.1,0.2,0.2,0.3,0.4c0,0.2-0.1,0.4-0.3,0.6c-0.1,0.1-0.1,0.1-0.2,0.2
		l-0.3-0.1l0.2-0.3c0.1-0.2,0.2-0.3,0.2-0.3c0-0.1,0-0.1-0.1-0.2c-0.4-0.3-0.8-0.4-1.4-0.4c-0.2-0.4-0.5-0.8-0.8-1.3l-0.6,0.7l3.7,3
		l-0.2,0.3l-4-3.2l1-1.2l0.2,0.2C50.3,47.2,50.6,47.7,50.8,48.1z M53.4,44.9l-0.2,0.3l-0.7-0.6l-1.7,2.1l0.7,0.6l-0.2,0.3l-0.9-0.8
		l0.9-1.2c-0.1-0.1-0.3-0.1-0.6-0.2l0.1-0.3c0.2,0,0.4,0.1,0.6,0.2l1-1.2L53.4,44.9z M53.1,45.4l-1.4,1.7l-0.2-0.2l1.4-1.7
		L53.1,45.4z M55.2,46.2c0.2,0.2,0.4,0.4,0.5,0.5c0.1,0.1,0.1,0.3,0.1,0.4c0,0.1-0.1,0.3-0.3,0.5c-0.2,0.3-0.4,0.3-0.6,0.2l-1.4-1.2
		L53,47.2c0.5,0.5,0.8,0.9,0.9,1.3c0.1,0.4,0.1,0.8-0.1,1.4l-0.4,0c0.2-0.5,0.2-0.9,0.1-1.3c-0.1-0.4-0.3-0.7-0.8-1.1l-0.6,0.7
		L52,48l2.1-2.6l0.2,0.2l-0.6,0.8l1.4,1.1c0,0,0.1,0,0.1,0s0.1-0.1,0.2-0.2c0.1-0.1,0.1-0.2,0.2-0.2s0-0.1,0-0.1
		c0,0-0.1-0.1-0.2-0.2s-0.2-0.2-0.4-0.3L55.2,46.2z"/>
</g>
<g>
	<path class="st5" d="M9.7,37.2l0.1,0.5l-3.5,0.9l0.2,0.7l-0.6,0.2l-0.5-1.9L6,37.4l0.2,0.7L9.7,37.2z"/>
	<path class="st5" d="M8.4,35.7l1,0.2l0.1,0.6L5,35.8l-0.1-0.5L9,33.4L9.1,34l-0.9,0.4L8.4,35.7z M6,35.4l1.9,0.2l-0.1-1L6,35.4z"/>
	<path class="st5" d="M9,32.5L9,33l-4.2,0.2l0-0.6L9,32.5z"/>
	<path class="st5" d="M5.8,29.6c-0.3,0.2-0.5,0.4-0.5,0.7c0,0.3,0.1,0.6,0.5,0.8c0.3,0.2,0.7,0.3,1.1,0.3c0.4,0,0.8-0.1,1.1-0.3
		c0.3-0.2,0.5-0.4,0.5-0.7c0-0.3-0.1-0.5-0.4-0.7l0.9,0c0.2,0.3,0.2,0.5,0.2,0.8c0,0.5-0.2,0.8-0.7,1.1C8,31.9,7.5,32,6.9,32
		c-0.6,0-1.2-0.2-1.6-0.5c-0.4-0.3-0.6-0.7-0.6-1.2c0-0.2,0.1-0.5,0.3-0.7L5.8,29.6z"/>
	<path class="st5" d="M6.9,26.8l-1.7-0.3L5.2,26l4.2,0.6l-0.1,0.6l-1.9-0.3l-0.2,1.4l1.9,0.3l-0.1,0.6l-4.2-0.6L5,27.9l1.7,0.3
		L6.9,26.8z"/>
	<path class="st5" d="M5.5,24.8l0.2-0.5L7.9,25c0.9,0.3,1.4,0.2,1.5-0.3s-0.3-0.8-1.1-1L6,23l0.2-0.5l2.4,0.7
		c1.2,0.3,1.6,0.9,1.4,1.7s-0.9,1-2.1,0.7L5.5,24.8z"/>
	<path class="st5" d="M6.5,21.3l0.2-0.4l3.7-0.4l-2.8-1.3l0.2-0.5l4,1.8l-0.2,0.4l-3.7,0.4l2.8,1.3l-0.2,0.5L6.5,21.3z"/>
	<path class="st5" d="M11.6,16.2L11.6,16.2c0.7,0.4,1,0.8,1.3,1.3s0.2,0.9-0.1,1.3c-0.2,0.4-0.6,0.6-1.2,0.6c-0.5,0-1-0.1-1.6-0.5
		c-0.5-0.3-0.9-0.8-1.1-1.3s-0.2-0.9,0.1-1.3c0.3-0.5,0.9-0.7,1.6-0.6l0,0.6c-0.5-0.1-0.9,0-1.1,0.3c-0.2,0.2-0.2,0.5,0,0.9
		c0.2,0.3,0.4,0.6,0.8,0.9s0.7,0.4,1.1,0.4s0.6-0.1,0.8-0.4c0.1-0.2,0.2-0.5,0-0.7c-0.1-0.3-0.3-0.5-0.6-0.6l-0.4,0.7l-0.5-0.3
		L11.6,16.2z"/>
	<path class="st5" d="M14.7,12.4l-1.2-1.2l0.4-0.4l3,3l-0.4,0.4l-1.4-1.4l-1,1l1.4,1.4l-0.4,0.4l-3-3l0.4-0.4l1.2,1.2L14.7,12.4z"/>
	<path class="st5" d="M17.7,13.1l-0.4,0.4l-2.7-3.3L15,9.8L17.7,13.1z"/>
	<path class="st5" d="M19.4,9.1L19.4,9.1c0.4,0.6,0.6,1.2,0.6,1.7s-0.2,0.9-0.6,1.1c-0.4,0.3-0.8,0.3-1.3,0.1
		c-0.5-0.2-0.9-0.5-1.3-1c-0.4-0.5-0.5-1.1-0.5-1.6c0-0.5,0.2-0.9,0.6-1.2c0.5-0.3,1.1-0.3,1.7,0.1l-0.2,0.6
		c-0.4-0.3-0.8-0.4-1.1-0.1c-0.2,0.2-0.4,0.4-0.3,0.8c0,0.4,0.2,0.8,0.4,1.1c0.2,0.4,0.5,0.6,0.9,0.8s0.6,0.1,0.9,0
		c0.2-0.1,0.3-0.4,0.3-0.6c0-0.3-0.1-0.6-0.3-0.8l-0.7,0.4L18.2,10L19.4,9.1z"/>
	<path class="st5" d="M21.7,7.7l-0.8-1.5l0.5-0.2l1.9,3.8l-0.5,0.2l-0.9-1.8l-1.2,0.6l0.9,1.8L21,10.8L19.2,7l0.5-0.3l0.8,1.5
		L21.7,7.7z"/>
	<path class="st5" d="M26,7.7l-0.1,1l-0.6,0.1l0.2-4.5l0.5-0.1l2.3,3.9l-0.6,0.1l-0.5-0.9L26,7.7z M26.1,5.3l0,1.9l1-0.2L26.1,5.3z"
		/>
	<path class="st5" d="M28.2,3.9l0.9-0.1c0.5-0.1,0.9,0.1,1.2,0.5c0.3,0.4,0.5,0.9,0.6,1.5s0,1.1-0.3,1.6c-0.3,0.4-0.6,0.7-1.1,0.7
		l-0.9,0.1L28.2,3.9z M29.2,7.4l0.2,0c0.8-0.1,1.1-0.6,1-1.6c-0.1-1-0.6-1.4-1.4-1.3l-0.2,0L29.2,7.4z"/>
	<path class="st5" d="M34.3,5l-0.9,2.9l-0.1,0l-0.7-3l-0.5,2.9l-0.6,0l0.7-4.3l0.4,0l0.8,2.9l0.9-2.9l0.4,0l0.4,4.4l-0.6,0L34.3,5z"
		/>
	<path class="st5" d="M36.1,8.1L35.5,8l0.6-4.2l0.6,0.1L36.1,8.1z"/>
	<path class="st5" d="M37.7,3.9L38.1,4l1.1,3.5l0.7-3l0.5,0.1l-1,4.2l-0.4-0.1L38,5.2l-0.7,3l-0.6-0.1L37.7,3.9z"/>
	<path class="st5" d="M40.6,9.2L40.1,9l1.4-4L42,5.2L40.6,9.2z"/>
	<path class="st5" d="M44,6.9c0-0.3-0.1-0.5-0.3-0.6c-0.1-0.1-0.3-0.1-0.4,0C43.1,6.4,43,6.5,43,6.7c-0.1,0.2,0,0.4,0.2,0.8
		C43.4,7.8,43.5,8,43.5,8c0.1,0.3,0.1,0.6,0,0.9c-0.2,0.4-0.4,0.7-0.7,0.9c-0.3,0.2-0.6,0.2-0.9,0.1c-0.4-0.2-0.6-0.6-0.6-1.2
		l0.5-0.3c0,0.2,0,0.3,0.1,0.5c0.1,0.2,0.2,0.3,0.3,0.3c0.1,0.1,0.3,0.1,0.4,0c0.1-0.1,0.3-0.2,0.3-0.4C43,8.7,43,8.5,43,8.4
		c0-0.1-0.2-0.4-0.4-0.7c-0.3-0.4-0.3-0.7-0.2-1.1C42.5,6.2,42.7,6,43,5.8s0.5-0.2,0.8-0.1c0.4,0.2,0.6,0.4,0.6,0.8L44,6.9z"/>
	<path class="st5" d="M44.3,10.9l-0.4-0.2l1.8-3.2l-0.7-0.4l0.3-0.5l1.7,1L46.7,8L46,7.7L44.3,10.9z"/>
	<path class="st5" d="M47,12.6l-0.6-0.4l0.3-2.1l-1.1,1.6l-0.5-0.3l2.4-3.5l0.7,0.5c0.6,0.4,0.7,1,0.2,1.7c-0.2,0.3-0.4,0.5-0.6,0.6
		c-0.2,0.1-0.4,0.1-0.6,0L47,12.6z M46.9,9.9L47,10c0.4,0.3,0.7,0.2,1-0.2c0.3-0.4,0.2-0.7-0.2-1l-0.1-0.1L46.9,9.9z"/>
	<path class="st5" d="M48.4,12.6l-0.9,0.5l-0.5-0.4l3.9-2.4l0.4,0.3l-1.9,4.1L49,14.3l0.4-0.9L48.4,12.6z M50.4,11.2l-1.6,1l0.7,0.7
		L50.4,11.2z"/>
	<path class="st5" d="M50.3,15.7L50,15.3l2.7-2.5l-0.5-0.5l0.4-0.4l1.3,1.5l-0.4,0.4L53,13.3L50.3,15.7z"/>
	<path class="st5" d="M51.4,17L51,16.5l3.3-2.6l0.4,0.4L51.4,17z"/>
	<path class="st5" d="M53.3,17.9l3.1-1.1l0.3,0.5l-4.4,1.3l-0.2-0.3l2.9-3.5l0.3,0.5L53.3,17.9z"/>
	<path class="st5" d="M56.8,18.7l-1,0.5l0.5,1l-0.5,0.3l-0.5-1l-1.2,0.6l0.5,1l-0.5,0.3l-0.8-1.5l3.8-1.9l0.8,1.5l-0.5,0.3
		L56.8,18.7z"/>
	<path class="st5" d="M58.8,25c0.2-0.3,0.3-0.5,0.2-0.8c-0.1-0.3-0.3-0.5-0.7-0.6s-0.7-0.1-1.1,0c-0.4,0.1-0.7,0.3-0.9,0.6
		C56,24.4,55.9,24.7,56,25c0.1,0.3,0.3,0.5,0.6,0.6l-0.8,0.2c-0.2-0.2-0.4-0.4-0.5-0.7c-0.1-0.4,0-0.9,0.3-1.3
		c0.3-0.4,0.8-0.7,1.4-0.9c0.6-0.2,1.2-0.2,1.7,0c0.5,0.2,0.8,0.5,1,0.9c0.1,0.2,0.1,0.5,0,0.8L58.8,25z"/>
	<path class="st5" d="M57.9,25.9c0.6-0.1,1.2,0,1.6,0.2c0.5,0.2,0.8,0.6,0.8,1.1s-0.1,0.9-0.5,1.3s-0.9,0.6-1.5,0.7s-1.2,0-1.6-0.2
		c-0.5-0.2-0.8-0.6-0.8-1.1c-0.1-0.5,0.1-0.9,0.5-1.3C56.8,26.3,57.3,26,57.9,25.9z M58,26.5c-0.4,0.1-0.8,0.2-1,0.5
		c-0.3,0.2-0.4,0.5-0.4,0.8c0,0.3,0.2,0.6,0.6,0.7s0.7,0.2,1.1,0.1c0.4-0.1,0.8-0.2,1-0.4c0.3-0.2,0.4-0.5,0.3-0.8
		c0-0.3-0.2-0.6-0.5-0.7C58.8,26.5,58.4,26.5,58,26.5z"/>
	<path class="st5" d="M60.5,29.9l0,0.6l-2.4,0c-0.9,0-1.4,0.2-1.4,0.7s0.5,0.7,1.4,0.7l2.4,0l0,0.6l-2.5,0c-1.2,0-1.8-0.4-1.8-1.2
		c0-0.8,0.6-1.2,1.8-1.3L60.5,29.9z"/>
	<path class="st5" d="M56,35.2l0.1-0.7l2-0.7l-1.9-0.2l0.1-0.6l4.2,0.5l-0.1,0.9c-0.1,0.7-0.5,1.1-1.4,1c-0.3,0-0.6-0.1-0.8-0.3
		c-0.2-0.2-0.3-0.3-0.3-0.6L56,35.2z M58.4,33.8l0,0.2c-0.1,0.5,0.2,0.7,0.7,0.8c0.5,0.1,0.8-0.2,0.8-0.6l0-0.2L58.4,33.8z"/>
	<path class="st5" d="M55.8,36.6l0.1-0.5l3.6,0.7l0.2-0.7l0.6,0.1l-0.4,2L59.2,38l0.2-0.7L55.8,36.6z"/>
</g>
<path class="st4" d="M3,42.1"/>
</svg>
