<svg id="圖層_1" data-name="圖層 1" xmlns="http://www.w3.org/2000/svg" xmlns:xlink="http://www.w3.org/1999/xlink" viewBox="0 0 270.84 64"><defs><style>.cls-1{fill:#333;}.cls-2{fill:#fff;}.cls-3{fill:url(#linear-gradient);}.cls-4{fill:#005bab;}.cls-5{fill:#b7a246;}</style><linearGradient id="linear-gradient" x1="32.65" y1="60.77" x2="32.65" y2="37.52" gradientUnits="userSpaceOnUse"><stop offset="0.69" stop-color="#b7a246"/><stop offset="1" stop-color="#fff"/></linearGradient></defs><path class="cls-1" d="M91.66,16.26v1.89H70.73V16.26h9.53c-.22-.65-.46-1.37-.67-2l2.25-.53c.31.77.7,1.73.94,2.5ZM91,33.68c0,1.06-.26,1.47-1,1.76a11.26,11.26,0,0,1-3.45.26,7.44,7.44,0,0,0-.7-1.66c1,.05,2.21.05,2.47,0s.44-.1.44-.39V27.23H73.68v8.66H71.5V25.38H91ZM88.56,19.31v4.92H74.16V19.31ZM78.07,33.47v1.1H76V28.4H86.19v5.07Zm8.14-12.6H76.37v1.77h9.84ZM78.07,30v1.85h6.15V30Z"/><path class="cls-1" d="M100.73,19.83c-.74,4.61-1.92,8.55-3.82,11.43A16.89,16.89,0,0,0,95,30c1.8-2.47,2.88-6,3.55-10.16H96V17.7h3c.17-1.25.29-2.55.38-3.84l2.14.19c-.12,1.25-.26,2.47-.41,3.65h4.78v2.13Zm3.74,7.11a53.72,53.72,0,0,1,2,7.44l-1.8.65c-.07-.53-.19-1.08-.31-1.71-4.78.87-5.54,1.06-6,1.35a10.93,10.93,0,0,0-.7-1.9c.46-.14.82-.84,1.3-1.87a43,43,0,0,0,2.69-8.52l2.11.5a54,54,0,0,1-3.38,9.29l3.57-.6c-.33-1.39-.74-2.83-1.1-4.08Zm12.75,7.75h-8.16v1.18h-2v-14a17.19,17.19,0,0,1-1.58,2.28,10.76,10.76,0,0,0-1.3-1.76,23.35,23.35,0,0,0,4.2-8.37l1.9.5a38.26,38.26,0,0,1-1.44,3.87H117v2h-3v2.86h2.88v1.9H114V27.9h2.91v1.9H114v2.88h3.22Zm-8.16-14.38v2.86H112V20.31ZM112,25.07h-2.93V27.9H112Zm-2.93,7.61H112V29.8h-2.93Zm3.82-18.51a19.36,19.36,0,0,1,1.6,3.41l-2,.74A21.59,21.59,0,0,0,111,14.79Z"/><path class="cls-1" d="M142.06,16.26v1.89H121.13V16.26h9.53c-.22-.65-.46-1.37-.67-2l2.25-.53c.31.77.7,1.73.94,2.5Zm-.65,17.42c0,1.06-.26,1.47-1,1.76a11.26,11.26,0,0,1-3.45.26,7.44,7.44,0,0,0-.7-1.66c1,.05,2.21.05,2.47,0s.44-.1.44-.39V27.23H124.08v8.66H121.9V25.38h19.51ZM139,19.31v4.92h-14.4V19.31ZM128.47,33.47v1.1h-2.06V28.4h10.18v5.07Zm8.14-12.6h-9.84v1.77h9.84ZM128.47,30v1.85h6.15V30Z"/><path class="cls-1" d="M149.67,17.39a15.4,15.4,0,0,1-2.31,2.76,12.33,12.33,0,0,0-1.53-1.54,13.09,13.09,0,0,0,3.62-4.94l2,.57c-.19.43-.38.82-.62,1.25h5.81v1.9h-4a20.85,20.85,0,0,1,1.94,1.87l-1.44,1.29a20.86,20.86,0,0,0-2.4-2.44l.84-.72Zm13.08,10.92h4.63v1.82h-4.63v3.6c0,1.13-.29,1.66-1.18,1.9a18.52,18.52,0,0,1-4.32.26,8.44,8.44,0,0,0-.6-1.82c1.42.07,2.91,0,3.27,0s.52-.12.52-.45V30.13h-8.59a42.81,42.81,0,0,1,3.84,3.39L154,34.84a38.12,38.12,0,0,0-3.82-3.63l1.47-1.08h-5.38V28.31h14.16V26.84h2.31Zm5.06-12.82v1.92H163a15.31,15.31,0,0,1,1.92,2.09l-1.53,1.29a14.76,14.76,0,0,0-2.23-2.56l1-.82H160a13.69,13.69,0,0,1-2,2.86l-.07-.08v.7h8.62v1.9H158v1.8h7.23v1.75H148.35V24.59h7.32v-1.8h-8.55v-1.9h8.55V19.55h1.51a8.69,8.69,0,0,0-.82-.6,12.87,12.87,0,0,0,3-5.26l2,.48c-.14.46-.29.89-.46,1.32Z"/><path class="cls-1" d="M179.43,19.76a34.21,34.21,0,0,1-2.62,3.68v12.5h-2.23v-10c-.79.79-1.61,1.53-2.38,2.16a12.74,12.74,0,0,0-1.53-1.9,25.45,25.45,0,0,0,6.64-7.2Zm-.92-5a31.42,31.42,0,0,1-6.33,6.07,11.51,11.51,0,0,0-1.27-1.8,21.67,21.67,0,0,0,5.47-5.16Zm14.41,9.22h-3.46v9.24c0,1.27-.29,1.92-1.2,2.28a14.87,14.87,0,0,1-4.54.36,8.78,8.78,0,0,0-.72-2.23c1.54,0,3.15,0,3.58,0s.6-.12.6-.45V23.94h-7.59V21.8h13.33Zm-.68-6.55H180.6V15.25h11.64Z"/><path class="cls-1" d="M216.68,20.34a27.54,27.54,0,0,1-3,9.5A11.76,11.76,0,0,0,218.45,34a8.37,8.37,0,0,0-1.51,1.9,13.27,13.27,0,0,1-4.58-4,16.18,16.18,0,0,1-5.16,4.1,9.44,9.44,0,0,0-1.3-2,12.81,12.81,0,0,0,5.21-4.17,25.72,25.72,0,0,1-2.23-6.05c-.41.69-.82,1.32-1.25,1.92a10.6,10.6,0,0,0-1.35-1.23h-2.66V30l3.77-.79.21,2c-3.93.93-8.13,1.92-11.13,2.57l-.41-2.24,1.34-.26V20.84h2v10l2-.44V17.58h-4.89V15.42h10.9v2.16h-3.82v4.75h3v.75a25.54,25.54,0,0,0,3.19-9.25l2.21.39c-.26,1.39-.6,2.73-1,4h7.2v2.09Zm-6.46.38a27.7,27.7,0,0,0,2.21,6.89,25.65,25.65,0,0,0,2-7.27h-4.08Z"/><path class="cls-1" d="M225.91,24.76a22.32,22.32,0,0,0-4.41-2.6l1.17-1.68a20.56,20.56,0,0,1,4.47,2.43Zm-3.62,9.33a65.87,65.87,0,0,0,4.54-7.61L228.46,28c-1.25,2.5-2.83,5.38-4.25,7.63Zm1.78-20a24.27,24.27,0,0,1,4.51,2.45l-1.3,1.85a20.29,20.29,0,0,0-4.46-2.67Zm17,21.75a11.81,11.81,0,0,0-1-2.26c-8.47,1-9.55,1.23-10.27,1.56a19.26,19.26,0,0,0-.77-2.23c.51-.12,1-.67,1.54-1.56a34,34,0,0,0,2.95-5.54h-4.94V23.72h5.92V19.83h-4.92V17.72h4.92V13.86h2.28v3.86H242v2.11h-5.12v3.89h6v2.12h-6.63a45.26,45.26,0,0,1-3.81,6.64l6.67-.72c-.58-1-1.25-1.92-1.87-2.8l1.8-.87a28.92,28.92,0,0,1,4.1,6.77Z"/><path class="cls-1" d="M254.69,15.59c-.67,2-1.51,4.32-2.23,6.16a7.84,7.84,0,0,1,1.94,5.12,3.54,3.54,0,0,1-1,2.93,2.94,2.94,0,0,1-1.3.48c-.43,0-1,0-1.58,0a4.83,4.83,0,0,0-.51-1.94,10.45,10.45,0,0,0,1.23,0,1.22,1.22,0,0,0,.69-.19,2,2,0,0,0,.48-1.56,6.9,6.9,0,0,0-2-4.63c.6-1.58,1.24-3.6,1.68-5.19h-2.62v19h-2v-21h5.35l.32-.09Zm11.67,18.09c.45,0,.55-.38.6-2.95a4.89,4.89,0,0,0,1.87.82c-.19,3.21-.7,4-2.23,4h-2c-1.85,0-2.28-.6-2.28-2.62V27.3h-2.09c-.38,4.2-1.53,7-6.07,8.59a6.18,6.18,0,0,0-1.27-1.77c4-1.28,4.87-3.44,5.18-6.82H255v-2h13.52v2h-4v5.64c0,.65.08.74.53.74Zm-9.53-12.53h-1.9V16.74h5.83a19,19,0,0,0-1.13-2.47l2.07-.6a16.22,16.22,0,0,1,1.46,3.07h5.24v4.41h-1.9V23h-9.67Zm.16-2.47V21h9.27V18.68Z"/><path class="cls-1" d="M72.58,44.17h.81v3l3.16-3h1.06l-3.8,3.55,4.09,4.35H76.85l-3.46-3.68v3.68h-.81Z"/><path class="cls-1" d="M84.89,46.23v5.84h-.74v-1a3.27,3.27,0,0,1-1.06.86,2.78,2.78,0,0,1-1.29.29,2.87,2.87,0,0,1-2.12-.9,3,3,0,0,1-.87-2.18A2.93,2.93,0,0,1,79.69,47a2.89,2.89,0,0,1,2.14-.9,2.71,2.71,0,0,1,1.3.31,2.92,2.92,0,0,1,1,.91V46.23Zm-3,.57a2.28,2.28,0,0,0-2,1.18,2.37,2.37,0,0,0-.31,1.18,2.3,2.3,0,0,0,.32,1.18,2.25,2.25,0,0,0,.85.88,2.17,2.17,0,0,0,1.14.31,2.33,2.33,0,0,0,1.17-.31,2.21,2.21,0,0,0,.85-.84,2.43,2.43,0,0,0,.3-1.2,2.28,2.28,0,0,0-.67-1.69A2.18,2.18,0,0,0,81.89,46.8Z"/><path class="cls-1" d="M89.46,46.08a2.9,2.9,0,0,1,2.24,1,3,3,0,0,1,.8,2.11,3,3,0,0,1-.85,2.14,3.1,3.1,0,0,1-4.39,0,3.14,3.14,0,0,1,0-4.25A2.9,2.9,0,0,1,89.46,46.08Zm0,.74a2.19,2.19,0,0,0-1.62.69,2.43,2.43,0,0,0-.36,2.86,2.16,2.16,0,0,0,.83.84,2.27,2.27,0,0,0,1.15.3,2.23,2.23,0,0,0,1.14-.3,2.16,2.16,0,0,0,.83-.84,2.35,2.35,0,0,0,.31-1.19,2.3,2.3,0,0,0-.67-1.67A2.2,2.2,0,0,0,89.46,46.82Z"/><path class="cls-1" d="M94,44h.75v3.31a3.22,3.22,0,0,1,1-.9,2.45,2.45,0,0,1,1.19-.3,2.07,2.07,0,0,1,1.16.33,2,2,0,0,1,.75.9,4.76,4.76,0,0,1,.24,1.76v3h-.75V49.29a7.41,7.41,0,0,0-.08-1.35,1.37,1.37,0,0,0-1.47-1.17,1.84,1.84,0,0,0-1.22.45,2.1,2.1,0,0,0-.71,1.12,7.15,7.15,0,0,0-.11,1.59v2.14H94Z"/><path class="cls-1" d="M103.76,46.87l-.48.5a1.75,1.75,0,0,0-1.18-.59.92.92,0,0,0-.63.24.78.78,0,0,0-.26.57.8.8,0,0,0,.22.54,2.91,2.91,0,0,0,.9.62,3.34,3.34,0,0,1,1.14.84,1.51,1.51,0,0,1,.3.91,1.62,1.62,0,0,1-.51,1.22,1.7,1.7,0,0,1-1.26.5,2.19,2.19,0,0,1-1-.22,2.14,2.14,0,0,1-.76-.6l.47-.54a1.68,1.68,0,0,0,1.23.65,1.13,1.13,0,0,0,.77-.29.9.9,0,0,0,.1-1.26,3.43,3.43,0,0,0-.94-.62,3,3,0,0,1-1.08-.81,1.56,1.56,0,0,1,.17-2,1.58,1.58,0,0,1,1.15-.44A2.34,2.34,0,0,1,103.76,46.87Z"/><path class="cls-1" d="M105.46,43.82a.56.56,0,0,1,.44.19.59.59,0,0,1,.18.44.58.58,0,0,1-.18.43.59.59,0,0,1-.44.18.6.6,0,0,1-.43-.18.58.58,0,0,1-.18-.43A.59.59,0,0,1,105,44,.57.57,0,0,1,105.46,43.82Zm-.37,2.41h.75v5.84h-.75Z"/><path class="cls-1" d="M107.42,46.23h.75V49a5.86,5.86,0,0,0,.11,1.37,1.52,1.52,0,0,0,.62.85,1.83,1.83,0,0,0,1.08.31,1.87,1.87,0,0,0,1.07-.3,1.54,1.54,0,0,0,.6-.8,5.4,5.4,0,0,0,.11-1.43V46.23h.77V49.1a4.53,4.53,0,0,1-.28,1.82,2.14,2.14,0,0,1-.85,1,3.14,3.14,0,0,1-2.84,0,2.13,2.13,0,0,1-.86-1,4.67,4.67,0,0,1-.28-1.87Z"/><path class="cls-1" d="M114.31,46.23h.76v1.05a3.2,3.2,0,0,1,1-.9,2.48,2.48,0,0,1,1.2-.3,2.1,2.1,0,0,1,1.16.33,2,2,0,0,1,.75.9,4.79,4.79,0,0,1,.24,1.76v3h-.75V49.29a7.41,7.41,0,0,0-.08-1.35,1.37,1.37,0,0,0-1.47-1.17,1.87,1.87,0,0,0-1.23.45,2.16,2.16,0,0,0-.71,1.12,8.06,8.06,0,0,0-.1,1.59v2.14h-.76Z"/><path class="cls-1" d="M126.17,46.23h.75v4.66a5.62,5.62,0,0,1-.21,1.8,2.37,2.37,0,0,1-1,1.24,3.38,3.38,0,0,1-1.76.43,4.07,4.07,0,0,1-1.35-.21,2.62,2.62,0,0,1-1-.57,3.41,3.41,0,0,1-.69-1h.81a2.22,2.22,0,0,0,.86.86,3.13,3.13,0,0,0,2.61,0,1.75,1.75,0,0,0,.75-.72,3.19,3.19,0,0,0,.23-1.4V51a2.9,2.9,0,0,1-1,.83,3.12,3.12,0,0,1-2.82-.12,2.8,2.8,0,0,1-1.09-1.07,2.93,2.93,0,0,1-.39-1.49,3,3,0,0,1,.4-1.51,3,3,0,0,1,1.12-1.11,3,3,0,0,1,1.5-.41,2.84,2.84,0,0,1,1.23.27,3.39,3.39,0,0,1,1.09.9ZM124,46.8a2.48,2.48,0,0,0-1.19.31,2.2,2.2,0,0,0-.85.86,2.3,2.3,0,0,0-.32,1.18,2.13,2.13,0,0,0,.65,1.59,2.56,2.56,0,0,0,3.34,0,2.19,2.19,0,0,0,.63-1.64,2.43,2.43,0,0,0-.29-1.18,2.2,2.2,0,0,0-.82-.81A2.23,2.23,0,0,0,124,46.8Z"/><path class="cls-1" d="M131.91,44.17h.79v3.32h4V44.17h.79v7.9h-.79V48.26h-4v3.81h-.79Z"/><path class="cls-1" d="M139.68,43.82a.58.58,0,0,1,.44.19.59.59,0,0,1,.18.44.58.58,0,0,1-.18.43.6.6,0,0,1-.44.18.6.6,0,0,1-.43-.18.58.58,0,0,1-.18-.43.59.59,0,0,1,.18-.44A.57.57,0,0,1,139.68,43.82Zm-.37,2.41h.75v5.84h-.75Z"/><path class="cls-1" d="M146.77,46.23h.76v4.66a5.57,5.57,0,0,1-.22,1.8,2.37,2.37,0,0,1-1,1.24,3.34,3.34,0,0,1-1.75.43,4.07,4.07,0,0,1-1.35-.21,2.67,2.67,0,0,1-1-.57,3.41,3.41,0,0,1-.69-1h.82a2.09,2.09,0,0,0,.86.86,3.11,3.11,0,0,0,2.6,0,1.72,1.72,0,0,0,.76-.72,3.22,3.22,0,0,0,.22-1.4V51a3,3,0,0,1-1,.83,3.08,3.08,0,0,1-1.31.28,3,3,0,0,1-1.51-.4,2.83,2.83,0,0,1-1.1-1.07A3,3,0,0,1,143,46.49a3,3,0,0,1,1.51-.41,2.82,2.82,0,0,1,1.22.27,3.29,3.29,0,0,1,1.09.9Zm-2.21.57a2.43,2.43,0,0,0-1.19.31,2.22,2.22,0,0,0-.86.86,2.29,2.29,0,0,0-.31,1.18,2.13,2.13,0,0,0,.64,1.59,2.29,2.29,0,0,0,1.67.62,2.26,2.26,0,0,0,1.67-.62,2.19,2.19,0,0,0,.63-1.64,2.43,2.43,0,0,0-.29-1.18,2.13,2.13,0,0,0-.82-.81A2.22,2.22,0,0,0,144.56,46.8Z"/><path class="cls-1" d="M149.25,44H150v3.31a3.22,3.22,0,0,1,1-.9,2.45,2.45,0,0,1,1.19-.3,2.07,2.07,0,0,1,1.16.33,2,2,0,0,1,.75.9,4.76,4.76,0,0,1,.24,1.76v3h-.75V49.29a7.41,7.41,0,0,0-.08-1.35A1.37,1.37,0,0,0,152,46.77a1.84,1.84,0,0,0-1.22.45,2.1,2.1,0,0,0-.71,1.12,7.15,7.15,0,0,0-.11,1.59v2.14h-.75Z"/><path class="cls-1" d="M162.57,44.17l3.69,7.9h-.86l-1.24-2.6h-3.4l-1.23,2.6h-.88l3.73-7.9Zm-.1,1.68-1.35,2.86h2.7Z"/><path class="cls-1" d="M173.3,44v8.1h-.74v-1a3.27,3.27,0,0,1-1.06.86,2.78,2.78,0,0,1-1.29.29,2.87,2.87,0,0,1-2.12-.9,3,3,0,0,1-.87-2.18A2.93,2.93,0,0,1,168.1,47a2.88,2.88,0,0,1,2.13-.9,2.72,2.72,0,0,1,1.31.31,3,3,0,0,1,1,.91V44Zm-3,2.83a2.28,2.28,0,0,0-2,1.18,2.37,2.37,0,0,0-.31,1.18,2.42,2.42,0,0,0,1.16,2.06,2.23,2.23,0,0,0,1.15.31,2.33,2.33,0,0,0,1.17-.31,2.21,2.21,0,0,0,.85-.84,2.43,2.43,0,0,0,.3-1.2,2.28,2.28,0,0,0-.67-1.69A2.18,2.18,0,0,0,170.3,46.8Z"/><path class="cls-1" d="M175.11,46.23h.75v1a2.87,2.87,0,0,1,.81-.82,2.28,2.28,0,0,1,1.2-.34,1.83,1.83,0,0,1,.8.17,1.7,1.7,0,0,1,.63.44,2.41,2.41,0,0,1,.42.79,2.71,2.71,0,0,1,.93-1,2.22,2.22,0,0,1,1.21-.36,1.84,1.84,0,0,1,1.07.31,1.77,1.77,0,0,1,.69.85,4.5,4.5,0,0,1,.23,1.64v3.19h-.77V48.88a4.13,4.13,0,0,0-.14-1.29,1.19,1.19,0,0,0-.45-.57,1.42,1.42,0,0,0-.78-.21,1.75,1.75,0,0,0-1,.32,1.89,1.89,0,0,0-.66.86,5.82,5.82,0,0,0-.2,1.8v2.28h-.76v-3a5.15,5.15,0,0,0-.13-1.44,1.19,1.19,0,0,0-.46-.6,1.35,1.35,0,0,0-.78-.23,1.67,1.67,0,0,0-1,.31,1.88,1.88,0,0,0-.67.85,4.44,4.44,0,0,0-.22,1.63v2.47h-.75Z"/><path class="cls-1" d="M185.8,43.82a.58.58,0,0,1,.44.19.59.59,0,0,1,.18.44.58.58,0,0,1-.18.43.6.6,0,0,1-.44.18.61.61,0,0,1-.61-.61.59.59,0,0,1,.18-.44A.56.56,0,0,1,185.8,43.82Zm-.37,2.41h.75v5.84h-.75Z"/><path class="cls-1" d="M187.85,46.23h.76v1.05a3.2,3.2,0,0,1,1-.9,2.48,2.48,0,0,1,1.2-.3,2.1,2.1,0,0,1,1.16.33,2,2,0,0,1,.75.9,4.79,4.79,0,0,1,.24,1.76v3h-.75V49.29a7.41,7.41,0,0,0-.08-1.35,1.37,1.37,0,0,0-1.47-1.17,1.87,1.87,0,0,0-1.23.45,2.16,2.16,0,0,0-.71,1.12,8.06,8.06,0,0,0-.1,1.59v2.14h-.76Z"/><path class="cls-1" d="M194.93,43.82a.58.58,0,0,1,.44.19.59.59,0,0,1,.18.44.58.58,0,0,1-.18.43.6.6,0,0,1-.44.18.61.61,0,0,1-.61-.61.59.59,0,0,1,.18-.44A.56.56,0,0,1,194.93,43.82Zm-.37,2.41h.75v5.84h-.75Z"/><path class="cls-1" d="M199.92,46.87l-.48.5a1.75,1.75,0,0,0-1.18-.59.9.9,0,0,0-.63.24.78.78,0,0,0-.26.57.84.84,0,0,0,.21.54,3.13,3.13,0,0,0,.91.62,3.34,3.34,0,0,1,1.14.84,1.51,1.51,0,0,1,.3.91,1.62,1.62,0,0,1-.51,1.22,1.7,1.7,0,0,1-1.26.5,2.19,2.19,0,0,1-1-.22,2.05,2.05,0,0,1-.76-.6l.47-.54a1.66,1.66,0,0,0,1.22.65,1.1,1.1,0,0,0,.77-.29.86.86,0,0,0,.32-.68A.88.88,0,0,0,199,50a3.43,3.43,0,0,0-.94-.62,3,3,0,0,1-1.08-.81,1.49,1.49,0,0,1-.29-.9,1.45,1.45,0,0,1,.46-1.11,1.58,1.58,0,0,1,1.15-.44A2.36,2.36,0,0,1,199.92,46.87Z"/><path class="cls-1" d="M202,44.06h.75v2.17H204v.65h-1.19v5.19H202V46.88h-1v-.65h1Z"/><path class="cls-1" d="M204.92,46.23h.76v.85a2.91,2.91,0,0,1,.73-.75,1.4,1.4,0,0,1,.8-.25,1.42,1.42,0,0,1,.66.2l-.39.63a1,1,0,0,0-.4-.1,1.05,1.05,0,0,0-.72.31,1.91,1.91,0,0,0-.54,1,9.33,9.33,0,0,0-.14,2v2h-.76Z"/><path class="cls-1" d="M214.44,46.23v5.84h-.74v-1a3.17,3.17,0,0,1-1.06.86,2.78,2.78,0,0,1-1.29.29,2.84,2.84,0,0,1-2.11-.9,3,3,0,0,1-.88-2.18,2.93,2.93,0,0,1,.88-2.16,2.89,2.89,0,0,1,2.14-.9,2.69,2.69,0,0,1,1.3.31,2.92,2.92,0,0,1,1,.91V46.23Zm-3,.57a2.28,2.28,0,0,0-2,1.18,2.37,2.37,0,0,0-.31,1.18,2.41,2.41,0,0,0,.32,1.18,2.25,2.25,0,0,0,.85.88,2.17,2.17,0,0,0,1.14.31,2.33,2.33,0,0,0,1.17-.31,2.21,2.21,0,0,0,.85-.84,2.43,2.43,0,0,0,.3-1.2,2.28,2.28,0,0,0-.67-1.69A2.18,2.18,0,0,0,211.44,46.8Z"/><path class="cls-1" d="M216.9,44.06h.75v2.17h1.19v.65h-1.19v5.19h-.75V46.88h-1v-.65h1Z"/><path class="cls-1" d="M220.34,43.82a.58.58,0,0,1,.44.19.59.59,0,0,1,.18.44.58.58,0,0,1-.18.43.6.6,0,0,1-.44.18.61.61,0,0,1-.61-.61.59.59,0,0,1,.18-.44A.56.56,0,0,1,220.34,43.82ZM220,46.23h.75v5.84H220Z"/><path class="cls-1" d="M221.84,46.23h.8l2,4.26,1.94-4.26h.81l-2.68,5.84h-.14Z"/><path class="cls-1" d="M233.52,50.13l.63.34a3.17,3.17,0,0,1-.72,1,2.84,2.84,0,0,1-.92.57,3.19,3.19,0,0,1-1.15.19,2.81,2.81,0,0,1-2.24-.93,3.16,3.16,0,0,1-.81-2.12,3.1,3.1,0,0,1,.69-2,2.78,2.78,0,0,1,2.31-1.11,2.89,2.89,0,0,1,2.39,1.13,3.22,3.22,0,0,1,.65,2h-5.26a2.35,2.35,0,0,0,.65,1.67,2.09,2.09,0,0,0,1.55.65,2.57,2.57,0,0,0,.87-.15,2.53,2.53,0,0,0,.72-.42A3.27,3.27,0,0,0,233.52,50.13Zm0-1.57a2.52,2.52,0,0,0-.44-1,2.05,2.05,0,0,0-.76-.58,2.3,2.3,0,0,0-1-.22,2.12,2.12,0,0,0-1.48.55,2.48,2.48,0,0,0-.69,1.21Z"/><path class="cls-1" d="M246.5,45.64l-.63.48a3.34,3.34,0,0,0-1.23-1,3.7,3.7,0,0,0-1.59-.35,3.42,3.42,0,0,0-1.75.46,3.19,3.19,0,0,0-1.25,1.22,3.31,3.31,0,0,0-.44,1.72,3.24,3.24,0,0,0,1,2.41,3.45,3.45,0,0,0,2.5,1,3.52,3.52,0,0,0,2.77-1.3l.63.47A4,4,0,0,1,245,51.86a4.66,4.66,0,0,1-2,.41,4.07,4.07,0,0,1-4.28-4.19A3.92,3.92,0,0,1,240,45.16,4.2,4.2,0,0,1,243,44a4.52,4.52,0,0,1,2,.44A3.87,3.87,0,0,1,246.5,45.64Z"/><path class="cls-1" d="M250.83,46.08a2.9,2.9,0,0,1,2.24,1,3,3,0,0,1,.81,2.11,3.09,3.09,0,0,1-.85,2.14,3.1,3.1,0,0,1-4.39,0,3.12,3.12,0,0,1,0-4.25A2.9,2.9,0,0,1,250.83,46.08Zm0,.74a2.18,2.18,0,0,0-1.61.69,2.3,2.3,0,0,0-.67,1.67,2.45,2.45,0,0,0,.3,1.19,2.23,2.23,0,0,0,.83.84,2.35,2.35,0,0,0,2.3,0,2.23,2.23,0,0,0,.83-.84,2.45,2.45,0,0,0,.31-1.19,2.31,2.31,0,0,0-.68-1.67A2.18,2.18,0,0,0,250.83,46.82Z"/><path class="cls-1" d="M255.28,46.23H256V49a6,6,0,0,0,.1,1.37,1.57,1.57,0,0,0,.62.85,2,2,0,0,0,2.15,0,1.62,1.62,0,0,0,.61-.8,5.88,5.88,0,0,0,.11-1.43V46.23h.77V49.1a4.5,4.5,0,0,1-.29,1.82,2.12,2.12,0,0,1-.84,1,3.16,3.16,0,0,1-2.85,0,2.11,2.11,0,0,1-.85-1,4.64,4.64,0,0,1-.29-1.87Z"/><path class="cls-1" d="M261.89,46.23h.77v.85a2.76,2.76,0,0,1,.73-.75,1.37,1.37,0,0,1,.79-.25,1.42,1.42,0,0,1,.67.2l-.4.63a1,1,0,0,0-.39-.1,1.08,1.08,0,0,0-.73.31,1.91,1.91,0,0,0-.53,1,9.33,9.33,0,0,0-.14,2v2h-.77Z"/><path class="cls-1" d="M266.25,44.06H267v2.17h1.2v.65H267v5.19h-.75V46.88h-1v-.65h1Z"/><circle class="cls-2" cx="32.65" cy="31.37" r="30.28"/><path class="cls-3" d="M61.52,37.78a29.81,29.81,0,0,1-28.83,23c-13.95,0-25.93-10.21-28.92-23.25h7.44c2.8,9,11.53,16.07,21.48,16.07A22.63,22.63,0,0,0,54.08,37.78Z"/><path class="cls-4" d="M53.63,31.28a21,21,0,1,1-21-21A21,21,0,0,1,53.63,31.28Z"/><path class="cls-2" d="M34.33,33.78H31V42a1.68,1.68,0,0,0,1.69,1.65A1.64,1.64,0,0,0,34.33,42Z"/><path class="cls-2" d="M35.56,44H29.74a.7.7,0,0,0-.76.65v.77a.7.7,0,0,0,.76.65h5.82a.69.69,0,0,0,.75-.65v-.77A.7.7,0,0,0,35.56,44Z"/><path class="cls-2" d="M36.69,46.86h-8c-.56,0-1,.3-1,.69v.75c0,.41.41.7,1,.7h8c.55,0,1-.29,1-.7v-.75C37.65,47.16,37.24,46.86,36.69,46.86Z"/><path class="cls-2" d="M48.92,23.27a.91.91,0,0,0-.41-.63,1.1,1.1,0,0,0-1.36.13,6.57,6.57,0,0,1-8.67.07,8.88,8.88,0,0,0-11.24-.17l.05,0-.2.16,0,0a6.27,6.27,0,0,1-4.38,1.67,6.23,6.23,0,0,1-4.38-1.67,1.09,1.09,0,0,0-.68-.3,1.13,1.13,0,0,0-.69.17.94.94,0,0,0-.41.63v.1a.8.8,0,0,0,.27.6,8.38,8.38,0,0,0,5.9,2.28,8.45,8.45,0,0,0,5.48-1.9l0,0s0,0,0,0l.15-.12a6.55,6.55,0,0,1,8.68-.07,8.47,8.47,0,0,0,5.71,2.09A8.37,8.37,0,0,0,48.66,24a.87.87,0,0,0,.26-.61Zm0,0h0v0Z"/><path class="cls-2" d="M36.14,17a3.45,3.45,0,1,1-3.46-3.46A3.46,3.46,0,0,1,36.14,17Z"/><path class="cls-2" d="M27.58,38.37l-5.32-12a.56.56,0,0,0-.52-.35.57.57,0,0,0-.52.36h0l-5.31,12a.75.75,0,0,0,0,.62,6.46,6.46,0,0,0,5.81,3.15A6.43,6.43,0,0,0,27.55,39,.72.72,0,0,0,27.58,38.37ZM21.74,28.14c.32.71,4.33,9.77,4.61,10.41H17.13l3.09-7Z"/><path class="cls-2" d="M49.53,38.37l-5.31-12A.56.56,0,0,0,43.7,26a.57.57,0,0,0-.53.37v0l-5.3,12a.71.71,0,0,0,0,.62,6.45,6.45,0,0,0,5.81,3.15A6.44,6.44,0,0,0,49.51,39,.72.72,0,0,0,49.53,38.37ZM43.7,28.14l4.61,10.41H39.08c.2-.43,2-4.5,2-4.5S43.4,28.83,43.7,28.14Z"/><path class="cls-2" d="M38.26,25.42a.82.82,0,0,0-.88.91H36.22v-.52h-7v.52H28a.82.82,0,0,0-.88-.91s-.77,0-.77,1v4.36c0,1.07.77,1,.77,1a.83.83,0,0,0,.88-.92h1.15v.54H31v1.59h3.31V31.47h1.89v-.54h1.16a.83.83,0,0,0,.88.92s.77,0,.77-1V26.45C39,25.4,38.26,25.42,38.26,25.42Z"/><path class="cls-2" d="M12.89,50.87a.52.52,0,0,1-.34.13c-.11,0-.26-.13-.45-.35l-.21-.28.17-.28.32.41c.12.14.23.17.35.08l1.29-1-2.61-3.22-1.7,1.38-.21-.26,1.93-1.57,3,3.73Zm-.58-.95-1.65-2,.91-.74,1.65,2Zm0-.44.45-.37L11.56,47.6,11.1,48Zm2.06-.62-2.25-2.78.88-.72,2.26,2.78Zm0-.46.42-.34L13,45.82l-.42.34Zm1.74.19-3.39-4.17.23-.18,1.59,2a1.73,1.73,0,0,0,.26-.44l.28.19a2.72,2.72,0,0,1-.32.52l1.57,1.94Z"/><path class="cls-2" d="M16.16,53.91l-.34-.08c.06-.13.12-.28.19-.45-.55-.21-1.11-.46-1.69-.73l.06-.28A6.83,6.83,0,0,0,17.07,51l.19.28a12.4,12.4,0,0,1-2.32,1.33,10.32,10.32,0,0,0,1.15.52,4,4,0,0,0,.22-.86l.3.06A7.78,7.78,0,0,1,16.16,53.91Zm2.23-3.1-.94-.7a7.42,7.42,0,0,1-2.58,1.52l-.1-.32a6.81,6.81,0,0,0,2.41-1.4l-.79-.59.17-.23.83.62a7.85,7.85,0,0,0,.64-.66l.23.24a6.86,6.86,0,0,1-.6.62l.9.67Zm.13,4.82-1.9-1.43-.19.24-.26-.19,2.12-2.82q-.33.1-.78.21l-.06-.32a6.22,6.22,0,0,0,2.25-1l.2.25a8,8,0,0,1-1,.58l.92.68a3.74,3.74,0,0,0,.33-.87l.3.09a4.82,4.82,0,0,1-.37,1l.63.47-.19.25-.77-.58-.48.66.69.51-.18.24-.69-.51-.53.7.69.52-.18.24L18.4,54l-.54.72.85.64Zm-.92-1.08.55-.73-.8-.6L16.8,54Zm.73-1,.53-.71-.8-.6-.53.71Zm.71-.95.48-.65-.79-.6-.49.65Z"/><path class="cls-2" d="M24.73,58.12a.54.54,0,0,1-.23.28.79.79,0,0,1-.56-.09l-.32-.13v-.33l.47.2c.18.07.29,0,.35-.1l.61-1.55-3.87-1.52-.8,2-.3-.12L21,54.48l4.47,1.76Zm-1-.54-2.44-.95.43-1.09,2.44,1Zm2.67-3-5-2,.11-.27,2.35.93a1.48,1.48,0,0,0,0-.52l.34,0a2.71,2.71,0,0,1,0,.62l2.33.91ZM25,55.64l-3.33-1.31.42-1.06,3.33,1.31Zm-1.49,1.55.21-.55L22,55.93l-.21.55Zm1.27-1.95.2-.51-2.68-1.06-.2.51Z"/><path class="cls-2" d="M32.15,58.21,31,58.08l-.1.92c0,.24-.11.39-.24.44a1.35,1.35,0,0,1-.67,0l-.47-.07-.1-.32.58.07.42,0c.08,0,.12,0,.14-.16l.11-1-4-.46,0-.3,4,.46.06-.56-3.44-.39,0-.29,2,.24.06-.54L27.12,56l0-.3,2.33.27.05-.4.32,0,0,.41,2.29.25,0,.3-2.29-.26-.07.53,2,.23,0,.29-.59-.07-.07.55,1.15.13ZM29.67,55l-1.76-.2a4.71,4.71,0,0,1-.71.55L27,55.11A3.36,3.36,0,0,0,28.18,54l.32.13-.35.45,1.56.18ZM29,58.87l-.29.16a5.36,5.36,0,0,0-.85-.91L28.1,58A5,5,0,0,1,29,58.87Zm-.13-3.32-.33.09a2.41,2.41,0,0,0-.36-.51l.31-.09A1.76,1.76,0,0,1,28.83,55.55Zm3.57-.24-2-.23a3.13,3.13,0,0,1-.42.32l-.24-.21a2.74,2.74,0,0,0,.91-.95l.3.14a3.84,3.84,0,0,1-.3.43l1.8.2Zm-.85.53-.34.12a1.91,1.91,0,0,0-.39-.52l.33-.11A2.09,2.09,0,0,1,31.55,55.84Z"/><path class="cls-2" d="M34.71,54.44a5.91,5.91,0,0,1-1.44,1.43l-.22-.22a5.27,5.27,0,0,0,1.36-1.37ZM35,55.6a6,6,0,0,1-.52.9l.37,3-.32,0L34.2,56.9a8.69,8.69,0,0,1-.74.82l-.2-.23a7,7,0,0,0,1.44-2Zm3.67.29-1,.12L38,58.66a.48.48,0,0,1-.07.32.41.41,0,0,1-.23.16,3.18,3.18,0,0,1-.54.09l-.57.06-.18-.3.57-.06a3.19,3.19,0,0,0,.61-.1.09.09,0,0,0,0-.11l-.32-2.67-2.23.28,0-.32,3.58-.44Zm-.49-1.47-3,.37,0-.32,3-.36Z"/><path class="cls-2" d="M42.76,56.38c-.81.77-1.53,1.42-2.16,1.94l-.23-.22.31-.27-1.11-2.74.31-.12L41,57.6l.49-.42-1.38-3.39-1.16.47L38.78,54l2.5-1,.12.28-1,.42.57,1.4.8-.33.12.28-.81.33.65,1.59c.23-.19.52-.46.89-.81Zm2.94-.11-.08.32a4.19,4.19,0,0,1-1.71-.44,6.22,6.22,0,0,1-1,1.55l-.3-.15a5.59,5.59,0,0,0,1-1.55,4.83,4.83,0,0,1-1.11-1.07l.24-.22a4.42,4.42,0,0,0,1,1,4.68,4.68,0,0,0-.27-2.53l-1.1.45a7,7,0,0,1,0,1.45L42,55a6.19,6.19,0,0,0-.17-2.53l.34-.07c.07.33.12.64.16.94l1.7-.7.11.29-.37.15A4.88,4.88,0,0,1,44,55.87,4.16,4.16,0,0,0,45.7,56.27Z"/><path class="cls-2" d="M45.62,51.26l-.06.31a6.2,6.2,0,0,0-1.29,0l0-.31A5.4,5.4,0,0,1,45.62,51.26Zm.8,1.25,0,.34a4.42,4.42,0,0,0-1.31,0v-.32A5.16,5.16,0,0,1,46.42,52.51Zm3.6-2.2-1.59,1.21A10.49,10.49,0,0,1,48.57,54a23.77,23.77,0,0,0,1.79-1.88,6.66,6.66,0,0,0-1.12-.33l.13-.3a10.63,10.63,0,0,1,2.09.73l-.11.32a3.68,3.68,0,0,0-.7-.31,30.65,30.65,0,0,1-2.21,2.29l-.3-.17a2.08,2.08,0,0,0,.15-1,9.77,9.77,0,0,0-.17-1.57l-1.24,1-.19-.24,1.46-1.11-.72-.94-1.22.93L46,51.11l1.22-.93-.56-.74.26-.2.56.74,1.21-.92.18.24-1.21.92.72.94,1.43-1.09Zm-3,2.95a12.15,12.15,0,0,1,.32,2.29l-.34,0a9.52,9.52,0,0,0-.3-2.28Z"/><path class="cls-2" d="M50.84,48.1a2.2,2.2,0,0,1,1.41.45.7.7,0,0,1,.25.4c0,.15-.06.35-.26.6l-.16.18-.32-.11.22-.27a.62.62,0,0,0,.19-.34.29.29,0,0,0-.11-.21,2.14,2.14,0,0,0-1.4-.41c-.23-.36-.5-.79-.83-1.29l-.59.73,3.73,3-.2.25-4-3.21,1-1.25.23.19C50.32,47.24,50.58,47.66,50.84,48.1Zm2.55-3.24-.21.26-.69-.56-1.7,2.09.69.56-.2.26-.94-.76.93-1.15a3.06,3.06,0,0,0-.57-.17l.15-.32a4.34,4.34,0,0,1,.64.21l1-1.18Zm-.28.53-1.37,1.69-.23-.19,1.37-1.69Zm2.12.8a2.67,2.67,0,0,1,.51.5.55.55,0,0,1,.1.39,1.31,1.31,0,0,1-.32.52c-.22.28-.43.35-.63.19l-1.43-1.16-.46.56a2.63,2.63,0,0,1,.88,1.28,2.66,2.66,0,0,1-.09,1.35l-.35,0a2.37,2.37,0,0,0,.12-1.29,2,2,0,0,0-.77-1.1l-.6.74L52,48l2.12-2.63.24.19-.65.8,1.38,1.12a.16.16,0,0,0,.1,0s.11-.07.21-.19a1.06,1.06,0,0,0,.16-.24.26.26,0,0,0,0-.12.77.77,0,0,0-.19-.24,3.39,3.39,0,0,0-.39-.34Z"/><path class="cls-5" d="M6,39.75l-.23-.68L8,39.65l1.74-2,.24.71L8.39,40.18l2-.67.18.54-4,1.35-.18-.53,1.89-.64Z"/><path class="cls-5" d="M8.64,36.93l1,.1.12.59L5.22,37.2l-.1-.5,4-2.09.12.59-.88.46ZM6.2,36.78l1.86.12-.2-1Z"/><path class="cls-5" d="M7,34.55a2.63,2.63,0,0,1-1.61-.38A1.43,1.43,0,0,1,4.67,33a1.39,1.39,0,0,1,.59-1.22,2.68,2.68,0,0,1,1.56-.56,2.74,2.74,0,0,1,1.6.38,1.43,1.43,0,0,1,.72,1.15A1.41,1.41,0,0,1,8.55,34,2.55,2.55,0,0,1,7,34.55ZM6.92,34A2,2,0,0,0,8,33.6a.89.89,0,0,0,.43-.78.9.9,0,0,0-.49-.75,2,2,0,0,0-1.13-.23,1.86,1.86,0,0,0-1,.35.92.92,0,0,0,.09,1.55A1.86,1.86,0,0,0,6.92,34Z"/><path class="cls-5" d="M6.62,28.51,4.9,28.36l0-.56,4.23.37,0,.56-1.94-.17-.12,1.37L9,30.1l0,.57L4.73,30.3l0-.56,1.73.15Z"/><path class="cls-5" d="M6.29,25.33a.66.66,0,0,0-.49.46.44.44,0,0,0,.09.38.61.61,0,0,0,.39.22c.18,0,.42-.09.73-.38l.47-.44a1.1,1.1,0,0,1,.89-.19,1.67,1.67,0,0,1,1,.5.94.94,0,0,1,.23.87c-.09.42-.42.7-1,.83l-.37-.44A1.13,1.13,0,0,0,8.68,27,.57.57,0,0,0,9,26.63a.44.44,0,0,0-.13-.42A.92.92,0,0,0,8.36,26,.67.67,0,0,0,8,26a2.21,2.21,0,0,0-.63.59A1,1,0,0,1,6.26,27a1.5,1.5,0,0,1-.84-.45.86.86,0,0,1-.22-.75,1.07,1.07,0,0,1,.65-.8Z"/><path class="cls-5" d="M10,24.67l-.16.55L5.73,24.05l.16-.55Z"/><path class="cls-5" d="M6.15,22.58l.21-.53,2.22.86c.85.33,1.36.28,1.52-.14s-.18-.8-1-1.13l-2.23-.85.21-.53,2.37.92c1.13.44,1.55,1,1.25,1.81s-1,.94-2.15.5Z"/><path class="cls-5" d="M7.45,19.1l.21-.37,3.72-.1-2.7-1.51L9,16.63l3.78,2.11-.2.37-3.71.1,2.71,1.52-.28.49Z"/><path class="cls-5" d="M13,14.47l.09.06a3,3,0,0,1,1.05,1.32A1.26,1.26,0,0,1,14,17.12a1.34,1.34,0,0,1-1.21.51,2.63,2.63,0,0,1-1.52-.6,2.75,2.75,0,0,1-1-1.34,1.41,1.41,0,0,1,.21-1.33,1.38,1.38,0,0,1,1.61-.43l0,.61a.9.9,0,0,0-1.09.22.85.85,0,0,0-.06.88,2.21,2.21,0,0,0,.73.93,2.17,2.17,0,0,0,1.07.46.87.87,0,0,0,.82-.31.72.72,0,0,0,.1-.71,1.48,1.48,0,0,0-.52-.69l-.48.64-.45-.35Z"/><path class="cls-5" d="M16.34,11,15.23,9.64l.43-.36,2.73,3.26L18,12.9l-1.25-1.5-1.06.89,1.25,1.5-.43.36L13.74,10.9l.43-.37,1.11,1.33Z"/><path class="cls-5" d="M19.36,11.88l-.47.33L16.46,8.72l.47-.32Z"/><path class="cls-5" d="M21.3,8.1l.05.09a3,3,0,0,1,.45,1.63,1.27,1.27,0,0,1-.66,1.1,1.36,1.36,0,0,1-1.31,0,2.64,2.64,0,0,1-1.17-1.15,2.79,2.79,0,0,1-.39-1.63A1.4,1.4,0,0,1,19,7a1.36,1.36,0,0,1,1.65.23l-.27.55a.9.9,0,0,0-1.09-.23.84.84,0,0,0-.4.78,2.19,2.19,0,0,0,.31,1.15,2,2,0,0,0,.8.84.83.83,0,0,0,.87,0,.69.69,0,0,0,.37-.61,1.45,1.45,0,0,0-.2-.84l-.7.39L20,8.81Z"/><path class="cls-5" d="M23.73,6.84,23.1,5.23,23.62,5l1.55,4-.52.2-.72-1.82-1.28.51.71,1.82-.53.2L21.28,5.94l.53-.21.63,1.61Z"/><path class="cls-5" d="M28.08,7.27l-.14,1-.6.09.59-4.51.5-.08,1.94,4.11L29.78,8l-.43-.89Zm.24-2.43-.2,1.85,1-.16Z"/><path class="cls-5" d="M30.56,3.61l.93,0a1.37,1.37,0,0,1,1.18.57,2.48,2.48,0,0,1,.5,1.5,2.49,2.49,0,0,1-.41,1.54,1.41,1.41,0,0,1-1.14.64l-.93,0Zm.68,3.58h.19c.8,0,1.18-.53,1.15-1.51s-.45-1.46-1.25-1.43h-.19Z"/><path class="cls-5" d="M36.54,5.21,35.38,8l-.13,0-.46-3-.7,2.82-.56-.07,1-4.27.41,0,.54,3,1.15-2.81.42,0V8.16l-.56-.07Z"/><path class="cls-5" d="M38.07,8.43l-.56-.12.92-4.15.56.12Z"/><path class="cls-5" d="M40,4.39l.41.14.79,3.62,1-2.92.53.17L41.39,9.52,41,9.38l-.8-3.62-1,3-.54-.17Z"/><path class="cls-5" d="M42.48,9.94,42,9.71l1.72-3.89.52.23Z"/><path class="cls-5" d="M46,8a.66.66,0,0,0-.3-.6.48.48,0,0,0-.39,0,.65.65,0,0,0-.33.31c-.08.16,0,.43.16.81s.28.58.29.58a1.12,1.12,0,0,1-.07.9,1.77,1.77,0,0,1-.76.79,1,1,0,0,1-.9,0,1.15,1.15,0,0,1-.51-1.21l.53-.23a1,1,0,0,0,0,.52.55.55,0,0,0,.25.37.43.43,0,0,0,.44,0,.86.86,0,0,0,.36-.39.67.67,0,0,0,.09-.38,2.27,2.27,0,0,0-.38-.78,1.05,1.05,0,0,1-.07-1.14,1.45,1.45,0,0,1,.67-.67.85.85,0,0,1,.79,0,1.05,1.05,0,0,1,.58.85Z"/><path class="cls-5" d="M46,11.92l-.42-.29,2-3L47,8.19l.34-.5L49,8.8l-.34.5L48,8.89Z"/><path class="cls-5" d="M48.58,13.93,48,13.49l.47-2.06L47.3,12.89l-.43-.36,2.69-3.29.68.56c.58.48.6,1,.06,1.7a1.53,1.53,0,0,1-.67.5A.72.72,0,0,1,49,12Zm.11-2.73.13.11a.65.65,0,0,0,1-.15.63.63,0,0,0-.07-1L49.64,10Z"/><path class="cls-5" d="M50,14l-.89.45L48.65,14l4.05-2.09.35.37-2.27,3.93-.42-.44.49-.86Zm2.14-1.19-1.63.9.69.72Z"/><path class="cls-5" d="M51.58,17.28l-.31-.41,2.89-2.21-.45-.59.48-.37,1.22,1.58-.49.37-.45-.59Z"/><path class="cls-5" d="M52.53,18.63l-.32-.47,3.54-2.35.32.47Z"/><path class="cls-5" d="M54.38,19.66l3.19-.8.3.55-4.45.95L53.24,20l3.21-3.21.3.53Z"/><path class="cls-5" d="M57.82,20.88l-1,.42.43,1-.57.23-.42-1L55,22l.44,1.07-.56.23-.66-1.6,3.94-1.61.65,1.6-.56.23Z"/><path class="cls-5" d="M59.23,27.2a.86.86,0,0,0,.29-.81.9.9,0,0,0-.62-.65,1.92,1.92,0,0,0-1.14-.08,1.76,1.76,0,0,0-1,.51.83.83,0,0,0,.27,1.47l-.86.17a1.37,1.37,0,0,1-.39-.68,1.4,1.4,0,0,1,.4-1.28,2.6,2.6,0,0,1,1.43-.77,2.68,2.68,0,0,1,1.67.15,1.4,1.4,0,0,1,.88,1,1.32,1.32,0,0,1-.09.77Z"/><path class="cls-5" d="M58.26,28.11a2.61,2.61,0,0,1,1.61.37A1.39,1.39,0,0,1,60,30.84a2.62,2.62,0,0,1-1.54.57,2.67,2.67,0,0,1-1.61-.36,1.41,1.41,0,0,1-.16-2.37A2.66,2.66,0,0,1,58.26,28.11Zm.08.59a1.94,1.94,0,0,0-1.07.37.9.9,0,0,0-.42.79.89.89,0,0,0,.5.75,2.12,2.12,0,0,0,1.13.22,1.88,1.88,0,0,0,1-.36.93.93,0,0,0,.38-.81.88.88,0,0,0-.48-.74A1.82,1.82,0,0,0,58.34,28.7Z"/><path class="cls-5" d="M60.57,32.31l0,.57-2.37-.18c-.91-.07-1.38.13-1.42.58s.41.7,1.32.77l2.37.18,0,.56-2.53-.19c-1.21-.09-1.79-.55-1.73-1.37s.7-1.19,1.91-1.1Z"/><path class="cls-5" d="M55.63,37.2l.14-.69,2-.56L56,35.58l.11-.56,4.17.82-.17.87c-.14.73-.64,1-1.47.85a1.54,1.54,0,0,1-.76-.35.75.75,0,0,1-.26-.59ZM58.09,36l0,.17c-.09.45.12.73.61.83s.77-.09.86-.54l0-.18Z"/><path class="cls-5" d="M55.23,38.52l.15-.49,3.48,1,.22-.71.58.18-.58,1.91-.58-.17.21-.72Z"/></svg>