<svg id="圖層_1" data-name="圖層 1" xmlns="http://www.w3.org/2000/svg" xmlns:xlink="http://www.w3.org/1999/xlink" viewBox="0 0 270.84 64"><defs><style>.cls-1{fill:#333;}.cls-2{fill:#fff;}.cls-3{fill:url(#linear-gradient);}.cls-4{fill:#005bab;}.cls-5{fill:#b7a246;}</style><linearGradient id="linear-gradient" x1="32.65" y1="60.77" x2="32.65" y2="37.52" gradientUnits="userSpaceOnUse"><stop offset="0.69" stop-color="#b7a246"/><stop offset="1" stop-color="#fff"/></linearGradient></defs><path class="cls-1" d="M88,15.18v1.46H80.14v1h6.33V19H72.07V17.67h6.19v-1H70.54V15.18h7.72V13.83h1.88v1.35ZM80.14,33.8H88v1.56H70.58V33.8h7.68v-1H72.53V31.36h5.73v-1c-3.67.12-4.25.19-4.65.33a14.7,14.7,0,0,0-.42-1.51,4.51,4.51,0,0,0,1.08-.31A10.66,10.66,0,0,0,76,28h-3.1v-1.3H85.53V28h-1.9a21.16,21.16,0,0,1,2.56,2.13l-1.12,1.11a13,13,0,0,0-1-1l-4,.12v1h6v1.39h-6Zm-9.3-9.48H87.69v3.46H85.93v-2H72.53v2H70.84Zm14.89-4.39v3.53H72.89V19.93Zm-1.82,1.18h-9.3v1.15h9.3ZM78.06,28a15.19,15.19,0,0,1-1.79,1.17L82.58,29c-.44-.33-.9-.64-1.32-.91l.16-.14Z"/><path class="cls-1" d="M92.87,24.49A12.93,12.93,0,0,0,90,22l1-1.54A12.35,12.35,0,0,1,94,22.76Zm-2.47,10c.72-1.85,1.75-4.92,2.49-7.61L94.37,28c-.64,2.47-1.5,5.35-2.3,7.58Zm2.81-16.16a13.24,13.24,0,0,0-2.79-2.66l1.09-1.47a13.36,13.36,0,0,1,2.84,2.45Zm2.34,4.54a13.51,13.51,0,0,1-.84,3.24,4.61,4.61,0,0,0-.86-.7,9.64,9.64,0,0,0,.72-2.83Zm2.59-1a5.61,5.61,0,0,0-.2-.72c-2.63.41-3.13.53-3.41.7a8.33,8.33,0,0,0-.4-1c.32-.05.6-.36.94-.79a14.56,14.56,0,0,0,1.12-1.68,6.78,6.78,0,0,0-1.72.31,4.25,4.25,0,0,0-.4-1c.24,0,.44-.28.66-.62a13.87,13.87,0,0,0,1.18-3l1.11.46a15.7,15.7,0,0,1-1.33,2.73l1.16-.07a10.52,10.52,0,0,0,.51-1.08l1.06.53a21.7,21.7,0,0,1-2.31,3.67l1.47-.22c-.1-.24-.22-.48-.32-.69L98.1,19A12.29,12.29,0,0,1,99,21.44ZM107.63,31a5.35,5.35,0,0,1-.12.84c-.34,2-.74,3.05-1.26,3.53a2.3,2.3,0,0,1-1.66.55c-.6,0-1.82,0-3.07-.07a4.33,4.33,0,0,0-.5-1.7,29.18,29.18,0,0,0,3,.16c.44,0,.64,0,.86-.16a3.36,3.36,0,0,0,.72-1.71H95.31c.32-1.08.64-2.54.88-3.79H105v-1H95.53V26.24h11.18V30h-9l-.24,1ZM96.29,25.69a14.2,14.2,0,0,0-.4-2.88l.88-.26a13.18,13.18,0,0,1,.47,2.76Zm1.75-.6a14.07,14.07,0,0,0-.62-2.61l.8-.34a11.35,11.35,0,0,1,.66,2.5Zm5.45-7.61H98.72V16.23h2a15.36,15.36,0,0,0-.7-1.82l1.22-.34a10.36,10.36,0,0,1,.8,1.88l-.92.28h2.35ZM99.26,22h3.79v3.53H99.26ZM103,19.38H99.3V18.25H103ZM99.3,20H103v1.12H99.3Zm1.12,4.34h1.42V23.05h-1.42Zm4.45-1.61A14.24,14.24,0,0,1,104,26a6.07,6.07,0,0,0-.86-.72,10,10,0,0,0,.72-2.8Zm2.62-.81c-.06-.22-.14-.51-.24-.82a16,16,0,0,0-3.42.7c-.06-.19-.26-.75-.38-1,.28,0,.58-.33.94-.81a17.79,17.79,0,0,0,1.1-1.66,5.69,5.69,0,0,0-1.72.34,5.9,5.9,0,0,0-.38-1c.22,0,.42-.27.64-.63a12.64,12.64,0,0,0,1.2-3l1.08.45A14.38,14.38,0,0,1,105,17.19l1.14-.07c.16-.36.34-.72.48-1.08l1.06.55a20.76,20.76,0,0,1-2.3,3.68l1.46-.22-.32-.7.82-.36a13.7,13.7,0,0,1,1,2.53Zm-1.9,3.93a15.85,15.85,0,0,0-.42-3.09l.88-.27a16.78,16.78,0,0,1,.46,3Zm1.92-3.79a13.19,13.19,0,0,1,.8,3l-.86.45a14.58,14.58,0,0,0-.76-3.07Z"/><path class="cls-1" d="M128,16.26v1.89H110.56V16.26h8c-.18-.65-.38-1.37-.56-2l1.88-.53c.26.77.58,1.73.78,2.5Zm-.54,17.42c0,1.06-.22,1.47-.84,1.76a7.92,7.92,0,0,1-2.88.26,8.62,8.62,0,0,0-.58-1.66c.84.05,1.84.05,2.06,0s.36-.1.36-.39V27.23H113v8.66h-1.82V25.38h16.28Zm-2-14.37v4.92h-12V19.31Zm-8.76,14.16v1.1H115V28.4h8.5v5.07Zm6.8-12.6h-8.22v1.77h8.22ZM116.69,30v1.85h5.13V30Z"/><path class="cls-1" d="M133.39,17.39a14.84,14.84,0,0,1-1.92,2.76,12.11,12.11,0,0,0-1.29-1.54,13,13,0,0,0,3-4.94l1.66.57c-.16.43-.32.82-.52,1.25h4.85v1.9h-3.31a19.16,19.16,0,0,1,1.63,1.87l-1.21,1.29a19.63,19.63,0,0,0-2-2.44l.7-.72Zm10.92,10.92h3.86v1.82h-3.86v3.6c0,1.13-.24,1.66-1,1.9a13.06,13.06,0,0,1-3.61.26,9.42,9.42,0,0,0-.5-1.82,24.83,24.83,0,0,0,2.72,0c.34,0,.44-.12.44-.45V30.13h-7.17a39.22,39.22,0,0,1,3.21,3.39L137,34.84a36.82,36.82,0,0,0-3.19-3.63l1.22-1.08h-4.49V28.31h11.82V26.84h1.93Zm4.23-12.82v1.92h-4a15.18,15.18,0,0,1,1.6,2.09l-1.28,1.29A14.19,14.19,0,0,0,143,18.23l.84-.82H142a14.45,14.45,0,0,1-1.64,2.86l-.06-.08v.7h7.19v1.9h-7.19v1.8h6v1.75H132.29V24.59h6.11v-1.8h-7.13v-1.9h7.13V19.55h1.26A7.71,7.71,0,0,0,139,19a13.74,13.74,0,0,0,2.48-5.26l1.71.48c-.12.46-.24.89-.38,1.32Z"/><path class="cls-1" d="M154,24.76a18.09,18.09,0,0,0-3.69-2.6l1-1.68A16.51,16.51,0,0,1,155,22.91Zm-3,9.33a67.27,67.27,0,0,0,3.79-7.61L156.09,28c-1,2.5-2.36,5.38-3.54,7.63Zm1.49-20a19.39,19.39,0,0,1,3.76,2.45l-1.08,1.85a16.79,16.79,0,0,0-3.72-2.67Zm14.22,21.75a13.51,13.51,0,0,0-.82-2.26c-7.07,1-8,1.23-8.57,1.56-.1-.48-.43-1.61-.65-2.23.43-.12.81-.67,1.29-1.56a36.19,36.19,0,0,0,2.46-5.54h-4.13V23.72h5V19.83h-4.1V17.72h4.1V13.86h1.91v3.86h4.26v2.11h-4.26v3.89h5v2.12h-5.53a48.23,48.23,0,0,1-3.18,6.64l5.57-.72c-.48-1-1-1.92-1.56-2.8l1.5-.87a30.55,30.55,0,0,1,3.42,6.77Z"/><path class="cls-1" d="M177,15.59c-.57,2-1.27,4.32-1.87,6.16a8.82,8.82,0,0,1,1.62,5.12,4,4,0,0,1-.82,2.93,2.22,2.22,0,0,1-1.08.48c-.36,0-.86,0-1.32,0a5.64,5.64,0,0,0-.42-1.94,7.19,7.19,0,0,0,1,0,.92.92,0,0,0,.58-.19,2.28,2.28,0,0,0,.4-1.56A7.69,7.69,0,0,0,173.47,22c.5-1.58,1-3.6,1.4-5.19h-2.18v19H171v-21h4.47l.26-.09Zm9.73,18.09c.38,0,.46-.38.5-2.95a3.77,3.77,0,0,0,1.57.82c-.17,3.21-.59,4-1.87,4h-1.62c-1.54,0-1.9-.6-1.9-2.62V27.3h-1.75c-.32,4.2-1.28,7-5.07,8.59a6.17,6.17,0,0,0-1.06-1.77c3.33-1.28,4.07-3.44,4.33-6.82h-2.6v-2h11.28v2h-3.37v5.64c0,.65.06.74.44.74Zm-7.95-12.53H177.2V16.74h4.86a21,21,0,0,0-.94-2.47l1.72-.6a17.7,17.7,0,0,1,1.23,3.07h4.36v4.41h-1.58V23h-8.07Zm.14-2.47V21h7.73V18.68Z"/><path class="cls-1" d="M208.25,15.18v1.46h-7.87v1h6.33V19h-14.4V17.67h6.19v-1h-7.72V15.18h7.72V13.83h1.88v1.35ZM200.38,33.8h7.83v1.56H190.82V33.8h7.68v-1h-5.73V31.36h5.73v-1c-3.67.12-4.25.19-4.65.33a14.7,14.7,0,0,0-.42-1.51,4.51,4.51,0,0,0,1.08-.31,10.66,10.66,0,0,0,1.68-1h-3.1v-1.3h12.68V28h-1.9a21.16,21.16,0,0,1,2.56,2.13l-1.12,1.11a13,13,0,0,0-1-1l-4,.12v1h6.05v1.39h-6.05Zm-9.3-9.48h16.85v3.46h-1.76v-2h-13.4v2h-1.69ZM206,19.93v3.53H193.13V19.93Zm-1.82,1.18h-9.3v1.15h9.3ZM198.3,28a15.19,15.19,0,0,1-1.79,1.17l6.31-.12c-.44-.33-.9-.64-1.32-.91l.16-.14Z"/><path class="cls-1" d="M220.32,18.18c-.08.77-.18,1.51-.28,2.18h7.35V33.44c0,1.2-.26,1.76-1,2.07a9.44,9.44,0,0,1-3.45.33,9.92,9.92,0,0,0-.66-1.92A25.56,25.56,0,0,0,225,34c.36,0,.46-.12.46-.51v-11h-11.9V35.84h-1.86V20.36h6.51c.06-.65.16-1.41.22-2.18h-7.68V16.09h7.86c.06-.79.1-1.56.12-2.23l2,.24c-.06.65-.14,1.32-.22,2h7.71v2.09Zm0,13.2v3.94H218.6V31.38h-4v-1.8h4V27.52H215V25.76h1.84a12.82,12.82,0,0,0-.94-2.66l1.47-.46a13.8,13.8,0,0,1,1,2.74l-1.07.38h3.29a30.93,30.93,0,0,0,1-3.19l1.69.46c-.35.93-.69,1.89-1,2.73h1.91v1.76h-3.79v2.06h4.17v1.8Z"/><path class="cls-1" d="M243.33,14.27c.94,3.62,3,7,5.69,8.76a9.15,9.15,0,0,0-1.35,2,13.45,13.45,0,0,1-1.82-1.73c0,.14,0,.31,0,.41-.26,7.29-.52,10.08-1.22,11a2.08,2.08,0,0,1-1.65,1,19.68,19.68,0,0,1-3.1,0,6.23,6.23,0,0,0-.6-2.26,24.09,24.09,0,0,0,2.82.17.94.94,0,0,0,.84-.34c.47-.57.73-2.83.93-8.42h-4.61c-.52,4.66-1.82,8.88-7,11.14a6.81,6.81,0,0,0-1.21-2c4.63-1.84,5.69-5.32,6.13-9.14h-3.76V23.24a17,17,0,0,1-1.64,1.88,13.09,13.09,0,0,0-1.59-1.66,17.37,17.37,0,0,0,5.07-8.79l1.94.56a25.19,25.19,0,0,1-3.42,7.51h11.54a21,21,0,0,1-3.41-6.41h-3.36V14.27Z"/><path class="cls-1" d="M257.15,15.59c-.56,2-1.26,4.32-1.86,6.16a8.82,8.82,0,0,1,1.62,5.12,4,4,0,0,1-.82,2.93,2.22,2.22,0,0,1-1.08.48c-.36,0-.86,0-1.32,0a5.64,5.64,0,0,0-.42-1.94,7.19,7.19,0,0,0,1,0,.92.92,0,0,0,.58-.19,2.28,2.28,0,0,0,.4-1.56A7.69,7.69,0,0,0,253.63,22c.5-1.58,1-3.6,1.4-5.19h-2.18v19H251.2v-21h4.47l.26-.09Zm9.74,18.09c.38,0,.46-.38.5-2.95a3.77,3.77,0,0,0,1.57.82c-.17,3.21-.59,4-1.87,4h-1.62c-1.54,0-1.9-.6-1.9-2.62V27.3h-1.75c-.32,4.2-1.28,7-5.07,8.59a6.17,6.17,0,0,0-1.06-1.77c3.33-1.28,4.07-3.44,4.33-6.82h-2.6v-2h11.27v2h-3.36v5.64c0,.65.06.74.44.74Zm-7.95-12.53h-1.58V16.74h4.86a21,21,0,0,0-.94-2.47l1.72-.6a17.7,17.7,0,0,1,1.23,3.07h4.36v4.41H267V23h-8.07Zm.14-2.47V21h7.73V18.68Z"/><path class="cls-1" d="M71.8,45v-.78h4.33V45H74.37v7.12h-.81V45Z"/><path class="cls-1" d="M82.64,46.23v5.84h-.75v-1a3.08,3.08,0,0,1-1.06.86,2.77,2.77,0,0,1-1.28.29,2.84,2.84,0,0,1-2.12-.9,3,3,0,0,1-.88-2.18A2.94,2.94,0,0,1,77.44,47a2.88,2.88,0,0,1,2.13-.9,2.69,2.69,0,0,1,1.3.31,2.92,2.92,0,0,1,1,.91V46.23Zm-3,.57a2.25,2.25,0,0,0-2,1.18,2.38,2.38,0,0,0-.32,1.18,2.41,2.41,0,0,0,.32,1.18,2.25,2.25,0,0,0,.85.88,2.22,2.22,0,0,0,1.14.31,2.28,2.28,0,0,0,1.17-.31,2.24,2.24,0,0,0,.86-.84,2.53,2.53,0,0,0,.29-1.2,2.31,2.31,0,0,0-.66-1.69A2.22,2.22,0,0,0,79.63,46.8Z"/><path class="cls-1" d="M84.26,43.82a.58.58,0,0,1,.44.19.59.59,0,0,1,.18.44.58.58,0,0,1-.18.43.6.6,0,0,1-.44.18.58.58,0,0,1-.43-.18.56.56,0,0,1-.19-.43.56.56,0,0,1,.19-.44A.56.56,0,0,1,84.26,43.82Zm-.38,2.41h.76v5.84h-.76Z"/><path class="cls-1" d="M85.08,46.23h.77l1.8,4.24,1.86-4.24h.14l1.87,4.24,1.83-4.24h.78l-2.54,5.84h-.14l-1.87-4.18-1.86,4.18h-.14Z"/><path class="cls-1" d="M100.5,46.23v5.84h-.74v-1a3.17,3.17,0,0,1-1.06.86,2.77,2.77,0,0,1-1.28.29,2.84,2.84,0,0,1-2.12-.9,3,3,0,0,1-.88-2.18,3,3,0,0,1,3-3.06,2.69,2.69,0,0,1,1.3.31,2.92,2.92,0,0,1,1,.91V46.23Zm-3,.57a2.31,2.31,0,0,0-1.16.31,2.27,2.27,0,0,0-.84.87,2.38,2.38,0,0,0-.32,1.18,2.41,2.41,0,0,0,.32,1.18,2.25,2.25,0,0,0,.85.88,2.2,2.2,0,0,0,1.14.31,2.33,2.33,0,0,0,1.17-.31,2.21,2.21,0,0,0,.85-.84,2.43,2.43,0,0,0,.3-1.2,2.28,2.28,0,0,0-.67-1.69A2.18,2.18,0,0,0,97.5,46.8Z"/><path class="cls-1" d="M101.87,46.23h.75v1.05a3.12,3.12,0,0,1,1-.9,2.42,2.42,0,0,1,1.19-.3,2.07,2.07,0,0,1,1.16.33,2,2,0,0,1,.75.9,4.79,4.79,0,0,1,.24,1.76v3h-.75V49.29a7.41,7.41,0,0,0-.08-1.35,1.37,1.37,0,0,0-1.47-1.17,1.84,1.84,0,0,0-1.22.45,2.18,2.18,0,0,0-.72,1.12,8.06,8.06,0,0,0-.1,1.59v2.14h-.75Z"/><path class="cls-1" d="M111.07,44.17h.79v3.32h4V44.17h.78v7.9h-.78V48.26h-4v3.81h-.79Z"/><path class="cls-1" d="M118.4,43.82a.56.56,0,0,1,.44.19.59.59,0,0,1,.18.44.58.58,0,0,1-.18.43.59.59,0,0,1-.44.18.6.6,0,0,1-.43-.18.58.58,0,0,1-.18-.43A.59.59,0,0,1,118,44,.57.57,0,0,1,118.4,43.82ZM118,46.23h.75v5.84H118Z"/><path class="cls-1" d="M125.05,46.23h.76v4.66a5.57,5.57,0,0,1-.22,1.8,2.37,2.37,0,0,1-1,1.24,3.34,3.34,0,0,1-1.75.43,4.07,4.07,0,0,1-1.35-.21,2.67,2.67,0,0,1-1-.57,3.41,3.41,0,0,1-.69-1h.82a2.15,2.15,0,0,0,.86.86,3.11,3.11,0,0,0,2.6,0,1.72,1.72,0,0,0,.76-.72,3.22,3.22,0,0,0,.22-1.4V51a3,3,0,0,1-1,.83,3.08,3.08,0,0,1-1.31.28,3,3,0,0,1-1.51-.4,2.83,2.83,0,0,1-1.1-1.07,3,3,0,0,1,1.13-4.11,3,3,0,0,1,1.51-.41,2.82,2.82,0,0,1,1.22.27,3.29,3.29,0,0,1,1.09.9Zm-2.21.57a2.43,2.43,0,0,0-1.19.31,2.22,2.22,0,0,0-.86.86,2.29,2.29,0,0,0-.31,1.18,2.13,2.13,0,0,0,.64,1.59,2.29,2.29,0,0,0,1.67.62,2.26,2.26,0,0,0,1.67-.62,2.19,2.19,0,0,0,.63-1.64,2.43,2.43,0,0,0-.29-1.18,2.13,2.13,0,0,0-.82-.81A2.22,2.22,0,0,0,122.84,46.8Z"/><path class="cls-1" d="M127.09,44h.75v3.31a3.22,3.22,0,0,1,1-.9,2.45,2.45,0,0,1,1.19-.3,2.07,2.07,0,0,1,1.16.33,2,2,0,0,1,.75.9,4.76,4.76,0,0,1,.24,1.76v3h-.75V49.29a6.57,6.57,0,0,0-.08-1.35,1.37,1.37,0,0,0-1.47-1.17,1.84,1.84,0,0,0-1.22.45,2.1,2.1,0,0,0-.71,1.12,7.84,7.84,0,0,0-.11,1.59v2.14h-.75Z"/><path class="cls-1" d="M143.66,45.64l-.62.48a3.37,3.37,0,0,0-1.24-1,3.63,3.63,0,0,0-1.59-.35,3.44,3.44,0,0,0-1.75.46,3.33,3.33,0,0,0-1.25,1.22,3.41,3.41,0,0,0-.44,1.72,3.24,3.24,0,0,0,1,2.41,3.46,3.46,0,0,0,2.5,1,3.54,3.54,0,0,0,2.78-1.3l.62.47a3.9,3.9,0,0,1-1.47,1.16,4.71,4.71,0,0,1-2,.41,4.06,4.06,0,0,1-4.27-4.19,3.88,3.88,0,0,1,1.22-2.92,4.18,4.18,0,0,1,3-1.19,4.49,4.49,0,0,1,2,.44A3.8,3.8,0,0,1,143.66,45.64Z"/><path class="cls-1" d="M147.56,46.08a2.9,2.9,0,0,1,2.24,1,3,3,0,0,1,.81,2.11,3.05,3.05,0,0,1-.86,2.14,3.1,3.1,0,0,1-4.39,0,3.14,3.14,0,0,1,0-4.25A2.9,2.9,0,0,1,147.56,46.08Zm0,.74a2.15,2.15,0,0,0-1.61.69,2.31,2.31,0,0,0-.68,1.67,2.35,2.35,0,0,0,.31,1.19,2.16,2.16,0,0,0,.83.84,2.27,2.27,0,0,0,1.15.3,2.24,2.24,0,0,0,2-1.14,2.45,2.45,0,0,0,.3-1.19,2.3,2.3,0,0,0-.67-1.67A2.2,2.2,0,0,0,147.56,46.82Z"/><path class="cls-1" d="M151.57,46.23h.75V49a5.86,5.86,0,0,0,.11,1.37,1.52,1.52,0,0,0,.62.85,2,2,0,0,0,2.15,0,1.54,1.54,0,0,0,.6-.8,5.25,5.25,0,0,0,.12-1.43V46.23h.76V49.1a4.53,4.53,0,0,1-.28,1.82,2.14,2.14,0,0,1-.85,1,3.14,3.14,0,0,1-2.84,0,2.19,2.19,0,0,1-.86-1,4.67,4.67,0,0,1-.28-1.87Z"/><path class="cls-1" d="M157.74,46.23h.77v.85a2.89,2.89,0,0,1,.72-.75,1.42,1.42,0,0,1,.8-.25,1.38,1.38,0,0,1,.66.2l-.39.63a1,1,0,0,0-.4-.1,1.05,1.05,0,0,0-.72.31,1.91,1.91,0,0,0-.53,1,8.71,8.71,0,0,0-.14,2v2h-.77Z"/><path class="cls-1" d="M161.66,44.06h.75v2.17h1.19v.65h-1.19v5.19h-.75V46.88h-1v-.65h1Z"/><path class="cls-1" d="M166.46,45v-.78h4.32V45H169v7.12h-.8V45Z"/><path class="cls-1" d="M177.29,46.23v5.84h-.74v-1a3.27,3.27,0,0,1-1.06.86,2.78,2.78,0,0,1-1.29.29,2.87,2.87,0,0,1-2.12-.9,3,3,0,0,1-.87-2.18,2.93,2.93,0,0,1,.88-2.16,2.88,2.88,0,0,1,2.13-.9,2.72,2.72,0,0,1,1.31.31,2.92,2.92,0,0,1,1,.91V46.23Zm-3,.57a2.28,2.28,0,0,0-2,1.18,2.37,2.37,0,0,0-.31,1.18,2.48,2.48,0,0,0,1.16,2.06,2.23,2.23,0,0,0,1.15.31,2.33,2.33,0,0,0,1.17-.31,2.21,2.21,0,0,0,.85-.84,2.43,2.43,0,0,0,.3-1.2,2.28,2.28,0,0,0-.67-1.69A2.18,2.18,0,0,0,174.29,46.8Z"/><path class="cls-1" d="M178.91,43.82a.58.58,0,0,1,.44.19.59.59,0,0,1,.18.44.58.58,0,0,1-.18.43.6.6,0,0,1-.44.18.6.6,0,0,1-.43-.18.58.58,0,0,1-.18-.43.59.59,0,0,1,.18-.44A.57.57,0,0,1,178.91,43.82Zm-.37,2.41h.75v5.84h-.75Z"/><path class="cls-1" d="M180.53,46.23h.75v1.05a3.12,3.12,0,0,1,1-.9,2.42,2.42,0,0,1,1.19-.3,2.07,2.07,0,0,1,1.16.33,2,2,0,0,1,.75.9,4.79,4.79,0,0,1,.24,1.76v3h-.75V49.29a7.41,7.41,0,0,0-.08-1.35,1.36,1.36,0,0,0-1.47-1.17,1.84,1.84,0,0,0-1.22.45,2.18,2.18,0,0,0-.72,1.12,8.06,8.06,0,0,0-.1,1.59v2.14h-.75Z"/><path class="cls-1" d="M192.73,46.23v5.84H192v-1a3.08,3.08,0,0,1-1.06.86,2.77,2.77,0,0,1-1.28.29,2.84,2.84,0,0,1-2.12-.9,3,3,0,0,1-.88-2.18,2.94,2.94,0,0,1,.89-2.16,2.88,2.88,0,0,1,2.13-.9,2.69,2.69,0,0,1,1.3.31,2.92,2.92,0,0,1,1,.91V46.23Zm-3,.57a2.25,2.25,0,0,0-2,1.18,2.38,2.38,0,0,0-.32,1.18,2.41,2.41,0,0,0,.32,1.18,2.25,2.25,0,0,0,.85.88,2.22,2.22,0,0,0,1.14.31,2.28,2.28,0,0,0,1.17-.31,2.24,2.24,0,0,0,.86-.84,2.53,2.53,0,0,0,.29-1.2,2.31,2.31,0,0,0-.66-1.69A2.22,2.22,0,0,0,189.72,46.8Z"/><path class="cls-1" d="M194.09,46.23h.75v1.05a3.12,3.12,0,0,1,1-.9,2.42,2.42,0,0,1,1.19-.3,2,2,0,0,1,1.16.33,2,2,0,0,1,.75.9,4.75,4.75,0,0,1,.25,1.76v3h-.76V49.29a6.57,6.57,0,0,0-.08-1.35,1.36,1.36,0,0,0-1.47-1.17,1.86,1.86,0,0,0-1.22.45,2.1,2.1,0,0,0-.71,1.12,7.84,7.84,0,0,0-.11,1.59v2.14h-.75Z"/><path class="cls-1" d="M203.33,44.17h1.55a3.68,3.68,0,0,1,1.45.23,1.71,1.71,0,0,1,.8.68,1.93,1.93,0,0,1,.29,1,1.81,1.81,0,0,1-.26,1,1.91,1.91,0,0,1-.75.71,2.89,2.89,0,0,1,1,.49,1.91,1.91,0,0,1,.51.68,2,2,0,0,1,.19.87,2.12,2.12,0,0,1-.7,1.61,2.62,2.62,0,0,1-1.86.65h-2.17Zm.77.78v2.53h.45a3.54,3.54,0,0,0,1.21-.16,1.29,1.29,0,0,0,.62-.48,1.26,1.26,0,0,0,.22-.73,1,1,0,0,0-.38-.86A1.94,1.94,0,0,0,205,45Zm0,3.32v3h1a3.57,3.57,0,0,0,1.27-.17,1.46,1.46,0,0,0,.65-.53,1.38,1.38,0,0,0,.24-.78,1.36,1.36,0,0,0-.34-.92,1.75,1.75,0,0,0-1-.53,6.46,6.46,0,0,0-1.4-.1Z"/><path class="cls-1" d="M208.88,46.23h.77v.85a2.76,2.76,0,0,1,.73-.75,1.39,1.39,0,0,1,.79-.25,1.42,1.42,0,0,1,.67.2l-.39.63a1,1,0,0,0-.4-.1,1.1,1.1,0,0,0-.73.31,1.91,1.91,0,0,0-.53,1,9.33,9.33,0,0,0-.14,2v2h-.77Z"/><path class="cls-1" d="M218,46.23v5.84h-.74v-1a3.27,3.27,0,0,1-1.06.86,2.81,2.81,0,0,1-1.29.29,2.86,2.86,0,0,1-2.12-.9,3,3,0,0,1-.88-2.18,2.94,2.94,0,0,1,.89-2.16,2.88,2.88,0,0,1,2.13-.9,2.66,2.66,0,0,1,1.3.31,3,3,0,0,1,1,.91V46.23Zm-3,.57A2.25,2.25,0,0,0,213,48a2.37,2.37,0,0,0-.31,1.18,2.39,2.39,0,0,0,.31,1.18,2.32,2.32,0,0,0,.85.88,2.23,2.23,0,0,0,1.15.31,2.33,2.33,0,0,0,1.17-.31,2.21,2.21,0,0,0,.85-.84,2.43,2.43,0,0,0,.3-1.2,2.32,2.32,0,0,0-.67-1.69A2.22,2.22,0,0,0,215,46.8Z"/><path class="cls-1" d="M219.33,46.23h.75v1.05a3.22,3.22,0,0,1,1-.9,2.45,2.45,0,0,1,1.19-.3,2.11,2.11,0,0,1,1.17.33,2,2,0,0,1,.75.9,4.79,4.79,0,0,1,.24,1.76v3h-.75V49.29a6.34,6.34,0,0,0-.09-1.35,1.45,1.45,0,0,0-.5-.88,1.55,1.55,0,0,0-1-.29,1.86,1.86,0,0,0-1.22.45,2.1,2.1,0,0,0-.71,1.12,7.84,7.84,0,0,0-.11,1.59v2.14h-.75Z"/><path class="cls-1" d="M231.38,47.44l-.59.37a2.51,2.51,0,0,0-2.11-1,2.47,2.47,0,0,0-1.78.68,2.25,2.25,0,0,0-.7,1.67,2.46,2.46,0,0,0,.32,1.21,2.4,2.4,0,0,0,.89.87,2.7,2.7,0,0,0,3.38-.72l.59.4a2.88,2.88,0,0,1-1.12,1,3.63,3.63,0,0,1-1.61.34,3.16,3.16,0,0,1-2.3-.88,2.84,2.84,0,0,1-.91-2.14,3.11,3.11,0,0,1,.42-1.58A3.05,3.05,0,0,1,227,46.49a3.41,3.41,0,0,1,1.67-.41,3.55,3.55,0,0,1,1.12.18,3.11,3.11,0,0,1,.91.46A2.47,2.47,0,0,1,231.38,47.44Z"/><path class="cls-1" d="M232.5,44h.75v3.31a3.22,3.22,0,0,1,1-.9,2.45,2.45,0,0,1,1.19-.3,2.07,2.07,0,0,1,1.16.33,2,2,0,0,1,.75.9,4.76,4.76,0,0,1,.24,1.76v3h-.75V49.29a7.41,7.41,0,0,0-.08-1.35,1.37,1.37,0,0,0-1.47-1.17,1.84,1.84,0,0,0-1.22.45,2.1,2.1,0,0,0-.71,1.12,7.15,7.15,0,0,0-.11,1.59v2.14h-.75Z"/><path class="cls-1" d="M249.07,45.64l-.62.48a3.37,3.37,0,0,0-1.24-1,3.63,3.63,0,0,0-1.59-.35,3.44,3.44,0,0,0-1.75.46,3.33,3.33,0,0,0-1.25,1.22,3.41,3.41,0,0,0-.44,1.72,3.24,3.24,0,0,0,1,2.41,3.46,3.46,0,0,0,2.5,1,3.54,3.54,0,0,0,2.78-1.3l.62.47a3.9,3.9,0,0,1-1.47,1.16,4.71,4.71,0,0,1-2,.41,4.06,4.06,0,0,1-4.27-4.19,3.91,3.91,0,0,1,1.21-2.92A4.22,4.22,0,0,1,245.61,44a4.49,4.49,0,0,1,2,.44A3.8,3.8,0,0,1,249.07,45.64Z"/><path class="cls-1" d="M253,46.08a2.9,2.9,0,0,1,2.24,1,3,3,0,0,1,.8,2.11,3,3,0,0,1-.85,2.14,3.1,3.1,0,0,1-4.39,0,3.14,3.14,0,0,1,0-4.25A2.9,2.9,0,0,1,253,46.08Zm0,.74a2.19,2.19,0,0,0-1.62.69,2.43,2.43,0,0,0-.36,2.86,2.16,2.16,0,0,0,.83.84,2.27,2.27,0,0,0,1.15.3,2.23,2.23,0,0,0,1.14-.3,2.16,2.16,0,0,0,.83-.84,2.35,2.35,0,0,0,.31-1.19,2.3,2.3,0,0,0-.67-1.67A2.2,2.2,0,0,0,253,46.82Z"/><path class="cls-1" d="M257,46.23h.75V49a5.86,5.86,0,0,0,.11,1.37,1.55,1.55,0,0,0,.61.85,2.06,2.06,0,0,0,2.16,0,1.54,1.54,0,0,0,.6-.8,5.4,5.4,0,0,0,.11-1.43V46.23h.77V49.1a4.53,4.53,0,0,1-.28,1.82,2.14,2.14,0,0,1-.85,1,2.69,2.69,0,0,1-1.42.34,2.75,2.75,0,0,1-1.43-.34,2.17,2.17,0,0,1-.85-1A4.67,4.67,0,0,1,257,49Z"/><path class="cls-1" d="M263.15,46.23h.77v.85a2.89,2.89,0,0,1,.72-.75,1.42,1.42,0,0,1,.8-.25,1.38,1.38,0,0,1,.66.2l-.39.63a1,1,0,0,0-.4-.1,1.05,1.05,0,0,0-.72.31,1.84,1.84,0,0,0-.53,1,8.71,8.71,0,0,0-.14,2v2h-.77Z"/><path class="cls-1" d="M267.07,44.06h.75v2.17H269v.65h-1.19v5.19h-.75V46.88h-1v-.65h1Z"/><circle class="cls-2" cx="32.65" cy="31.37" r="30.28"/><path class="cls-3" d="M61.52,37.78a29.81,29.81,0,0,1-28.83,23c-13.95,0-25.93-10.21-28.92-23.25h7.44c2.8,9,11.53,16.07,21.48,16.07A22.63,22.63,0,0,0,54.08,37.78Z"/><path class="cls-4" d="M53.63,31.28a21,21,0,1,1-21-21A21,21,0,0,1,53.63,31.28Z"/><path class="cls-2" d="M34.33,33.78H31V42a1.68,1.68,0,0,0,1.69,1.65A1.64,1.64,0,0,0,34.33,42Z"/><path class="cls-2" d="M35.56,44H29.74a.7.7,0,0,0-.76.65v.77a.7.7,0,0,0,.76.65h5.82a.69.69,0,0,0,.75-.65v-.77A.7.7,0,0,0,35.56,44Z"/><path class="cls-2" d="M36.69,46.86h-8c-.56,0-1,.3-1,.69v.75c0,.41.41.7,1,.7h8c.55,0,1-.29,1-.7v-.75C37.65,47.16,37.24,46.86,36.69,46.86Z"/><path class="cls-2" d="M48.92,23.27a.91.91,0,0,0-.41-.63,1.1,1.1,0,0,0-1.36.13,6.57,6.57,0,0,1-8.67.07,8.88,8.88,0,0,0-11.24-.17l.05,0-.2.16,0,0a6.27,6.27,0,0,1-4.38,1.67,6.23,6.23,0,0,1-4.38-1.67,1.09,1.09,0,0,0-.68-.3,1.13,1.13,0,0,0-.69.17.94.94,0,0,0-.41.63v.1a.8.8,0,0,0,.27.6,8.38,8.38,0,0,0,5.9,2.28,8.45,8.45,0,0,0,5.48-1.9l0,0s0,0,0,0l.15-.12a6.55,6.55,0,0,1,8.68-.07,8.47,8.47,0,0,0,5.71,2.09A8.37,8.37,0,0,0,48.66,24a.87.87,0,0,0,.26-.61Zm0,0h0v0Z"/><path class="cls-2" d="M36.14,17a3.45,3.45,0,1,1-3.46-3.46A3.46,3.46,0,0,1,36.14,17Z"/><path class="cls-2" d="M27.58,38.37l-5.32-12a.56.56,0,0,0-.52-.35.57.57,0,0,0-.52.36h0l-5.31,12a.75.75,0,0,0,0,.62,6.46,6.46,0,0,0,5.81,3.15A6.43,6.43,0,0,0,27.55,39,.72.72,0,0,0,27.58,38.37ZM21.74,28.14c.32.71,4.33,9.77,4.61,10.41H17.13l3.09-7Z"/><path class="cls-2" d="M49.53,38.37l-5.31-12A.56.56,0,0,0,43.7,26a.57.57,0,0,0-.53.37v0l-5.3,12a.71.71,0,0,0,0,.62,6.45,6.45,0,0,0,5.81,3.15A6.44,6.44,0,0,0,49.51,39,.72.72,0,0,0,49.53,38.37ZM43.7,28.14l4.61,10.41H39.08c.2-.43,2-4.5,2-4.5S43.4,28.83,43.7,28.14Z"/><path class="cls-2" d="M38.26,25.42a.82.82,0,0,0-.88.91H36.22v-.52h-7v.52H28a.82.82,0,0,0-.88-.91s-.77,0-.77,1v4.36c0,1.07.77,1,.77,1a.83.83,0,0,0,.88-.92h1.15v.54H31v1.59h3.31V31.47h1.89v-.54h1.16a.83.83,0,0,0,.88.92s.77,0,.77-1V26.45C39,25.4,38.26,25.42,38.26,25.42Z"/><path class="cls-2" d="M11.77,50.25,9.13,46.78l.21-.16,1.24,1.64.28-.22L9.8,46.64l.2-.14,1.06,1.4.26-.2-.93-1.21.17-.19a1.32,1.32,0,0,0,.86.43L11,46.18l.19-.15,1.86,2.45-.19.15-.2-.27a6.65,6.65,0,0,1-.23.82l-.26,0a1.6,1.6,0,0,0,.11-.3l-.79-.93-.27.21,1.06,1.39-.2.15L11,48.26l-.28.21L12,50.1Zm1.43-1.18L13,48.86l.45-.34-2.21-2.91-.43.33-.16-.21.63-.48,2.53,3.33Zm-.88-.57a2.2,2.2,0,0,0,.07-.28l.17,0L11.65,47a1.93,1.93,0,0,1-.69-.19C11.2,47.17,11.66,47.72,12.32,48.5ZM13.79,48l-1.95-2.56.67-.51,1.94,2.56Zm0-.38.26-.19-1.62-2.13-.26.2Zm1.64-.19-1.23-1.62L14,46l1.09,1.44-.2.16L12.53,44.5l.2-.15,1.1,1.44.25-.18L12.84,44l.2-.16,1.24,1.63.22-.16.17.22-.22.16,1.23,1.62Z"/><path class="cls-2" d="M14.54,50.38a13.2,13.2,0,0,1-1.79,1l0-.27a13.29,13.29,0,0,0,1.78-1Zm1.89,3-.42.37a.48.48,0,0,1-.29.13.35.35,0,0,1-.3-.1L14.55,53l.12-.27.93.83c.07.06.15,0,.25,0l.19-.16L13.86,51.4l.79-.47,1.86,1.65.23-.26-2.06-1.83.17-.19,2.26,2-.58.64-1.9-1.69-.32.19Zm-.87-3.58a4.22,4.22,0,0,1-.57.37l-.1-.2a3.16,3.16,0,0,0,.56-.36Zm-.28-.27-.28.07a4.33,4.33,0,0,0,0-1l.29-.07A5.77,5.77,0,0,1,15.28,49.49Zm.16,1-.17-.1a4.55,4.55,0,0,0,.36-.53l.17.11A4.82,4.82,0,0,1,15.44,50.47Zm1-.37L16.2,50a.31.31,0,0,0,.06-.13c-.26-.13-.5-.28-.74-.43l.06-.2c.41-.06.71-.11.91-.16l-.36-.26.09-.21a4,4,0,0,0,1.07-.33l.08.24a6.89,6.89,0,0,1-.86.27l.31.2.3-.1.07.23a5.58,5.58,0,0,1-1.22.3,2.71,2.71,0,0,0,.38.22.44.44,0,0,0,.07-.17l.21.06A3,3,0,0,1,16.41,50.1Zm-.58.56-.19-.09a4.27,4.27,0,0,0,.3-.51l.19.07A2.62,2.62,0,0,1,15.83,50.66Zm.75.78-.67-.59.6-.67.66.59Zm-.25-2.95-.29,0a4.37,4.37,0,0,0,0-1l.28-.06A5.19,5.19,0,0,1,16.33,48.49Zm.25,2.62.27-.3-.34-.29-.26.29Zm.7.19a3.37,3.37,0,0,1-.54.44l-.12-.18a3.75,3.75,0,0,0,.54-.43Zm0-.72L16.67,50l.16-.19.66.59Zm.33-.37L17,49.62l.16-.18.66.59Zm-.43,1.85L17,52a2.37,2.37,0,0,0,.37-.53l.18.11A2.75,2.75,0,0,1,17.22,52.06Zm.87-2.12-.85-.76L17.4,49l.37.32a1.44,1.44,0,0,0,.12-.32l.23.06c0,.12-.09.27-.16.43l.29.27Zm0,1.77-.22-.08a.89.89,0,0,0,.08-.17L17.24,51l.09-.2a5.64,5.64,0,0,0,.89-.12l-.41-.31.09-.18A5.2,5.2,0,0,0,19,49.88l.1.23a4.75,4.75,0,0,1-.91.25,2.92,2.92,0,0,0,.36.23l.32-.12.06.25a6.6,6.6,0,0,1-1.23.29,2,2,0,0,0,.36.21l.06-.17.22.07C18.29,51.33,18.21,51.52,18.13,51.71Zm-.54.63-.19-.08c.14-.28.22-.47.27-.59l.19.09A2.28,2.28,0,0,1,17.59,52.34Z"/><path class="cls-2" d="M20.88,56.63a.6.6,0,0,1-.25.25c-.09,0-.24,0-.45-.11l-.24-.15.08-.31.35.22a.2.2,0,0,0,.31-.08L21.5,55l-2.92-1.66L17.5,55.25l-.23-.13L18.5,53l3.38,1.92Zm-.7-.57-1.84-1,.58-1,1.84,1Zm-.1-.39.29-.51L19,54.39l-.29.51Zm1.56-1.4-2.51-1.43.56-1,2.51,1.43Zm1.38-1-3.77-2.14.14-.25,1.78,1a2,2,0,0,0,.1-.49l.28,0a3.41,3.41,0,0,1-.14.59l1.76,1Zm-1.48.57.27-.47-2-1.15-.27.47Z"/><path class="cls-2" d="M26.84,57.59,26,57.32l-.27.88c-.07.23-.17.36-.28.4a.92.92,0,0,1-.54-.06,2.6,2.6,0,0,1-.36-.13l0-.33.45.15.33.09c.06,0,.11,0,.14-.15l.29-.93-3.14-1,.09-.29,3.14,1,.16-.53-2.68-.82.08-.28,1.58.48.16-.51-1.81-.56.08-.28,1.82.56.11-.39.26.08-.12.38,1.78.55-.08.28-1.79-.55-.16.52,1.57.48-.08.28-.46-.14L26,57l.88.27ZM25.5,54.13l-1.37-.42a4,4,0,0,1-.68.45l-.14-.27a3.09,3.09,0,0,0,1.21-1l.23.18c-.11.13-.24.26-.37.39l1.21.37Zm-1.35,3.69-.27.13a4.44,4.44,0,0,0-.49-1l.26-.14A4.9,4.9,0,0,1,24.15,57.82Zm.57-3.26-.28,0a2.7,2.7,0,0,0-.19-.54l.26,0A1.68,1.68,0,0,1,24.72,54.56Zm2.91.22-1.56-.48a3.25,3.25,0,0,1-.41.26l-.15-.23a2.78,2.78,0,0,0,.92-.81l.21.17a3.46,3.46,0,0,1-.33.38l1.4.43Zm-.8.42-.29.06a2.06,2.06,0,0,0-.2-.55l.28-.07A2,2,0,0,1,26.83,55.2Z"/><path class="cls-2" d="M28.94,57.33a12,12,0,0,1-1.09,1.92L27.64,59a9.86,9.86,0,0,0,1.1-1.9Zm.09-.95-.22.22a3.83,3.83,0,0,0-.77-.85l.18-.23A5,5,0,0,1,29,56.38Zm.22-1.47-.2.2a4.74,4.74,0,0,0-.77-.85l.19-.22A4.52,4.52,0,0,1,29.25,54.91Zm3.12,2.21L30.75,57a10.31,10.31,0,0,1-1.3,1.94,15.2,15.2,0,0,0,2.1-.22,9.14,9.14,0,0,0-.47-1l.24-.13a11.8,11.8,0,0,1,.82,1.92l-.25.17a4.26,4.26,0,0,0-.23-.69,23.05,23.05,0,0,1-2.58.25L29,58.89a1.79,1.79,0,0,0,.66-.66,11.89,11.89,0,0,0,.78-1.29l-1.26-.11,0-.3,1.47.13.11-1.18-1.24-.11,0-.3,1.24.12.08-.93.26,0-.08.93,1.22.11,0,.3-1.22-.11L31,56.69l1.44.13Z"/><path class="cls-2" d="M34.09,56.16a2.53,2.53,0,0,1,.57,1.34.72.72,0,0,1-.08.45c-.07.13-.23.2-.49.22l-.19,0-.13-.31.28,0a.49.49,0,0,0,.3-.1.29.29,0,0,0,0-.23,2.28,2.28,0,0,0-.58-1.29c.08-.41.16-.91.25-1.49l-.76.07.47,4.78-.26,0L33,54.54l1.3-.13,0,.31C34.27,55.2,34.19,55.68,34.09,56.16Zm3.31-.37-.26,0-.09-.89-2.17.22L35,56l-.27,0-.12-1.2,1.19-.12a3,3,0,0,0-.23-.53l.27-.11a4.45,4.45,0,0,1,.25.62l1.22-.12ZM37.73,58a3.53,3.53,0,0,1,0,.72.57.57,0,0,1-.16.34,1,1,0,0,1-.48.13c-.29,0-.45-.08-.47-.33l-.18-1.84-.59.06a3,3,0,0,1-.2,1.51,2.33,2.33,0,0,1-.82.87l-.22-.24a1.93,1.93,0,0,0,.8-.8,2.28,2.28,0,0,0,.17-1.31l-.76.07,0-.29,2.71-.27,0,.3-.82.08.17,1.77a.12.12,0,0,0,0,.08s.11,0,.23,0a.66.66,0,0,0,.23,0,.3.3,0,0,0,.08-.08,1.45,1.45,0,0,0,0-.3,5,5,0,0,0,0-.52ZM36.94,56l-1.75.17,0-.3,1.74-.17Z"/><path class="cls-2" d="M41.88,53.14l-1.94.62.1.29,1.72-.55.08.24-3.72,1.18L38,54.68l1.74-.55-.1-.29-2,.62-.08-.25,2-.61-.08-.27.26-.08.09.26,1.93-.61Zm.77,2.68-.25.09-.17-.54-3.48,1.1.16.52-.25.08-.24-.76,4-1.26Zm-.8-.9-3.06,1-.25-.79,3.06-1Zm-.33-.16-.1-.31-2.55.81.1.3Zm1.77,2.81-4.17,1.32L39,58.65,41,58l-.11-.34-1.68.54L39.15,58l1.67-.53-.1-.31-1.45.47-.11-.23a1.29,1.29,0,0,0,.69-.66l-.66.21-.08-.23,2.94-.93.07.23-.32.1a6.15,6.15,0,0,1,.7.49l-.14.23a1,1,0,0,0-.25-.2L41,57l.11.33,1.67-.53.07.23-1.67.53.11.34,2-.62Zm-1.47-1.11-.24-.15.07-.16-1.44.45a1.81,1.81,0,0,1-.41.6C40.19,57.07,40.86,56.83,41.82,56.46Z"/><path class="cls-2" d="M46.25,51.05l-1.83,1.06.36.61,1.6-.93L48,54.56a.49.49,0,0,1,.07.31q0,.15-.33.33a2.11,2.11,0,0,1-.3.16l-.25-.22.34-.17c.14-.08.21-.14.23-.19a.17.17,0,0,0,0-.15L46.3,52.18l-2.94,1.71L45,56.77l-.23.13L43,53.76l1.55-.91-.35-.6-1.8,1L42.24,53,44,52l-.3-.51.24-.13.29.5,1.82-1.06Zm.86,3.12L46,54.81l.51.88-.23.14L45.77,55l-1.13.65-.15-.26,1.12-.66-.31-.53-.94.54-.15-.27.5-.29a3.07,3.07,0,0,0-.58-.42l.14-.25A5.09,5.09,0,0,1,45,54l.57-.33a4.49,4.49,0,0,0-.1-.83l.28,0a4.72,4.72,0,0,1,.09.72l.52-.3.16.27-1,.55.31.54L47,53.9Z"/><path class="cls-2" d="M47.38,49A5.5,5.5,0,0,1,47.81,52l-.3-.06a5,5,0,0,0-.39-2.77Zm3.48-.19,0,.33a4.44,4.44,0,0,1-2.53-.7l-.29.26-.21-.24.43-.39A3.91,3.91,0,0,0,50.86,48.83Zm-.67.5c.42.48.78.94,1.08,1.35a4.54,4.54,0,0,1,.51.82.6.6,0,0,1,0,.35,1.26,1.26,0,0,1-.33.41l-.32.26-.26-.2a3.68,3.68,0,0,0,.41-.33.85.85,0,0,0,.2-.22.39.39,0,0,0,0-.15,1.57,1.57,0,0,0-.18-.37c-.12-.19-.28-.41-.47-.67s-.42-.52-.68-.82l-1,.89a3.6,3.6,0,0,1,.59,3.2l-.29-.07A3.3,3.3,0,0,0,49,50.85l-.73.65L48,51.26Z"/><path class="cls-2" d="M51.57,47.23a2.41,2.41,0,0,1,1.36.49.71.71,0,0,1,.28.36.57.57,0,0,1-.16.51.64.64,0,0,1-.13.15l-.31-.11.18-.22c.09-.13.14-.22.13-.29a.33.33,0,0,0-.13-.19,2.42,2.42,0,0,0-1.35-.45c-.25-.34-.56-.73-.93-1.2l-.46.61,3.83,2.9-.15.21-4.08-3.09.79-1,.24.18C51,46.44,51.28,46.83,51.57,47.23Zm2-2.69-.16.22-.71-.54L51.35,46l.71.54-.16.22-1-.73.72-1a4.79,4.79,0,0,0-.55-.19l.1-.27c.2.06.41.14.63.23l.74-1Zm-.19.45-1.07,1.4-.23-.18,1.06-1.4Zm2.06.84a3,3,0,0,1,.53.48.58.58,0,0,1,.15.34,1.09,1.09,0,0,1-.24.45c-.17.23-.36.27-.56.12L53.82,46.1l-.35.47a3.16,3.16,0,0,1,1,1.18,2.45,2.45,0,0,1,.08,1.19h-.33a1.87,1.87,0,0,0,0-1.13,2.33,2.33,0,0,0-.85-1l-.46.61-.24-.18,1.65-2.17.24.18-.5.66L55.4,47a.17.17,0,0,0,.1,0s.09-.05.17-.15a.67.67,0,0,0,.12-.2.49.49,0,0,0,0-.12,1,1,0,0,0-.2-.21,4.91,4.91,0,0,0-.41-.33Z"/><path class="cls-5" d="M9.74,37.4l.12.43-3.52.94.17.63-.59.16-.45-1.68.59-.16.17.62Z"/><path class="cls-5" d="M8.47,36.13l1,.1.08.51-4.49-.39L5,35.92,9.1,34.1l.09.52-.9.4ZM6.05,36l1.85.12-.15-.86Z"/><path class="cls-5" d="M9.06,33.29l0,.49-4.23.37,0-.49Z"/><path class="cls-5" d="M7.87,31.82l-3.19-.68v-.26l3.21-.61-3.13-.69v-.52l4.32,1.06v.37l-2.92.58,2.9.64v.38l-4.35.85v-.51Z"/><path class="cls-5" d="M8.25,28.17l.9.4-.08.52-4.14-1.8L5,26.86l4.48-.42L9.4,27l-1,.09ZM6,27.27,7.71,28l.13-.86Z"/><path class="cls-5" d="M5.36,25l.1-.36L9,23.9,6,23l.14-.47,4.16,1.19-.1.35-3.52.71,3,.86-.14.48Z"/><path class="cls-5" d="M9.59,19l-1.54-.79.22-.44,3.79,1.94-.23.43-1.73-.89-.55,1.08,1.74.88-.23.45L7.28,19.76l.22-.44L9,20.11Z"/><path class="cls-5" d="M12.62,18.85l-.26.43L8.74,17.05,9,16.63Z"/><path class="cls-5" d="M12.59,15l.09.07a3.37,3.37,0,0,1,1.11,1.26,1.07,1.07,0,0,1-.08,1.15,1.17,1.17,0,0,1-1.11.42,3,3,0,0,1-1.5-.62A3,3,0,0,1,10,16a1.2,1.2,0,0,1,.1-1.21,1.23,1.23,0,0,1,1.5-.32V15q-.72-.26-1,.15a.72.72,0,0,0,0,.8,2.47,2.47,0,0,0,.77.89,2.41,2.41,0,0,0,1.06.47.71.71,0,0,0,.75-.25.59.59,0,0,0,0-.64,1.55,1.55,0,0,0-.55-.66l-.41.56L11.84,16Z"/><path class="cls-5" d="M14,13.07l-1.26-1.18.34-.36,3.09,2.92-.33.35-1.42-1.34-.83.88L15,15.68l-.34.36-3.09-2.92.34-.36L13.18,14Z"/><path class="cls-5" d="M17.48,9.23a.72.72,0,0,0-.78,0,.79.79,0,0,0-.25.78,2.2,2.2,0,0,0,.44,1,2.08,2.08,0,0,0,.84.7.79.79,0,0,0,.82,0A.76.76,0,0,0,18.8,11l.52.71a1.19,1.19,0,0,1-.38.59,1.18,1.18,0,0,1-1.2.08,2.84,2.84,0,0,1-1.26-1,3,3,0,0,1-.62-1.54,1.19,1.19,0,0,1,.43-1.14A1.09,1.09,0,0,1,17,8.52Z"/><path class="cls-5" d="M18.63,9.78A2.91,2.91,0,0,1,18.2,8.2a1.19,1.19,0,0,1,.57-1.08A1.17,1.17,0,0,1,20,7.18a2.8,2.8,0,0,1,1.14,1.17,2.87,2.87,0,0,1,.43,1.57,1.15,1.15,0,0,1-1.8,1A2.84,2.84,0,0,1,18.63,9.78Zm.42-.29a2.2,2.2,0,0,0,.78.82.78.78,0,0,0,.81.08A.77.77,0,0,0,21,9.66a2.23,2.23,0,0,0-.33-1.1,2.12,2.12,0,0,0-.75-.79.74.74,0,0,0-1.17.67A2,2,0,0,0,19.05,9.49Z"/><path class="cls-5" d="M20.9,6.12l.46-.19.91,2.2c.36.84.71,1.19,1.08,1s.37-.64,0-1.49l-.91-2.2.45-.18,1,2.34c.46,1.12.37,1.82-.3,2.1s-1.23-.15-1.7-1.27Z"/><path class="cls-5" d="M26.87,8.49l-.58.18L25,7.09l.53,1.81L25,9.05,23.8,5l.74-.22c.63-.18,1.06.13,1.3,1a1.59,1.59,0,0,1,.07.82.65.65,0,0,1-.34.49Zm-2-1.68.14,0c.39-.12.51-.42.37-.91s-.41-.64-.79-.53l-.15,0Z"/><path class="cls-5" d="M28,8.26l-.44.09-.74-3.57-.64.14-.12-.6L27.8,4l.12.6-.63.13Z"/><path class="cls-5" d="M31.5,7.83l-.45,0-.2-3.64-.65,0,0-.61,1.74-.1,0,.61-.65,0Z"/><path class="cls-5" d="M33,6.85l-.3.94-.52,0,1.29-4.31h.44l1,4.4-.53,0-.21-1Zm.62-2.34-.48,1.78.86,0Z"/><path class="cls-5" d="M35.64,8l-.49,0,.49-4.22.49,0Z"/><path class="cls-5" d="M37.05,3.76l.37.08,1,3.46.63-3,.48.1-.87,4.24-.36-.07-1-3.46-.63,3L36.18,8Z"/><path class="cls-5" d="M40,8l-.55.82-.5-.17,2.47-3.77.42.14-.35,4.48L41,9.3l.07-1Zm1.27-2.07-1,1.57.83.28Z"/><path class="cls-5" d="M43.62,5.65l.34.16.1,3.59L45.4,6.63l.44.21L44,10.74l-.33-.16L43.53,7l-1.35,2.8-.45-.21Z"/><path class="cls-5" d="M48.38,8.39l.57.42c.47.35.48.83,0,1.45a1.16,1.16,0,0,1-.7.52.55.55,0,0,1,.09.5,1.83,1.83,0,0,1-.31.65,1.36,1.36,0,0,1-.74.57.79.79,0,0,1-.72-.15l-.73-.52Zm-1.77,3.27.22.16q.47.33.87-.24a.54.54,0,0,0-.11-.86l-.19-.14Zm1.09-1.5.18.13c.22.16.45.08.7-.25s.27-.61.05-.77l-.18-.14Z"/><path class="cls-5" d="M49.11,14.44l-.46-.4.64-2L48,13.49l-.37-.33L50.47,10l.58.51c.49.43.45,1-.11,1.6a1.72,1.72,0,0,1-.67.49.61.61,0,0,1-.59,0Zm.37-2.59.11.1c.3.27.62.21,1-.17s.34-.68,0-.95l-.11-.1Z"/><path class="cls-5" d="M50.41,14.42l-.88.45-.35-.38,4-2.12.29.33L51,16.46l-.36-.39.54-.82Zm2.11-1.2-1.61.9.58.64Z"/><path class="cls-5" d="M54.73,14.17l.22.31-1.65,3.2,2.52-1.79.29.4-3.53,2.52-.22-.3L54,15.31l-2.53,1.8-.29-.4Z"/><path class="cls-5" d="M56.69,19.36a.71.71,0,0,0,.08-.77.78.78,0,0,0-.74-.36,2.21,2.21,0,0,0-1.09.3,2.07,2.07,0,0,0-.8.75.69.69,0,0,0,.61,1.15l-.77.43a1.07,1.07,0,0,1-.46-1.66,2.83,2.83,0,0,1,1.16-1.11,3,3,0,0,1,1.6-.42,1.2,1.2,0,0,1,1.08.58,1,1,0,0,1,.1.69Z"/><path class="cls-5" d="M57,21.93l1.6-.67.19.46-3.92,1.63-.19-.45,1.8-.75L56.05,21l-1.8.75-.19-.46L58,19.7l.19.45-1.59.67Z"/><path class="cls-5" d="M59.13,26.69a.72.72,0,0,0,.3-.72.76.76,0,0,0-.61-.55,2.11,2.11,0,0,0-1.12,0,2,2,0,0,0-1,.49.76.76,0,0,0-.32.74.75.75,0,0,0,.57.54l-.85.18a1.17,1.17,0,0,1-.39-.58,1.23,1.23,0,0,1,.42-1.14,2.87,2.87,0,0,1,1.43-.73,3.07,3.07,0,0,1,1.66.06,1.22,1.22,0,0,1,.87.86,1.1,1.1,0,0,1-.11.69Z"/><path class="cls-5" d="M58.16,27.51a3,3,0,0,1,1.62.25,1.22,1.22,0,0,1,.75,1A1.18,1.18,0,0,1,60,29.82a3,3,0,0,1-1.54.56,2.91,2.91,0,0,1-1.61-.25,1.15,1.15,0,0,1-.2-2.06A2.82,2.82,0,0,1,58.16,27.51Zm.09.51a2.17,2.17,0,0,0-1.06.37.78.78,0,0,0-.41.7.77.77,0,0,0,.52.63,2.24,2.24,0,0,0,1.13.15,2,2,0,0,0,1-.36.76.76,0,0,0,.36-.71.74.74,0,0,0-.5-.63A2.06,2.06,0,0,0,58.25,28Z"/><path class="cls-5" d="M60.57,31.07v.49l-2.38-.06c-.92,0-1.38.17-1.39.56s.44.6,1.36.62l2.38.06v.49L58,33.17c-1.22,0-1.81-.41-1.8-1.13S56.82,31,58,31Z"/><path class="cls-5" d="M56,35.56l.08-.61,2-.57-1.87-.25.06-.49,4.21.54-.1.77c-.08.64-.54.91-1.39.8a1.71,1.71,0,0,1-.78-.27.65.65,0,0,1-.31-.51Zm2.35-1.15,0,.15c0,.4.18.63.68.7s.76-.11.81-.51l0-.15Z"/><path class="cls-5" d="M55.71,36.73l.1-.44,3.56.77.13-.63.6.13-.37,1.7-.6-.13.14-.63Z"/></svg>