<svg id="圖層_1" data-name="圖層 1" xmlns="http://www.w3.org/2000/svg" xmlns:xlink="http://www.w3.org/1999/xlink" viewBox="0 0 270.84 64"><defs><style>.cls-1{fill:#333;}.cls-2{fill:#fff;}.cls-3{fill:url(#linear-gradient);}.cls-4{fill:#005bab;}.cls-5{fill:#b7a246;}</style><linearGradient id="linear-gradient" x1="32.65" y1="60.77" x2="32.65" y2="37.52" gradientUnits="userSpaceOnUse"><stop offset="0.69" stop-color="#b7a246"/><stop offset="1" stop-color="#fff"/></linearGradient></defs><path class="cls-1" d="M88,15.18v1.46H80.14v1h6.33V19H72.07V17.67h6.19v-1H70.54V15.18h7.72V13.83h1.88v1.35ZM80.14,33.8H88v1.56H70.58V33.8h7.68v-1H72.53V31.36h5.73v-1c-3.67.12-4.25.19-4.65.33a14.7,14.7,0,0,0-.42-1.51,4.51,4.51,0,0,0,1.08-.31A10.66,10.66,0,0,0,76,28h-3.1v-1.3H85.53V28h-1.9a21.16,21.16,0,0,1,2.56,2.13l-1.12,1.11a13,13,0,0,0-1-1l-4,.12v1h6v1.39h-6Zm-9.3-9.48H87.69v3.46H85.93v-2H72.53v2H70.84Zm14.89-4.39v3.53H72.89V19.93Zm-1.82,1.18h-9.3v1.15h9.3ZM78.06,28a15.19,15.19,0,0,1-1.79,1.17L82.58,29c-.44-.33-.9-.64-1.32-.91l.16-.14Z"/><path class="cls-1" d="M92.87,24.49A12.93,12.93,0,0,0,90,22l1-1.54A12.35,12.35,0,0,1,94,22.76Zm-2.47,10c.72-1.85,1.75-4.92,2.49-7.61L94.37,28c-.64,2.47-1.5,5.35-2.3,7.58Zm2.81-16.16a13.24,13.24,0,0,0-2.79-2.66l1.09-1.47a13.36,13.36,0,0,1,2.84,2.45Zm2.34,4.54a13.51,13.51,0,0,1-.84,3.24,4.61,4.61,0,0,0-.86-.7,9.64,9.64,0,0,0,.72-2.83Zm2.59-1a5.61,5.61,0,0,0-.2-.72c-2.63.41-3.13.53-3.41.7a8.33,8.33,0,0,0-.4-1c.32-.05.6-.36.94-.79a14.56,14.56,0,0,0,1.12-1.68,6.78,6.78,0,0,0-1.72.31,4.25,4.25,0,0,0-.4-1c.24,0,.44-.28.66-.62a13.87,13.87,0,0,0,1.18-3l1.11.46a15.7,15.7,0,0,1-1.33,2.73l1.16-.07a10.52,10.52,0,0,0,.51-1.08l1.06.53a21.7,21.7,0,0,1-2.31,3.67l1.47-.22c-.1-.24-.22-.48-.32-.69L98.1,19A12.29,12.29,0,0,1,99,21.44ZM107.63,31a5.35,5.35,0,0,1-.12.84c-.34,2-.74,3.05-1.26,3.53a2.3,2.3,0,0,1-1.66.55c-.6,0-1.82,0-3.07-.07a4.33,4.33,0,0,0-.5-1.7,29.18,29.18,0,0,0,3,.16c.44,0,.64,0,.86-.16a3.36,3.36,0,0,0,.72-1.71H95.31c.32-1.08.64-2.54.88-3.79H105v-1H95.53V26.24h11.18V30h-9l-.24,1ZM96.29,25.69a14.2,14.2,0,0,0-.4-2.88l.88-.26a13.18,13.18,0,0,1,.47,2.76Zm1.75-.6a14.07,14.07,0,0,0-.62-2.61l.8-.34a11.35,11.35,0,0,1,.66,2.5Zm5.45-7.61H98.72V16.23h2a15.36,15.36,0,0,0-.7-1.82l1.22-.34a10.36,10.36,0,0,1,.8,1.88l-.92.28h2.35ZM99.26,22h3.79v3.53H99.26ZM103,19.38H99.3V18.25H103ZM99.3,20H103v1.12H99.3Zm1.12,4.34h1.42V23.05h-1.42Zm4.45-1.61A14.24,14.24,0,0,1,104,26a6.07,6.07,0,0,0-.86-.72,10,10,0,0,0,.72-2.8Zm2.62-.81c-.06-.22-.14-.51-.24-.82a16,16,0,0,0-3.42.7c-.06-.19-.26-.75-.38-1,.28,0,.58-.33.94-.81a17.79,17.79,0,0,0,1.1-1.66,5.69,5.69,0,0,0-1.72.34,5.9,5.9,0,0,0-.38-1c.22,0,.42-.27.64-.63a12.64,12.64,0,0,0,1.2-3l1.08.45A14.38,14.38,0,0,1,105,17.19l1.14-.07c.16-.36.34-.72.48-1.08l1.06.55a20.76,20.76,0,0,1-2.3,3.68l1.46-.22-.32-.7.82-.36a13.7,13.7,0,0,1,1,2.53Zm-1.9,3.93a15.85,15.85,0,0,0-.42-3.09l.88-.27a16.78,16.78,0,0,1,.46,3Zm1.92-3.79a13.19,13.19,0,0,1,.8,3l-.86.45a14.58,14.58,0,0,0-.76-3.07Z"/><path class="cls-1" d="M128,16.26v1.89H110.56V16.26h8c-.18-.65-.38-1.37-.56-2l1.88-.53c.26.77.58,1.73.78,2.5Zm-.54,17.42c0,1.06-.22,1.47-.84,1.76a7.92,7.92,0,0,1-2.88.26,8.62,8.62,0,0,0-.58-1.66c.84.05,1.84.05,2.06,0s.36-.1.36-.39V27.23H113v8.66h-1.82V25.38h16.28Zm-2-14.37v4.92h-12V19.31Zm-8.76,14.16v1.1H115V28.4h8.5v5.07Zm6.8-12.6h-8.22v1.77h8.22ZM116.69,30v1.85h5.13V30Z"/><path class="cls-1" d="M133.39,17.39a14.84,14.84,0,0,1-1.92,2.76,12.11,12.11,0,0,0-1.29-1.54,13,13,0,0,0,3-4.94l1.66.57c-.16.43-.32.82-.52,1.25h4.85v1.9h-3.31a19.16,19.16,0,0,1,1.63,1.87l-1.21,1.29a19.63,19.63,0,0,0-2-2.44l.7-.72Zm10.92,10.92h3.86v1.82h-3.86v3.6c0,1.13-.24,1.66-1,1.9a13.06,13.06,0,0,1-3.61.26,9.42,9.42,0,0,0-.5-1.82,24.83,24.83,0,0,0,2.72,0c.34,0,.44-.12.44-.45V30.13h-7.17a39.22,39.22,0,0,1,3.21,3.39L137,34.84a36.82,36.82,0,0,0-3.19-3.63l1.22-1.08h-4.49V28.31h11.82V26.84h1.93Zm4.23-12.82v1.92h-4a15.18,15.18,0,0,1,1.6,2.09l-1.28,1.29A14.19,14.19,0,0,0,143,18.23l.84-.82H142a14.45,14.45,0,0,1-1.64,2.86l-.06-.08v.7h7.19v1.9h-7.19v1.8h6v1.75H132.29V24.59h6.11v-1.8h-7.13v-1.9h7.13V19.55h1.26A7.71,7.71,0,0,0,139,19a13.74,13.74,0,0,0,2.48-5.26l1.71.48c-.12.46-.24.89-.38,1.32Z"/><path class="cls-1" d="M154,24.76a18.09,18.09,0,0,0-3.69-2.6l1-1.68A16.51,16.51,0,0,1,155,22.91Zm-3,9.33a67.27,67.27,0,0,0,3.79-7.61L156.09,28c-1,2.5-2.36,5.38-3.54,7.63Zm1.49-20a19.39,19.39,0,0,1,3.76,2.45l-1.08,1.85a16.79,16.79,0,0,0-3.72-2.67Zm14.22,21.75a13.51,13.51,0,0,0-.82-2.26c-7.07,1-8,1.23-8.57,1.56-.1-.48-.43-1.61-.65-2.23.43-.12.81-.67,1.29-1.56a36.19,36.19,0,0,0,2.46-5.54h-4.13V23.72h5V19.83h-4.1V17.72h4.1V13.86h1.91v3.86h4.26v2.11h-4.26v3.89h5v2.12h-5.53a48.23,48.23,0,0,1-3.18,6.64l5.57-.72c-.48-1-1-1.92-1.56-2.8l1.5-.87a30.55,30.55,0,0,1,3.42,6.77Z"/><path class="cls-1" d="M177,15.59c-.57,2-1.27,4.32-1.87,6.16a8.82,8.82,0,0,1,1.62,5.12,4,4,0,0,1-.82,2.93,2.22,2.22,0,0,1-1.08.48c-.36,0-.86,0-1.32,0a5.64,5.64,0,0,0-.42-1.94,7.19,7.19,0,0,0,1,0,.92.92,0,0,0,.58-.19,2.28,2.28,0,0,0,.4-1.56A7.69,7.69,0,0,0,173.47,22c.5-1.58,1-3.6,1.4-5.19h-2.18v19H171v-21h4.47l.26-.09Zm9.73,18.09c.38,0,.46-.38.5-2.95a3.77,3.77,0,0,0,1.57.82c-.17,3.21-.59,4-1.87,4h-1.62c-1.54,0-1.9-.6-1.9-2.62V27.3h-1.75c-.32,4.2-1.28,7-5.07,8.59a6.17,6.17,0,0,0-1.06-1.77c3.33-1.28,4.07-3.44,4.33-6.82h-2.6v-2h11.28v2h-3.37v5.64c0,.65.06.74.44.74Zm-7.95-12.53H177.2V16.74h4.86a21,21,0,0,0-.94-2.47l1.72-.6a17.7,17.7,0,0,1,1.23,3.07h4.36v4.41h-1.58V23h-8.07Zm.14-2.47V21h7.73V18.68Z"/><path class="cls-1" d="M208.19,16.26v1.89H190.72V16.26h8c-.18-.65-.38-1.37-.56-2l1.88-.53c.26.77.58,1.73.78,2.5Zm-.54,17.42c0,1.06-.22,1.47-.84,1.76a7.92,7.92,0,0,1-2.88.26,8.62,8.62,0,0,0-.58-1.66c.84.05,1.84.05,2.06,0s.36-.1.36-.39V27.23H193.19v8.66h-1.83V25.38h16.29Zm-2-14.37v4.92h-12V19.31Zm-8.76,14.16v1.1h-1.72V28.4h8.5v5.07Zm6.8-12.6h-8.22v1.77h8.22ZM196.85,30v1.85H202V30Z"/><path class="cls-1" d="M214.77,19.83c-.62,4.61-1.6,8.55-3.19,11.43A14.78,14.78,0,0,0,210,30c1.51-2.47,2.41-6,3-10.16h-2.21V17.7h2.49c.14-1.25.24-2.55.32-3.84l1.78.19c-.1,1.25-.22,2.47-.34,3.65h4v2.13Zm3.13,7.11a64.89,64.89,0,0,1,1.64,7.44L218,35c-.06-.53-.16-1.08-.26-1.71-4,.87-4.63,1.06-5,1.35a12.55,12.55,0,0,0-.58-1.9c.38-.14.68-.84,1.08-1.87a48.78,48.78,0,0,0,2.24-8.52l1.77.5a61.87,61.87,0,0,1-2.83,9.29l3-.6c-.29-1.39-.63-2.83-.93-4.08Zm10.63,7.75h-6.81v1.18h-1.64v-14a17.82,17.82,0,0,1-1.32,2.28,11,11,0,0,0-1.08-1.76,25.5,25.5,0,0,0,3.5-8.37l1.58.5c-.34,1.3-.74,2.62-1.2,3.87h6.75v2h-2.46v2.86h2.4v1.9h-2.4V27.9h2.42v1.9h-2.42v2.88h2.68Zm-6.81-14.38v2.86h2.45V20.31Zm2.45,4.76h-2.45V27.9h2.45Zm-2.45,7.61h2.45V29.8h-2.45Zm3.19-18.51a21.73,21.73,0,0,1,1.34,3.41l-1.66.74a24.92,24.92,0,0,0-1.26-3.53Z"/><path class="cls-1" d="M243.33,14.27c.94,3.62,3,7,5.69,8.76a9.15,9.15,0,0,0-1.35,2,13.45,13.45,0,0,1-1.82-1.73c0,.14,0,.31,0,.41-.26,7.29-.52,10.08-1.22,11a2.08,2.08,0,0,1-1.65,1,19.68,19.68,0,0,1-3.1,0,6.23,6.23,0,0,0-.6-2.26,24.09,24.09,0,0,0,2.82.17.94.94,0,0,0,.84-.34c.47-.57.73-2.83.93-8.42h-4.61c-.52,4.66-1.82,8.88-7,11.14a6.81,6.81,0,0,0-1.21-2c4.63-1.84,5.69-5.32,6.13-9.14h-3.76V23.24a17,17,0,0,1-1.64,1.88,13.09,13.09,0,0,0-1.59-1.66,17.37,17.37,0,0,0,5.07-8.79l1.94.56a25.19,25.19,0,0,1-3.42,7.51h11.54a21,21,0,0,1-3.41-6.41h-3.36V14.27Z"/><path class="cls-1" d="M257.15,15.59c-.56,2-1.26,4.32-1.86,6.16a8.82,8.82,0,0,1,1.62,5.12,4,4,0,0,1-.82,2.93,2.22,2.22,0,0,1-1.08.48c-.36,0-.86,0-1.32,0a5.64,5.64,0,0,0-.42-1.94,7.19,7.19,0,0,0,1,0,.92.92,0,0,0,.58-.19,2.28,2.28,0,0,0,.4-1.56A7.69,7.69,0,0,0,253.63,22c.5-1.58,1-3.6,1.4-5.19h-2.18v19H251.2v-21h4.47l.26-.09Zm9.74,18.09c.38,0,.46-.38.5-2.95a3.77,3.77,0,0,0,1.57.82c-.17,3.21-.59,4-1.87,4h-1.62c-1.54,0-1.9-.6-1.9-2.62V27.3h-1.75c-.32,4.2-1.28,7-5.07,8.59a6.17,6.17,0,0,0-1.06-1.77c3.33-1.28,4.07-3.44,4.33-6.82h-2.6v-2h11.27v2h-3.36v5.64c0,.65.06.74.44.74Zm-7.95-12.53h-1.58V16.74h4.86a21,21,0,0,0-.94-2.47l1.72-.6a17.7,17.7,0,0,1,1.23,3.07h4.36v4.41H267V23h-8.07Zm.14-2.47V21h7.73V18.68Z"/><path class="cls-1" d="M71.78,45v-.78h3.94V45h-1.6v7.12h-.73V45Z"/><path class="cls-1" d="M81.64,46.23v5.84H81v-1a3,3,0,0,1-1,.86,2.31,2.31,0,0,1-1.17.29,2.47,2.47,0,0,1-1.92-.9,3.34,3.34,0,0,1,0-4.34,2.53,2.53,0,0,1,1.94-.9,2.27,2.27,0,0,1,1.19.31,2.87,2.87,0,0,1,.93.91V46.23Zm-2.73.57a2,2,0,0,0-1,.31,2.17,2.17,0,0,0-.77.87,2.57,2.57,0,0,0-.29,1.18,2.6,2.6,0,0,0,.29,1.18,2.21,2.21,0,0,0,.77.88,1.89,1.89,0,0,0,1,.31A2,2,0,0,0,80,51.22a2.15,2.15,0,0,0,.77-.84,2.65,2.65,0,0,0,.27-1.2,2.44,2.44,0,0,0-.6-1.69A1.93,1.93,0,0,0,78.91,46.8Z"/><path class="cls-1" d="M83.12,43.82a.5.5,0,0,1,.4.19.62.62,0,0,1,.17.44.61.61,0,0,1-.17.43.52.52,0,0,1-.4.18.51.51,0,0,1-.39-.18.61.61,0,0,1-.17-.43.62.62,0,0,1,.17-.44A.49.49,0,0,1,83.12,43.82Zm-.34,2.41h.68v5.84h-.68Z"/><path class="cls-1" d="M83.87,46.23h.7l1.63,4.24,1.7-4.24H88l1.71,4.24,1.66-4.24h.71l-2.31,5.84h-.12L88,47.89l-1.7,4.18h-.13Z"/><path class="cls-1" d="M97.9,46.23v5.84h-.67v-1a3,3,0,0,1-1,.86,2.31,2.31,0,0,1-1.17.29,2.47,2.47,0,0,1-1.92-.9,3.34,3.34,0,0,1,0-4.34,2.53,2.53,0,0,1,1.94-.9,2.27,2.27,0,0,1,1.19.31,2.87,2.87,0,0,1,.93.91V46.23Zm-2.73.57a2,2,0,0,0-1,.31,2.17,2.17,0,0,0-.77.87,2.57,2.57,0,0,0-.29,1.18,2.6,2.6,0,0,0,.29,1.18,2.21,2.21,0,0,0,.77.88,1.89,1.89,0,0,0,1,.31,2,2,0,0,0,1.06-.31,2.15,2.15,0,0,0,.77-.84,2.65,2.65,0,0,0,.27-1.2,2.44,2.44,0,0,0-.6-1.69A1.93,1.93,0,0,0,95.17,46.8Z"/><path class="cls-1" d="M99.14,46.23h.69v1.05a2.88,2.88,0,0,1,.91-.9,2,2,0,0,1,1.08-.3,1.78,1.78,0,0,1,1.06.33,1.87,1.87,0,0,1,.68.9,5.11,5.11,0,0,1,.22,1.76v3h-.68V49.29a7.41,7.41,0,0,0-.08-1.35,1.57,1.57,0,0,0-.45-.88,1.33,1.33,0,0,0-.88-.29,1.61,1.61,0,0,0-1.12.45,2.18,2.18,0,0,0-.64,1.12,8.06,8.06,0,0,0-.1,1.59v2.14h-.69Z"/><path class="cls-1" d="M107.52,44.17h.72v3.32h3.66V44.17h.72v7.9h-.72V48.26h-3.66v3.81h-.72Z"/><path class="cls-1" d="M114.19,43.82a.5.5,0,0,1,.4.19.62.62,0,0,1,.17.44.61.61,0,0,1-.17.43.52.52,0,0,1-.4.18.51.51,0,0,1-.39-.18.61.61,0,0,1-.17-.43.62.62,0,0,1,.17-.44A.49.49,0,0,1,114.19,43.82Zm-.34,2.41h.69v5.84h-.69Z"/><path class="cls-1" d="M120.24,46.23h.69v4.66a6,6,0,0,1-.2,1.8,2.34,2.34,0,0,1-.93,1.24,2.86,2.86,0,0,1-1.6.43,3.45,3.45,0,0,1-1.23-.21,2.44,2.44,0,0,1-.89-.57,3.58,3.58,0,0,1-.62-1h.74a2.05,2.05,0,0,0,.78.86,2.3,2.3,0,0,0,1.19.28,2.27,2.27,0,0,0,1.18-.29,1.7,1.7,0,0,0,.69-.72,3.44,3.44,0,0,0,.2-1.4V51a2.67,2.67,0,0,1-.94.83,2.6,2.6,0,0,1-2.56-.12,2.64,2.64,0,0,1-1-1.07,3.12,3.12,0,0,1-.35-1.49,3.23,3.23,0,0,1,.36-1.51,2.88,2.88,0,0,1,1-1.11,2.55,2.55,0,0,1,1.37-.41,2.36,2.36,0,0,1,1.11.27,3.14,3.14,0,0,1,1,.9Zm-2,.57a2.05,2.05,0,0,0-1.08.31,2.12,2.12,0,0,0-.79.86,2.48,2.48,0,0,0-.28,1.18,2.25,2.25,0,0,0,.59,1.59,2,2,0,0,0,1.52.62,1.93,1.93,0,0,0,1.51-.62,2.28,2.28,0,0,0,.58-1.64,2.53,2.53,0,0,0-.27-1.18,2,2,0,0,0-.74-.81A1.89,1.89,0,0,0,118.23,46.8Z"/><path class="cls-1" d="M122.1,44h.68v3.31a3.1,3.1,0,0,1,.91-.9,2.1,2.1,0,0,1,1.08-.3,1.78,1.78,0,0,1,1.06.33,1.87,1.87,0,0,1,.68.9,5.07,5.07,0,0,1,.22,1.76v3h-.68V49.29a7.74,7.74,0,0,0-.07-1.35,1.59,1.59,0,0,0-.47-.88,1.29,1.29,0,0,0-.87-.29,1.57,1.57,0,0,0-1.11.45,2.13,2.13,0,0,0-.65,1.12,8.06,8.06,0,0,0-.1,1.59v2.14h-.68Z"/><path class="cls-1" d="M137.18,45.64l-.57.48a3.18,3.18,0,0,0-1.12-1,3.08,3.08,0,0,0-1.45-.35,2.91,2.91,0,0,0-1.59.46,3.11,3.11,0,0,0-1.14,1.22,3.61,3.61,0,0,0-.4,1.72,3.41,3.41,0,0,0,.9,2.41,3,3,0,0,0,2.28,1,3.11,3.11,0,0,0,2.52-1.3l.57.47a3.73,3.73,0,0,1-1.34,1.16,4,4,0,0,1-1.8.41,3.6,3.6,0,0,1-3-1.38,4.45,4.45,0,0,1-.91-2.81,4.1,4.1,0,0,1,1.11-2.92A3.64,3.64,0,0,1,134,44a3.8,3.8,0,0,1,1.82.44A3.64,3.64,0,0,1,137.18,45.64Z"/><path class="cls-1" d="M140.73,46.08a2.54,2.54,0,0,1,2,1,3.35,3.35,0,0,1,0,4.25,2.64,2.64,0,0,1-4,0,3.37,3.37,0,0,1,0-4.25A2.55,2.55,0,0,1,140.73,46.08Zm0,.74a1.88,1.88,0,0,0-1.46.69,2.43,2.43,0,0,0-.62,1.67,2.67,2.67,0,0,0,.28,1.19,2.14,2.14,0,0,0,.76.84,1.91,1.91,0,0,0,1,.3,1.94,1.94,0,0,0,1.05-.3,2.11,2.11,0,0,0,.75-.84,2.54,2.54,0,0,0,.28-1.19,2.42,2.42,0,0,0-.61-1.67A1.9,1.9,0,0,0,140.72,46.82Z"/><path class="cls-1" d="M144.38,46.23h.68V49a6,6,0,0,0,.1,1.37,1.48,1.48,0,0,0,.56.85,1.55,1.55,0,0,0,1,.31,1.59,1.59,0,0,0,1-.3,1.63,1.63,0,0,0,.55-.8,6.7,6.7,0,0,0,.1-1.43V46.23h.7V49.1a5,5,0,0,1-.26,1.82,2.1,2.1,0,0,1-.77,1,2.27,2.27,0,0,1-1.29.34,2.31,2.31,0,0,1-1.3-.34,2.09,2.09,0,0,1-.78-1,5.17,5.17,0,0,1-.25-1.87Z"/><path class="cls-1" d="M150,46.23h.7v.85a2.76,2.76,0,0,1,.66-.75,1.19,1.19,0,0,1,.72-.25,1.22,1.22,0,0,1,.61.2l-.36.63a.82.82,0,0,0-.36-.1.93.93,0,0,0-.66.31,2.05,2.05,0,0,0-.49,1,10.6,10.6,0,0,0-.12,2v2H150Z"/><path class="cls-1" d="M153.55,44.06h.69v2.17h1.08v.65h-1.08v5.19h-.69V46.88h-.93v-.65h.93Z"/><path class="cls-1" d="M158.63,44.17h.74v3l2.87-3h1l-3.46,3.55,3.72,4.35h-.95l-3.15-3.68v3.68h-.74Z"/><path class="cls-1" d="M169.43,46.23v5.84h-.67v-1a3,3,0,0,1-1,.86,2.31,2.31,0,0,1-1.17.29,2.51,2.51,0,0,1-1.93-.9,3.16,3.16,0,0,1-.79-2.18,3.07,3.07,0,0,1,.8-2.16,2.53,2.53,0,0,1,1.94-.9,2.3,2.3,0,0,1,1.19.31,2.87,2.87,0,0,1,.93.91V46.23Zm-2.73.57a2,2,0,0,0-1.06.31,2.23,2.23,0,0,0-.76.87,2.45,2.45,0,0,0-.29,1.18,2.6,2.6,0,0,0,.29,1.18,2.21,2.21,0,0,0,.77.88,1.86,1.86,0,0,0,1,.31,2,2,0,0,0,1.07-.31,2.15,2.15,0,0,0,.77-.84,2.65,2.65,0,0,0,.27-1.2,2.41,2.41,0,0,0-.61-1.69A1.9,1.9,0,0,0,166.7,46.8Z"/><path class="cls-1" d="M173.19,46.08a2.55,2.55,0,0,1,2,1,3.37,3.37,0,0,1,0,4.25,2.64,2.64,0,0,1-4,0,3.35,3.35,0,0,1,0-4.25A2.55,2.55,0,0,1,173.19,46.08Zm0,.74a1.9,1.9,0,0,0-1.47.69,2.42,2.42,0,0,0-.61,1.67,2.54,2.54,0,0,0,.28,1.19,2,2,0,0,0,.75.84,1.94,1.94,0,0,0,1.05.3,1.91,1.91,0,0,0,1-.3,2.14,2.14,0,0,0,.76-.84,2.67,2.67,0,0,0,.28-1.19,2.43,2.43,0,0,0-.62-1.67A1.9,1.9,0,0,0,173.19,46.82Z"/><path class="cls-1" d="M176.93,44h.68v3.31a3.1,3.1,0,0,1,.91-.9,2.11,2.11,0,0,1,1.09-.3,1.75,1.75,0,0,1,1,.33,1.87,1.87,0,0,1,.68.9,5,5,0,0,1,.23,1.76v3h-.69V49.29a7.74,7.74,0,0,0-.07-1.35,1.65,1.65,0,0,0-.46-.88,1.33,1.33,0,0,0-.88-.29,1.57,1.57,0,0,0-1.11.45,2.13,2.13,0,0,0-.65,1.12,8.06,8.06,0,0,0-.1,1.59v2.14h-.68Z"/><path class="cls-1" d="M185.4,46.87l-.44.5a1.52,1.52,0,0,0-1.07-.59.78.78,0,0,0-.57.24.8.8,0,0,0-.24.57.88.88,0,0,0,.2.54,2.69,2.69,0,0,0,.82.62,3.07,3.07,0,0,1,1,.84,1.62,1.62,0,0,1,.27.91,1.74,1.74,0,0,1-.46,1.22,1.48,1.48,0,0,1-1.15.5,1.82,1.82,0,0,1-.88-.22,1.9,1.9,0,0,1-.69-.6l.43-.54a1.47,1.47,0,0,0,1.11.65,1,1,0,0,0,.7-.29.94.94,0,0,0,.29-.68.92.92,0,0,0-.19-.58,3.32,3.32,0,0,0-.86-.62,2.71,2.71,0,0,1-1-.81,1.7,1.7,0,0,1,.15-2,1.39,1.39,0,0,1,1.05-.44A2.05,2.05,0,0,1,185.4,46.87Z"/><path class="cls-1" d="M186.55,43.82a.5.5,0,0,1,.4.19.62.62,0,0,1,.17.44.61.61,0,0,1-.17.43.52.52,0,0,1-.4.18.51.51,0,0,1-.39-.18.61.61,0,0,1-.17-.43.62.62,0,0,1,.17-.44A.49.49,0,0,1,186.55,43.82Zm-.34,2.41h.69v5.84h-.69Z"/><path class="cls-1" d="M187.93,46.23h.69V49a6.91,6.91,0,0,0,.09,1.37,1.58,1.58,0,0,0,.56.85,1.6,1.6,0,0,0,1,.31,1.56,1.56,0,0,0,1-.3,1.51,1.51,0,0,0,.55-.8,5.88,5.88,0,0,0,.11-1.43V46.23h.69V49.1a5,5,0,0,1-.25,1.82,2.1,2.1,0,0,1-.77,1,2.66,2.66,0,0,1-2.6,0,2.13,2.13,0,0,1-.77-1,5.13,5.13,0,0,1-.26-1.87Z"/><path class="cls-1" d="M193.8,46.23h.69v1.05a3,3,0,0,1,.91-.9,2,2,0,0,1,1.08-.3,1.78,1.78,0,0,1,1.06.33,1.87,1.87,0,0,1,.68.9,5.11,5.11,0,0,1,.22,1.76v3h-.68V49.29a7.41,7.41,0,0,0-.08-1.35,1.57,1.57,0,0,0-.45-.88,1.33,1.33,0,0,0-.88-.29,1.61,1.61,0,0,0-1.12.45,2.18,2.18,0,0,0-.64,1.12,8.06,8.06,0,0,0-.1,1.59v2.14h-.69Z"/><path class="cls-1" d="M204.19,46.23h.69v4.66a6,6,0,0,1-.2,1.8,2.34,2.34,0,0,1-.93,1.24,2.86,2.86,0,0,1-1.6.43,3.41,3.41,0,0,1-1.23-.21,2.44,2.44,0,0,1-.89-.57,3.81,3.81,0,0,1-.63-1h.75a2.05,2.05,0,0,0,.78.86,2.61,2.61,0,0,0,2.37,0,1.7,1.7,0,0,0,.69-.72,3.63,3.63,0,0,0,.2-1.4V51a2.67,2.67,0,0,1-.94.83,2.69,2.69,0,0,1-3.56-1.19,3.13,3.13,0,0,1-.36-1.49,3.24,3.24,0,0,1,.37-1.51,2.88,2.88,0,0,1,1-1.11,2.54,2.54,0,0,1,1.36-.41,2.4,2.4,0,0,1,1.12.27,3.14,3.14,0,0,1,1,.9Zm-2,.57a2.11,2.11,0,0,0-1.08.31,2.17,2.17,0,0,0-.78.86,2.48,2.48,0,0,0-.28,1.18,2.21,2.21,0,0,0,.59,1.59,2,2,0,0,0,1.52.62,1.94,1.94,0,0,0,1.51-.62,2.28,2.28,0,0,0,.58-1.64,2.53,2.53,0,0,0-.27-1.18,2,2,0,0,0-.74-.81A1.89,1.89,0,0,0,202.17,46.8Z"/><path class="cls-1" d="M208.65,44.17h1.41a3.1,3.1,0,0,1,1.32.23,1.58,1.58,0,0,1,.72.68,2.09,2.09,0,0,1,0,2,1.88,1.88,0,0,1-.69.71,2.46,2.46,0,0,1,.86.49,1.81,1.81,0,0,1,.47.68,2.11,2.11,0,0,1,.17.87,2.25,2.25,0,0,1-.63,1.61,2.28,2.28,0,0,1-1.7.65h-2Zm.7.78v2.53h.41a2.93,2.93,0,0,0,1.1-.16,1.15,1.15,0,0,0,.56-.48,1.32,1.32,0,0,0,.21-.73,1.1,1.1,0,0,0-.35-.86,1.64,1.64,0,0,0-1.1-.3Zm0,3.32v3h.89a3,3,0,0,0,1.16-.17,1.37,1.37,0,0,0,.59-.53,1.53,1.53,0,0,0,.22-.78,1.44,1.44,0,0,0-.31-.92,1.56,1.56,0,0,0-.86-.53,5.45,5.45,0,0,0-1.28-.1Z"/><path class="cls-1" d="M213.7,46.23h.7v.85a2.76,2.76,0,0,1,.66-.75,1.22,1.22,0,0,1,.73-.25,1.18,1.18,0,0,1,.6.2l-.35.63a.89.89,0,0,0-.37-.1,1,1,0,0,0-.66.31,2,2,0,0,0-.48,1,10.32,10.32,0,0,0-.13,2v2h-.7Z"/><path class="cls-1" d="M222,46.23v5.84h-.67v-1a3,3,0,0,1-1,.86,2.36,2.36,0,0,1-1.17.29,2.49,2.49,0,0,1-1.93-.9,3.17,3.17,0,0,1-.8-2.18,3.08,3.08,0,0,1,.81-2.16,2.51,2.51,0,0,1,1.94-.9,2.3,2.3,0,0,1,1.19.31,2.87,2.87,0,0,1,.93.91V46.23Zm-2.73.57a2,2,0,0,0-1.06.31,2.25,2.25,0,0,0-.77.87,2.56,2.56,0,0,0-.28,1.18,2.48,2.48,0,0,0,.29,1.18,2.21,2.21,0,0,0,.77.88,1.86,1.86,0,0,0,1,.31,2,2,0,0,0,1.07-.31,2.15,2.15,0,0,0,.77-.84,2.65,2.65,0,0,0,.27-1.2,2.41,2.41,0,0,0-.61-1.69A1.9,1.9,0,0,0,219.24,46.8Z"/><path class="cls-1" d="M223.21,46.23h.68v1.05a3.1,3.1,0,0,1,.91-.9,2.11,2.11,0,0,1,1.09-.3,1.78,1.78,0,0,1,1.06.33,2,2,0,0,1,.68.9,5.11,5.11,0,0,1,.22,1.76v3h-.68V49.29a7.41,7.41,0,0,0-.08-1.35,1.52,1.52,0,0,0-.46-.88,1.31,1.31,0,0,0-.88-.29,1.61,1.61,0,0,0-1.11.45,2.19,2.19,0,0,0-.65,1.12,9,9,0,0,0-.1,1.59v2.14h-.68Z"/><path class="cls-1" d="M234.18,47.44l-.55.37a2.19,2.19,0,0,0-1.91-1,2.15,2.15,0,0,0-1.62.68,2.36,2.36,0,0,0-.64,1.67,2.55,2.55,0,0,0,.3,1.21,2.16,2.16,0,0,0,2,1.18,2.25,2.25,0,0,0,1.91-1l.55.4a2.77,2.77,0,0,1-1,1,3,3,0,0,1-1.46.34,2.73,2.73,0,0,1-2.09-.88,3,3,0,0,1-.83-2.14,3.41,3.41,0,0,1,.38-1.58,2.89,2.89,0,0,1,2.59-1.54,3,3,0,0,1,1,.18,2.64,2.64,0,0,1,.83.46A2.48,2.48,0,0,1,234.18,47.44Z"/><path class="cls-1" d="M235.19,44h.69v3.31a3,3,0,0,1,.91-.9,2,2,0,0,1,1.08-.3,1.78,1.78,0,0,1,1.06.33,1.93,1.93,0,0,1,.68.9,5.07,5.07,0,0,1,.22,1.76v3h-.68V49.29a7.41,7.41,0,0,0-.08-1.35,1.58,1.58,0,0,0-.46-.88,1.31,1.31,0,0,0-.88-.29,1.61,1.61,0,0,0-1.11.45,2.19,2.19,0,0,0-.65,1.12,9.24,9.24,0,0,0-.09,1.59v2.14h-.69Z"/><path class="cls-1" d="M250.28,45.64l-.57.48a3.13,3.13,0,0,0-1.13-1,3.07,3.07,0,0,0-1.44-.35,2.92,2.92,0,0,0-1.6.46,3.09,3.09,0,0,0-1.13,1.22,3.61,3.61,0,0,0-.41,1.72,3.38,3.38,0,0,0,.91,2.41,3,3,0,0,0,2.27,1,3.11,3.11,0,0,0,2.53-1.3l.57.47a3.67,3.67,0,0,1-1.35,1.16,3.9,3.9,0,0,1-1.79.41,3.6,3.6,0,0,1-3-1.38,4.39,4.39,0,0,1-.91-2.81,4.14,4.14,0,0,1,1.1-2.92A3.66,3.66,0,0,1,247.13,44a3.83,3.83,0,0,1,1.82.44A3.64,3.64,0,0,1,250.28,45.64Z"/><path class="cls-1" d="M253.82,46.08a2.55,2.55,0,0,1,2,1,3.19,3.19,0,0,1,.73,2.11,3.25,3.25,0,0,1-.77,2.14,2.65,2.65,0,0,1-4,0,3.35,3.35,0,0,1,0-4.25A2.55,2.55,0,0,1,253.82,46.08Zm0,.74a1.9,1.9,0,0,0-1.47.69,2.42,2.42,0,0,0-.61,1.67,2.54,2.54,0,0,0,.28,1.19,2.11,2.11,0,0,0,.75.84,1.94,1.94,0,0,0,1,.3,1.89,1.89,0,0,0,1-.3,2.14,2.14,0,0,0,.76-.84,2.67,2.67,0,0,0,.28-1.19,2.43,2.43,0,0,0-.62-1.67A1.9,1.9,0,0,0,253.82,46.82Z"/><path class="cls-1" d="M257.47,46.23h.68V49a6.69,6.69,0,0,0,.1,1.37,1.58,1.58,0,0,0,.56.85,1.6,1.6,0,0,0,1,.31,1.58,1.58,0,0,0,1-.3,1.51,1.51,0,0,0,.55-.8,6.07,6.07,0,0,0,.1-1.43V46.23h.7V49.1a5,5,0,0,1-.25,1.82,2.06,2.06,0,0,1-.78,1,2.25,2.25,0,0,1-1.29.34,2.31,2.31,0,0,1-1.3-.34,2.13,2.13,0,0,1-.77-1,5.13,5.13,0,0,1-.26-1.87Z"/><path class="cls-1" d="M263.08,46.23h.7v.85a2.76,2.76,0,0,1,.66-.75,1.22,1.22,0,0,1,.73-.25,1.18,1.18,0,0,1,.6.2l-.35.63a.89.89,0,0,0-.37-.1,1,1,0,0,0-.66.31,2,2,0,0,0-.48,1,10.32,10.32,0,0,0-.13,2v2h-.7Z"/><path class="cls-1" d="M266.65,44.06h.68v2.17h1.09v.65h-1.09v5.19h-.68V46.88h-.93v-.65h.93Z"/><circle class="cls-2" cx="32.65" cy="31.37" r="30.28"/><path class="cls-3" d="M61.52,37.78a29.81,29.81,0,0,1-28.83,23c-13.95,0-25.93-10.21-28.92-23.25h7.44c2.8,9,11.53,16.07,21.48,16.07A22.63,22.63,0,0,0,54.08,37.78Z"/><path class="cls-4" d="M53.63,31.28a21,21,0,1,1-21-21A21,21,0,0,1,53.63,31.28Z"/><path class="cls-2" d="M34.33,33.78H31V42a1.68,1.68,0,0,0,1.69,1.65A1.64,1.64,0,0,0,34.33,42Z"/><path class="cls-2" d="M35.56,44H29.74a.7.7,0,0,0-.76.65v.77a.7.7,0,0,0,.76.65h5.82a.69.69,0,0,0,.75-.65v-.77A.7.7,0,0,0,35.56,44Z"/><path class="cls-2" d="M36.69,46.86h-8c-.56,0-1,.3-1,.69v.75c0,.41.41.7,1,.7h8c.55,0,1-.29,1-.7v-.75C37.65,47.16,37.24,46.86,36.69,46.86Z"/><path class="cls-2" d="M48.92,23.27a.91.91,0,0,0-.41-.63,1.1,1.1,0,0,0-1.36.13,6.57,6.57,0,0,1-8.67.07,8.88,8.88,0,0,0-11.24-.17l.05,0-.2.16,0,0a6.27,6.27,0,0,1-4.38,1.67,6.23,6.23,0,0,1-4.38-1.67,1.09,1.09,0,0,0-.68-.3,1.13,1.13,0,0,0-.69.17.94.94,0,0,0-.41.63v.1a.8.8,0,0,0,.27.6,8.38,8.38,0,0,0,5.9,2.28,8.45,8.45,0,0,0,5.48-1.9l0,0s0,0,0,0l.15-.12a6.55,6.55,0,0,1,8.68-.07,8.47,8.47,0,0,0,5.71,2.09A8.37,8.37,0,0,0,48.66,24a.87.87,0,0,0,.26-.61Zm0,0h0v0Z"/><path class="cls-2" d="M36.14,17a3.45,3.45,0,1,1-3.46-3.46A3.46,3.46,0,0,1,36.14,17Z"/><path class="cls-2" d="M27.58,38.37l-5.32-12a.56.56,0,0,0-.52-.35.57.57,0,0,0-.52.36h0l-5.31,12a.75.75,0,0,0,0,.62,6.46,6.46,0,0,0,5.81,3.15A6.43,6.43,0,0,0,27.55,39,.72.72,0,0,0,27.58,38.37ZM21.74,28.14c.32.71,4.33,9.77,4.61,10.41H17.13l3.09-7Z"/><path class="cls-2" d="M49.53,38.37l-5.31-12A.56.56,0,0,0,43.7,26a.57.57,0,0,0-.53.37v0l-5.3,12a.71.71,0,0,0,0,.62,6.45,6.45,0,0,0,5.81,3.15A6.44,6.44,0,0,0,49.51,39,.72.72,0,0,0,49.53,38.37ZM43.7,28.14l4.61,10.41H39.08c.2-.43,2-4.5,2-4.5S43.4,28.83,43.7,28.14Z"/><path class="cls-2" d="M38.26,25.42a.82.82,0,0,0-.88.91H36.22v-.52h-7v.52H28a.82.82,0,0,0-.88-.91s-.77,0-.77,1v4.36c0,1.07.77,1,.77,1a.83.83,0,0,0,.88-.92h1.15v.54H31v1.59h3.31V31.47h1.89v-.54h1.16a.83.83,0,0,0,.88.92s.77,0,.77-1V26.45C39,25.4,38.26,25.42,38.26,25.42Z"/><path class="cls-2" d="M11.77,50.25,9.13,46.78l.21-.16,1.24,1.64.28-.22L9.8,46.64l.2-.14,1.06,1.4.26-.2-.93-1.21.17-.19a1.32,1.32,0,0,0,.86.43L11,46.18l.19-.15,1.86,2.45-.19.15-.2-.27a6.65,6.65,0,0,1-.23.82l-.26,0a1.6,1.6,0,0,0,.11-.3l-.79-.93-.27.21,1.06,1.39-.2.15L11,48.26l-.28.21L12,50.1Zm1.43-1.18L13,48.86l.45-.34-2.21-2.91-.43.33-.16-.21.63-.48,2.53,3.33Zm-.88-.57a2.2,2.2,0,0,0,.07-.28l.17,0L11.65,47a1.93,1.93,0,0,1-.69-.19C11.2,47.17,11.66,47.72,12.32,48.5ZM13.79,48l-1.95-2.56.67-.51,1.94,2.56Zm0-.38.26-.19-1.62-2.13-.26.2Zm1.64-.19-1.23-1.62L14,46l1.09,1.44-.2.16L12.53,44.5l.2-.15,1.1,1.44.25-.18L12.84,44l.2-.16,1.24,1.63.22-.16.17.22-.22.16,1.23,1.62Z"/><path class="cls-2" d="M14.54,50.38a13.2,13.2,0,0,1-1.79,1l0-.27a13.29,13.29,0,0,0,1.78-1Zm1.89,3-.42.37a.48.48,0,0,1-.29.13.35.35,0,0,1-.3-.1L14.55,53l.12-.27.93.83c.07.06.15,0,.25,0l.19-.16L13.86,51.4l.79-.47,1.86,1.65.23-.26-2.06-1.83.17-.19,2.26,2-.58.64-1.9-1.69-.32.19Zm-.87-3.58a4.22,4.22,0,0,1-.57.37l-.1-.2a3.16,3.16,0,0,0,.56-.36Zm-.28-.27-.28.07a4.33,4.33,0,0,0,0-1l.29-.07A5.77,5.77,0,0,1,15.28,49.49Zm.16,1-.17-.1a4.55,4.55,0,0,0,.36-.53l.17.11A4.82,4.82,0,0,1,15.44,50.47Zm1-.37L16.2,50a.31.31,0,0,0,.06-.13c-.26-.13-.5-.28-.74-.43l.06-.2c.41-.06.71-.11.91-.16l-.36-.26.09-.21a4,4,0,0,0,1.07-.33l.08.24a6.89,6.89,0,0,1-.86.27l.31.2.3-.1.07.23a5.58,5.58,0,0,1-1.22.3,2.71,2.71,0,0,0,.38.22.44.44,0,0,0,.07-.17l.21.06A3,3,0,0,1,16.41,50.1Zm-.58.56-.19-.09a4.27,4.27,0,0,0,.3-.51l.19.07A2.62,2.62,0,0,1,15.83,50.66Zm.75.78-.67-.59.6-.67.66.59Zm-.25-2.95-.29,0a4.37,4.37,0,0,0,0-1l.28-.06A5.19,5.19,0,0,1,16.33,48.49Zm.25,2.62.27-.3-.34-.29-.26.29Zm.7.19a3.37,3.37,0,0,1-.54.44l-.12-.18a3.75,3.75,0,0,0,.54-.43Zm0-.72L16.67,50l.16-.19.66.59Zm.33-.37L17,49.62l.16-.18.66.59Zm-.43,1.85L17,52a2.37,2.37,0,0,0,.37-.53l.18.11A2.75,2.75,0,0,1,17.22,52.06Zm.87-2.12-.85-.76L17.4,49l.37.32a1.44,1.44,0,0,0,.12-.32l.23.06c0,.12-.09.27-.16.43l.29.27Zm0,1.77-.22-.08a.89.89,0,0,0,.08-.17L17.24,51l.09-.2a5.64,5.64,0,0,0,.89-.12l-.41-.31.09-.18A5.2,5.2,0,0,0,19,49.88l.1.23a4.75,4.75,0,0,1-.91.25,2.92,2.92,0,0,0,.36.23l.32-.12.06.25a6.6,6.6,0,0,1-1.23.29,2,2,0,0,0,.36.21l.06-.17.22.07C18.29,51.33,18.21,51.52,18.13,51.71Zm-.54.63-.19-.08c.14-.28.22-.47.27-.59l.19.09A2.28,2.28,0,0,1,17.59,52.34Z"/><path class="cls-2" d="M20.88,56.63a.6.6,0,0,1-.25.25c-.09,0-.24,0-.45-.11l-.24-.15.08-.31.35.22a.2.2,0,0,0,.31-.08L21.5,55l-2.92-1.66L17.5,55.25l-.23-.13L18.5,53l3.38,1.92Zm-.7-.57-1.84-1,.58-1,1.84,1Zm-.1-.39.29-.51L19,54.39l-.29.51Zm1.56-1.4-2.51-1.43.56-1,2.51,1.43Zm1.38-1-3.77-2.14.14-.25,1.78,1a2,2,0,0,0,.1-.49l.28,0a3.41,3.41,0,0,1-.14.59l1.76,1Zm-1.48.57.27-.47-2-1.15-.27.47Z"/><path class="cls-2" d="M26.84,57.59,26,57.32l-.27.88c-.07.23-.17.36-.28.4a.92.92,0,0,1-.54-.06,2.6,2.6,0,0,1-.36-.13l0-.33.45.15.33.09c.06,0,.11,0,.14-.15l.29-.93-3.14-1,.09-.29,3.14,1,.16-.53-2.68-.82.08-.28,1.58.48.16-.51-1.81-.56.08-.28,1.82.56.11-.39.26.08-.12.38,1.78.55-.08.28-1.79-.55-.16.52,1.57.48-.08.28-.46-.14L26,57l.88.27ZM25.5,54.13l-1.37-.42a4,4,0,0,1-.68.45l-.14-.27a3.09,3.09,0,0,0,1.21-1l.23.18c-.11.13-.24.26-.37.39l1.21.37Zm-1.35,3.69-.27.13a4.44,4.44,0,0,0-.49-1l.26-.14A4.9,4.9,0,0,1,24.15,57.82Zm.57-3.26-.28,0a2.7,2.7,0,0,0-.19-.54l.26,0A1.68,1.68,0,0,1,24.72,54.56Zm2.91.22-1.56-.48a3.25,3.25,0,0,1-.41.26l-.15-.23a2.78,2.78,0,0,0,.92-.81l.21.17a3.46,3.46,0,0,1-.33.38l1.4.43Zm-.8.42-.29.06a2.06,2.06,0,0,0-.2-.55l.28-.07A2,2,0,0,1,26.83,55.2Z"/><path class="cls-2" d="M28.94,57.33a12,12,0,0,1-1.09,1.92L27.64,59a9.86,9.86,0,0,0,1.1-1.9Zm.09-.95-.22.22a3.83,3.83,0,0,0-.77-.85l.18-.23A5,5,0,0,1,29,56.38Zm.22-1.47-.2.2a4.74,4.74,0,0,0-.77-.85l.19-.22A4.52,4.52,0,0,1,29.25,54.91Zm3.12,2.21L30.75,57a10.31,10.31,0,0,1-1.3,1.94,15.2,15.2,0,0,0,2.1-.22,9.14,9.14,0,0,0-.47-1l.24-.13a11.8,11.8,0,0,1,.82,1.92l-.25.17a4.26,4.26,0,0,0-.23-.69,23.05,23.05,0,0,1-2.58.25L29,58.89a1.79,1.79,0,0,0,.66-.66,11.89,11.89,0,0,0,.78-1.29l-1.26-.11,0-.3,1.47.13.11-1.18-1.24-.11,0-.3,1.24.12.08-.93.26,0-.08.93,1.22.11,0,.3-1.22-.11L31,56.69l1.44.13Z"/><path class="cls-2" d="M34.09,56.16a2.53,2.53,0,0,1,.57,1.34.72.72,0,0,1-.08.45c-.07.13-.23.2-.49.22l-.19,0-.13-.31.28,0a.49.49,0,0,0,.3-.1.29.29,0,0,0,0-.23,2.28,2.28,0,0,0-.58-1.29c.08-.41.16-.91.25-1.49l-.76.07.47,4.78-.26,0L33,54.54l1.3-.13,0,.31C34.27,55.2,34.19,55.68,34.09,56.16Zm3.31-.37-.26,0-.09-.89-2.17.22L35,56l-.27,0-.12-1.2,1.19-.12a3,3,0,0,0-.23-.53l.27-.11a4.45,4.45,0,0,1,.25.62l1.22-.12ZM37.73,58a3.53,3.53,0,0,1,0,.72.57.57,0,0,1-.16.34,1,1,0,0,1-.48.13c-.29,0-.45-.08-.47-.33l-.18-1.84-.59.06a3,3,0,0,1-.2,1.51,2.33,2.33,0,0,1-.82.87l-.22-.24a1.93,1.93,0,0,0,.8-.8,2.28,2.28,0,0,0,.17-1.31l-.76.07,0-.29,2.71-.27,0,.3-.82.08.17,1.77a.12.12,0,0,0,0,.08s.11,0,.23,0a.66.66,0,0,0,.23,0,.3.3,0,0,0,.08-.08,1.45,1.45,0,0,0,0-.3,5,5,0,0,0,0-.52ZM36.94,56l-1.75.17,0-.3,1.74-.17Z"/><path class="cls-2" d="M42,53.41l-4.14,1.31-.09-.27,2-.62a2.13,2.13,0,0,0-.29-.42l.22-.17a3.08,3.08,0,0,1,.33.5l1.93-.61Zm1,3.83a.53.53,0,0,1,0,.35c0,.1-.16.19-.38.26l-.27.07-.18-.27.4-.11a.2.2,0,0,0,.15-.28l-.5-1.59-3.2,1,.66,2.09-.25.08-.75-2.38,3.7-1.17Zm-1.21-2.16L39,56l-.34-1.09L41.37,54Zm-.36-.2-.17-.52L39,55.07l.17.52ZM42,57.37,40,58l-.35-1.12,2-.64Zm-.35-.19-.18-.57L40,57.09l.18.56Z"/><path class="cls-2" d="M44.3,52.48l-.82.47a8.34,8.34,0,0,1,.58,2.86l-.29-.06a7.5,7.5,0,0,0-.53-2.66l-.69.4-.14-.24.73-.43c-.13-.3-.25-.57-.38-.82l.26-.1a8.46,8.46,0,0,1,.35.79l.79-.46Zm2,3.27-.14.25-.32-.36c-.32.36-.67.73-1,1.09l-.21-.17a7.79,7.79,0,0,0-.48-2.9l.28,0a13.6,13.6,0,0,1,.49,2.55,6.34,6.34,0,0,0,.73-.74,5.1,5.1,0,0,0-.65-.57l.12-.23A8.49,8.49,0,0,1,46.26,55.75Zm2-1.23-1.67,1,.16.26-.23.14-1.77-3q0,.31,0,.75l-.28-.09a6.61,6.61,0,0,0-.24-2.35l.26-.06a8.18,8.18,0,0,1,.22,1.08l.8-.46a4,4,0,0,0-.63-.68l.15-.21a5.69,5.69,0,0,1,.72.75l.54-.32.15.27-.66.39.41.7.6-.35.15.26-.6.36.44.76.6-.35.16.26-.61.35.46.78.74-.43ZM46,52.75,45.55,52l-.7.41.41.7Zm.59,1L46.11,53l-.7.4.45.76Zm.61,1L46.71,54l-.7.41.46.78Z"/><path class="cls-2" d="M47.38,49A5.5,5.5,0,0,1,47.81,52l-.3-.06a5,5,0,0,0-.39-2.77Zm3.48-.19,0,.33a4.44,4.44,0,0,1-2.53-.7l-.29.26-.21-.24.43-.39A3.91,3.91,0,0,0,50.86,48.83Zm-.67.5c.42.48.78.94,1.08,1.35a4.54,4.54,0,0,1,.51.82.6.6,0,0,1,0,.35,1.26,1.26,0,0,1-.33.41l-.32.26-.26-.2a3.68,3.68,0,0,0,.41-.33.85.85,0,0,0,.2-.22.39.39,0,0,0,0-.15,1.57,1.57,0,0,0-.18-.37c-.12-.19-.28-.41-.47-.67s-.42-.52-.68-.82l-1,.89a3.6,3.6,0,0,1,.59,3.2l-.29-.07A3.3,3.3,0,0,0,49,50.85l-.73.65L48,51.26Z"/><path class="cls-2" d="M51.57,47.23a2.41,2.41,0,0,1,1.36.49.71.71,0,0,1,.28.36.57.57,0,0,1-.16.51.64.64,0,0,1-.13.15l-.31-.11.18-.22c.09-.13.14-.22.13-.29a.33.33,0,0,0-.13-.19,2.42,2.42,0,0,0-1.35-.45c-.25-.34-.56-.73-.93-1.2l-.46.61,3.83,2.9-.15.21-4.08-3.09.79-1,.24.18C51,46.44,51.28,46.83,51.57,47.23Zm2-2.69-.16.22-.71-.54L51.35,46l.71.54-.16.22-1-.73.72-1a4.79,4.79,0,0,0-.55-.19l.1-.27c.2.06.41.14.63.23l.74-1Zm-.19.45-1.07,1.4-.23-.18,1.06-1.4Zm2.06.84a3,3,0,0,1,.53.48.58.58,0,0,1,.15.34,1.09,1.09,0,0,1-.24.45c-.17.23-.36.27-.56.12L53.82,46.1l-.35.47a3.16,3.16,0,0,1,1,1.18,2.45,2.45,0,0,1,.08,1.19h-.33a1.87,1.87,0,0,0,0-1.13,2.33,2.33,0,0,0-.85-1l-.46.61-.24-.18,1.65-2.17.24.18-.5.66L55.4,47a.17.17,0,0,0,.1,0s.09-.05.17-.15a.67.67,0,0,0,.12-.2.49.49,0,0,0,0-.12,1,1,0,0,0-.2-.21,4.91,4.91,0,0,0-.41-.33Z"/><path class="cls-5" d="M9.84,37.77l.11.39-3.5,1,.17.57L6,39.9l-.44-1.54.59-.16.16.57Z"/><path class="cls-5" d="M8.57,36.61l1,.06.09.47-4.48-.2-.07-.4,4.09-1.81.09.47-.89.4Zm-2.41,0,1.84,0-.15-.78Z"/><path class="cls-5" d="M9.12,34l.05.45L5,34.94l0-.45Z"/><path class="cls-5" d="M7.9,32.67l-3.21-.51v-.23l3.18-.67-3.15-.53v-.47l4.35.81v.35L6.16,32l2.93.49v.35l-4.32.94v-.48Z"/><path class="cls-5" d="M8.12,29.34l.92.33,0,.48L4.77,28.66l0-.41,4.44-.54-.05.48-1,.12Zm-2.3-.75,1.75.58.08-.79Z"/><path class="cls-5" d="M5,26.47l.08-.33,3.45-.78-3-.68.1-.44,4.23,1-.08.33-3.44.78,3,.68-.1.44Z"/><path class="cls-5" d="M8.71,20.83l-1.59-.67.17-.41,3.92,1.64-.18.42-1.8-.76-.42,1,1.8.75-.18.42L6.51,21.6l.18-.42,1.59.67Z"/><path class="cls-5" d="M11.63,20.58l-.2.4L7.64,19.06l.2-.4Z"/><path class="cls-5" d="M11.15,16.92l.09.06a3.5,3.5,0,0,1,1.23,1.13,1,1,0,0,1,.07,1.09,1,1,0,0,1-1,.44A3.26,3.26,0,0,1,10,19.13,3.28,3.28,0,0,1,8.8,18a1.06,1.06,0,0,1-.06-1.13c.26-.42.73-.55,1.42-.38l.08.53c-.49-.14-.81-.08-1,.18a.69.69,0,0,0,.1.76,2.71,2.71,0,0,0,.87.8,2.45,2.45,0,0,0,1.08.39.68.68,0,0,0,.7-.27.53.53,0,0,0,0-.6,1.65,1.65,0,0,0-.61-.59L11,18.2l-.48-.3Z"/><path class="cls-5" d="M12.25,15l-1.37-1,.27-.36,3.37,2.6-.28.35L12.7,15.39l-.68.87,1.55,1.2-.28.36-3.36-2.6.27-.36,1.37,1.06Z"/><path class="cls-5" d="M15,11.15a.68.68,0,0,0-.73.07.72.72,0,0,0-.12.77,2.37,2.37,0,0,0,.57,1,2.32,2.32,0,0,0,.9.62.73.73,0,0,0,.77-.07.71.71,0,0,0,.13-.73l.59.64a.93.93,0,0,1-.27.59,1.07,1.07,0,0,1-1.12.16,3,3,0,0,1-1.34-.88,3.07,3.07,0,0,1-.81-1.43,1.1,1.1,0,0,1,.23-1.13,1,1,0,0,1,.6-.22Z"/><path class="cls-5" d="M16.16,11.6a3.2,3.2,0,0,1-.65-1.49A1,1,0,0,1,17,9a3.13,3.13,0,0,1,1.25,1,3,3,0,0,1,.64,1.48,1,1,0,0,1-1.51,1.14A3.1,3.1,0,0,1,16.16,11.6Zm.35-.32a2.24,2.24,0,0,0,.85.73.71.71,0,0,0,.77,0,.7.7,0,0,0,.23-.74,2.57,2.57,0,0,0-.48-1,2.23,2.23,0,0,0-.82-.71.67.67,0,0,0-1,.75A2.21,2.21,0,0,0,16.51,11.28Z"/><path class="cls-5" d="M17.68,7.88l.39-.22,1.2,2.05c.47.79.85,1.09,1.16.91s.24-.67-.22-1.46L19,7.11l.39-.23,1.29,2.19q.91,1.57.06,2.07c-.57.34-1.16,0-1.78-1.06Z"/><path class="cls-5" d="M23.56,9.59l-.5.24-1.49-1.4.8,1.72-.41.19L20.17,6.48l.64-.29q.81-.37,1.35.78a2,2,0,0,1,.2.8.62.62,0,0,1-.23.51ZM21.45,8.17l.12-.06c.34-.16.4-.47.19-.93s-.48-.59-.82-.43l-.12.06Z"/><path class="cls-5" d="M24.6,9.21l-.38.14L23,5.94l-.56.21-.21-.58L23.68,5l.21.57-.56.21Z"/><path class="cls-5" d="M27.41,4,28,3.93l-.6,2.12,1.52,2-.59.13L26.93,6.33l.43,2.07-.45.09L26,4.33l.44-.09.41,1.94Z"/><path class="cls-5" d="M29.53,7.05l-.14,1-.48.05.58-4.45.4,0,1.46,4.23-.48.05-.32-.92Zm.24-2.41-.19,1.83.79-.08Z"/><path class="cls-5" d="M31.56,5.67A3.21,3.21,0,0,1,32,4.09a1.1,1.1,0,0,1,1-.64,1.09,1.09,0,0,1,.94.67,3.17,3.17,0,0,1,.35,1.59,3.2,3.2,0,0,1-.4,1.57,1.08,1.08,0,0,1-1,.64,1.1,1.1,0,0,1-.94-.67A3.1,3.1,0,0,1,31.56,5.67Zm.47,0a2.41,2.41,0,0,0,.23,1.1q.24.48.6.48a.69.69,0,0,0,.63-.44,2.46,2.46,0,0,0,.25-1.11,2.2,2.2,0,0,0-.21-1.07.74.74,0,0,0-.62-.44.71.71,0,0,0-.63.43A2.23,2.23,0,0,0,32,5.63Z"/><path class="cls-5" d="M36.36,5.54l.2-1.71.45,0L36.5,8.1,36.05,8l.24-1.93L35.19,6,35,7.91l-.45,0L35,3.64l.45,0-.21,1.72Z"/><path class="cls-5" d="M39,5.15c-.06-.27-.17-.43-.35-.46a.32.32,0,0,0-.31.09.79.79,0,0,0-.2.4,1,1,0,0,0,.27.71l.33.46a1.24,1.24,0,0,1,.12.87,2.09,2.09,0,0,1-.46,1,.71.71,0,0,1-.71.26c-.34-.07-.55-.4-.63-1l.38-.38a1.21,1.21,0,0,0,.11.49.41.41,0,0,0,.26.26.35.35,0,0,0,.35-.14,1.21,1.21,0,0,0,.22-.47.9.9,0,0,0,0-.4,2.28,2.28,0,0,0-.45-.61,1.1,1.1,0,0,1-.26-1A1.66,1.66,0,0,1,38,4.33a.67.67,0,0,1,.62-.24.84.84,0,0,1,.61.62Z"/><path class="cls-5" d="M39.3,8.76l-.43-.13L40,4.54l.44.13Z"/><path class="cls-5" d="M41.18,4.87l.43.15L40.8,7.26c-.31.86-.29,1.36.05,1.48s.66-.25,1-1.11l.81-2.24.42.15-.86,2.4c-.41,1.14-.93,1.59-1.55,1.37s-.73-.91-.32-2.05Z"/><path class="cls-5" d="M44,5.81l.3.15L44.23,9.5l1.38-2.77.4.2-1.92,3.89-.3-.15.05-3.53L42.47,9.92l-.41-.2Z"/><path class="cls-5" d="M47.79,10.39l-.06.09a3.52,3.52,0,0,1-1.16,1.2,1,1,0,0,1-1.09,0,1.06,1.06,0,0,1-.42-1,3.16,3.16,0,0,1,.56-1.52A3.22,3.22,0,0,1,46.8,8a1.11,1.11,0,0,1,1.14,0c.41.27.53.75.33,1.43l-.52.07c.15-.49.1-.81-.16-1a.69.69,0,0,0-.76.09,2.45,2.45,0,0,0-.82.84,2.49,2.49,0,0,0-.42,1.07.69.69,0,0,0,.24.71.57.57,0,0,0,.61,0,1.79,1.79,0,0,0,.61-.59l-.54-.35.31-.48Z"/><path class="cls-5" d="M50.89,10.33l.48.44c.39.36.33.82-.19,1.39a1.21,1.21,0,0,1-.73.45.52.52,0,0,1,0,.49,1.82,1.82,0,0,1-.38.6,1.42,1.42,0,0,1-.78.51.77.77,0,0,1-.67-.19l-.6-.56Zm-2.15,3,.19.17c.25.23.54.17.85-.17s.29-.59,0-.83l-.17-.16ZM50,12l.15.14c.18.17.42.1.69-.2s.36-.57.17-.74L50.85,11Z"/><path class="cls-5" d="M50.72,16.17l-.38-.42.88-1.83-1.39,1.27-.31-.33L52.65,12l.47.52q.62.66-.33,1.53a1.85,1.85,0,0,1-.7.43.59.59,0,0,1-.56-.06Zm.71-2.46.09.11c.26.27.57.23.94-.11s.42-.63.17-.91l-.1-.1Z"/><path class="cls-5" d="M52,16.21l-.9.38-.29-.38,4.11-1.81.24.33-2.87,3.44L52,17.78l.63-.75Zm2.19-1L52.48,16l.48.64Z"/><path class="cls-5" d="M56.14,16.15l.18.29-2,2.94L57,17.81l.23.38L53.5,20.41l-.17-.29,2-2.94-2.67,1.59-.24-.39Z"/><path class="cls-5" d="M57.48,21.09a.67.67,0,0,0,.16-.72A.72.72,0,0,0,57,20a2.47,2.47,0,0,0-1.1.23,2.36,2.36,0,0,0-.87.67.73.73,0,0,0-.17.75.69.69,0,0,0,.65.35l-.79.37a1,1,0,0,1-.48-.45,1.08,1.08,0,0,1,.2-1.12,3.07,3.07,0,0,1,1.25-1,3.15,3.15,0,0,1,1.62-.32,1.08,1.08,0,0,1,1,.58.92.92,0,0,1,0,.64Z"/><path class="cls-5" d="M57.6,23.51,59.23,23l.15.42-4,1.38-.15-.43,1.85-.63-.35-1-1.85.63-.15-.43,4-1.38.15.43-1.64.56Z"/><path class="cls-5" d="M59.32,27.93a.68.68,0,0,0,.35-.65c0-.24-.23-.41-.57-.52A2.46,2.46,0,0,0,58,26.69a2.4,2.4,0,0,0-1,.42.71.71,0,0,0-.36.68c0,.23.21.4.53.51l-.86.14a1,1,0,0,1-.35-.55,1.11,1.11,0,0,1,.49-1,3.08,3.08,0,0,1,1.47-.63,3.31,3.31,0,0,1,1.65.11,1.1,1.1,0,0,1,.81.82,1,1,0,0,1-.15.63Z"/><path class="cls-5" d="M58.3,28.65a3.16,3.16,0,0,1,1.61.28,1.1,1.1,0,0,1,.71.91,1.09,1.09,0,0,1-.6,1,3.19,3.19,0,0,1-1.56.47,3.23,3.23,0,0,1-1.6-.28,1,1,0,0,1-.11-1.9A3.11,3.11,0,0,1,58.3,28.65Zm.08.46a2.4,2.4,0,0,0-1.08.31c-.31.18-.46.4-.44.64a.71.71,0,0,0,.48.59,2.47,2.47,0,0,0,1.13.17,2.32,2.32,0,0,0,1.05-.29.69.69,0,0,0,.39-.65.67.67,0,0,0-.47-.59A2.19,2.19,0,0,0,58.38,29.11Z"/><path class="cls-5" d="M60.56,32l0,.46-2.38-.13c-.91-.05-1.38.1-1.4.46s.43.57,1.34.62l2.38.13,0,.44-2.54-.13c-1.21-.07-1.8-.43-1.76-1.09s.65-1,1.87-.89Z"/><path class="cls-5" d="M55.9,36l.08-.56,2-.47-1.87-.28.07-.45,4.2.63-.1.7c-.09.59-.56.82-1.4.69a1.71,1.71,0,0,1-.78-.27.61.61,0,0,1-.3-.47Zm2.35-1,0,.14c0,.37.17.59.67.66s.76-.07.81-.44l0-.13Z"/><path class="cls-5" d="M55.64,37l.09-.4,3.55.83.14-.58L60,37l-.36,1.55-.6-.14.14-.57Z"/></svg>