<svg id="圖層_1" data-name="圖層 1" xmlns="http://www.w3.org/2000/svg" xmlns:xlink="http://www.w3.org/1999/xlink" viewBox="0 0 270.84 64"><defs><style>.cls-1{fill:#333;}.cls-2{fill:#fff;}.cls-3{fill:url(#linear-gradient);}.cls-4{fill:#005bab;}.cls-5{fill:#b7a246;}</style><linearGradient id="linear-gradient" x1="32.65" y1="60.77" x2="32.65" y2="37.52" gradientUnits="userSpaceOnUse"><stop offset="0.69" stop-color="#b7a246"/><stop offset="1" stop-color="#fff"/></linearGradient></defs><path class="cls-1" d="M88,15.18v1.46H80.14v1h6.33V19H72.07V17.67h6.19v-1H70.54V15.18h7.72V13.83h1.88v1.35ZM80.14,33.8H88v1.56H70.58V33.8h7.68v-1H72.53V31.36h5.73v-1c-3.67.12-4.25.19-4.65.33a14.7,14.7,0,0,0-.42-1.51,4.51,4.51,0,0,0,1.08-.31A10.66,10.66,0,0,0,76,28h-3.1v-1.3H85.53V28h-1.9a21.16,21.16,0,0,1,2.56,2.13l-1.12,1.11a13,13,0,0,0-1-1l-4,.12v1h6v1.39h-6Zm-9.3-9.48H87.69v3.46H85.93v-2H72.53v2H70.84Zm14.89-4.39v3.53H72.89V19.93Zm-1.82,1.18h-9.3v1.15h9.3ZM78.06,28a15.19,15.19,0,0,1-1.79,1.17L82.58,29c-.44-.33-.9-.64-1.32-.91l.16-.14Z"/><path class="cls-1" d="M92.87,24.49A12.93,12.93,0,0,0,90,22l1-1.54A12.35,12.35,0,0,1,94,22.76Zm-2.47,10c.72-1.85,1.75-4.92,2.49-7.61L94.37,28c-.64,2.47-1.5,5.35-2.3,7.58Zm2.81-16.16a13.24,13.24,0,0,0-2.79-2.66l1.09-1.47a13.36,13.36,0,0,1,2.84,2.45Zm2.34,4.54a13.51,13.51,0,0,1-.84,3.24,4.61,4.61,0,0,0-.86-.7,9.64,9.64,0,0,0,.72-2.83Zm2.59-1a5.61,5.61,0,0,0-.2-.72c-2.63.41-3.13.53-3.41.7a8.33,8.33,0,0,0-.4-1c.32-.05.6-.36.94-.79a14.56,14.56,0,0,0,1.12-1.68,6.78,6.78,0,0,0-1.72.31,4.25,4.25,0,0,0-.4-1c.24,0,.44-.28.66-.62a13.87,13.87,0,0,0,1.18-3l1.11.46a15.7,15.7,0,0,1-1.33,2.73l1.16-.07a10.52,10.52,0,0,0,.51-1.08l1.06.53a21.7,21.7,0,0,1-2.31,3.67l1.47-.22c-.1-.24-.22-.48-.32-.69L98.1,19A12.29,12.29,0,0,1,99,21.44ZM107.63,31a5.35,5.35,0,0,1-.12.84c-.34,2-.74,3.05-1.26,3.53a2.3,2.3,0,0,1-1.66.55c-.6,0-1.82,0-3.07-.07a4.33,4.33,0,0,0-.5-1.7,29.18,29.18,0,0,0,3,.16c.44,0,.64,0,.86-.16a3.36,3.36,0,0,0,.72-1.71H95.31c.32-1.08.64-2.54.88-3.79H105v-1H95.53V26.24h11.18V30h-9l-.24,1ZM96.29,25.69a14.2,14.2,0,0,0-.4-2.88l.88-.26a13.18,13.18,0,0,1,.47,2.76Zm1.75-.6a14.07,14.07,0,0,0-.62-2.61l.8-.34a11.35,11.35,0,0,1,.66,2.5Zm5.45-7.61H98.72V16.23h2a15.36,15.36,0,0,0-.7-1.82l1.22-.34a10.36,10.36,0,0,1,.8,1.88l-.92.28h2.35ZM99.26,22h3.79v3.53H99.26ZM103,19.38H99.3V18.25H103ZM99.3,20H103v1.12H99.3Zm1.12,4.34h1.42V23.05h-1.42Zm4.45-1.61A14.24,14.24,0,0,1,104,26a6.07,6.07,0,0,0-.86-.72,10,10,0,0,0,.72-2.8Zm2.62-.81c-.06-.22-.14-.51-.24-.82a16,16,0,0,0-3.42.7c-.06-.19-.26-.75-.38-1,.28,0,.58-.33.94-.81a17.79,17.79,0,0,0,1.1-1.66,5.69,5.69,0,0,0-1.72.34,5.9,5.9,0,0,0-.38-1c.22,0,.42-.27.64-.63a12.64,12.64,0,0,0,1.2-3l1.08.45A14.38,14.38,0,0,1,105,17.19l1.14-.07c.16-.36.34-.72.48-1.08l1.06.55a20.76,20.76,0,0,1-2.3,3.68l1.46-.22-.32-.7.82-.36a13.7,13.7,0,0,1,1,2.53Zm-1.9,3.93a15.85,15.85,0,0,0-.42-3.09l.88-.27a16.78,16.78,0,0,1,.46,3Zm1.92-3.79a13.19,13.19,0,0,1,.8,3l-.86.45a14.58,14.58,0,0,0-.76-3.07Z"/><path class="cls-1" d="M128,16.26v1.89H110.56V16.26h8c-.18-.65-.38-1.37-.56-2l1.88-.53c.26.77.58,1.73.78,2.5Zm-.54,17.42c0,1.06-.22,1.47-.84,1.76a7.92,7.92,0,0,1-2.88.26,8.62,8.62,0,0,0-.58-1.66c.84.05,1.84.05,2.06,0s.36-.1.36-.39V27.23H113v8.66h-1.82V25.38h16.28Zm-2-14.37v4.92h-12V19.31Zm-8.76,14.16v1.1H115V28.4h8.5v5.07Zm6.8-12.6h-8.22v1.77h8.22ZM116.69,30v1.85h5.13V30Z"/><path class="cls-1" d="M133.39,17.39a14.84,14.84,0,0,1-1.92,2.76,12.11,12.11,0,0,0-1.29-1.54,13,13,0,0,0,3-4.94l1.66.57c-.16.43-.32.82-.52,1.25h4.85v1.9h-3.31a19.16,19.16,0,0,1,1.63,1.87l-1.21,1.29a19.63,19.63,0,0,0-2-2.44l.7-.72Zm10.92,10.92h3.86v1.82h-3.86v3.6c0,1.13-.24,1.66-1,1.9a13.06,13.06,0,0,1-3.61.26,9.42,9.42,0,0,0-.5-1.82,24.83,24.83,0,0,0,2.72,0c.34,0,.44-.12.44-.45V30.13h-7.17a39.22,39.22,0,0,1,3.21,3.39L137,34.84a36.82,36.82,0,0,0-3.19-3.63l1.22-1.08h-4.49V28.31h11.82V26.84h1.93Zm4.23-12.82v1.92h-4a15.18,15.18,0,0,1,1.6,2.09l-1.28,1.29A14.19,14.19,0,0,0,143,18.23l.84-.82H142a14.45,14.45,0,0,1-1.64,2.86l-.06-.08v.7h7.19v1.9h-7.19v1.8h6v1.75H132.29V24.59h6.11v-1.8h-7.13v-1.9h7.13V19.55h1.26A7.71,7.71,0,0,0,139,19a13.74,13.74,0,0,0,2.48-5.26l1.71.48c-.12.46-.24.89-.38,1.32Z"/><path class="cls-1" d="M154,24.76a18.09,18.09,0,0,0-3.69-2.6l1-1.68A16.51,16.51,0,0,1,155,22.91Zm-3,9.33a67.27,67.27,0,0,0,3.79-7.61L156.09,28c-1,2.5-2.36,5.38-3.54,7.63Zm1.49-20a19.39,19.39,0,0,1,3.76,2.45l-1.08,1.85a16.79,16.79,0,0,0-3.72-2.67Zm14.22,21.75a13.51,13.51,0,0,0-.82-2.26c-7.07,1-8,1.23-8.57,1.56-.1-.48-.43-1.61-.65-2.23.43-.12.81-.67,1.29-1.56a36.19,36.19,0,0,0,2.46-5.54h-4.13V23.72h5V19.83h-4.1V17.72h4.1V13.86h1.91v3.86h4.26v2.11h-4.26v3.89h5v2.12h-5.53a48.23,48.23,0,0,1-3.18,6.64l5.57-.72c-.48-1-1-1.92-1.56-2.8l1.5-.87a30.55,30.55,0,0,1,3.42,6.77Z"/><path class="cls-1" d="M177,15.59c-.57,2-1.27,4.32-1.87,6.16a8.82,8.82,0,0,1,1.62,5.12,4,4,0,0,1-.82,2.93,2.22,2.22,0,0,1-1.08.48c-.36,0-.86,0-1.32,0a5.64,5.64,0,0,0-.42-1.94,7.19,7.19,0,0,0,1,0,.92.92,0,0,0,.58-.19,2.28,2.28,0,0,0,.4-1.56A7.69,7.69,0,0,0,173.47,22c.5-1.58,1-3.6,1.4-5.19h-2.18v19H171v-21h4.47l.26-.09Zm9.73,18.09c.38,0,.46-.38.5-2.95a3.77,3.77,0,0,0,1.57.82c-.17,3.21-.59,4-1.87,4h-1.62c-1.54,0-1.9-.6-1.9-2.62V27.3h-1.75c-.32,4.2-1.28,7-5.07,8.59a6.17,6.17,0,0,0-1.06-1.77c3.33-1.28,4.07-3.44,4.33-6.82h-2.6v-2h11.28v2h-3.37v5.64c0,.65.06.74.44.74Zm-7.95-12.53H177.2V16.74h4.86a21,21,0,0,0-.94-2.47l1.72-.6a17.7,17.7,0,0,1,1.23,3.07h4.36v4.41h-1.58V23h-8.07Zm.14-2.47V21h7.73V18.68Z"/><path class="cls-1" d="M197.2,21.06a30.58,30.58,0,0,1-1.59,3.19V35.89h-1.84V27.11a21.33,21.33,0,0,1-2.06,2.42A19.23,19.23,0,0,0,190.16,28a20.06,20.06,0,0,0,5.17-7.56Zm0-4.92h2v2.11h-2v2.14h-1.82V18.25H190.7V16.14h4.65V13.88h1.82Zm4.71,2.09h-2V16.14h2V13.88h1.87v2.26h4.5v2.09h-4.5v2.25h-1.87Zm4,15.29c.88,0,1-.63,1.14-3.63a5.11,5.11,0,0,0,1.68.91c-.22,3.68-.72,4.78-2.66,4.78h-3.43c-2.14,0-2.72-.7-2.72-3.26V20.72h1.84v3.75h6.53v2.11H201.7v5.74c0,1,.16,1.2,1.1,1.2Z"/><path class="cls-1" d="M215.67,26.72a22.63,22.63,0,0,1-1.84,4.88c.36.24.78.64,1.42,1.12,1.38,1,3.21,1.16,5.57,1.16a64,64,0,0,0,8-.56,10.21,10.21,0,0,0-.51,2.19c-1.58.14-5.27.29-7.59.29-2.64,0-4.37-.27-5.81-1.28-.84-.57-1.54-1.36-2-1.36s-1.14,1.51-1.75,3l-1.18-1.94A10,10,0,0,1,212,31.76a16.52,16.52,0,0,0,1.62-3.64H211c.56-1.11,1.23-2.62,1.83-4.06H210.7v-1.8h4.61c-.54,1.34-1.2,2.81-1.78,4.1h.92l.28-.09Zm-1.08-9.62h-3.83V15.25h3.83V13.83h1.82v1.42h2.69V17.1h-2.69v1.37h-1.82Zm-1.32,1.08c.46.89,1,2,1.36,2.71l-1.52.86c-.3-.71-.92-1.94-1.32-2.83Zm7.69,15V31.67h-5.37V30H221V28.88h-4.37V22.23H221v-1.1h-5V19.55h5V18.3h1.72v1.25h5.21v1.58h-5.21v1.1h4.51v6.65h-4.51V30h5.55v1.63h-5.55v1.51Zm-2.68-8.3H221V23.63h-2.68ZM221,27.49V26.22h-2.68v1.27Zm1.78-10.39h-2.82V15.25h2.82V13.83h1.85v1.42h3.78V17.1h-3.78v1.08h-1.85Zm-.06,6.53v1.25h2.73V23.63Zm2.73,2.59h-2.73v1.27h2.73Z"/><path class="cls-1" d="M243.33,14.27c.94,3.62,3,7,5.69,8.76a9.15,9.15,0,0,0-1.35,2,13.45,13.45,0,0,1-1.82-1.73c0,.14,0,.31,0,.41-.26,7.29-.52,10.08-1.22,11a2.08,2.08,0,0,1-1.65,1,19.68,19.68,0,0,1-3.1,0,6.23,6.23,0,0,0-.6-2.26,24.09,24.09,0,0,0,2.82.17.94.94,0,0,0,.84-.34c.47-.57.73-2.83.93-8.42h-4.61c-.52,4.66-1.82,8.88-7,11.14a6.81,6.81,0,0,0-1.21-2c4.63-1.84,5.69-5.32,6.13-9.14h-3.76V23.24a17,17,0,0,1-1.64,1.88,13.09,13.09,0,0,0-1.59-1.66,17.37,17.37,0,0,0,5.07-8.79l1.94.56a25.19,25.19,0,0,1-3.42,7.51h11.54a21,21,0,0,1-3.41-6.41h-3.36V14.27Z"/><path class="cls-1" d="M257.15,15.59c-.56,2-1.26,4.32-1.86,6.16a8.82,8.82,0,0,1,1.62,5.12,4,4,0,0,1-.82,2.93,2.22,2.22,0,0,1-1.08.48c-.36,0-.86,0-1.32,0a5.64,5.64,0,0,0-.42-1.94,7.19,7.19,0,0,0,1,0,.92.92,0,0,0,.58-.19,2.28,2.28,0,0,0,.4-1.56A7.69,7.69,0,0,0,253.63,22c.5-1.58,1-3.6,1.4-5.19h-2.18v19H251.2v-21h4.47l.26-.09Zm9.74,18.09c.38,0,.46-.38.5-2.95a3.77,3.77,0,0,0,1.57.82c-.17,3.21-.59,4-1.87,4h-1.62c-1.54,0-1.9-.6-1.9-2.62V27.3h-1.75c-.32,4.2-1.28,7-5.07,8.59a6.17,6.17,0,0,0-1.06-1.77c3.33-1.28,4.07-3.44,4.33-6.82h-2.6v-2h11.27v2h-3.36v5.64c0,.65.06.74.44.74Zm-7.95-12.53h-1.58V16.74h4.86a21,21,0,0,0-.94-2.47l1.72-.6a17.7,17.7,0,0,1,1.23,3.07h4.36v4.41H267V23h-8.07Zm.14-2.47V21h7.73V18.68Z"/><path class="cls-1" d="M71.79,45v-.78H76V45H74.3v7.12h-.79V45Z"/><path class="cls-1" d="M82.36,46.23v5.84h-.72v-1a3.11,3.11,0,0,1-1,.86,2.64,2.64,0,0,1-1.25.29,2.75,2.75,0,0,1-2.07-.9,3,3,0,0,1-.85-2.18A3,3,0,0,1,77.29,47a2.79,2.79,0,0,1,2.08-.9,2.57,2.57,0,0,1,1.27.31,3,3,0,0,1,1,.91V46.23Zm-2.93.57a2.23,2.23,0,0,0-1.13.31,2.29,2.29,0,0,0-.82.87,2.37,2.37,0,0,0-.31,1.18,2.39,2.39,0,0,0,.31,1.18,2.27,2.27,0,0,0,.83.88,2.13,2.13,0,0,0,1.12.31,2.24,2.24,0,0,0,2-1.15,2.43,2.43,0,0,0,.3-1.2A2.31,2.31,0,0,0,81,47.49,2.1,2.1,0,0,0,79.43,46.8Z"/><path class="cls-1" d="M83.94,43.82a.56.56,0,0,1,.43.19.59.59,0,0,1,.18.44.61.61,0,0,1-.61.61.58.58,0,0,1-.42-.18.58.58,0,0,1-.18-.43.59.59,0,0,1,.18-.44A.55.55,0,0,1,83.94,43.82Zm-.36,2.41h.73v5.84h-.73Z"/><path class="cls-1" d="M84.74,46.23h.76l1.74,4.24,1.82-4.24h.13L91,50.47l1.77-4.24h.77l-2.48,5.84H91l-1.83-4.18-1.82,4.18h-.13Z"/><path class="cls-1" d="M99.78,46.23v5.84h-.72v-1a3.11,3.11,0,0,1-1,.86,2.64,2.64,0,0,1-1.25.29,2.73,2.73,0,0,1-2.06-.9,3.17,3.17,0,0,1,0-4.34,2.79,2.79,0,0,1,2.08-.9,2.57,2.57,0,0,1,1.27.31,3,3,0,0,1,1,.91V46.23Zm-2.93.57a2.23,2.23,0,0,0-1.13.31,2.29,2.29,0,0,0-.82.87,2.37,2.37,0,0,0-.31,1.18,2.51,2.51,0,0,0,.31,1.18,2.27,2.27,0,0,0,.83.88,2.13,2.13,0,0,0,1.12.31,2.27,2.27,0,0,0,2-1.15,2.53,2.53,0,0,0,.29-1.2,2.35,2.35,0,0,0-.65-1.69A2.13,2.13,0,0,0,96.85,46.8Z"/><path class="cls-1" d="M101.11,46.23h.73v1.05a3.17,3.17,0,0,1,1-.9,2.31,2.31,0,0,1,1.16-.3,2,2,0,0,1,1.13.33,1.91,1.91,0,0,1,.73.9,4.79,4.79,0,0,1,.24,1.76v3h-.73V49.29a6.34,6.34,0,0,0-.09-1.35,1.32,1.32,0,0,0-1.43-1.17,1.79,1.79,0,0,0-1.19.45,2.13,2.13,0,0,0-.69,1.12,7.84,7.84,0,0,0-.11,1.59v2.14h-.73Z"/><path class="cls-1" d="M110.09,44.17h.77v3.32h3.92V44.17h.77v7.9h-.77V48.26h-3.92v3.81h-.77Z"/><path class="cls-1" d="M117.24,43.82a.55.55,0,0,1,.42.19.59.59,0,0,1,.18.44.58.58,0,0,1-.18.43.58.58,0,0,1-.42.18.58.58,0,0,1-.43-.18.57.57,0,0,1-.17-.43.58.58,0,0,1,.17-.44A.56.56,0,0,1,117.24,43.82Zm-.37,2.41h.73v5.84h-.73Z"/><path class="cls-1" d="M123.72,46.23h.73v4.66a5.62,5.62,0,0,1-.21,1.8,2.32,2.32,0,0,1-1,1.24,3.19,3.19,0,0,1-1.71.43,3.89,3.89,0,0,1-1.32-.21,2.62,2.62,0,0,1-.95-.57,3.4,3.4,0,0,1-.67-1h.79a2.17,2.17,0,0,0,.84.86,2.61,2.61,0,0,0,1.28.28,2.55,2.55,0,0,0,1.26-.29,1.72,1.72,0,0,0,.74-.72,3.38,3.38,0,0,0,.22-1.4V51a3,3,0,0,1-1,.83,2.91,2.91,0,0,1-1.27.28,2.86,2.86,0,0,1-1.48-.4,2.75,2.75,0,0,1-1.07-1.07,3,3,0,0,1-.38-1.49,2.94,2.94,0,0,1,.4-1.51A2.88,2.88,0,0,1,120,46.49a2.92,2.92,0,0,1,1.47-.41,2.66,2.66,0,0,1,1.19.27,3.23,3.23,0,0,1,1.07.9Zm-2.16.57a2.31,2.31,0,0,0-1.16.31,2.17,2.17,0,0,0-.84.86,2.38,2.38,0,0,0-.3,1.18,2.13,2.13,0,0,0,2.25,2.21,2.16,2.16,0,0,0,1.63-.62,2.22,2.22,0,0,0,.61-1.64,2.42,2.42,0,0,0-.28-1.18,2.23,2.23,0,0,0-1.91-1.12Z"/><path class="cls-1" d="M125.7,44h.73v3.31a3.28,3.28,0,0,1,1-.9,2.36,2.36,0,0,1,1.16-.3,2,2,0,0,1,1.13.33,1.91,1.91,0,0,1,.73.9,4.76,4.76,0,0,1,.24,1.76v3h-.73V49.29a7.41,7.41,0,0,0-.08-1.35,1.56,1.56,0,0,0-.5-.88,1.47,1.47,0,0,0-.94-.29,1.79,1.79,0,0,0-1.19.45,2.13,2.13,0,0,0-.69,1.12,7.84,7.84,0,0,0-.11,1.59v2.14h-.73Z"/><path class="cls-1" d="M141.86,45.64l-.61.48a3.25,3.25,0,0,0-1.2-1,3.49,3.49,0,0,0-1.55-.35,3.32,3.32,0,0,0-1.71.46,3.15,3.15,0,0,0-1.21,1.22,3.41,3.41,0,0,0-.44,1.72,3.26,3.26,0,0,0,1,2.41,3.32,3.32,0,0,0,2.44,1,3.39,3.39,0,0,0,2.7-1.3l.61.47a3.8,3.8,0,0,1-1.44,1.16,4.43,4.43,0,0,1-1.92.41,4,4,0,0,1-3.19-1.38,4.22,4.22,0,0,1-1-2.81,4,4,0,0,1,1.19-2.92,4,4,0,0,1,3-1.19,4.3,4.3,0,0,1,1.95.44A3.75,3.75,0,0,1,141.86,45.64Z"/><path class="cls-1" d="M145.66,46.08a2.78,2.78,0,0,1,2.18,1,3,3,0,0,1,.79,2.11,3.11,3.11,0,0,1-.83,2.14,3,3,0,0,1-4.28,0,3.07,3.07,0,0,1-.83-2.14,3.11,3.11,0,0,1,.78-2.11A2.81,2.81,0,0,1,145.66,46.08Zm0,.74a2.09,2.09,0,0,0-1.57.69,2.33,2.33,0,0,0-.66,1.67,2.45,2.45,0,0,0,.3,1.19,2.18,2.18,0,0,0,.81.84,2.24,2.24,0,0,0,2.24,0,2.18,2.18,0,0,0,.81-.84,2.45,2.45,0,0,0,.3-1.19,2.33,2.33,0,0,0-.66-1.67A2.11,2.11,0,0,0,145.66,46.82Z"/><path class="cls-1" d="M149.57,46.23h.73V49a5.86,5.86,0,0,0,.11,1.37,1.49,1.49,0,0,0,.6.85,1.79,1.79,0,0,0,1.06.31,1.77,1.77,0,0,0,1-.3,1.58,1.58,0,0,0,.59-.8,5.88,5.88,0,0,0,.11-1.43V46.23h.75V49.1a4.71,4.71,0,0,1-.28,1.82,2.1,2.1,0,0,1-.83,1,2.54,2.54,0,0,1-1.38.34,2.58,2.58,0,0,1-1.39-.34,2.13,2.13,0,0,1-.83-1,4.67,4.67,0,0,1-.28-1.87Z"/><path class="cls-1" d="M155.59,46.23h.74v.85a2.86,2.86,0,0,1,.71-.75,1.25,1.25,0,0,1,1.43,0l-.39.63a.93.93,0,0,0-.38-.1,1,1,0,0,0-.71.31,1.9,1.9,0,0,0-.52,1,9.33,9.33,0,0,0-.14,2v2h-.74Z"/><path class="cls-1" d="M159.41,44.06h.73v2.17h1.16v.65h-1.16v5.19h-.73V46.88h-1v-.65h1Z"/><path class="cls-1" d="M164.84,44.17h.77v3.32h3.92V44.17h.77v7.9h-.77V48.26h-3.92v3.81h-.77Z"/><path class="cls-1" d="M171.64,46.23h.73V49a5.86,5.86,0,0,0,.11,1.37,1.49,1.49,0,0,0,.6.85,1.94,1.94,0,0,0,2.09,0,1.47,1.47,0,0,0,.59-.8,5.4,5.4,0,0,0,.11-1.43V46.23h.75V49.1a4.74,4.74,0,0,1-.27,1.82,2.1,2.1,0,0,1-.83,1,3,3,0,0,1-2.77,0,2.15,2.15,0,0,1-.84-1,4.89,4.89,0,0,1-.27-1.87Z"/><path class="cls-1" d="M183.61,46.23v5.84h-.73v-1a3.08,3.08,0,0,1-1,.86,2.64,2.64,0,0,1-1.25.29,2.75,2.75,0,0,1-2.07-.9,3,3,0,0,1-.86-2.18,3,3,0,0,1,.87-2.16,2.77,2.77,0,0,1,2.08-.9,2.6,2.6,0,0,1,1.27.31,2.84,2.84,0,0,1,1,.91V46.23Zm-2.93.57a2.2,2.2,0,0,0-1.13.31,2.32,2.32,0,0,0-.83.87,2.46,2.46,0,0,0-.3,1.18,2.39,2.39,0,0,0,.31,1.18,2.25,2.25,0,0,0,.82.88,2.13,2.13,0,0,0,1.12.31,2.22,2.22,0,0,0,1.14-.31,2.16,2.16,0,0,0,.83-.84,2.53,2.53,0,0,0,.29-1.2,2.35,2.35,0,0,0-.65-1.69A2.11,2.11,0,0,0,180.68,46.8Z"/><path class="cls-1" d="M184.83,44h.73v8.1h-.73Z"/><path class="cls-1" d="M187,43.82a.56.56,0,0,1,.43.19.59.59,0,0,1,.18.44.61.61,0,0,1-.61.61.62.62,0,0,1-.42-1.05A.55.55,0,0,1,187,43.82Zm-.36,2.41h.73v5.84h-.73Z"/><path class="cls-1" d="M193.38,50.13l.62.34a3.48,3.48,0,0,1-.7,1,2.86,2.86,0,0,1-.9.57,3.08,3.08,0,0,1-1.13.19,2.71,2.71,0,0,1-2.18-.93,3.23,3.23,0,0,1-.78-2.12,3.19,3.19,0,0,1,.66-2,2.71,2.71,0,0,1,2.26-1.11,2.8,2.8,0,0,1,2.33,1.13,3.27,3.27,0,0,1,.63,2h-5.13a2.43,2.43,0,0,0,.64,1.67,2,2,0,0,0,1.51.65,2.5,2.5,0,0,0,.85-.15,2.41,2.41,0,0,0,.7-.42A3.28,3.28,0,0,0,193.38,50.13Zm0-1.57a2.67,2.67,0,0,0-.42-1,2.1,2.1,0,0,0-.75-.58,2.15,2.15,0,0,0-1-.22,2,2,0,0,0-1.44.55,2.54,2.54,0,0,0-.66,1.21Z"/><path class="cls-1" d="M195.23,46.23H196v1.05a3,3,0,0,1,1-.9,2.33,2.33,0,0,1,1.16-.3,2,2,0,0,1,1.14.33,2,2,0,0,1,.73.9,5.06,5.06,0,0,1,.23,1.76v3h-.73V49.29a7.41,7.41,0,0,0-.08-1.35,1.55,1.55,0,0,0-.49-.88,1.48,1.48,0,0,0-.94-.29,1.77,1.77,0,0,0-1.19.45,2.15,2.15,0,0,0-.7,1.12,8.06,8.06,0,0,0-.1,1.59v2.14h-.74Z"/><path class="cls-1" d="M204.24,44.17h1.52a3.5,3.5,0,0,1,1.41.23,1.66,1.66,0,0,1,.78.68,1.92,1.92,0,0,1,.28,1,1.8,1.8,0,0,1-.25,1,1.85,1.85,0,0,1-.73.71,2.71,2.71,0,0,1,.92.49,1.91,1.91,0,0,1,.51.68,2.12,2.12,0,0,1,.18.87,2.18,2.18,0,0,1-.68,1.61,2.53,2.53,0,0,1-1.82.65h-2.12ZM205,45v2.53h.44a3.39,3.39,0,0,0,1.18-.16,1.29,1.29,0,0,0,.6-.48,1.33,1.33,0,0,0,.22-.73,1.08,1.08,0,0,0-.37-.86,1.88,1.88,0,0,0-1.18-.3Zm0,3.32v3H206a3.42,3.42,0,0,0,1.24-.17,1.41,1.41,0,0,0,.63-.53,1.38,1.38,0,0,0,.24-.78,1.36,1.36,0,0,0-.34-.92,1.66,1.66,0,0,0-.92-.53,6.14,6.14,0,0,0-1.37-.1Z"/><path class="cls-1" d="M209.66,46.23h.75v.85a2.71,2.71,0,0,1,.71-.75,1.31,1.31,0,0,1,.77-.25,1.35,1.35,0,0,1,.65.2l-.38.63a1,1,0,0,0-.39-.1,1.05,1.05,0,0,0-.71.31,2,2,0,0,0-.52,1,9.56,9.56,0,0,0-.13,2v2h-.75Z"/><path class="cls-1" d="M218.52,46.23v5.84h-.73v-1a3.08,3.08,0,0,1-1,.86,2.64,2.64,0,0,1-1.25.29,2.75,2.75,0,0,1-2.07-.9,3,3,0,0,1-.86-2.18,3,3,0,0,1,.87-2.16,2.77,2.77,0,0,1,2.08-.9,2.57,2.57,0,0,1,1.27.31,2.84,2.84,0,0,1,1,.91V46.23Zm-2.93.57a2.2,2.2,0,0,0-1.13.31,2.32,2.32,0,0,0-.83.87,2.46,2.46,0,0,0-.3,1.18,2.39,2.39,0,0,0,.31,1.18,2.2,2.2,0,0,0,.83.88,2.09,2.09,0,0,0,1.11.31,2.22,2.22,0,0,0,1.14-.31,2.16,2.16,0,0,0,.83-.84,2.42,2.42,0,0,0,.29-1.2,2.35,2.35,0,0,0-.65-1.69A2.11,2.11,0,0,0,215.59,46.8Z"/><path class="cls-1" d="M219.85,46.23h.73v1.05a3.14,3.14,0,0,1,1-.9,2.37,2.37,0,0,1,1.17-.3,2,2,0,0,1,1.13.33,2,2,0,0,1,.73.9,4.79,4.79,0,0,1,.24,1.76v3h-.74V49.29a6.57,6.57,0,0,0-.08-1.35,1.49,1.49,0,0,0-.49-.88,1.47,1.47,0,0,0-.94-.29,1.79,1.79,0,0,0-1.19.45,2.21,2.21,0,0,0-.7,1.12,8.06,8.06,0,0,0-.1,1.59v2.14h-.73Z"/><path class="cls-1" d="M231.59,47.44l-.58.37a2.4,2.4,0,0,0-2-1,2.37,2.37,0,0,0-1.73.68,2.28,2.28,0,0,0-.69,1.67,2.46,2.46,0,0,0,.32,1.21,2.27,2.27,0,0,0,.87.87,2.42,2.42,0,0,0,1.23.31,2.46,2.46,0,0,0,2-1l.58.4a2.79,2.79,0,0,1-1.09,1,3.45,3.45,0,0,1-1.57.34,3,3,0,0,1-2.24-.88,2.86,2.86,0,0,1-.89-2.14,3.21,3.21,0,0,1,.41-1.58,3,3,0,0,1,1.15-1.13,3.29,3.29,0,0,1,1.63-.41,3.37,3.37,0,0,1,1.09.18,3,3,0,0,1,.89.46A2.41,2.41,0,0,1,231.59,47.44Z"/><path class="cls-1" d="M232.68,44h.74v3.31a3.14,3.14,0,0,1,1-.9,2.36,2.36,0,0,1,1.16-.3,2,2,0,0,1,1.14.33,2,2,0,0,1,.73.9,5,5,0,0,1,.23,1.76v3h-.73V49.29a7.41,7.41,0,0,0-.08-1.35,1.61,1.61,0,0,0-.49-.88,1.48,1.48,0,0,0-.94-.29,1.79,1.79,0,0,0-1.2.45,2.13,2.13,0,0,0-.69,1.12,8.06,8.06,0,0,0-.1,1.59v2.14h-.74Z"/><path class="cls-1" d="M248.84,45.64l-.6.48a3.36,3.36,0,0,0-1.21-1,3.49,3.49,0,0,0-1.55-.35,3.32,3.32,0,0,0-1.71.46,3.15,3.15,0,0,0-1.21,1.22,3.41,3.41,0,0,0-.44,1.72,3.32,3.32,0,0,0,3.41,3.38,3.42,3.42,0,0,0,2.71-1.3l.6.47a3.84,3.84,0,0,1-1.43,1.16,4.51,4.51,0,0,1-1.93.41,4,4,0,0,1-3.19-1.38,4.22,4.22,0,0,1-1-2.81,4,4,0,0,1,1.19-2.92,4,4,0,0,1,3-1.19,4.3,4.3,0,0,1,1.95.44A3.75,3.75,0,0,1,248.84,45.64Z"/><path class="cls-1" d="M252.64,46.08a2.81,2.81,0,0,1,2.19,1,3.08,3.08,0,0,1,.78,2.11,3.11,3.11,0,0,1-.83,2.14,3,3,0,0,1-4.28,0,3.11,3.11,0,0,1-.83-2.14,3.08,3.08,0,0,1,.79-2.11A2.78,2.78,0,0,1,252.64,46.08Zm0,.74a2.09,2.09,0,0,0-1.57.69,2.33,2.33,0,0,0-.66,1.67,2.45,2.45,0,0,0,.3,1.19,2.18,2.18,0,0,0,.81.84,2.24,2.24,0,0,0,2.24,0,2.18,2.18,0,0,0,.81-.84,2.45,2.45,0,0,0,.3-1.19,2.33,2.33,0,0,0-.66-1.67A2.09,2.09,0,0,0,252.64,46.82Z"/><path class="cls-1" d="M256.55,46.23h.74V49a6,6,0,0,0,.1,1.37,1.59,1.59,0,0,0,.6.85,1.79,1.79,0,0,0,1.06.31,1.77,1.77,0,0,0,1-.3,1.58,1.58,0,0,0,.59-.8,5.88,5.88,0,0,0,.11-1.43V46.23h.75V49.1a4.53,4.53,0,0,1-.28,1.82,2.14,2.14,0,0,1-.82,1,3,3,0,0,1-2.78,0,2.13,2.13,0,0,1-.83-1,4.67,4.67,0,0,1-.28-1.87Z"/><path class="cls-1" d="M262.57,46.23h.75v.85a2.84,2.84,0,0,1,.7-.75,1.25,1.25,0,0,1,1.43,0l-.38.63a1,1,0,0,0-.39-.1,1,1,0,0,0-.71.31,1.9,1.9,0,0,0-.52,1,9.56,9.56,0,0,0-.13,2v2h-.75Z"/><path class="cls-1" d="M266.39,44.06h.73v2.17h1.16v.65h-1.16v5.19h-.73V46.88h-1v-.65h1Z"/><circle class="cls-2" cx="32.65" cy="31.37" r="30.28"/><path class="cls-3" d="M61.52,37.78a29.81,29.81,0,0,1-28.83,23c-13.95,0-25.93-10.21-28.92-23.25h7.44c2.8,9,11.53,16.07,21.48,16.07A22.63,22.63,0,0,0,54.08,37.78Z"/><path class="cls-4" d="M53.63,31.28a21,21,0,1,1-21-21A21,21,0,0,1,53.63,31.28Z"/><path class="cls-2" d="M34.33,33.78H31V42a1.68,1.68,0,0,0,1.69,1.65A1.64,1.64,0,0,0,34.33,42Z"/><path class="cls-2" d="M35.56,44H29.74a.7.7,0,0,0-.76.65v.77a.7.7,0,0,0,.76.65h5.82a.69.69,0,0,0,.75-.65v-.77A.7.7,0,0,0,35.56,44Z"/><path class="cls-2" d="M36.69,46.86h-8c-.56,0-1,.3-1,.69v.75c0,.41.41.7,1,.7h8c.55,0,1-.29,1-.7v-.75C37.65,47.16,37.24,46.86,36.69,46.86Z"/><path class="cls-2" d="M48.92,23.27a.91.91,0,0,0-.41-.63,1.1,1.1,0,0,0-1.36.13,6.57,6.57,0,0,1-8.67.07,8.88,8.88,0,0,0-11.24-.17l.05,0-.2.16,0,0a6.27,6.27,0,0,1-4.38,1.67,6.23,6.23,0,0,1-4.38-1.67,1.09,1.09,0,0,0-.68-.3,1.13,1.13,0,0,0-.69.17.94.94,0,0,0-.41.63v.1a.8.8,0,0,0,.27.6,8.38,8.38,0,0,0,5.9,2.28,8.45,8.45,0,0,0,5.48-1.9l0,0s0,0,0,0l.15-.12a6.55,6.55,0,0,1,8.68-.07,8.47,8.47,0,0,0,5.71,2.09A8.37,8.37,0,0,0,48.66,24a.87.87,0,0,0,.26-.61Zm0,0h0v0Z"/><path class="cls-2" d="M36.14,17a3.45,3.45,0,1,1-3.46-3.46A3.46,3.46,0,0,1,36.14,17Z"/><path class="cls-2" d="M27.58,38.37l-5.32-12a.56.56,0,0,0-.52-.35.57.57,0,0,0-.52.36h0l-5.31,12a.75.75,0,0,0,0,.62,6.46,6.46,0,0,0,5.81,3.15A6.43,6.43,0,0,0,27.55,39,.72.72,0,0,0,27.58,38.37ZM21.74,28.14c.32.71,4.33,9.77,4.61,10.41H17.13l3.09-7Z"/><path class="cls-2" d="M49.53,38.37l-5.31-12A.56.56,0,0,0,43.7,26a.57.57,0,0,0-.53.37v0l-5.3,12a.71.71,0,0,0,0,.62,6.45,6.45,0,0,0,5.81,3.15A6.44,6.44,0,0,0,49.51,39,.72.72,0,0,0,49.53,38.37ZM43.7,28.14l4.61,10.41H39.08c.2-.43,2-4.5,2-4.5S43.4,28.83,43.7,28.14Z"/><path class="cls-2" d="M38.26,25.42a.82.82,0,0,0-.88.91H36.22v-.52h-7v.52H28a.82.82,0,0,0-.88-.91s-.77,0-.77,1v4.36c0,1.07.77,1,.77,1a.83.83,0,0,0,.88-.92h1.15v.54H31v1.59h3.31V31.47h1.89v-.54h1.16a.83.83,0,0,0,.88.92s.77,0,.77-1V26.45C39,25.4,38.26,25.42,38.26,25.42Z"/><path class="cls-2" d="M11.77,50.25,9.13,46.78l.21-.16,1.24,1.64.28-.22L9.8,46.64l.2-.14,1.06,1.4.26-.2-.93-1.21.17-.19a1.32,1.32,0,0,0,.86.43L11,46.18l.19-.15,1.86,2.45-.19.15-.2-.27a6.65,6.65,0,0,1-.23.82l-.26,0a1.6,1.6,0,0,0,.11-.3l-.79-.93-.27.21,1.06,1.39-.2.15L11,48.26l-.28.21L12,50.1Zm1.43-1.18L13,48.86l.45-.34-2.21-2.91-.43.33-.16-.21.63-.48,2.53,3.33Zm-.88-.57a2.2,2.2,0,0,0,.07-.28l.17,0L11.65,47a1.93,1.93,0,0,1-.69-.19C11.2,47.17,11.66,47.72,12.32,48.5ZM13.79,48l-1.95-2.56.67-.51,1.94,2.56Zm0-.38.26-.19-1.62-2.13-.26.2Zm1.64-.19-1.23-1.62L14,46l1.09,1.44-.2.16L12.53,44.5l.2-.15,1.1,1.44.25-.18L12.84,44l.2-.16,1.24,1.63.22-.16.17.22-.22.16,1.23,1.62Z"/><path class="cls-2" d="M14.54,50.38a13.2,13.2,0,0,1-1.79,1l0-.27a13.29,13.29,0,0,0,1.78-1Zm1.89,3-.42.37a.48.48,0,0,1-.29.13.35.35,0,0,1-.3-.1L14.55,53l.12-.27.93.83c.07.06.15,0,.25,0l.19-.16L13.86,51.4l.79-.47,1.86,1.65.23-.26-2.06-1.83.17-.19,2.26,2-.58.64-1.9-1.69-.32.19Zm-.87-3.58a4.22,4.22,0,0,1-.57.37l-.1-.2a3.16,3.16,0,0,0,.56-.36Zm-.28-.27-.28.07a4.33,4.33,0,0,0,0-1l.29-.07A5.77,5.77,0,0,1,15.28,49.49Zm.16,1-.17-.1a4.55,4.55,0,0,0,.36-.53l.17.11A4.82,4.82,0,0,1,15.44,50.47Zm1-.37L16.2,50a.31.31,0,0,0,.06-.13c-.26-.13-.5-.28-.74-.43l.06-.2c.41-.06.71-.11.91-.16l-.36-.26.09-.21a4,4,0,0,0,1.07-.33l.08.24a6.89,6.89,0,0,1-.86.27l.31.2.3-.1.07.23a5.58,5.58,0,0,1-1.22.3,2.71,2.71,0,0,0,.38.22.44.44,0,0,0,.07-.17l.21.06A3,3,0,0,1,16.41,50.1Zm-.58.56-.19-.09a4.27,4.27,0,0,0,.3-.51l.19.07A2.62,2.62,0,0,1,15.83,50.66Zm.75.78-.67-.59.6-.67.66.59Zm-.25-2.95-.29,0a4.37,4.37,0,0,0,0-1l.28-.06A5.19,5.19,0,0,1,16.33,48.49Zm.25,2.62.27-.3-.34-.29-.26.29Zm.7.19a3.37,3.37,0,0,1-.54.44l-.12-.18a3.75,3.75,0,0,0,.54-.43Zm0-.72L16.67,50l.16-.19.66.59Zm.33-.37L17,49.62l.16-.18.66.59Zm-.43,1.85L17,52a2.37,2.37,0,0,0,.37-.53l.18.11A2.75,2.75,0,0,1,17.22,52.06Zm.87-2.12-.85-.76L17.4,49l.37.32a1.44,1.44,0,0,0,.12-.32l.23.06c0,.12-.09.27-.16.43l.29.27Zm0,1.77-.22-.08a.89.89,0,0,0,.08-.17L17.24,51l.09-.2a5.64,5.64,0,0,0,.89-.12l-.41-.31.09-.18A5.2,5.2,0,0,0,19,49.88l.1.23a4.75,4.75,0,0,1-.91.25,2.92,2.92,0,0,0,.36.23l.32-.12.06.25a6.6,6.6,0,0,1-1.23.29,2,2,0,0,0,.36.21l.06-.17.22.07C18.29,51.33,18.21,51.52,18.13,51.71Zm-.54.63-.19-.08c.14-.28.22-.47.27-.59l.19.09A2.28,2.28,0,0,1,17.59,52.34Z"/><path class="cls-2" d="M20.88,56.63a.6.6,0,0,1-.25.25c-.09,0-.24,0-.45-.11l-.24-.15.08-.31.35.22a.2.2,0,0,0,.31-.08L21.5,55l-2.92-1.66L17.5,55.25l-.23-.13L18.5,53l3.38,1.92Zm-.7-.57-1.84-1,.58-1,1.84,1Zm-.1-.39.29-.51L19,54.39l-.29.51Zm1.56-1.4-2.51-1.43.56-1,2.51,1.43Zm1.38-1-3.77-2.14.14-.25,1.78,1a2,2,0,0,0,.1-.49l.28,0a3.41,3.41,0,0,1-.14.59l1.76,1Zm-1.48.57.27-.47-2-1.15-.27.47Z"/><path class="cls-2" d="M26.84,57.59,26,57.32l-.27.88c-.07.23-.17.36-.28.4a.92.92,0,0,1-.54-.06,2.6,2.6,0,0,1-.36-.13l0-.33.45.15.33.09c.06,0,.11,0,.14-.15l.29-.93-3.14-1,.09-.29,3.14,1,.16-.53-2.68-.82.08-.28,1.58.48.16-.51-1.81-.56.08-.28,1.82.56.11-.39.26.08-.12.38,1.78.55-.08.28-1.79-.55-.16.52,1.57.48-.08.28-.46-.14L26,57l.88.27ZM25.5,54.13l-1.37-.42a4,4,0,0,1-.68.45l-.14-.27a3.09,3.09,0,0,0,1.21-1l.23.18c-.11.13-.24.26-.37.39l1.21.37Zm-1.35,3.69-.27.13a4.44,4.44,0,0,0-.49-1l.26-.14A4.9,4.9,0,0,1,24.15,57.82Zm.57-3.26-.28,0a2.7,2.7,0,0,0-.19-.54l.26,0A1.68,1.68,0,0,1,24.72,54.56Zm2.91.22-1.56-.48a3.25,3.25,0,0,1-.41.26l-.15-.23a2.78,2.78,0,0,0,.92-.81l.21.17a3.46,3.46,0,0,1-.33.38l1.4.43Zm-.8.42-.29.06a2.06,2.06,0,0,0-.2-.55l.28-.07A2,2,0,0,1,26.83,55.2Z"/><path class="cls-2" d="M28.94,57.33a12,12,0,0,1-1.09,1.92L27.64,59a9.86,9.86,0,0,0,1.1-1.9Zm.09-.95-.22.22a3.83,3.83,0,0,0-.77-.85l.18-.23A5,5,0,0,1,29,56.38Zm.22-1.47-.2.2a4.74,4.74,0,0,0-.77-.85l.19-.22A4.52,4.52,0,0,1,29.25,54.91Zm3.12,2.21L30.75,57a10.31,10.31,0,0,1-1.3,1.94,15.2,15.2,0,0,0,2.1-.22,9.14,9.14,0,0,0-.47-1l.24-.13a11.8,11.8,0,0,1,.82,1.92l-.25.17a4.26,4.26,0,0,0-.23-.69,23.05,23.05,0,0,1-2.58.25L29,58.89a1.79,1.79,0,0,0,.66-.66,11.89,11.89,0,0,0,.78-1.29l-1.26-.11,0-.3,1.47.13.11-1.18-1.24-.11,0-.3,1.24.12.08-.93.26,0-.08.93,1.22.11,0,.3-1.22-.11L31,56.69l1.44.13Z"/><path class="cls-2" d="M34.09,56.16a2.53,2.53,0,0,1,.57,1.34.72.72,0,0,1-.08.45c-.07.13-.23.2-.49.22l-.19,0-.13-.31.28,0a.49.49,0,0,0,.3-.1.29.29,0,0,0,0-.23,2.28,2.28,0,0,0-.58-1.29c.08-.41.16-.91.25-1.49l-.76.07.47,4.78-.26,0L33,54.54l1.3-.13,0,.31C34.27,55.2,34.19,55.68,34.09,56.16Zm3.31-.37-.26,0-.09-.89-2.17.22L35,56l-.27,0-.12-1.2,1.19-.12a3,3,0,0,0-.23-.53l.27-.11a4.45,4.45,0,0,1,.25.62l1.22-.12ZM37.73,58a3.53,3.53,0,0,1,0,.72.57.57,0,0,1-.16.34,1,1,0,0,1-.48.13c-.29,0-.45-.08-.47-.33l-.18-1.84-.59.06a3,3,0,0,1-.2,1.51,2.33,2.33,0,0,1-.82.87l-.22-.24a1.93,1.93,0,0,0,.8-.8,2.28,2.28,0,0,0,.17-1.31l-.76.07,0-.29,2.71-.27,0,.3-.82.08.17,1.77a.12.12,0,0,0,0,.08s.11,0,.23,0a.66.66,0,0,0,.23,0,.3.3,0,0,0,.08-.08,1.45,1.45,0,0,0,0-.3,5,5,0,0,0,0-.52ZM36.94,56l-1.75.17,0-.3,1.74-.17Z"/><path class="cls-2" d="M39.8,54.17l-.6.19.18.55-.26.08L39,54.44l-1.18.38-.09-.29,1.18-.37-.19-.61.25-.08.19.61.6-.19Zm-.21.91a8.76,8.76,0,0,1-.16.94l.81,2.56-.26.08-.69-2.17a8,8,0,0,1-.49,1l-.27-.16a4.19,4.19,0,0,0,.77-2.24Zm2.47-1.63-1.17.37.19.6-.26.08-.19-.59-.63.2-.09-.29.63-.2-.19-.6.26-.08.19.6L42,53.17ZM43,56.34a3,3,0,0,1,.16.92.49.49,0,0,1-.12.31,2.41,2.41,0,0,1-.73.3,2.29,2.29,0,0,1-.86.18c-.11,0-.2-.13-.25-.32l-.93-2.91.26-.09.31,1,1.7-.54.09.28-1.7.53.52,1.65a.17.17,0,0,0,.14.13,3.78,3.78,0,0,0,.62-.17,2.31,2.31,0,0,0,.65-.25s0-.16,0-.35-.09-.43-.16-.69Z"/><path class="cls-2" d="M44.12,52.06l-.57.33.23.39-.22.13-.23-.39-1,.61-.14-.23,1.06-.61L43,51.93l.22-.13.2.36.57-.33Zm-.36,1.32-.06.28a3.89,3.89,0,0,0-.93-.22l0-.28A3.07,3.07,0,0,1,43.76,53.38Zm4.49,1,.09.3c-.58.35-1.16.7-1.75,1a2.08,2.08,0,0,1-1.63.32,3.36,3.36,0,0,1-.27.9l-.25-.13a2.6,2.6,0,0,0,.21-1.77l-.78.45-.12-.2c.08-.48.14-.9.18-1.25l-.71.41-.13-.23,1-.57.13.22c-.06.46-.11.86-.16,1.19l.69-.4.14.25a4.63,4.63,0,0,1,.1.88,2.07,2.07,0,0,0,1.48-.32ZM47.93,54l-1.23.71.2.35-.23.13-.2-.35-1.19.7-.14-.24,1.19-.69-.18-.32-1,.55-.8-1.37,1-.56-.18-.32L44,53.23,43.85,53,45,52.32l-.13-.22.23-.14.13.23,1.15-.67.13.22-1.15.67.19.32,1-.56.8,1.37-1,.56.19.33,1.22-.72Zm-1.78-3.07-1,.6.13.23-.23.13-.13-.22-.56.32-.14-.23.57-.33L44.54,51l.23-.14.21.36,1-.6Zm-.47,2.57-.21-.37-.73.43.21.36ZM46,54l-.21-.37-.74.42.22.38Zm.63-1.14-.21-.37-.73.43.21.36Zm.34.58-.22-.38-.73.43.22.38Z"/><path class="cls-2" d="M47.38,49A5.5,5.5,0,0,1,47.81,52l-.3-.06a5,5,0,0,0-.39-2.77Zm3.48-.19,0,.33a4.44,4.44,0,0,1-2.53-.7l-.29.26-.21-.24.43-.39A3.91,3.91,0,0,0,50.86,48.83Zm-.67.5c.42.48.78.94,1.08,1.35a4.54,4.54,0,0,1,.51.82.6.6,0,0,1,0,.35,1.26,1.26,0,0,1-.33.41l-.32.26-.26-.2a3.68,3.68,0,0,0,.41-.33.85.85,0,0,0,.2-.22.39.39,0,0,0,0-.15,1.57,1.57,0,0,0-.18-.37c-.12-.19-.28-.41-.47-.67s-.42-.52-.68-.82l-1,.89a3.6,3.6,0,0,1,.59,3.2l-.29-.07A3.3,3.3,0,0,0,49,50.85l-.73.65L48,51.26Z"/><path class="cls-2" d="M51.57,47.23a2.41,2.41,0,0,1,1.36.49.71.71,0,0,1,.28.36.57.57,0,0,1-.16.51.64.64,0,0,1-.13.15l-.31-.11.18-.22c.09-.13.14-.22.13-.29a.33.33,0,0,0-.13-.19,2.42,2.42,0,0,0-1.35-.45c-.25-.34-.56-.73-.93-1.2l-.46.61,3.83,2.9-.15.21-4.08-3.09.79-1,.24.18C51,46.44,51.28,46.83,51.57,47.23Zm2-2.69-.16.22-.71-.54L51.35,46l.71.54-.16.22-1-.73.72-1a4.79,4.79,0,0,0-.55-.19l.1-.27c.2.06.41.14.63.23l.74-1Zm-.19.45-1.07,1.4-.23-.18,1.06-1.4Zm2.06.84a3,3,0,0,1,.53.48.58.58,0,0,1,.15.34,1.09,1.09,0,0,1-.24.45c-.17.23-.36.27-.56.12L53.82,46.1l-.35.47a3.16,3.16,0,0,1,1,1.18,2.45,2.45,0,0,1,.08,1.19h-.33a1.87,1.87,0,0,0,0-1.13,2.33,2.33,0,0,0-.85-1l-.46.61-.24-.18,1.65-2.17.24.18-.5.66L55.4,47a.17.17,0,0,0,.1,0s.09-.05.17-.15a.67.67,0,0,0,.12-.2.49.49,0,0,0,0-.12,1,1,0,0,0-.2-.21,4.91,4.91,0,0,0-.41-.33Z"/><path class="cls-5" d="M9.69,37.19l.11.42-3.53.92.16.61-.59.15-.42-1.65L6,37.49l.16.61Z"/><path class="cls-5" d="M8.44,35.93l1,.1.08.51L5,36.13,5,35.71,9.08,34l.08.51-.9.39ZM6,35.78l1.84.13-.14-.84Z"/><path class="cls-5" d="M9.05,33.18l0,.48L4.85,34l0-.48Z"/><path class="cls-5" d="M7.87,31.72l-3.18-.67v-.26l3.21-.58-3.13-.69V29l4.31,1.06v.36L6.16,31l2.9.64V32l-4.35.83v-.51Z"/><path class="cls-5" d="M8.25,28.14l.9.4-.08.5L4.94,27.27,5,26.84l4.47-.39L9.4,27l-1,.09ZM6,27.25l1.71.68.13-.84Z"/><path class="cls-5" d="M5.35,25l.1-.36L9,24,6,23.1l.14-.47,4.16,1.19-.09.35-3.52.68,3,.85-.13.47Z"/><path class="cls-5" d="M9.53,19.15,8,18.37,8.2,18,12,19.86l-.21.43L10,19.41,9.5,20.46l1.75.88-.22.43L7.24,19.86l.21-.43L9,20.21Z"/><path class="cls-5" d="M12.52,19l-.25.41-3.63-2.2.25-.41Z"/><path class="cls-5" d="M12.43,15.19l.08.06a3.39,3.39,0,0,1,1.13,1.24,1.05,1.05,0,0,1-.06,1.14,1.1,1.1,0,0,1-1.09.41,3,3,0,0,1-1.5-.61,3,3,0,0,1-1.07-1.26A1.14,1.14,0,0,1,10,15c.3-.43.8-.53,1.48-.32l0,.55c-.48-.17-.82-.12-1,.14a.73.73,0,0,0,0,.8,2.69,2.69,0,0,0,1.84,1.34.71.71,0,0,0,.74-.24.61.61,0,0,0,0-.64,1.7,1.7,0,0,0-.56-.65l-.4.56-.45-.34Z"/><path class="cls-5" d="M13.78,13.31,12.5,12.14l.33-.36L16,14.66l-.32.35-1.44-1.32-.8.87,1.44,1.32-.33.36-3.12-2.88L11.7,13,13,14.18Z"/><path class="cls-5" d="M17.1,9.49a.67.67,0,0,0-1,.8,2.18,2.18,0,0,0,.45,1,2.27,2.27,0,0,0,.86.69.78.78,0,0,0,.8,0,.75.75,0,0,0,.23-.74L19,12a1.07,1.07,0,0,1-.36.59,1.17,1.17,0,0,1-1.19.09,2.92,2.92,0,0,1-1.26-1,3,3,0,0,1-.65-1.52A1.17,1.17,0,0,1,15.91,9a1.12,1.12,0,0,1,.66-.19Z"/><path class="cls-5" d="M18.26,10a3,3,0,0,1-.46-1.56,1.11,1.11,0,0,1,1.74-1,3,3,0,0,1,1.15,1.16,3,3,0,0,1,.46,1.56,1.16,1.16,0,0,1-.53,1.08,1.2,1.2,0,0,1-1.21,0A3,3,0,0,1,18.26,10Zm.41-.29a2.24,2.24,0,0,0,.79.8.75.75,0,0,0,.8.08.74.74,0,0,0,.33-.73,2.39,2.39,0,0,0-.35-1.09A2.11,2.11,0,0,0,19.48,8a.73.73,0,0,0-1.14.68A2.18,2.18,0,0,0,18.67,9.73Z"/><path class="cls-5" d="M20.38,6.37l.45-.2,1,2.18q.55,1.24,1.08,1c.36-.16.35-.65,0-1.49l-1-2.18.44-.19,1,2.32c.49,1.11.41,1.81-.23,2.1S21.9,9.8,21.41,8.69Z"/><path class="cls-5" d="M26.32,8.64l-.56.18L24.4,7.27,25,9.07l-.46.15-1.31-4L23.93,5c.61-.2,1,.11,1.3.92a1.74,1.74,0,0,1,.09.82.62.62,0,0,1-.31.49ZM24.31,7l.14,0c.38-.12.49-.43.33-.91s-.41-.64-.79-.52l-.14.05Z"/><path class="cls-5" d="M27.45,8.38l-.43.1-.83-3.55-.62.15-.14-.59L27.1,4.1l.13.59-.61.14Z"/><path class="cls-5" d="M31.47,5.31l-.11-1.73.48,0,.28,4.24-.48,0-.13-1.95L30.33,6l.13,2-.48,0L29.7,3.69l.48,0,.12,1.72Z"/><path class="cls-5" d="M32.79,3.54l.49,0-.1,2.38c0,.91.13,1.38.51,1.39s.6-.43.64-1.34l.1-2.38.48,0L34.8,6.17c0,1.21-.43,1.8-1.13,1.77s-1-.65-1-1.86Z"/><path class="cls-5" d="M35.92,7.07l-.39.9L35,7.89l1.77-4.14.42.07.4,4.47-.51-.08-.09-1Zm.89-2.26-.68,1.71.84.13Z"/><path class="cls-5" d="M38.45,7.9l.84.2-.15.6-1.31-.33,1-4.12.47.11Z"/><path class="cls-5" d="M39.88,8.93l-.47-.14,1.26-4.06.46.14Z"/><path class="cls-5" d="M42.08,5.84l-.39,1,.9.34-.22.56-.9-.33L41,8.68l.93.35-.22.57-1.38-.53,1.5-4,1.38.52L43,6.19Z"/><path class="cls-5" d="M44.11,5.86l.33.17V9.61l1.4-2.76.42.22-1.94,3.87L44,10.78,44,7.2,42.59,10l-.44-.22Z"/><path class="cls-5" d="M48.74,8.64l.55.42c.46.35.45.82,0,1.44a1.19,1.19,0,0,1-.69.51.55.55,0,0,1,.06.5,1.61,1.61,0,0,1-.32.64,1.36,1.36,0,0,1-.74.57.83.83,0,0,1-.71-.15l-.7-.53Zm-1.83,3.23.22.16c.29.23.58.15.86-.22A.54.54,0,0,0,47.9,11l-.19-.14ZM48,10.4l.18.13c.21.16.44.07.69-.25s.29-.61.08-.77l-.18-.13Z"/><path class="cls-5" d="M49.32,14.65l-.44-.4.67-1.94L48.28,13.7l-.36-.32,2.86-3.15.56.51c.47.43.42,1-.16,1.59a1.73,1.73,0,0,1-.66.48.61.61,0,0,1-.59,0Zm.43-2.57.1.1c.3.27.62.22,1-.16s.35-.68,0-.94l-.11-.1Z"/><path class="cls-5" d="M50.59,14.61l-.88.45-.34-.38,4-2.09.29.32-2.52,3.72-.35-.38.55-.82Zm2.12-1.18-1.62.89.57.64Z"/><path class="cls-5" d="M54.88,14.36l.21.3L53.4,17.82l2.53-1.77.27.39-3.54,2.5-.21-.3,1.68-3.16-2.54,1.78-.28-.39Z"/><path class="cls-5" d="M56.73,19.45a.71.71,0,0,0,.1-.76.77.77,0,0,0-.74-.34,2.09,2.09,0,0,0-1.08.29,2.27,2.27,0,0,0-.82.74.77.77,0,0,0-.1.8.76.76,0,0,0,.7.34l-.77.41a1.09,1.09,0,0,1-.53-.44,1.18,1.18,0,0,1,.09-1.19,2.91,2.91,0,0,1,1.17-1.1,3.15,3.15,0,0,1,1.6-.41,1.17,1.17,0,0,1,1.07.57,1,1,0,0,1,.09.67Z"/><path class="cls-5" d="M57.07,22l1.59-.66.19.45L54.92,23.4,54.74,23l1.8-.75-.45-1.09-1.8.75-.19-.45L58,19.79l.18.45-1.6.66Z"/><path class="cls-5" d="M59.12,26.62a.69.69,0,0,0,.3-.7.73.73,0,0,0-.6-.54,2.26,2.26,0,0,0-1.13,0,2.19,2.19,0,0,0-1,.48.76.76,0,0,0-.32.74.73.73,0,0,0,.57.52l-.85.19a1.13,1.13,0,0,1-.39-.58,1.18,1.18,0,0,1,.43-1.11,2.83,2.83,0,0,1,1.43-.73,3,3,0,0,1,1.65.05,1.19,1.19,0,0,1,.87.84,1,1,0,0,1-.11.67Z"/><path class="cls-5" d="M58.15,27.46a3,3,0,0,1,1.62.24,1.17,1.17,0,0,1,.75.94A1.15,1.15,0,0,1,60,29.71a3,3,0,0,1-1.53.56A3,3,0,0,1,56.82,30a1.16,1.16,0,0,1-.75-.94A1.18,1.18,0,0,1,56.62,28,3,3,0,0,1,58.15,27.46Zm.1.5a2.17,2.17,0,0,0-1.07.37.74.74,0,0,0-.4.69.73.73,0,0,0,.51.61,2.3,2.3,0,0,0,1.14.14,2.1,2.1,0,0,0,1-.35.75.75,0,0,0,.36-.71.73.73,0,0,0-.5-.61A2,2,0,0,0,58.25,28Z"/><path class="cls-5" d="M60.57,30.93v.49l-2.38-.05c-.92,0-1.38.17-1.38.56s.44.58,1.36.6l2.38,0v.47L58,33c-1.22,0-1.82-.39-1.8-1.1s.62-1.05,1.84-1Z"/><path class="cls-5" d="M56,35.35l.07-.59,2-.58L56.18,34l0-.48,4.22.51-.09.75c-.08.63-.54.9-1.39.79a1.56,1.56,0,0,1-.77-.26.63.63,0,0,1-.32-.49Zm2.33-1.14v.15c0,.39.18.62.68.68s.76-.11.8-.5l0-.15Z"/><path class="cls-5" d="M55.77,36.47l.09-.43,3.56.74.13-.62.6.12L59.8,38l-.59-.12.13-.62Z"/></svg>