<svg id="圖層_1" data-name="圖層 1" xmlns="http://www.w3.org/2000/svg" xmlns:xlink="http://www.w3.org/1999/xlink" viewBox="0 0 270.84 64"><defs><style>.cls-1{fill:#333;}.cls-2{fill:#fff;}.cls-3{fill:url(#linear-gradient);}.cls-4{fill:#005bab;}.cls-5{fill:#b7a246;}</style><linearGradient id="linear-gradient" x1="32.65" y1="60.77" x2="32.65" y2="37.52" gradientUnits="userSpaceOnUse"><stop offset="0.69" stop-color="#b7a246"/><stop offset="1" stop-color="#fff"/></linearGradient></defs><path class="cls-1" d="M77.52,25.24H88V35.82H86.17v-1H79.24v1.06H77.52V27l-.89,1.46c-.4-.62-1.16-1.68-1.84-2.52v9.94H73V27.28a18.28,18.28,0,0,1-2.41,2.47,8.5,8.5,0,0,0-.9-2.09,18,18,0,0,0,5.45-7.35H70.4v-2h5.65l.32-.07,1,.79a27.36,27.36,0,0,1-2.19,5c.58.57,1.73,1.8,2.29,2.42Zm-4.17-7a29.62,29.62,0,0,0-1.54-3.48L73.27,14a31.67,31.67,0,0,1,1.58,3.36ZM88.05,15v1.9H77.42V15Zm-1,3.22v5.74H78.54V18.18Zm-7.83,8.88v2.09H81.8V27.06Zm0,5.95H81.8V30.85H79.24Zm6.11-13.08H80.2v2.23h5.15Zm.82,7.13H83.49v2.09h2.68Zm0,5.95V30.85H83.49V33Z"/><path class="cls-1" d="M96.15,22.23a34,34,0,0,1-1.66,8.5c1.9,2.14,4.55,2.62,7.71,2.62,1,0,5.15,0,6.32,0a7.78,7.78,0,0,0-.69,2h-5.67c-3.54,0-6.35-.55-8.43-2.8a11,11,0,0,1-2.34,3.24A7.37,7.37,0,0,0,90,34.31a9.43,9.43,0,0,0,2.49-3.41,18.33,18.33,0,0,1-1.77-4.58l1.39-.63a15.62,15.62,0,0,0,1.14,3.24,28.59,28.59,0,0,0,1-5H91.08c.85-1.76,1.91-4.35,2.77-6.7H90.58V15.27h5.85c-.8,2.12-1.8,4.64-2.66,6.7h1l.34-.07Zm4.65-4.65H97.18V15.83h3.62V14h1.74v1.88h4.35V19h1.24v1.75h-1.24V24h-4.35v1.49h4.65v1.68h-4.65v1.6h5.33v1.8h-5.33v2H100.8v-2H96.11v-1.8h4.69v-1.6H96.92V25.48h3.88V24H97.06V22.23h3.74V20.77H96V19h4.83Zm1.74,0V19h2.69V17.58Zm2.69,3.19h-2.69v1.46h2.69Z"/><path class="cls-1" d="M128,16.26v1.89H110.56V16.26h8c-.18-.65-.38-1.37-.56-2l1.88-.53c.26.77.58,1.73.78,2.5Zm-.54,17.42c0,1.06-.22,1.47-.84,1.76a7.92,7.92,0,0,1-2.88.26,8.62,8.62,0,0,0-.58-1.66c.84.05,1.84.05,2.06,0s.36-.1.36-.39V27.23H113v8.66h-1.82V25.38h16.28Zm-2-14.37v4.92h-12V19.31Zm-8.76,14.16v1.1H115V28.4h8.5v5.07Zm6.8-12.6h-8.22v1.77h8.22ZM116.69,30v1.85h5.13V30Z"/><path class="cls-1" d="M133.39,17.39a14.84,14.84,0,0,1-1.92,2.76,12.11,12.11,0,0,0-1.29-1.54,13,13,0,0,0,3-4.94l1.66.57c-.16.43-.32.82-.52,1.25h4.85v1.9h-3.31a19.16,19.16,0,0,1,1.63,1.87l-1.21,1.29a19.63,19.63,0,0,0-2-2.44l.7-.72Zm10.92,10.92h3.86v1.82h-3.86v3.6c0,1.13-.24,1.66-1,1.9a13.06,13.06,0,0,1-3.61.26,9.42,9.42,0,0,0-.5-1.82,24.83,24.83,0,0,0,2.72,0c.34,0,.44-.12.44-.45V30.13h-7.17a39.22,39.22,0,0,1,3.21,3.39L137,34.84a36.82,36.82,0,0,0-3.19-3.63l1.22-1.08h-4.49V28.31h11.82V26.84h1.93Zm4.23-12.82v1.92h-4a15.18,15.18,0,0,1,1.6,2.09l-1.28,1.29A14.19,14.19,0,0,0,143,18.23l.84-.82H142a14.45,14.45,0,0,1-1.64,2.86l-.06-.08v.7h7.19v1.9h-7.19v1.8h6v1.75H132.29V24.59h6.11v-1.8h-7.13v-1.9h7.13V19.55h1.26A7.71,7.71,0,0,0,139,19a13.74,13.74,0,0,0,2.48-5.26l1.71.48c-.12.46-.24.89-.38,1.32Z"/><path class="cls-1" d="M154,24.76a18.09,18.09,0,0,0-3.69-2.6l1-1.68A16.51,16.51,0,0,1,155,22.91Zm-3,9.33a67.27,67.27,0,0,0,3.79-7.61L156.09,28c-1,2.5-2.36,5.38-3.54,7.63Zm1.49-20a19.39,19.39,0,0,1,3.76,2.45l-1.08,1.85a16.79,16.79,0,0,0-3.72-2.67Zm14.22,21.75a13.51,13.51,0,0,0-.82-2.26c-7.07,1-8,1.23-8.57,1.56-.1-.48-.43-1.61-.65-2.23.43-.12.81-.67,1.29-1.56a36.19,36.19,0,0,0,2.46-5.54h-4.13V23.72h5V19.83h-4.1V17.72h4.1V13.86h1.91v3.86h4.26v2.11h-4.26v3.89h5v2.12h-5.53a48.23,48.23,0,0,1-3.18,6.64l5.57-.72c-.48-1-1-1.92-1.56-2.8l1.5-.87a30.55,30.55,0,0,1,3.42,6.77Z"/><path class="cls-1" d="M177,15.59c-.57,2-1.27,4.32-1.87,6.16a8.82,8.82,0,0,1,1.62,5.12,4,4,0,0,1-.82,2.93,2.22,2.22,0,0,1-1.08.48c-.36,0-.86,0-1.32,0a5.64,5.64,0,0,0-.42-1.94,7.19,7.19,0,0,0,1,0,.92.92,0,0,0,.58-.19,2.28,2.28,0,0,0,.4-1.56A7.69,7.69,0,0,0,173.47,22c.5-1.58,1-3.6,1.4-5.19h-2.18v19H171v-21h4.47l.26-.09Zm9.73,18.09c.38,0,.46-.38.5-2.95a3.77,3.77,0,0,0,1.57.82c-.17,3.21-.59,4-1.87,4h-1.62c-1.54,0-1.9-.6-1.9-2.62V27.3h-1.75c-.32,4.2-1.28,7-5.07,8.59a6.17,6.17,0,0,0-1.06-1.77c3.33-1.28,4.07-3.44,4.33-6.82h-2.6v-2h11.28v2h-3.37v5.64c0,.65.06.74.44.74Zm-7.95-12.53H177.2V16.74h4.86a21,21,0,0,0-.94-2.47l1.72-.6a17.7,17.7,0,0,1,1.23,3.07h4.36v4.41h-1.58V23h-8.07Zm.14-2.47V21h7.73V18.68Z"/><path class="cls-1" d="M200.44,23v2.9h6.71v2h-6.71v5.35h7.67v2H190.92v-2h7.54V27.88h-6.61v-2h6.61V23h-4.19V21.71a19.72,19.72,0,0,1-2.91,1.53,8.89,8.89,0,0,0-1.24-2.06,17.32,17.32,0,0,0,9.26-7.54l1.74.94c-.18.31-.34.62-.52.91a21.06,21.06,0,0,0,8.34,5.71,9,9,0,0,0-1.29,1.95,19.42,19.42,0,0,1-3-1.66V23Zm-5.55,5.16a20.18,20.18,0,0,1,1.88,4.15l-1.62.84a21.91,21.91,0,0,0-1.78-4.27Zm8.88-7.23A23.21,23.21,0,0,1,199.52,17a19.27,19.27,0,0,1-4,3.89ZM202,32.41a24.16,24.16,0,0,0,1.95-4.29l1.8.79c-.76,1.51-1.64,3.14-2.32,4.22Z"/><path class="cls-1" d="M218.66,23.82h-5.47v12h-1.85v-21h7.32Zm-5.47-7.06v1.71h3.72V16.76ZM216.91,22V20.12h-3.72V22Zm10.94,11c0,1.39-.26,2.07-1,2.45a10.34,10.34,0,0,1-3.87.41,9.13,9.13,0,0,0-.66-2.31c1.33.08,2.73,0,3.13,0s.52-.17.52-.6V23.84H220.3V14.89h7.55Zm-5.77-16.25v1.71H226V16.76ZM226,22V20.12h-3.87V22Z"/><path class="cls-1" d="M243.33,14.27c.94,3.62,3,7,5.69,8.76a9.15,9.15,0,0,0-1.35,2,13.45,13.45,0,0,1-1.82-1.73c0,.14,0,.31,0,.41-.26,7.29-.52,10.08-1.22,11a2.08,2.08,0,0,1-1.65,1,19.68,19.68,0,0,1-3.1,0,6.23,6.23,0,0,0-.6-2.26,24.09,24.09,0,0,0,2.82.17.94.94,0,0,0,.84-.34c.47-.57.73-2.83.93-8.42h-4.61c-.52,4.66-1.82,8.88-7,11.14a6.81,6.81,0,0,0-1.21-2c4.63-1.84,5.69-5.32,6.13-9.14h-3.76V23.24a17,17,0,0,1-1.64,1.88,13.09,13.09,0,0,0-1.59-1.66,17.37,17.37,0,0,0,5.07-8.79l1.94.56a25.19,25.19,0,0,1-3.42,7.51h11.54a21,21,0,0,1-3.41-6.41h-3.36V14.27Z"/><path class="cls-1" d="M257.15,15.59c-.56,2-1.26,4.32-1.86,6.16a8.82,8.82,0,0,1,1.62,5.12,4,4,0,0,1-.82,2.93,2.22,2.22,0,0,1-1.08.48c-.36,0-.86,0-1.32,0a5.64,5.64,0,0,0-.42-1.94,7.19,7.19,0,0,0,1,0,.92.92,0,0,0,.58-.19,2.28,2.28,0,0,0,.4-1.56A7.69,7.69,0,0,0,253.63,22c.5-1.58,1-3.6,1.4-5.19h-2.18v19H251.2v-21h4.47l.26-.09Zm9.74,18.09c.38,0,.46-.38.5-2.95a3.77,3.77,0,0,0,1.57.82c-.17,3.21-.59,4-1.87,4h-1.62c-1.54,0-1.9-.6-1.9-2.62V27.3h-1.75c-.32,4.2-1.28,7-5.07,8.59a6.17,6.17,0,0,0-1.06-1.77c3.33-1.28,4.07-3.44,4.33-6.82h-2.6v-2h11.27v2h-3.36v5.64c0,.65.06.74.44.74Zm-7.95-12.53h-1.58V16.74h4.86a21,21,0,0,0-.94-2.47l1.72-.6a17.7,17.7,0,0,1,1.23,3.07h4.36v4.41H267V23h-8.07Zm.14-2.47V21h7.73V18.68Z"/><path class="cls-1" d="M72.54,44.17h3.8V45h-3v2.47h3v.78h-3v3.87h-.76Z"/><path class="cls-1" d="M77.14,46.23h.72V49a6,6,0,0,0,.1,1.37,1.57,1.57,0,0,0,.59.85,1.91,1.91,0,0,0,2.07,0,1.56,1.56,0,0,0,.58-.8A5.88,5.88,0,0,0,81.31,49V46.23h.74V49.1a4.74,4.74,0,0,1-.27,1.82,2.2,2.2,0,0,1-.82,1,2.91,2.91,0,0,1-2.73,0,2.11,2.11,0,0,1-.82-1A4.89,4.89,0,0,1,77.14,49Z"/><path class="cls-1" d="M88.78,47.44l-.57.37a2.38,2.38,0,0,0-2-1,2.32,2.32,0,0,0-2.38,2.35,2.56,2.56,0,0,0,.31,1.21,2.32,2.32,0,0,0,.86.87,2.38,2.38,0,0,0,1.22.31,2.44,2.44,0,0,0,2-1l.57.4a2.84,2.84,0,0,1-1.08,1,3.37,3.37,0,0,1-1.55.34,3,3,0,0,1-2.2-.88,2.89,2.89,0,0,1-.88-2.14,3.21,3.21,0,0,1,.41-1.58,2.92,2.92,0,0,1,1.13-1.13,3.17,3.17,0,0,1,1.6-.41,3.31,3.31,0,0,1,1.08.18,3,3,0,0,1,.87.46A2.56,2.56,0,0,1,88.78,47.44Z"/><path class="cls-1" d="M89.85,44h.72v3.31a3.11,3.11,0,0,1,1-.9,2.26,2.26,0,0,1,1.14-.3,2,2,0,0,1,1.12.33,2,2,0,0,1,.72.9,5,5,0,0,1,.23,1.76v3H94V49.29a7.41,7.41,0,0,0-.08-1.35,1.55,1.55,0,0,0-.49-.88,1.41,1.41,0,0,0-.92-.29,1.72,1.72,0,0,0-1.17.45,2.13,2.13,0,0,0-.69,1.12,8.06,8.06,0,0,0-.1,1.59v2.14h-.72Z"/><path class="cls-1" d="M96.22,43.82a.52.52,0,0,1,.42.19.59.59,0,0,1,.18.44.58.58,0,0,1-.18.43.54.54,0,0,1-.42.18.54.54,0,0,1-.41-.18.58.58,0,0,1-.18-.43.59.59,0,0,1,.18-.44A.52.52,0,0,1,96.22,43.82Zm-.36,2.41h.72v5.84h-.72Z"/><path class="cls-1" d="M102.49,50.13l.61.34a3.46,3.46,0,0,1-.69,1,2.77,2.77,0,0,1-.88.57,3,3,0,0,1-1.11.19,2.65,2.65,0,0,1-2.15-.93,3.22,3.22,0,0,1-.77-2.12,3.18,3.18,0,0,1,.65-2,2.64,2.64,0,0,1,2.23-1.11,2.76,2.76,0,0,1,2.29,1.13,3.33,3.33,0,0,1,.62,2H98.24a2.42,2.42,0,0,0,.62,1.67,2,2,0,0,0,1.49.65,2.4,2.4,0,0,0,.84-.15,2.36,2.36,0,0,0,.69-.42A3.29,3.29,0,0,0,102.49,50.13Zm0-1.57a2.67,2.67,0,0,0-.42-1,2,2,0,0,0-.73-.58,2.11,2.11,0,0,0-1-.22,2,2,0,0,0-1.42.55,2.62,2.62,0,0,0-.65,1.21Z"/><path class="cls-1" d="M104.31,46.23H105v1.05a3,3,0,0,1,1-.9,2.26,2.26,0,0,1,1.14-.3,2,2,0,0,1,1.12.33,2,2,0,0,1,.72.9,5.06,5.06,0,0,1,.23,1.76v3h-.72V49.29a7.41,7.41,0,0,0-.08-1.35,1.55,1.55,0,0,0-.49-.88,1.41,1.41,0,0,0-.92-.29,1.76,1.76,0,0,0-1.18.45,2.18,2.18,0,0,0-.68,1.12,8.06,8.06,0,0,0-.1,1.59v2.14h-.73Z"/><path class="cls-1" d="M113.15,44.17h.76v3.32h3.86V44.17h.76v7.9h-.76V48.26h-3.86v3.81h-.76Z"/><path class="cls-1" d="M120.19,43.82a.52.52,0,0,1,.42.19.59.59,0,0,1,.18.44.58.58,0,0,1-.18.43.54.54,0,0,1-.42.18.54.54,0,0,1-.41-.18.58.58,0,0,1-.18-.43.59.59,0,0,1,.18-.44A.52.52,0,0,1,120.19,43.82Zm-.36,2.41h.72v5.84h-.72Z"/><path class="cls-1" d="M126.58,46.23h.72v4.66a5.62,5.62,0,0,1-.21,1.8,2.38,2.38,0,0,1-1,1.24,3.15,3.15,0,0,1-1.69.43,3.81,3.81,0,0,1-1.3-.21,2.53,2.53,0,0,1-.93-.57,3.59,3.59,0,0,1-.67-1h.79a2.07,2.07,0,0,0,.82.86,2.55,2.55,0,0,0,1.26.28,2.5,2.5,0,0,0,1.24-.29,1.75,1.75,0,0,0,.73-.72,3.38,3.38,0,0,0,.22-1.4V51a3,3,0,0,1-1,.83,2.82,2.82,0,0,1-1.25.28,2.76,2.76,0,0,1-1.45-.4,2.73,2.73,0,0,1-1.06-1.07,3.15,3.15,0,0,1,0-3,2.85,2.85,0,0,1,1.07-1.11,2.76,2.76,0,0,1,1.44-.41,2.65,2.65,0,0,1,1.18.27,3.28,3.28,0,0,1,1,.9Zm-2.13.57a2.27,2.27,0,0,0-1.14.31,2.21,2.21,0,0,0-.83.86,2.38,2.38,0,0,0-.3,1.18,2.19,2.19,0,0,0,.62,1.59,2.39,2.39,0,0,0,3.21,0,2.25,2.25,0,0,0,.6-1.64,2.42,2.42,0,0,0-.28-1.18,2,2,0,0,0-.79-.81A2,2,0,0,0,124.45,46.8Z"/><path class="cls-1" d="M128.53,44h.72v3.31a3.11,3.11,0,0,1,1-.9,2.26,2.26,0,0,1,1.14-.3,2,2,0,0,1,1.12.33,2,2,0,0,1,.72.9,5,5,0,0,1,.23,1.76v3h-.72V49.29a7.41,7.41,0,0,0-.08-1.35,1.55,1.55,0,0,0-.49-.88,1.41,1.41,0,0,0-.92-.29,1.72,1.72,0,0,0-1.17.45,2.13,2.13,0,0,0-.69,1.12,8.06,8.06,0,0,0-.1,1.59v2.14h-.72Z"/><path class="cls-1" d="M144.44,45.64l-.6.48a3.22,3.22,0,0,0-1.19-1,3.36,3.36,0,0,0-1.52-.35,3.17,3.17,0,0,0-1.68.46,3.13,3.13,0,0,0-1.2,1.22,3.51,3.51,0,0,0-.43,1.72,3.3,3.3,0,0,0,1,2.41,3.23,3.23,0,0,0,2.4,1,3.33,3.33,0,0,0,2.66-1.3l.6.47A3.81,3.81,0,0,1,143,51.86a4.3,4.3,0,0,1-1.89.41A3.87,3.87,0,0,1,138,50.89a4.26,4.26,0,0,1-1-2.81,4,4,0,0,1,1.16-2.92A4,4,0,0,1,141.12,44a4.18,4.18,0,0,1,1.92.44A3.69,3.69,0,0,1,144.44,45.64Z"/><path class="cls-1" d="M148.18,46.08a2.73,2.73,0,0,1,2.15,1,3.08,3.08,0,0,1,.78,2.11,3.15,3.15,0,0,1-.82,2.14,2.9,2.9,0,0,1-4.22,0,3.15,3.15,0,0,1-.82-2.14,3.11,3.11,0,0,1,.78-2.11A2.73,2.73,0,0,1,148.18,46.08Zm0,.74a2.05,2.05,0,0,0-1.55.69,2.36,2.36,0,0,0-.64,1.67,2.44,2.44,0,0,0,.29,1.19,2.16,2.16,0,0,0,.8.84,2.17,2.17,0,0,0,2.2,0,2.16,2.16,0,0,0,.8-.84,2.55,2.55,0,0,0,.29-1.19,2.32,2.32,0,0,0-.65-1.67A2,2,0,0,0,148.18,46.82Z"/><path class="cls-1" d="M152,46.23h.72V49a5.86,5.86,0,0,0,.11,1.37,1.52,1.52,0,0,0,.59.85,1.89,1.89,0,0,0,2.06,0,1.51,1.51,0,0,0,.58-.8A5.4,5.4,0,0,0,156.2,49V46.23h.74V49.1a4.74,4.74,0,0,1-.27,1.82,2.08,2.08,0,0,1-.82,1,2.47,2.47,0,0,1-1.36.34,2.53,2.53,0,0,1-1.37-.34,2.11,2.11,0,0,1-.82-1A4.89,4.89,0,0,1,152,49Z"/><path class="cls-1" d="M158,46.23h.74v.85a2.69,2.69,0,0,1,.7-.75,1.28,1.28,0,0,1,.76-.25,1.32,1.32,0,0,1,.64.2l-.38.63a.93.93,0,0,0-.38-.1,1,1,0,0,0-.7.31,2,2,0,0,0-.51,1,10.32,10.32,0,0,0-.13,2v2H158Z"/><path class="cls-1" d="M161.71,44.06h.73v2.17h1.14v.65h-1.14v5.19h-.73V46.88h-1v-.65h1Z"/><path class="cls-1" d="M167.07,44.17h.78v3l3-3h1l-3.65,3.55,3.93,4.35h-1l-3.32-3.68v3.68h-.78Z"/><path class="cls-1" d="M173.13,43.82a.55.55,0,0,1,.42.19.62.62,0,0,1,.17.44.61.61,0,0,1-.17.43.61.61,0,0,1-.84-.87A.55.55,0,0,1,173.13,43.82Zm-.36,2.41h.72v5.84h-.72Z"/><path class="cls-1" d="M174.67,46.23h.73v1.05a3,3,0,0,1,.95-.9,2.32,2.32,0,0,1,1.15-.3,2,2,0,0,1,1.12.33,1.93,1.93,0,0,1,.71.9,4.79,4.79,0,0,1,.24,1.76v3h-.73V49.29a6.57,6.57,0,0,0-.08-1.35,1.48,1.48,0,0,0-.48-.88,1.41,1.41,0,0,0-.92-.29,1.76,1.76,0,0,0-1.18.45,2.18,2.18,0,0,0-.68,1.12,8.06,8.06,0,0,0-.1,1.59v2.14h-.73Z"/><path class="cls-1" d="M180.79,46.23h.72v1a2.81,2.81,0,0,1,.78-.82,2.11,2.11,0,0,1,1.15-.34,1.7,1.7,0,0,1,.77.17,1.51,1.51,0,0,1,.6.44,2.24,2.24,0,0,1,.4.79,2.59,2.59,0,0,1,.91-1,2,2,0,0,1,1.16-.36,1.69,1.69,0,0,1,1,.31,1.72,1.72,0,0,1,.66.85,4.54,4.54,0,0,1,.22,1.64v3.19h-.74V48.88a4.22,4.22,0,0,0-.13-1.29,1.21,1.21,0,0,0-.43-.57,1.32,1.32,0,0,0-.75-.21,1.61,1.61,0,0,0-1,.32,1.83,1.83,0,0,0-.63.86,5.82,5.82,0,0,0-.2,1.8v2.28h-.72v-3a5.15,5.15,0,0,0-.13-1.44,1.16,1.16,0,0,0-.44-.6,1.26,1.26,0,0,0-.75-.23,1.55,1.55,0,0,0-.93.31,1.91,1.91,0,0,0-.65.85,4.71,4.71,0,0,0-.21,1.63v2.47h-.72Z"/><path class="cls-1" d="M195.11,50.13l.61.34a3.46,3.46,0,0,1-.69,1,2.82,2.82,0,0,1-.89.57,2.93,2.93,0,0,1-1.11.19,2.63,2.63,0,0,1-2.14-.93,3.23,3.23,0,0,1-.78-2.12,3.19,3.19,0,0,1,.66-2A2.62,2.62,0,0,1,193,46.08a2.73,2.73,0,0,1,2.29,1.13,3.2,3.2,0,0,1,.62,2h-5.05a2.47,2.47,0,0,0,.63,1.67,2,2,0,0,0,1.49.65,2.31,2.31,0,0,0,.83-.15,2.23,2.23,0,0,0,.69-.42A3.28,3.28,0,0,0,195.11,50.13Zm0-1.57a2.67,2.67,0,0,0-.42-1A2.11,2.11,0,0,0,194,47a2.14,2.14,0,0,0-1-.22,2,2,0,0,0-1.42.55,2.53,2.53,0,0,0-.65,1.21Z"/><path class="cls-1" d="M196.93,46.23h.72v1.05a3.11,3.11,0,0,1,1-.9,2.27,2.27,0,0,1,1.15-.3,1.91,1.91,0,0,1,1.11.33,1.89,1.89,0,0,1,.72.9,4.83,4.83,0,0,1,.23,1.76v3h-.72V49.29a6.57,6.57,0,0,0-.08-1.35,1.48,1.48,0,0,0-.48-.88,1.46,1.46,0,0,0-.93-.29,1.75,1.75,0,0,0-1.17.45,2.11,2.11,0,0,0-.68,1.12,7.84,7.84,0,0,0-.11,1.59v2.14h-.72Z"/><path class="cls-1" d="M205.8,44.17h1.5a3.34,3.34,0,0,1,1.38.23,1.64,1.64,0,0,1,.77.68,1.92,1.92,0,0,1,.28,1,1.8,1.8,0,0,1-.25,1,1.82,1.82,0,0,1-.72.71,2.75,2.75,0,0,1,.91.49,2,2,0,0,1,.5.68,2.29,2.29,0,0,1,.17.87,2.2,2.2,0,0,1-.66,1.61,2.5,2.5,0,0,1-1.8.65H205.8Zm.74.78v2.53H207a3.3,3.3,0,0,0,1.16-.16,1.26,1.26,0,0,0,.59-.48,1.33,1.33,0,0,0,.22-.73,1.05,1.05,0,0,0-.37-.86,1.81,1.81,0,0,0-1.16-.3Zm0,3.32v3h.94a3.29,3.29,0,0,0,1.22-.17,1.41,1.41,0,0,0,.63-.53,1.45,1.45,0,0,0,.23-.78,1.4,1.4,0,0,0-.33-.92,1.63,1.63,0,0,0-.91-.53,6,6,0,0,0-1.35-.1Z"/><path class="cls-1" d="M211.13,46.23h.74v.85a2.69,2.69,0,0,1,.7-.75,1.3,1.3,0,0,1,.76-.25,1.32,1.32,0,0,1,.64.2l-.38.63a.9.9,0,0,0-.38-.1,1,1,0,0,0-.69.31,1.82,1.82,0,0,0-.51,1,9.33,9.33,0,0,0-.14,2v2h-.74Z"/><path class="cls-1" d="M219.86,46.23v5.84h-.71v-1a3.25,3.25,0,0,1-1,.86,2.6,2.6,0,0,1-1.24.29,2.68,2.68,0,0,1-2-.9,3.07,3.07,0,0,1-.84-2.18,3,3,0,0,1,.85-2.16,2.7,2.7,0,0,1,2-.9,2.49,2.49,0,0,1,1.25.31,2.93,2.93,0,0,1,1,.91V46.23ZM217,46.8a2.16,2.16,0,0,0-1.11.31,2.27,2.27,0,0,0-.81.87,2.46,2.46,0,0,0-.3,1.18,2.49,2.49,0,0,0,.3,1.18,2.25,2.25,0,0,0,.82.88,2.06,2.06,0,0,0,1.1.31,2.15,2.15,0,0,0,1.12-.31,2.2,2.2,0,0,0,.82-.84,2.53,2.53,0,0,0,.28-1.2,2.34,2.34,0,0,0-.64-1.69A2.07,2.07,0,0,0,217,46.8Z"/><path class="cls-1" d="M221.17,46.23h.72v1.05a3.11,3.11,0,0,1,1-.9,2.26,2.26,0,0,1,1.14-.3,2,2,0,0,1,1.12.33,2,2,0,0,1,.72.9,5.06,5.06,0,0,1,.23,1.76v3h-.72V49.29a7.41,7.41,0,0,0-.08-1.35,1.55,1.55,0,0,0-.49-.88,1.41,1.41,0,0,0-.92-.29,1.76,1.76,0,0,0-1.18.45,2.18,2.18,0,0,0-.68,1.12,8.06,8.06,0,0,0-.1,1.59v2.14h-.72Z"/><path class="cls-1" d="M232.73,47.44l-.57.37a2.36,2.36,0,0,0-2-1,2.34,2.34,0,0,0-1.71.68,2.3,2.3,0,0,0-.67,1.67,2.45,2.45,0,0,0,.31,1.21,2.29,2.29,0,0,0,.85.87,2.52,2.52,0,0,0,3.24-.72l.57.4a2.84,2.84,0,0,1-1.08,1,3.32,3.32,0,0,1-1.54.34,3,3,0,0,1-2.21-.88A2.93,2.93,0,0,1,227,49.2a3.21,3.21,0,0,1,.41-1.58,3,3,0,0,1,1.13-1.13,3.21,3.21,0,0,1,1.61-.41,3.25,3.25,0,0,1,1.07.18,2.92,2.92,0,0,1,.88.46A2.54,2.54,0,0,1,232.73,47.44Z"/><path class="cls-1" d="M233.8,44h.73v3.31a3.11,3.11,0,0,1,1-.9,2.26,2.26,0,0,1,1.14-.3,2,2,0,0,1,1.12.33,1.93,1.93,0,0,1,.71.9,4.76,4.76,0,0,1,.24,1.76v3H238V49.29a7.74,7.74,0,0,0-.07-1.35,1.55,1.55,0,0,0-.49-.88,1.44,1.44,0,0,0-.93-.29,1.75,1.75,0,0,0-1.17.45,2.18,2.18,0,0,0-.68,1.12,8.06,8.06,0,0,0-.1,1.59v2.14h-.73Z"/><path class="cls-1" d="M249.72,45.64l-.6.48a3.3,3.3,0,0,0-1.19-1,3.36,3.36,0,0,0-1.52-.35,3.23,3.23,0,0,0-1.69.46,3.17,3.17,0,0,0-1.19,1.22,3.41,3.41,0,0,0-.43,1.72,3.33,3.33,0,0,0,1,2.41,3.26,3.26,0,0,0,2.4,1,3.36,3.36,0,0,0,2.67-1.3l.6.47a3.81,3.81,0,0,1-1.42,1.16,4.36,4.36,0,0,1-1.89.41,3.89,3.89,0,0,1-3.15-1.38,4.26,4.26,0,0,1-1-2.81,4,4,0,0,1,1.17-2.92A3.94,3.94,0,0,1,246.39,44a4.18,4.18,0,0,1,1.92.44A3.79,3.79,0,0,1,249.72,45.64Z"/><path class="cls-1" d="M253.46,46.08a2.75,2.75,0,0,1,2.15,1,3.24,3.24,0,0,1-.05,4.25,2.89,2.89,0,0,1-4.21,0,3.1,3.1,0,0,1-.82-2.14,3.15,3.15,0,0,1,.77-2.11A2.75,2.75,0,0,1,253.46,46.08Zm0,.74a2,2,0,0,0-1.54.69,2.37,2.37,0,0,0-.65,1.67,2.45,2.45,0,0,0,.3,1.19,2.14,2.14,0,0,0,3.79,0,2.45,2.45,0,0,0,.3-1.19,2.37,2.37,0,0,0-.65-1.67A2.05,2.05,0,0,0,253.45,46.82Z"/><path class="cls-1" d="M257.31,46.23H258V49a6,6,0,0,0,.1,1.37,1.52,1.52,0,0,0,.59.85,1.91,1.91,0,0,0,2.07,0,1.56,1.56,0,0,0,.58-.8,5.88,5.88,0,0,0,.11-1.43V46.23h.73V49.1a4.74,4.74,0,0,1-.27,1.82,2.12,2.12,0,0,1-.81,1,2.91,2.91,0,0,1-2.73,0,2.11,2.11,0,0,1-.82-1,4.89,4.89,0,0,1-.27-1.87Z"/><path class="cls-1" d="M263.23,46.23H264v.85a2.82,2.82,0,0,1,.69-.75,1.32,1.32,0,0,1,.76-.25,1.29,1.29,0,0,1,.64.2l-.37.63a.93.93,0,0,0-.38-.1,1,1,0,0,0-.7.31,2,2,0,0,0-.51,1,9.56,9.56,0,0,0-.13,2v2h-.74Z"/><path class="cls-1" d="M267,44.06h.72v2.17h1.15v.65h-1.15v5.19H267V46.88h-1v-.65h1Z"/><circle class="cls-2" cx="32.65" cy="31.37" r="30.28"/><path class="cls-3" d="M61.52,37.78a29.81,29.81,0,0,1-28.83,23c-13.95,0-25.93-10.21-28.92-23.25h7.44c2.8,9,11.53,16.07,21.48,16.07A22.63,22.63,0,0,0,54.08,37.78Z"/><path class="cls-4" d="M53.63,31.28a21,21,0,1,1-21-21A21,21,0,0,1,53.63,31.28Z"/><path class="cls-2" d="M34.33,33.78H31V42a1.68,1.68,0,0,0,1.69,1.65A1.64,1.64,0,0,0,34.33,42Z"/><path class="cls-2" d="M35.56,44H29.74a.7.7,0,0,0-.76.65v.77a.7.7,0,0,0,.76.65h5.82a.69.69,0,0,0,.75-.65v-.77A.7.7,0,0,0,35.56,44Z"/><path class="cls-2" d="M36.69,46.86h-8c-.56,0-1,.3-1,.69v.75c0,.41.41.7,1,.7h8c.55,0,1-.29,1-.7v-.75C37.65,47.16,37.24,46.86,36.69,46.86Z"/><path class="cls-2" d="M48.92,23.27a.91.91,0,0,0-.41-.63,1.1,1.1,0,0,0-1.36.13,6.57,6.57,0,0,1-8.67.07,8.88,8.88,0,0,0-11.24-.17l.05,0-.2.16,0,0a6.27,6.27,0,0,1-4.38,1.67,6.23,6.23,0,0,1-4.38-1.67,1.09,1.09,0,0,0-.68-.3,1.13,1.13,0,0,0-.69.17.94.94,0,0,0-.41.63v.1a.8.8,0,0,0,.27.6,8.38,8.38,0,0,0,5.9,2.28,8.45,8.45,0,0,0,5.48-1.9l0,0s0,0,0,0l.15-.12a6.55,6.55,0,0,1,8.68-.07,8.47,8.47,0,0,0,5.71,2.09A8.37,8.37,0,0,0,48.66,24a.87.87,0,0,0,.26-.61Zm0,0h0v0Z"/><path class="cls-2" d="M36.14,17a3.45,3.45,0,1,1-3.46-3.46A3.46,3.46,0,0,1,36.14,17Z"/><path class="cls-2" d="M27.58,38.37l-5.32-12a.56.56,0,0,0-.52-.35.57.57,0,0,0-.52.36h0l-5.31,12a.75.75,0,0,0,0,.62,6.46,6.46,0,0,0,5.81,3.15A6.43,6.43,0,0,0,27.55,39,.72.72,0,0,0,27.58,38.37ZM21.74,28.14c.32.71,4.33,9.77,4.61,10.41H17.13l3.09-7Z"/><path class="cls-2" d="M49.53,38.37l-5.31-12A.56.56,0,0,0,43.7,26a.57.57,0,0,0-.53.37v0l-5.3,12a.71.71,0,0,0,0,.62,6.45,6.45,0,0,0,5.81,3.15A6.44,6.44,0,0,0,49.51,39,.72.72,0,0,0,49.53,38.37ZM43.7,28.14l4.61,10.41H39.08c.2-.43,2-4.5,2-4.5S43.4,28.83,43.7,28.14Z"/><path class="cls-2" d="M38.26,25.42a.82.82,0,0,0-.88.91H36.22v-.52h-7v.52H28a.82.82,0,0,0-.88-.91s-.77,0-.77,1v4.36c0,1.07.77,1,.77,1a.83.83,0,0,0,.88-.92h1.15v.54H31v1.59h3.31V31.47h1.89v-.54h1.16a.83.83,0,0,0,.88.92s.77,0,.77-1V26.45C39,25.4,38.26,25.42,38.26,25.42Z"/><path class="cls-2" d="M11.74,46.65l-.3,0a3.38,3.38,0,0,0,.12-.69L9.62,47.46l-.16-.21,1.79-1.36a8.42,8.42,0,0,1-.87,0l.1-.29a6.31,6.31,0,0,0,2.31-.33l-.63-.84.22-.17.81,1.06-.23.18a6,6,0,0,1-1.13.28A3.46,3.46,0,0,1,11.74,46.65Zm-.07,3.52-.16-.2.24-.18L10.47,48.1l-.24.18-.16-.21,2.09-1.58,1.6,2.1Zm-.4-1.51.58-.44-.57-.74-.58.44Zm.72,1,.58-.44L12,48.43l-.57.44ZM12.08,48l.56-.42-.56-.74-.56.42Zm.72,1,.56-.42-.56-.74-.56.42ZM14,48.16l-1.36-1.79,1-.75L15,47.4Zm-.75-3.34L13,44.73a3.28,3.28,0,0,0,.36-.79l.24.07A3.14,3.14,0,0,1,13.23,44.82Zm.83,2.94.52-.38-1-1.36L13,46.4Zm1.53-.34L13.78,45l.23-.18,1.82,2.39Z"/><path class="cls-2" d="M16.21,53.92l-.25.2c-.24-.2-.47-.39-.68-.58a10.53,10.53,0,0,1-.93-.9,3.26,3.26,0,0,1-.43-.66,1.73,1.73,0,0,1-.17-.82,4.86,4.86,0,0,1-1.08.16l0-.31a3.59,3.59,0,0,0,1.06-.16,4.28,4.28,0,0,1,.43-1.2l.25.07a3.28,3.28,0,0,0-.38,1,4.28,4.28,0,0,0,1.25-.95l-.71-.63.19-.21a15.21,15.21,0,0,0,1.78-.58l-.79-.7.2-.22,1,.89-.2.23a17.56,17.56,0,0,1-1.73.58l.67.6A5.74,5.74,0,0,1,14,51a1.83,1.83,0,0,0,.11.71,2,2,0,0,0,.35.59,10.85,10.85,0,0,0,1,.95C15.73,53.52,16,53.73,16.21,53.92Zm2.14-2.45-.28-.25-.57.64-.87-.78-.34.37,1,.85-.19.22-1-.85-.33.37,1.09,1-.2.22-1.08-1-.4.44L15,52.53l.39-.44-1-.85.19-.23,1,.85.33-.36-.81-.72.19-.22.81.72.33-.37-.73-.66.2-.22.73.65.37-.41-.95-.85.2-.23.95.85.35-.39L16.82,49l.19-.22.74.65L18,49.1l.2.17-.3.33.88.78-.55.61.28.25Zm-.84,0,.37-.41-.69-.61-.37.41Zm.57-.64.34-.38-.69-.61-.33.38Z"/><path class="cls-2" d="M20.88,56.63a.6.6,0,0,1-.25.25c-.09,0-.24,0-.45-.11l-.24-.15.08-.31.35.22a.2.2,0,0,0,.31-.08L21.5,55l-2.92-1.66L17.5,55.25l-.23-.13L18.5,53l3.38,1.92Zm-.7-.57-1.84-1,.58-1,1.84,1Zm-.1-.39.29-.51L19,54.39l-.29.51Zm1.56-1.4-2.51-1.43.56-1,2.51,1.43Zm1.38-1-3.77-2.14.14-.25,1.78,1a2,2,0,0,0,.1-.49l.28,0a3.41,3.41,0,0,1-.14.59l1.76,1Zm-1.48.57.27-.47-2-1.15-.27.47Z"/><path class="cls-2" d="M26.84,57.59,26,57.32l-.27.88c-.07.23-.17.36-.28.4a.92.92,0,0,1-.54-.06,2.6,2.6,0,0,1-.36-.13l0-.33.45.15.33.09c.06,0,.11,0,.14-.15l.29-.93-3.14-1,.09-.29,3.14,1,.16-.53-2.68-.82.08-.28,1.58.48.16-.51-1.81-.56.08-.28,1.82.56.11-.39.26.08-.12.38,1.78.55-.08.28-1.79-.55-.16.52,1.57.48-.08.28-.46-.14L26,57l.88.27ZM25.5,54.13l-1.37-.42a4,4,0,0,1-.68.45l-.14-.27a3.09,3.09,0,0,0,1.21-1l.23.18c-.11.13-.24.26-.37.39l1.21.37Zm-1.35,3.69-.27.13a4.44,4.44,0,0,0-.49-1l.26-.14A4.9,4.9,0,0,1,24.15,57.82Zm.57-3.26-.28,0a2.7,2.7,0,0,0-.19-.54l.26,0A1.68,1.68,0,0,1,24.72,54.56Zm2.91.22-1.56-.48a3.25,3.25,0,0,1-.41.26l-.15-.23a2.78,2.78,0,0,0,.92-.81l.21.17a3.46,3.46,0,0,1-.33.38l1.4.43Zm-.8.42-.29.06a2.06,2.06,0,0,0-.2-.55l.28-.07A2,2,0,0,1,26.83,55.2Z"/><path class="cls-2" d="M28.94,57.33a12,12,0,0,1-1.09,1.92L27.64,59a9.86,9.86,0,0,0,1.1-1.9Zm.09-.95-.22.22a3.83,3.83,0,0,0-.77-.85l.18-.23A5,5,0,0,1,29,56.38Zm.22-1.47-.2.2a4.74,4.74,0,0,0-.77-.85l.19-.22A4.52,4.52,0,0,1,29.25,54.91Zm3.12,2.21L30.75,57a10.31,10.31,0,0,1-1.3,1.94,15.2,15.2,0,0,0,2.1-.22,9.14,9.14,0,0,0-.47-1l.24-.13a11.8,11.8,0,0,1,.82,1.92l-.25.17a4.26,4.26,0,0,0-.23-.69,23.05,23.05,0,0,1-2.58.25L29,58.89a1.79,1.79,0,0,0,.66-.66,11.89,11.89,0,0,0,.78-1.29l-1.26-.11,0-.3,1.47.13.11-1.18-1.24-.11,0-.3,1.24.12.08-.93.26,0-.08.93,1.22.11,0,.3-1.22-.11L31,56.69l1.44.13Z"/><path class="cls-2" d="M34.09,56.16a2.53,2.53,0,0,1,.57,1.34.72.72,0,0,1-.08.45c-.07.13-.23.2-.49.22l-.19,0-.13-.31.28,0a.49.49,0,0,0,.3-.1.29.29,0,0,0,0-.23,2.28,2.28,0,0,0-.58-1.29c.08-.41.16-.91.25-1.49l-.76.07.47,4.78-.26,0L33,54.54l1.3-.13,0,.31C34.27,55.2,34.19,55.68,34.09,56.16Zm3.31-.37-.26,0-.09-.89-2.17.22L35,56l-.27,0-.12-1.2,1.19-.12a3,3,0,0,0-.23-.53l.27-.11a4.45,4.45,0,0,1,.25.62l1.22-.12ZM37.73,58a3.53,3.53,0,0,1,0,.72.57.57,0,0,1-.16.34,1,1,0,0,1-.48.13c-.29,0-.45-.08-.47-.33l-.18-1.84-.59.06a3,3,0,0,1-.2,1.51,2.33,2.33,0,0,1-.82.87l-.22-.24a1.93,1.93,0,0,0,.8-.8,2.28,2.28,0,0,0,.17-1.31l-.76.07,0-.29,2.71-.27,0,.3-.82.08.17,1.77a.12.12,0,0,0,0,.08s.11,0,.23,0a.66.66,0,0,0,.23,0,.3.3,0,0,0,.08-.08,1.45,1.45,0,0,0,0-.3,5,5,0,0,0,0-.52ZM36.94,56l-1.75.17,0-.3,1.74-.17Z"/><path class="cls-2" d="M42.35,54.39l-.07.32a8.11,8.11,0,0,1-.94-.23l.08.27-1.09.35.26.81,1.75-.56.1.29-1.76.56.51,1.6,1.86-.59.09.29-3.92,1.25-.09-.29,1.8-.58-.5-1.6-1.72.54-.09-.29L40.33,56l-.25-.81-1,.33-.1-.3a5.68,5.68,0,0,1-.65.74L38,55.74a5.09,5.09,0,0,0,1.56-2.48l.3,0,0,.12A5.28,5.28,0,0,0,42.35,54.39Zm-1.07.06a5.27,5.27,0,0,1-1.51-.77A6.05,6.05,0,0,1,39,55.19Zm-1,3.24-.2.19a5.29,5.29,0,0,0-.79-.79l.19-.2A5,5,0,0,1,40.27,57.69Zm1.91-1.5a5.56,5.56,0,0,1-.24,1.14l-.28-.09a4.9,4.9,0,0,0,.26-1.12Z"/><path class="cls-2" d="M44.92,53.7l-1.3.76L45,56.8l-.24.15-2.55-4.38,1.55-.9Zm-.91-1-.36-.6-1.06.62.35.6Zm.51.89-.36-.63-1.07.62.37.63Zm3.5.92a.54.54,0,0,1,.09.32A.34.34,0,0,1,48,55a1.68,1.68,0,0,1-.34.23l-.33.19-.27-.24a3.36,3.36,0,0,0,.38-.19,1.19,1.19,0,0,0,.33-.24.12.12,0,0,0,0-.14l-1.14-2-1.3.76-1.18-2,1.53-.89Zm-2-3-.36-.61-1.07.63.35.61Zm.51.89-.36-.63-1.08.63.37.62Z"/><path class="cls-2" d="M47.38,49A5.5,5.5,0,0,1,47.81,52l-.3-.06a5,5,0,0,0-.39-2.77Zm3.48-.19,0,.33a4.44,4.44,0,0,1-2.53-.7l-.29.26-.21-.24.43-.39A3.91,3.91,0,0,0,50.86,48.83Zm-.67.5c.42.48.78.94,1.08,1.35a4.54,4.54,0,0,1,.51.82.6.6,0,0,1,0,.35,1.26,1.26,0,0,1-.33.41l-.32.26-.26-.2a3.68,3.68,0,0,0,.41-.33.85.85,0,0,0,.2-.22.39.39,0,0,0,0-.15,1.57,1.57,0,0,0-.18-.37c-.12-.19-.28-.41-.47-.67s-.42-.52-.68-.82l-1,.89a3.6,3.6,0,0,1,.59,3.2l-.29-.07A3.3,3.3,0,0,0,49,50.85l-.73.65L48,51.26Z"/><path class="cls-2" d="M51.57,47.23a2.41,2.41,0,0,1,1.36.49.71.71,0,0,1,.28.36.57.57,0,0,1-.16.51.64.64,0,0,1-.13.15l-.31-.11.18-.22c.09-.13.14-.22.13-.29a.33.33,0,0,0-.13-.19,2.42,2.42,0,0,0-1.35-.45c-.25-.34-.56-.73-.93-1.2l-.46.61,3.83,2.9-.15.21-4.08-3.09.79-1,.24.18C51,46.44,51.28,46.83,51.57,47.23Zm2-2.69-.16.22-.71-.54L51.35,46l.71.54-.16.22-1-.73.72-1a4.79,4.79,0,0,0-.55-.19l.1-.27c.2.06.41.14.63.23l.74-1Zm-.19.45-1.07,1.4-.23-.18,1.06-1.4Zm2.06.84a3,3,0,0,1,.53.48.58.58,0,0,1,.15.34,1.09,1.09,0,0,1-.24.45c-.17.23-.36.27-.56.12L53.82,46.1l-.35.47a3.16,3.16,0,0,1,1,1.18,2.45,2.45,0,0,1,.08,1.19h-.33a1.87,1.87,0,0,0,0-1.13,2.33,2.33,0,0,0-.85-1l-.46.61-.24-.18,1.65-2.17.24.18-.5.66L55.4,47a.17.17,0,0,0,.1,0s.09-.05.17-.15a.67.67,0,0,0,.12-.2.49.49,0,0,0,0-.12,1,1,0,0,0-.2-.21,4.91,4.91,0,0,0-.41-.33Z"/><path class="cls-5" d="M6,37.26,7.05,37l-.18-.84.6-.13.18.85,1.88-.4.1.47-4.16.87-.29-1.36.6-.13Z"/><path class="cls-5" d="M5,35.71l0-.48L7.35,35c.91-.1,1.34-.34,1.3-.72s-.52-.51-1.43-.4l-2.36.27-.06-.47,2.53-.29c1.2-.14,1.85.14,1.93.82s-.49,1.11-1.69,1.24Z"/><path class="cls-5" d="M5.74,30.87a.71.71,0,0,0-.44.62.77.77,0,0,0,.49.63,2.2,2.2,0,0,0,1.1.24A2.35,2.35,0,0,0,8,32.09a.66.66,0,0,0,0-1.26h.87a1.07,1.07,0,0,1,.27.63,1.16,1.16,0,0,1-.64,1,2.93,2.93,0,0,1-1.55.42,3.07,3.07,0,0,1-1.61-.37,1.16,1.16,0,0,1-.68-1,1.06,1.06,0,0,1,.24-.63Z"/><path class="cls-5" d="M6.63,28.5l-1.72-.16,0-.46,4.23.38,0,.47-1.95-.18-.1,1.15L9,29.88l0,.47L4.76,30l0-.48,1.72.16Z"/><path class="cls-5" d="M9.35,27.29l-.08.47-4.19-.7.08-.47Z"/><path class="cls-5" d="M6,25.52l1.07.25.21-.91.6.14-.21.91,1.28.3.22-.95.59.14-.32,1.4-4.15-.95.33-1.41.59.14Z"/><path class="cls-5" d="M5.74,23.53l.11-.34,3.54-.46-2.92-1,.15-.45,4.11,1.4-.12.34-3.53.46,2.94,1-.16.45Z"/><path class="cls-5" d="M10.13,18.09l-1.51-.85.23-.41,3.7,2.1-.23.4-1.7-1-.57,1,1.7,1-.23.41-3.7-2.09.23-.41,1.51.85Z"/><path class="cls-5" d="M13.1,18.12l-.26.39L9.31,16.15l.26-.39Z"/><path class="cls-5" d="M13.14,14.35l.08.06a3.34,3.34,0,0,1,1.07,1.29,1,1,0,0,1-.09,1.12,1.08,1.08,0,0,1-1.09.34,3.05,3.05,0,0,1-1.47-.68,3,3,0,0,1-1-1.3,1.14,1.14,0,0,1,.1-1.17,1.2,1.2,0,0,1,1.48-.23v.54c-.47-.19-.81-.16-1,.09a.72.72,0,0,0,0,.78,2.52,2.52,0,0,0,.75.91,2.31,2.31,0,0,0,1,.51.71.71,0,0,0,.75-.2.57.57,0,0,0,0-.62,1.66,1.66,0,0,0-.53-.67l-.42.52-.44-.35Z"/><path class="cls-5" d="M14.54,12.54l-1.22-1.22.33-.33,3,3-.33.33L15,12.94l-.82.82,1.38,1.38-.34.34-3-3,.34-.34,1.22,1.23Z"/><path class="cls-5" d="M18,8.92a.7.7,0,0,0-.75,0,.75.75,0,0,0-.25.76,2.39,2.39,0,0,0,1.24,1.77.73.73,0,0,0,.79,0,.71.71,0,0,0,.25-.72l.5.72a1.09,1.09,0,0,1-.37.57,1.13,1.13,0,0,1-1.17,0A3,3,0,0,1,17,11a3,3,0,0,1-.59-1.54,1.15,1.15,0,0,1,.42-1.11,1,1,0,0,1,.65-.16Z"/><path class="cls-5" d="M19.07,9.5a3.08,3.08,0,0,1-.41-1.58,1.14,1.14,0,0,1,.55-1A1.15,1.15,0,0,1,20.4,7a3.14,3.14,0,0,1,1.1,1.2,3.07,3.07,0,0,1,.41,1.57,1.08,1.08,0,0,1-1.74,1A3.14,3.14,0,0,1,19.07,9.5Zm.41-.27a2.19,2.19,0,0,0,.76.83.73.73,0,0,0,.78.11.72.72,0,0,0,.35-.7,2.32,2.32,0,0,0-.32-1.1,2.06,2.06,0,0,0-.72-.81.72.72,0,0,0-.78-.07.72.72,0,0,0-.36.69A2.32,2.32,0,0,0,19.48,9.23Z"/><path class="cls-5" d="M21.25,6l.44-.18L22.58,8c.34.85.69,1.2,1,1.06s.35-.63,0-1.48l-.89-2.21.44-.17.95,2.35c.45,1.13.36,1.82-.28,2.08s-1.19-.18-1.65-1.3Z"/><path class="cls-5" d="M27,8.46l-.56.16L25.16,7l.52,1.81L25.23,9,24,4.9l.71-.21c.6-.17,1,.15,1.26,1a1.84,1.84,0,0,1,.07.82.65.65,0,0,1-.33.48ZM25.07,6.75l.14,0c.37-.11.49-.41.35-.9s-.39-.65-.76-.54l-.14,0Z"/><path class="cls-5" d="M28.13,8.24l-.42.08L27,4.75l-.61.13-.12-.6L27.89,4l.12.6-.61.12Z"/><path class="cls-5" d="M31.89,3.56l.59,0-1,2,1.23,2.24-.63,0L31,5.75l.09,2.1-.47,0-.2-4.24.47,0,.1,2Z"/><path class="cls-5" d="M33.49,7.82H33l.11-4.25h.47Z"/><path class="cls-5" d="M34.43,3.48l.36,0L36,6.86l.34-3.07.46,0-.46,4.31-.35,0L34.78,4.77l-.34,3.09L34,7.81Z"/><path class="cls-5" d="M39.64,5.87,38.28,8.54l-.11,0,0-3-1,2.72-.46-.11L38.25,4l.34.08,0,3L40,4.41l.35.08L39.7,8.83l-.46-.12Z"/><path class="cls-5" d="M41.69,5.7l-.37,1,.88.32L42,7.63l-.88-.32-.45,1.24.92.33-.21.58L40,9l1.44-4,1.36.49L42.6,6Z"/><path class="cls-5" d="M43.71,5.69l.32.15,0,3.57,1.35-2.78.42.2L44,10.74l-.32-.15,0-3.57-1.35,2.8-.43-.2Z"/><path class="cls-5" d="M48.23,8.3l.56.39c.45.33.45.81,0,1.43a1.16,1.16,0,0,1-.68.53.53.53,0,0,1,.08.49,1.76,1.76,0,0,1-.31.65,1.4,1.4,0,0,1-.73.59.8.8,0,0,1-.7-.13l-.69-.5Zm-1.75,3.26.21.15c.29.21.58.13.85-.25a.53.53,0,0,0-.1-.84l-.19-.14Zm1.07-1.5.17.12q.33.24.69-.27c.25-.35.27-.61.06-.76L48.3,9Z"/><path class="cls-5" d="M48.9,14.24l-.44-.38.63-1.95-1.24,1.43L47.5,13l2.78-3.22.56.49c.47.41.42.93-.14,1.58a1.73,1.73,0,0,1-.65.5.6.6,0,0,1-.57,0Zm.38-2.55.11.09c.3.25.61.19.94-.2s.34-.68,0-.93l-.11-.1Z"/><path class="cls-5" d="M50.17,14.17l-.87.47L49,14.28l3.91-2.21.29.31-2.44,3.77-.35-.37.54-.83Zm2.07-1.25-1.58.95.57.6Z"/><path class="cls-5" d="M54.4,13.76l.21.28L53,17.22l2.48-1.84.28.38-3.47,2.59-.22-.28,1.62-3.18-2.5,1.85-.28-.38Z"/><path class="cls-5" d="M56.35,18.71a.72.72,0,0,0,.08-.75.76.76,0,0,0-.74-.31,2.26,2.26,0,0,0-1.08.33,2.31,2.31,0,0,0-.79.76.75.75,0,0,0-.08.79.72.72,0,0,0,.69.31l-.75.44a1.09,1.09,0,0,1-.54-.42,1.16,1.16,0,0,1,.07-1.17,3,3,0,0,1,1.14-1.13,3.08,3.08,0,0,1,1.59-.46,1.14,1.14,0,0,1,1.07.51,1,1,0,0,1,.1.66Z"/><path class="cls-5" d="M56.73,21.17l1.57-.71.2.42-3.87,1.76-.19-.43,1.77-.8-.47-1.06L54,21.16l-.2-.43L57.63,19l.2.43-1.58.72Z"/><path class="cls-5" d="M58.93,25.66a.7.7,0,0,0,.28-.7c-.06-.25-.27-.42-.63-.5a2.24,2.24,0,0,0-1.12,0,2.17,2.17,0,0,0-1,.52.74.74,0,0,0-.3.73.72.72,0,0,0,.59.48l-.85.22a1,1,0,0,1,0-1.65,2.94,2.94,0,0,1,1.4-.77A3.09,3.09,0,0,1,59,24a1.14,1.14,0,0,1,.89.79.93.93,0,0,1-.08.66Z"/><path class="cls-5" d="M58,26.48a3.17,3.17,0,0,1,1.62.17,1.15,1.15,0,0,1,.79.89,1.14,1.14,0,0,1-.51,1.08,3.11,3.11,0,0,1-1.52.6,3,3,0,0,1-1.61-.16,1.08,1.08,0,0,1-.28-2A3,3,0,0,1,58,26.48Zm.11.48a2.34,2.34,0,0,0-1.05.41.76.76,0,0,0-.38.7.75.75,0,0,0,.54.58,2.34,2.34,0,0,0,1.14.08,2.14,2.14,0,0,0,1-.39.71.71,0,0,0,.34-.7.73.73,0,0,0-.52-.58A2.22,2.22,0,0,0,58.09,27Z"/><path class="cls-5" d="M60.52,29.79v.47l-2.38.06c-.91,0-1.36.22-1.36.59s.47.56,1.39.54l2.38-.05v.47L58,31.92c-1.22,0-1.83-.3-1.85-1s.59-1.05,1.8-1.07Z"/><path class="cls-5" d="M56.16,34.29l0-.58,1.95-.65-1.89-.14,0-.48,4.23.32-.05.74q-.07.93-1.35.84a1.8,1.8,0,0,1-.79-.23.61.61,0,0,1-.34-.47Zm2.28-1.21v.14c0,.39.21.6.72.64s.74-.13.77-.52v-.15Z"/><path class="cls-5" d="M56,35.41,56,35l3.6.57.09-.61.6.1-.26,1.65-.6-.1.1-.61Z"/></svg>