<svg id="圖層_1" data-name="圖層 1" xmlns="http://www.w3.org/2000/svg" xmlns:xlink="http://www.w3.org/1999/xlink" viewBox="0 0 270.84 64"><defs><style>.cls-1{fill:#333;}.cls-2{fill:#fff;}.cls-3{fill:url(#linear-gradient);}.cls-4{fill:#005bab;}.cls-5{fill:#b7a246;}</style><linearGradient id="linear-gradient" x1="32.65" y1="60.77" x2="32.65" y2="37.52" gradientUnits="userSpaceOnUse"><stop offset="0.69" stop-color="#b7a246"/><stop offset="1" stop-color="#fff"/></linearGradient></defs><path class="cls-1" d="M91.73,15.18v1.46H82.3v1h7.58V19H72.63V17.67H80v-1H70.8V15.18H80V13.83H82.3v1.35ZM82.3,33.8h9.38v1.56H70.85V33.8H80v-1H73.18V31.36H80v-1c-4.39.12-5.09.19-5.57.33a12.07,12.07,0,0,0-.5-1.51,6.35,6.35,0,0,0,1.3-.31,13.8,13.8,0,0,0,2-1H73.56v-1.3h15.2V28H86.48a25.34,25.34,0,0,1,3.07,2.13L88.2,31.19a14.12,14.12,0,0,0-1.17-1l-4.73.12v1h7.25v1.39H82.3ZM71.16,24.32H91.35v3.46H89.24v-2H73.18v2h-2ZM89,19.93v3.53H73.61V19.93Zm-2.19,1.18H75.67v1.15H86.81ZM79.8,28a18.73,18.73,0,0,1-2.13,1.17L85.23,29c-.53-.33-1.08-.64-1.59-.91l.19-.14Z"/><path class="cls-1" d="M97.54,24.49A15,15,0,0,0,94.11,22l1.22-1.54a15,15,0,0,1,3.5,2.3Zm-3,10a79.8,79.8,0,0,0,3-7.61L99.34,28c-.77,2.47-1.8,5.35-2.76,7.58ZM98,18.32a15.3,15.3,0,0,0-3.34-2.66l1.3-1.47a15.51,15.51,0,0,1,3.4,2.45Zm2.8,4.54a11.76,11.76,0,0,1-1,3.24,5.4,5.4,0,0,0-1-.7,8.43,8.43,0,0,0,.87-2.83Zm3.1-1a4.67,4.67,0,0,0-.24-.72c-3.14.41-3.74.53-4.08.7a7.09,7.09,0,0,0-.48-1,2.17,2.17,0,0,0,1.13-.79,14.6,14.6,0,0,0,1.34-1.68,9.6,9.6,0,0,0-2.06.31,3.86,3.86,0,0,0-.48-1,1.35,1.35,0,0,0,.79-.62,12.62,12.62,0,0,0,1.42-3l1.32.46a14.22,14.22,0,0,1-1.59,2.73l1.39-.07a9.71,9.71,0,0,0,.6-1.08l1.28.53a22.73,22.73,0,0,1-2.76,3.67l1.75-.22c-.12-.24-.27-.48-.39-.69l1-.36a11.06,11.06,0,0,1,1.11,2.42ZM115.23,31a4.35,4.35,0,0,1-.15.84c-.4,2-.88,3.05-1.51,3.53a3.11,3.11,0,0,1-2,.55c-.72,0-2.18,0-3.67-.07a3.91,3.91,0,0,0-.6-1.7c1.46.14,3,.16,3.62.16a1.8,1.8,0,0,0,1-.16,3.14,3.14,0,0,0,.87-1.71H100.47a39,39,0,0,0,1-3.79H112v-1H100.73V26.24h13.39V30H103.27L103,31Zm-13.59-5.28a11.7,11.7,0,0,0-.48-2.88l1.06-.26a11.41,11.41,0,0,1,.55,2.76Zm2.09-.6a12.35,12.35,0,0,0-.74-2.61l1-.34a10.2,10.2,0,0,1,.79,2.5Zm6.53-7.61h-5.71V16.23H107a13.9,13.9,0,0,0-.84-1.82l1.46-.34a9.39,9.39,0,0,1,1,1.88l-1.11.28h2.81ZM105.19,22h4.54v3.53h-4.54Zm4.52-2.57h-4.47V18.25h4.47Zm-4.47.65h4.47v1.12h-4.47Zm1.35,4.34h1.7V23.05h-1.7Zm5.33-1.61a12.61,12.61,0,0,1-1,3.24,7.23,7.23,0,0,0-1-.72,8.9,8.9,0,0,0,.86-2.8Zm3.14-.81c-.07-.22-.17-.51-.29-.82a22.52,22.52,0,0,0-4.1.7c-.07-.19-.32-.75-.46-1a2.11,2.11,0,0,0,1.13-.81,17,17,0,0,0,1.32-1.66,7.93,7.93,0,0,0-2.06.34,5.74,5.74,0,0,0-.46-1c.26,0,.5-.27.77-.63a11.58,11.58,0,0,0,1.44-3l1.29.45a13.54,13.54,0,0,1-1.53,2.71l1.37-.07c.19-.36.4-.72.57-1.08l1.27.55a19.88,19.88,0,0,1-2.76,3.68l1.76-.22-.39-.7,1-.36a12.37,12.37,0,0,1,1.2,2.53Zm-2.28,3.93a13.79,13.79,0,0,0-.5-3.09l1-.27a13.82,13.82,0,0,1,.55,3Zm2.3-3.79a11.12,11.12,0,0,1,1,3l-1,.45a12.44,12.44,0,0,0-.91-3.07Z"/><path class="cls-1" d="M124,18.23H118.8V16.16H124V13.88h2.21v2.28h2.76v2.07h-2.76V20.7H124Zm-3.07,3.36h16.85v14.3h-2.23v-1H123v1h-2.14Zm2.14,2v3.51h5V23.6Zm5,9.24V29.12h-5v3.72Zm11.71-16.68v2.07h-5.3V20.7h-2.24V18.23h-2.57V16.16h2.57V13.88h2.24v2.28Zm-4.27,7.44h-5.28v3.51h5.28Zm0,9.24V29.12h-5.28v3.72Z"/><path class="cls-1" d="M151.18,30.47a16.68,16.68,0,0,1-7.59,4.7,9.47,9.47,0,0,0-1.48-1.85,16.1,16.1,0,0,0,7.24-3.55Zm3.17-1.25v6.7h-2.26v-6.7h-9.41v-2h9.41V25.5h2.26v1.75h9.53v2ZM149.4,17h-6.55V15.06h20.83V17h-6.89v1.83h5.43v6.26h-18V18.83h5.16Zm-3.07,6.24h3.07V20.67h-3.07ZM154.71,17h-3.22v1.83h3.22Zm-3.22,6.24h3.22V20.67h-3.22Zm5.64,6.39a48.07,48.07,0,0,1,7,4.17l-1.68,1.49a44.9,44.9,0,0,0-6.89-4.37Zm-.34-9v2.57H160V20.67Z"/><path class="cls-1" d="M173.74,26.65l.53,2c-2.52,1.2-5.21,2.45-7.3,3.38l-.89-2.23c.87-.31,2-.74,3.19-1.25V21.61h-2.73V19.5h2.73V14.17h2.09V19.5h2.43v2.11h-2.43v6.05Zm10.92,6.75c1.32,0,1.56-.6,1.75-3.22a6.43,6.43,0,0,0,2,.82c-.31,3.31-1,4.39-3.58,4.39h-5.52c-2.95,0-3.79-.75-3.79-3.63V24.83l-1.66.72-.84-2,2.5-1.06V16.14h2.11v5.47l2.69-1.13v-6.6h2.09v5.71l3.22-1.36,1.65.55-.09.36A79.39,79.39,0,0,1,186,29.6l-1.82-.5a73.4,73.4,0,0,0,.74-8.33l-2.54,1.11v8.61h-2.09V22.76l-2.69,1.16v7.87c0,1.34.27,1.61,1.8,1.61Z"/><path class="cls-1" d="M199.59,20c-.08,1.12-.15,2.28-.29,3.41h10.2a6.53,6.53,0,0,1-.1,1c-.45,6.63-.91,9.27-1.87,10.25a3.26,3.26,0,0,1-2.28.94,33.36,33.36,0,0,1-4.05-.05,4.41,4.41,0,0,0-.8-2.18c1.71.14,3.34.16,4,.16a1.68,1.68,0,0,0,1.15-.28c.68-.56,1.11-2.79,1.49-7.68H199c-.76,4.12-2.52,8-7,10.39a6.84,6.84,0,0,0-1.63-1.83c5.95-3,6.51-8.85,6.75-14.13h-6.29V17.84H201.1a23.79,23.79,0,0,0-1.51-3.36l2.18-.81a24.16,24.16,0,0,1,1.71,3.48l-1.61.69h9.86V20Z"/><path class="cls-1" d="M218.71,24.76a22.32,22.32,0,0,0-4.41-2.6l1.17-1.68a20.33,20.33,0,0,1,4.47,2.43Zm-3.62,9.33a65.87,65.87,0,0,0,4.54-7.61L221.26,28c-1.25,2.5-2.83,5.38-4.25,7.63Zm1.78-20a24.27,24.27,0,0,1,4.51,2.45l-1.3,1.85a20.29,20.29,0,0,0-4.46-2.67Zm17,21.75a11.81,11.81,0,0,0-1-2.26c-8.47,1-9.55,1.23-10.27,1.56a19.26,19.26,0,0,0-.77-2.23c.51-.12,1-.67,1.54-1.56a34,34,0,0,0,3-5.54h-4.94V23.72h5.93V19.83h-4.93V17.72h4.93V13.86h2.28v3.86h5.11v2.11h-5.11v3.89h6v2.12H229a46.21,46.21,0,0,1-3.82,6.64l6.67-.72c-.57-1-1.25-1.92-1.87-2.8l1.8-.87a28.58,28.58,0,0,1,4.1,6.77Z"/><path class="cls-1" d="M246.29,15.59c-.67,2-1.51,4.32-2.23,6.16A7.84,7.84,0,0,1,246,26.87a3.54,3.54,0,0,1-1,2.93,2.94,2.94,0,0,1-1.3.48c-.43,0-1,0-1.58,0a4.83,4.83,0,0,0-.51-1.94,10.45,10.45,0,0,0,1.23,0,1.22,1.22,0,0,0,.69-.19,2,2,0,0,0,.49-1.56,6.92,6.92,0,0,0-2-4.63c.6-1.58,1.24-3.6,1.68-5.19h-2.62v19h-2v-21h5.35l.32-.09ZM258,33.68c.45,0,.55-.38.6-2.95a4.89,4.89,0,0,0,1.87.82c-.19,3.21-.7,4-2.23,4h-1.95C254.4,35.58,254,35,254,33V27.3h-2.09c-.38,4.2-1.53,7-6.07,8.59a6,6,0,0,0-1.27-1.77c4-1.28,4.87-3.44,5.18-6.82H246.6v-2h13.52v2h-4v5.64c0,.65.08.74.53.74Zm-9.53-12.53h-1.9V16.74h5.83a18.89,18.89,0,0,0-1.12-2.47l2.06-.6a16.22,16.22,0,0,1,1.46,3.07H260v4.41h-1.9V23h-9.67Zm.16-2.47V21h9.27V18.68Z"/><path class="cls-1" d="M71.8,45v-.78h4.33V45H74.37v7.12h-.81V45Z"/><path class="cls-1" d="M84.67,46.23v5.84h-.74v-1a3.27,3.27,0,0,1-1.06.86,2.78,2.78,0,0,1-1.29.29,2.86,2.86,0,0,1-2.12-.9,3,3,0,0,1-.88-2.18A2.94,2.94,0,0,1,79.47,47a2.88,2.88,0,0,1,2.13-.9,2.72,2.72,0,0,1,1.31.31,3,3,0,0,1,1,.91V46.23Zm-3,.57a2.28,2.28,0,0,0-2,1.18,2.37,2.37,0,0,0-.31,1.18,2.48,2.48,0,0,0,1.16,2.06,2.23,2.23,0,0,0,1.15.31,2.33,2.33,0,0,0,1.17-.31,2.21,2.21,0,0,0,.85-.84,2.43,2.43,0,0,0,.3-1.2,2.28,2.28,0,0,0-.67-1.69A2.18,2.18,0,0,0,81.67,46.8Z"/><path class="cls-1" d="M88.33,43.82a.58.58,0,0,1,.44.19.59.59,0,0,1,.18.44.58.58,0,0,1-.18.43.6.6,0,0,1-.44.18.62.62,0,0,1-.44-.18.58.58,0,0,1-.18-.43.63.63,0,0,1,.62-.63ZM88,46.23h.76v5.84H88Z"/><path class="cls-1" d="M91.19,46.23H92l1.79,4.24,1.86-4.24h.14l1.88,4.24,1.82-4.24h.79L97.7,52.07h-.14l-1.87-4.18-1.87,4.18h-.14Z"/><path class="cls-1" d="M108.64,46.23v5.84h-.74v-1a3.17,3.17,0,0,1-1.06.86,2.77,2.77,0,0,1-1.28.29,2.84,2.84,0,0,1-2.12-.9,3,3,0,0,1-.88-2.18,3,3,0,0,1,3-3.06,2.69,2.69,0,0,1,1.3.31,2.92,2.92,0,0,1,1,.91V46.23Zm-3,.57a2.28,2.28,0,0,0-2,1.18,2.48,2.48,0,0,0-.31,1.18,2.41,2.41,0,0,0,.32,1.18,2.25,2.25,0,0,0,.85.88,2.2,2.2,0,0,0,1.14.31,2.33,2.33,0,0,0,1.17-.31,2.21,2.21,0,0,0,.85-.84,2.43,2.43,0,0,0,.3-1.2,2.28,2.28,0,0,0-.67-1.69A2.18,2.18,0,0,0,105.64,46.8Z"/><path class="cls-1" d="M112,46.23h.75v1.05a3.22,3.22,0,0,1,1-.9,2.45,2.45,0,0,1,1.19-.3,2.11,2.11,0,0,1,1.17.33,2,2,0,0,1,.75.9,4.79,4.79,0,0,1,.24,1.76v3h-.75V49.29a6.34,6.34,0,0,0-.09-1.35,1.45,1.45,0,0,0-.5-.88,1.55,1.55,0,0,0-1-.29,1.86,1.86,0,0,0-1.22.45,2.1,2.1,0,0,0-.71,1.12,7.84,7.84,0,0,0-.11,1.59v2.14H112Z"/><path class="cls-1" d="M125,52.07l1.13-7.9h.13l3.21,6.49,3.18-6.49h.13l1.13,7.9h-.77l-.78-5.65-2.79,5.65h-.21l-2.82-5.69-.78,5.69Z"/><path class="cls-1" d="M137.28,43.82a.58.58,0,0,1,.44.19.59.59,0,0,1,.18.44.58.58,0,0,1-.18.43.6.6,0,0,1-.44.18.62.62,0,0,1-.44-.18.58.58,0,0,1-.18-.43.63.63,0,0,1,.62-.63Zm-.38,2.41h.76v5.84h-.76Z"/><path class="cls-1" d="M146.75,46.23v5.84H146v-1a3.27,3.27,0,0,1-1.06.86,3,3,0,0,1-3.41-.61,3,3,0,0,1-.88-2.18,2.94,2.94,0,0,1,.89-2.16,2.88,2.88,0,0,1,2.13-.9,2.69,2.69,0,0,1,1.3.31,3,3,0,0,1,1,.91V46.23Zm-3,.57a2.25,2.25,0,0,0-2,1.18,2.38,2.38,0,0,0-.32,1.18,2.41,2.41,0,0,0,.32,1.18,2.32,2.32,0,0,0,.85.88,2.23,2.23,0,0,0,1.15.31,2.33,2.33,0,0,0,1.17-.31,2.28,2.28,0,0,0,.85-.84,2.42,2.42,0,0,0,.29-1.2,2.31,2.31,0,0,0-.66-1.69A2.22,2.22,0,0,0,143.74,46.8Z"/><path class="cls-1" d="M152.91,46.08a2.9,2.9,0,0,1,2.24,1,3,3,0,0,1,.81,2.11,3.05,3.05,0,0,1-.86,2.14,3.1,3.1,0,0,1-4.39,0,3.14,3.14,0,0,1,0-4.25A2.9,2.9,0,0,1,152.91,46.08Zm0,.74a2.16,2.16,0,0,0-1.61.69,2.31,2.31,0,0,0-.68,1.67,2.35,2.35,0,0,0,.31,1.19,2.16,2.16,0,0,0,.83.84,2.35,2.35,0,0,0,2.3,0,2.31,2.31,0,0,0,.83-.84,2.45,2.45,0,0,0,.3-1.19,2.3,2.3,0,0,0-.67-1.67A2.18,2.18,0,0,0,152.91,46.82Z"/><path class="cls-1" d="M158.94,44h.75v8.1h-.75Z"/><path class="cls-1" d="M163.22,43.82a.58.58,0,0,1,.44.19.59.59,0,0,1,.18.44.58.58,0,0,1-.18.43.6.6,0,0,1-.44.18.58.58,0,0,1-.43-.18.59.59,0,0,1,0-.87A.56.56,0,0,1,163.22,43.82Zm-.37,2.41h.75v5.84h-.75Z"/><path class="cls-1" d="M171.74,52.07v-7.9h1.64a8.29,8.29,0,0,1,2.57.29,3.43,3.43,0,0,1,1.8,1.39,4.29,4.29,0,0,1,.64,2.37,4.18,4.18,0,0,1-.51,2.09,3.21,3.21,0,0,1-1.33,1.33,5,5,0,0,1-2.3.43Zm.76-.74h.91a8.26,8.26,0,0,0,2.27-.21,2.59,2.59,0,0,0,1.4-1,3.21,3.21,0,0,0,.51-1.84,3.37,3.37,0,0,0-.55-2,2.78,2.78,0,0,0-1.54-1.11,9.41,9.41,0,0,0-2.44-.22h-.56Z"/><path class="cls-1" d="M181.77,43.82a.63.63,0,0,1,.62.63.58.58,0,0,1-.18.43.63.63,0,0,1-.88,0,.58.58,0,0,1-.18-.43.63.63,0,0,1,.62-.63Zm-.38,2.41h.76v5.84h-.76Z"/><path class="cls-1" d="M188.35,46.87l-.48.5a1.75,1.75,0,0,0-1.18-.59.92.92,0,0,0-.63.24.78.78,0,0,0-.26.57.8.8,0,0,0,.22.54,2.91,2.91,0,0,0,.9.62,3.34,3.34,0,0,1,1.14.84,1.51,1.51,0,0,1,.3.91,1.62,1.62,0,0,1-.51,1.22,1.7,1.7,0,0,1-1.26.5,2.19,2.19,0,0,1-1-.22,2.14,2.14,0,0,1-.76-.6l.47-.54a1.66,1.66,0,0,0,1.23.65,1.13,1.13,0,0,0,.77-.29.9.9,0,0,0,.1-1.26,3.43,3.43,0,0,0-.94-.62,3,3,0,0,1-1.08-.81,1.56,1.56,0,0,1,.17-2,1.58,1.58,0,0,1,1.15-.44A2.34,2.34,0,0,1,188.35,46.87Z"/><path class="cls-1" d="M192,44.06h.76v2.17H194v.65H192.8v5.19H192V46.88h-1v-.65h1Z"/><path class="cls-1" d="M196.54,46.23h.77v.85a2.89,2.89,0,0,1,.72-.75,1.42,1.42,0,0,1,.8-.25,1.38,1.38,0,0,1,.66.2l-.39.63a1,1,0,0,0-.4-.1,1.05,1.05,0,0,0-.72.31,1.84,1.84,0,0,0-.53,1,8.71,8.71,0,0,0-.14,2v2h-.77Z"/><path class="cls-1" d="M202.1,43.82a.56.56,0,0,1,.43.19.56.56,0,0,1,.19.44.56.56,0,0,1-.19.43.58.58,0,0,1-.43.18.6.6,0,0,1-.44-.18.58.58,0,0,1-.18-.43.59.59,0,0,1,.18-.44A.58.58,0,0,1,202.1,43.82Zm-.38,2.41h.75v5.84h-.75Z"/><path class="cls-1" d="M211.41,47.44l-.59.37a2.51,2.51,0,0,0-2.11-1,2.46,2.46,0,0,0-1.77.68,2.26,2.26,0,0,0-.71,1.67,2.37,2.37,0,0,0,.33,1.21,2.26,2.26,0,0,0,.89.87,2.53,2.53,0,0,0,1.26.31,2.57,2.57,0,0,0,2.11-1l.59.4a2.88,2.88,0,0,1-1.12,1,3.63,3.63,0,0,1-1.61.34,3.18,3.18,0,0,1-2.3-.88,2.84,2.84,0,0,1-.91-2.14,3,3,0,0,1,.43-1.58,3,3,0,0,1,1.17-1.13,3.44,3.44,0,0,1,1.67-.41,3.5,3.5,0,0,1,1.12.18,3.3,3.3,0,0,1,.92.46A2.44,2.44,0,0,1,211.41,47.44Z"/><path class="cls-1" d="M215.22,44.06H216v2.17h1.19v.65H216v5.19h-.75V46.88h-1v-.65h1Z"/><path class="cls-1" d="M232.23,45.64l-.62.48a3.45,3.45,0,0,0-1.24-1,3.63,3.63,0,0,0-1.59-.35,3.44,3.44,0,0,0-1.75.46,3.26,3.26,0,0,0-1.25,1.22,3.41,3.41,0,0,0-.44,1.72,3.24,3.24,0,0,0,1,2.41,3.45,3.45,0,0,0,2.5,1,3.54,3.54,0,0,0,2.78-1.3l.62.47a4,4,0,0,1-1.48,1.16,4.63,4.63,0,0,1-2,.41,4.07,4.07,0,0,1-4.28-4.19,3.92,3.92,0,0,1,1.22-2.92A4.2,4.2,0,0,1,228.77,44a4.52,4.52,0,0,1,2,.44A3.87,3.87,0,0,1,232.23,45.64Z"/><path class="cls-1" d="M238.16,46.08a2.9,2.9,0,0,1,2.24,1,3,3,0,0,1,.81,2.11,3.05,3.05,0,0,1-.86,2.14,3.1,3.1,0,0,1-4.39,0,3.09,3.09,0,0,1-.85-2.14,3,3,0,0,1,.81-2.11A2.9,2.9,0,0,1,238.16,46.08Zm0,.74a2.16,2.16,0,0,0-1.61.69,2.31,2.31,0,0,0-.68,1.67,2.45,2.45,0,0,0,.31,1.19,2.23,2.23,0,0,0,.83.84,2.35,2.35,0,0,0,2.3,0,2.23,2.23,0,0,0,.83-.84,2.45,2.45,0,0,0,.3-1.19,2.3,2.3,0,0,0-.67-1.67A2.18,2.18,0,0,0,238.16,46.82Z"/><path class="cls-1" d="M244.21,46.23H245V49a5.35,5.35,0,0,0,.11,1.37,1.51,1.51,0,0,0,.61.85,1.86,1.86,0,0,0,1.09.31,1.84,1.84,0,0,0,1.06-.3,1.56,1.56,0,0,0,.61-.8,5.88,5.88,0,0,0,.11-1.43V46.23h.77V49.1a4.53,4.53,0,0,1-.28,1.82,2.14,2.14,0,0,1-.85,1,2.69,2.69,0,0,1-1.42.34,2.73,2.73,0,0,1-1.43-.34,2.17,2.17,0,0,1-.85-1,4.67,4.67,0,0,1-.28-1.87Z"/><path class="cls-1" d="M252.41,46.23h.77v.85a2.89,2.89,0,0,1,.72-.75,1.42,1.42,0,0,1,.8-.25,1.35,1.35,0,0,1,.66.2l-.39.63a1,1,0,0,0-.4-.1,1.05,1.05,0,0,0-.72.31,1.91,1.91,0,0,0-.53,1,8.71,8.71,0,0,0-.14,2v2h-.77Z"/><path class="cls-1" d="M258.36,44.06h.76v2.17h1.19v.65h-1.19v5.19h-.76V46.88h-1v-.65h1Z"/><circle class="cls-2" cx="32.65" cy="31.37" r="30.28"/><path class="cls-3" d="M61.52,37.78a29.81,29.81,0,0,1-28.83,23c-13.95,0-25.93-10.21-28.92-23.25h7.44c2.8,9,11.53,16.07,21.48,16.07A22.63,22.63,0,0,0,54.08,37.78Z"/><path class="cls-4" d="M53.63,31.28a21,21,0,1,1-21-21A21,21,0,0,1,53.63,31.28Z"/><path class="cls-2" d="M34.33,33.78H31V42a1.68,1.68,0,0,0,1.69,1.65A1.64,1.64,0,0,0,34.33,42Z"/><path class="cls-2" d="M35.56,44H29.74a.7.7,0,0,0-.76.65v.77a.7.7,0,0,0,.76.65h5.82a.69.69,0,0,0,.75-.65v-.77A.7.7,0,0,0,35.56,44Z"/><path class="cls-2" d="M36.69,46.86h-8c-.56,0-1,.3-1,.69v.75c0,.41.41.7,1,.7h8c.55,0,1-.29,1-.7v-.75C37.65,47.16,37.24,46.86,36.69,46.86Z"/><path class="cls-2" d="M48.92,23.27a.91.91,0,0,0-.41-.63,1.1,1.1,0,0,0-1.36.13,6.57,6.57,0,0,1-8.67.07,8.88,8.88,0,0,0-11.24-.17l.05,0-.2.16,0,0a6.27,6.27,0,0,1-4.38,1.67,6.23,6.23,0,0,1-4.38-1.67,1.09,1.09,0,0,0-.68-.3,1.13,1.13,0,0,0-.69.17.94.94,0,0,0-.41.63v.1a.8.8,0,0,0,.27.6,8.38,8.38,0,0,0,5.9,2.28,8.45,8.45,0,0,0,5.48-1.9l0,0s0,0,0,0l.15-.12a6.55,6.55,0,0,1,8.68-.07,8.47,8.47,0,0,0,5.71,2.09A8.37,8.37,0,0,0,48.66,24a.87.87,0,0,0,.26-.61Zm0,0h0v0Z"/><path class="cls-2" d="M36.14,17a3.45,3.45,0,1,1-3.46-3.46A3.46,3.46,0,0,1,36.14,17Z"/><path class="cls-2" d="M27.58,38.37l-5.32-12a.56.56,0,0,0-.52-.35.57.57,0,0,0-.52.36h0l-5.31,12a.75.75,0,0,0,0,.62,6.46,6.46,0,0,0,5.81,3.15A6.43,6.43,0,0,0,27.55,39,.72.72,0,0,0,27.58,38.37ZM21.74,28.14c.32.71,4.33,9.77,4.61,10.41H17.13l3.09-7Z"/><path class="cls-2" d="M49.53,38.37l-5.31-12A.56.56,0,0,0,43.7,26a.57.57,0,0,0-.53.37v0l-5.3,12a.71.71,0,0,0,0,.62,6.45,6.45,0,0,0,5.81,3.15A6.44,6.44,0,0,0,49.51,39,.72.72,0,0,0,49.53,38.37ZM43.7,28.14l4.61,10.41H39.08c.2-.43,2-4.5,2-4.5S43.4,28.83,43.7,28.14Z"/><path class="cls-2" d="M38.26,25.42a.82.82,0,0,0-.88.91H36.22v-.52h-7v.52H28a.82.82,0,0,0-.88-.91s-.77,0-.77,1v4.36c0,1.07.77,1,.77,1a.83.83,0,0,0,.88-.92h1.15v.54H31v1.59h3.31V31.47h1.89v-.54h1.16a.83.83,0,0,0,.88.92s.77,0,.77-1V26.45C39,25.4,38.26,25.42,38.26,25.42Z"/><path class="cls-2" d="M12.75,51.37l-3.41-4.2.2-.16,1.6,2,.28-.22-1.37-1.69.19-.15,1.37,1.68.26-.2c-.2-.24-.6-.72-1.2-1.47l.16-.19a1.77,1.77,0,0,0,1,.56l-.54-.67.18-.15,2.4,3-.19.15-.26-.33a5.93,5.93,0,0,1-.12.93L13,50.11a1.58,1.58,0,0,0,.07-.34l-1-1.12-.26.21,1.36,1.68L13,50.7,11.63,49l-.28.22,1.6,2Zm1.38-1.25-.21-.25.43-.36L11.51,46l-.43.34-.2-.25.62-.51,3.26,4Zm-1.05-.72a2.74,2.74,0,0,0,0-.31l.19,0-1.17-1.45a2.23,2.23,0,0,1-.79-.27C11.66,47.79,12.24,48.46,13.08,49.4ZM14.6,49l-2.5-3.09.64-.52,2.51,3.09Zm0-.42.25-.21-2.08-2.56-.25.2Zm1.76-.1-1.58-1.95-.24.19,1.41,1.74-.19.16L12.7,44.83l.2-.16,1.42,1.75.23-.2-1.59-2,.2-.17,1.59,2,.22-.17.21.26-.21.18,1.58,2Z"/><path class="cls-2" d="M15.92,51.67a11.61,11.61,0,0,1-1.84,1L14,52.4a12.6,12.6,0,0,0,1.82-1Zm2.77,3.27-.4.39a.43.43,0,0,1-.3.14.49.49,0,0,1-.37-.11l-1.14-.86.07-.3,1.24.93a.2.2,0,0,0,.28,0l.18-.18-2.89-2.16.8-.5,2.47,1.85.2-.28L16.1,51.79l.16-.2,3,2.24-.52.69-2.52-1.89-.33.2Zm-2.12-4.22-.3.07A4.82,4.82,0,0,0,16,49.7l.31-.06A5.66,5.66,0,0,1,16.57,50.72ZM17,51a4.82,4.82,0,0,1-.57.39l-.15-.23a3.62,3.62,0,0,0,.56-.37Zm0,.77-.21-.12a3.36,3.36,0,0,0,.29-.56l.23.12A4,4,0,0,1,17,51.79Zm1-.38-.24-.08a.37.37,0,0,0,0-.15,10.41,10.41,0,0,1-.93-.49l0-.21a10,10,0,0,0,1-.15L17.41,50l.05-.23a4,4,0,0,0,1.16-.34l.13.26a5.73,5.73,0,0,1-.92.28,3.58,3.58,0,0,0,.4.23l.32-.11.12.25a5.35,5.35,0,0,1-1.32.31l.48.24a.34.34,0,0,0,0-.18l.25.07A2.39,2.39,0,0,1,18,51.41Zm-.43-1.76-.31.05A5,5,0,0,0,17,48.6l.31-.05A5.4,5.4,0,0,1,17.55,49.65ZM17.45,52l-.24-.1a3.35,3.35,0,0,0,.23-.55l.24.09A3.16,3.16,0,0,1,17.45,52Zm1,.87-.88-.66.54-.72.88.66Zm-.06-.36.24-.32-.45-.33-.23.32Zm.73-.56-.87-.65.15-.2.87.65Zm.11.79a3.23,3.23,0,0,1-.53.46l-.17-.2a3.32,3.32,0,0,0,.52-.45Zm.19-1.19-.87-.65.15-.19.86.65Zm.43-.28-1.12-.85.15-.2.48.36a1.43,1.43,0,0,0,.07-.36l.27.08a2.54,2.54,0,0,1-.09.47l.39.29Zm-.53,2.29-.25-.13a2,2,0,0,0,.32-.56l.22.12A3.39,3.39,0,0,1,19.33,53.56Zm1-.36L20,53.11l.06-.19c-.39-.19-.7-.37-1-.52l.06-.21a8.07,8.07,0,0,0,1-.11l-.53-.35.06-.19a5.37,5.37,0,0,0,1.21-.32l.16.26a5,5,0,0,1-1,.25,4.88,4.88,0,0,0,.46.26l.34-.12.12.27a6,6,0,0,1-1.34.28,3.87,3.87,0,0,0,.45.25.58.58,0,0,0,0-.19l.27.08A5.51,5.51,0,0,1,20.28,53.2Zm-.47.68-.24-.1a4.17,4.17,0,0,0,.18-.63l.24.1A3.06,3.06,0,0,1,19.81,53.88Z"/><path class="cls-2" d="M24.47,58.52l-.32-.13L24.3,58l-3.67-1.44-.14.36-.32-.12,1.26-3.19,4.29,1.69ZM22.41,57l.4-1-1.67-.66-.4,1Zm.51-1.29.38-1-1.67-.66-.38,1Zm.85-2L23,53.34l-.22.56-.31-.12.22-.56-1.39-.55.1-.27,1.39.55.25-.62.31.12-.25.62.78.31Zm.63,4.11.4-1-1.69-.66-.4,1Zm.51-1.3.39-1-1.69-.66-.39,1Zm1.56-1.75-1.39-.55-.22.57-.31-.12.22-.57-.76-.3.1-.27.77.3.24-.62.32.12-.25.62,1.39.55Z"/><path class="cls-2" d="M28.67,58a7.43,7.43,0,0,1-1.93.91l-.21-.27a8,8,0,0,0,1.91-.86Zm3.55-.16-2.61-.29L29.4,59.4l-.33,0,.21-1.86-2.59-.29,0-.3,2.6.29.07-.59-2.18-.25L27.36,55l1.46.17.07-.67-1.78-.2,0-.3,5.38.61,0,.3-1.81-.21-.08.67,1.45.16L31.9,56.9l-2.19-.25-.06.59,2.6.3Zm-3.53-1.59.09-.79-1.11-.13-.09.8Zm1.47.17.09-.8-1.14-.13-.09.8Zm.12-1.1.07-.66-1.13-.13-.07.66Zm1.8,4-.23.21a12.24,12.24,0,0,0-1.74-1.29l.25-.21A11.59,11.59,0,0,1,32.08,59.28Zm-.47-2.7.09-.8-1.13-.13-.09.8Z"/><path class="cls-2" d="M35.26,58.25a14.5,14.5,0,0,1-1.7,1l-.13-.29a7.84,7.84,0,0,0,.76-.39l-.29-2.35-.72.08,0-.3.73-.09-.18-1.42.33,0,.18,1.42.69-.08,0,.3-.69.08.27,2.23.67-.43Zm3.66-.38a1.78,1.78,0,0,1-.09.83.5.5,0,0,1-.28.27c-.1,0-.44.08-1,.15l-1.38.15a.4.4,0,0,1-.33-.11.53.53,0,0,1-.14-.3l-.29-2.42-.55.25-.08-.3.59-.27-.16-1.24.32,0L35.66,56l1-.44-.18-1.48.32,0,.17,1.38,1.32-.62a11.49,11.49,0,0,1,0,2.55l-.33,0a11,11,0,0,0,.07-2l-1,.46L37.25,58l-.32,0-.28-2.22-.95.45L36,58.84s0,0,0,.07a.2.2,0,0,0,.08,0,2.11,2.11,0,0,0,.38,0l.71-.08a6.78,6.78,0,0,0,1.24-.2c.11,0,.15-.33.13-.83Z"/><path class="cls-2" d="M44.24,52.87,41,54.18c.12.29.24.62.36,1l2.53-1a11.18,11.18,0,0,1,.51,1.55,3.76,3.76,0,0,1,.17,1,.66.66,0,0,1-.16.36,2.88,2.88,0,0,1-.71.38l-.39.15-.22-.28a5.37,5.37,0,0,0,.56-.21,1.92,1.92,0,0,0,.5-.25.4.4,0,0,0,.08-.2,5,5,0,0,0-.16-.78,12.14,12.14,0,0,0-.39-1.25l-2.23.91a3.29,3.29,0,0,1-.69,3.07l-.35-.13a3.89,3.89,0,0,0,.66-1.16A2.39,2.39,0,0,0,41.23,56a8.13,8.13,0,0,0-.54-1.68L39.13,55,39,54.64l2.47-1a4.31,4.31,0,0,0-.89-.56l.25-.26a4.55,4.55,0,0,1,1,.68l2.28-.93Z"/><path class="cls-2" d="M45.62,51.26l-.06.31a6.2,6.2,0,0,0-1.29,0l0-.31A5.4,5.4,0,0,1,45.62,51.26Zm.8,1.25,0,.34a4.42,4.42,0,0,0-1.31,0v-.32A5.16,5.16,0,0,1,46.42,52.51Zm3.6-2.2-1.59,1.21A10.49,10.49,0,0,1,48.57,54a23.77,23.77,0,0,0,1.79-1.88,6.66,6.66,0,0,0-1.12-.33l.13-.3a10.63,10.63,0,0,1,2.09.73l-.11.32a3.68,3.68,0,0,0-.7-.31,30.65,30.65,0,0,1-2.21,2.29l-.3-.17a2.08,2.08,0,0,0,.15-1,9.77,9.77,0,0,0-.17-1.57l-1.24,1-.19-.24,1.46-1.11-.72-.94-1.22.93L46,51.11l1.22-.93-.56-.74.26-.2.56.74,1.21-.92.18.24-1.21.92.72.94,1.43-1.09Zm-3,2.95a12.15,12.15,0,0,1,.32,2.29l-.34,0a9.52,9.52,0,0,0-.3-2.28Z"/><path class="cls-2" d="M50.84,48.1a2.2,2.2,0,0,1,1.41.45.7.7,0,0,1,.25.4c0,.15-.06.35-.26.6l-.16.18-.32-.11.22-.27a.62.62,0,0,0,.19-.34.29.29,0,0,0-.11-.21,2.14,2.14,0,0,0-1.4-.41c-.23-.36-.5-.79-.83-1.29l-.59.73,3.73,3-.2.25-4-3.21,1-1.25.23.19C50.32,47.24,50.58,47.66,50.84,48.1Zm2.55-3.24-.21.26-.69-.56-1.7,2.09.69.56-.2.26-.94-.76.93-1.15a3.06,3.06,0,0,0-.57-.17l.15-.32a4.34,4.34,0,0,1,.64.21l1-1.18Zm-.28.53-1.37,1.69-.23-.19,1.37-1.69Zm2.12.8a2.67,2.67,0,0,1,.51.5.55.55,0,0,1,.1.39,1.31,1.31,0,0,1-.32.52c-.22.28-.43.35-.63.19l-1.43-1.16-.46.56a2.63,2.63,0,0,1,.88,1.28,2.66,2.66,0,0,1-.09,1.35l-.35,0a2.37,2.37,0,0,0,.12-1.29,2,2,0,0,0-.77-1.1l-.6.74L52,48l2.12-2.63.24.19-.65.8,1.38,1.12a.16.16,0,0,0,.1,0s.11-.07.21-.19a1.06,1.06,0,0,0,.16-.24.26.26,0,0,0,0-.12.77.77,0,0,0-.19-.24,3.39,3.39,0,0,0-.39-.34Z"/><path class="cls-5" d="M9,31.35v.56L5.35,32l0,.81H4.76l0-2.18h.61v.81Z"/><path class="cls-5" d="M8.12,29.35l.9.43L9,30.43l-4.17-1.9L4.84,28l4.49-.88-.08.65-1,.2Zm-2.28-.94,1.73.72.12-1.08Z"/><path class="cls-5" d="M9.59,26.13l-.13.61-4.16-.9.14-.6Z"/><path class="cls-5" d="M9,24,6.27,22.16l.11-.3,3.29.3L7,20.34l.22-.6,3.66,2.62-.16.44-3-.26,2.5,1.69-.16.45L5.56,24.3l.22-.61Z"/><path class="cls-5" d="M10.93,19.84l.67.76-.33.57-3.08-3.4.28-.48,4.47,1-.33.57-1-.2ZM9.22,18.08l1.3,1.35.54-.94Z"/><path class="cls-5" d="M9.75,15.22l.3-.36,3.78.38-2.4-1.93.38-.48,3.38,2.7-.28.37-3.79-.38,2.43,1.94-.39.48Z"/><path class="cls-5" d="M17.6,9.6l1,2.88-.12.09-2.44-1.84,1.39,2.56-.5.37L14.83,9.79l.36-.27L17.7,11.3l-1-2.88.37-.28,3,3.17-.49.37Z"/><path class="cls-5" d="M21.08,10.82l-.54.31L18.41,7.45,19,7.14Z"/><path class="cls-5" d="M21.85,9.33l.09,1-.59.27-.51-4.55.5-.23,3.06,3.4-.6.27-.67-.74ZM21.49,6.9l.26,1.85,1-.44Z"/><path class="cls-5" d="M24,7.09a2.47,2.47,0,0,1,.08-1.66,1.6,1.6,0,0,1,2.49-.69,2.56,2.56,0,0,1,.91,1.39,2.53,2.53,0,0,1-.07,1.66,1.62,1.62,0,0,1-2.5.69A2.53,2.53,0,0,1,24,7.09Zm.61-.21a1.86,1.86,0,0,0,.61,1,1,1,0,0,0,.93.23,1,1,0,0,0,.69-.66,1.83,1.83,0,0,0,0-1.16,1.74,1.74,0,0,0-.58-.94,1,1,0,0,0-.94-.19,1,1,0,0,0-.7.65A1.78,1.78,0,0,0,24.65,6.88Z"/><path class="cls-5" d="M29.08,7.46l1.09-.16.09.61-1.7.24L28,3.94l.61-.09Z"/><path class="cls-5" d="M31.21,7.85l-.61,0-.31-4.23.61-.05Z"/><path class="cls-5" d="M34.41,3.58l1,.11a1.57,1.57,0,0,1,1.19.74A2.38,2.38,0,0,1,37,6a2.34,2.34,0,0,1-.66,1.46A1.58,1.58,0,0,1,35,7.92l-1-.11Zm.23,3.65.21,0c.86.09,1.35-.35,1.46-1.32S36,4.42,35.17,4.32L35,4.3Z"/><path class="cls-5" d="M37.79,8.37l-.61-.13.87-4.16.6.13Z"/><path class="cls-5" d="M41.09,5.75a.7.7,0,0,0-.46-.54.56.56,0,0,0-.42,0,.59.59,0,0,0-.27.37c0,.17.07.43.36.77s.44.52.45.52a1.07,1.07,0,0,1,.15.91,1.72,1.72,0,0,1-.61.92,1.07,1.07,0,0,1-1,.13,1.23,1.23,0,0,1-.83-1.11l.5-.32a1,1,0,0,0,.15.52.61.61,0,0,0,.35.31A.48.48,0,0,0,40,8.2a.76.76,0,0,0,.29-.45.65.65,0,0,0,0-.39,2.67,2.67,0,0,0-.59-.71,1,1,0,0,1-.36-1.11,1.44,1.44,0,0,1,.55-.79,1,1,0,0,1,.84-.13,1.16,1.16,0,0,1,.81.74Z"/><path class="cls-5" d="M41.94,9.7l-.51-.21,1.39-3.36-.75-.31.24-.57,2,.84-.24.56-.74-.31Z"/><path class="cls-5" d="M45.15,11.33,44.48,11V8.81l-.91,1.66-.54-.3,2-3.73.84.47a1.1,1.1,0,0,1,.46,1.71,1.51,1.51,0,0,1-.57.6.8.8,0,0,1-.69,0Zm-.53-2.78.16.09a.67.67,0,0,0,1-.3.66.66,0,0,0-.31-1l-.17-.09Z"/><path class="cls-5" d="M46,11.92l-.51-.34L47.82,8l.52.34Z"/><path class="cls-5" d="M50.47,11.29a1,1,0,0,0-.34-.85,1,1,0,0,0-1-.15,1.86,1.86,0,0,0-1,.64,1.78,1.78,0,0,0-.41,1,1,1,0,0,0,.35.89,1,1,0,0,0,.91.16l-.55.68a1.72,1.72,0,0,1-.8-.32,1.56,1.56,0,0,1-.58-1.31,2.38,2.38,0,0,1,.57-1.53,2.52,2.52,0,0,1,1.41-.93,1.54,1.54,0,0,1,1.89,1Z"/><path class="cls-5" d="M49.64,15l-.39-.39,2.58-2.56-.57-.58L51.7,11l1.53,1.55L52.8,13l-.57-.58Z"/><path class="cls-5" d="M55.8,17.72a.94.94,0,0,0-.06-.91,1,1,0,0,0-.86-.43,1.91,1.91,0,0,0-1.1.32,1.83,1.83,0,0,0-.71.87,1,1,0,0,0,.06.95,1,1,0,0,0,.82.42l-.73.49a1.69,1.69,0,0,1-.66-.55,1.57,1.57,0,0,1-.16-1.42,2.41,2.41,0,0,1,1-1.29A2.61,2.61,0,0,1,55,15.72a1.57,1.57,0,0,1,1.26.71,1.49,1.49,0,0,1,.24.81Z"/><path class="cls-5" d="M55.28,19a2.56,2.56,0,0,1,1.66-.21,1.6,1.6,0,0,1,1.14.9A1.56,1.56,0,0,1,58,21.14a2.5,2.5,0,0,1-1.22,1.13,2.56,2.56,0,0,1-1.64.2,1.61,1.61,0,0,1-1.09-2.35A2.46,2.46,0,0,1,55.28,19Zm.31.56a1.86,1.86,0,0,0-.85.76,1,1,0,0,0-.08.95,1,1,0,0,0,.77.58,1.81,1.81,0,0,0,1.14-.18,1.72,1.72,0,0,0,.83-.73,1,1,0,0,0,0-1,1,1,0,0,0-.75-.59A1.74,1.74,0,0,0,55.59,19.56Z"/><path class="cls-5" d="M59.09,22.44l.18.59L57,23.69c-.88.25-1.25.61-1.12,1.09s.65.58,1.53.33l2.28-.66.17.59-2.44.7c-1.17.33-1.87.07-2.12-.8s.21-1.47,1.37-1.8Z"/><path class="cls-5" d="M56.23,29.21l-.11-.76,1.71-1.3L56,27.43l-.1-.61,4.2-.64.15,1c.12.8-.24,1.26-1.09,1.39a1.38,1.38,0,0,1-.82-.09.79.79,0,0,1-.46-.52Zm1.89-2.11,0,.18a.67.67,0,0,0,.87.64.65.65,0,0,0,.61-.85l0-.19Z"/><path class="cls-5" d="M56.29,30.71l0-.56L59.91,30l0-.81.61,0,.09,2.18-.61,0,0-.81Z"/></svg>