<svg id="圖層_1" data-name="圖層 1" xmlns="http://www.w3.org/2000/svg" xmlns:xlink="http://www.w3.org/1999/xlink" viewBox="0 0 270.84 64"><defs><style>.cls-1{fill:#333;}.cls-2{fill:#fff;}.cls-3{fill:url(#linear-gradient);}.cls-4{fill:#005bab;}.cls-5{fill:#b7a246;}</style><linearGradient id="linear-gradient" x1="32.65" y1="60.77" x2="32.65" y2="37.52" gradientUnits="userSpaceOnUse"><stop offset="0.69" stop-color="#b7a246"/><stop offset="1" stop-color="#fff"/></linearGradient></defs><path class="cls-1" d="M91.73,15.18v1.46H82.3v1h7.58V19H72.63V17.67H80v-1H70.8V15.18H80V13.83H82.3v1.35ZM82.3,33.8h9.38v1.56H70.85V33.8H80v-1H73.18V31.36H80v-1c-4.39.12-5.09.19-5.57.33a12.07,12.07,0,0,0-.5-1.51,6.35,6.35,0,0,0,1.3-.31,13.8,13.8,0,0,0,2-1H73.56v-1.3h15.2V28H86.48a25.34,25.34,0,0,1,3.07,2.13L88.2,31.19a14.12,14.12,0,0,0-1.17-1l-4.73.12v1h7.25v1.39H82.3ZM71.16,24.32H91.35v3.46H89.24v-2H73.18v2h-2ZM89,19.93v3.53H73.61V19.93Zm-2.19,1.18H75.67v1.15H86.81ZM79.8,28a18.73,18.73,0,0,1-2.13,1.17L85.23,29c-.53-.33-1.08-.64-1.59-.91l.19-.14Z"/><path class="cls-1" d="M97.54,24.49A15,15,0,0,0,94.11,22l1.22-1.54a15,15,0,0,1,3.5,2.3Zm-3,10a79.8,79.8,0,0,0,3-7.61L99.34,28c-.77,2.47-1.8,5.35-2.76,7.58ZM98,18.32a15.3,15.3,0,0,0-3.34-2.66l1.3-1.47a15.51,15.51,0,0,1,3.4,2.45Zm2.8,4.54a11.76,11.76,0,0,1-1,3.24,5.4,5.4,0,0,0-1-.7,8.43,8.43,0,0,0,.87-2.83Zm3.1-1a4.67,4.67,0,0,0-.24-.72c-3.14.41-3.74.53-4.08.7a7.09,7.09,0,0,0-.48-1,2.17,2.17,0,0,0,1.13-.79,14.6,14.6,0,0,0,1.34-1.68,9.6,9.6,0,0,0-2.06.31,3.86,3.86,0,0,0-.48-1,1.35,1.35,0,0,0,.79-.62,12.62,12.62,0,0,0,1.42-3l1.32.46a14.22,14.22,0,0,1-1.59,2.73l1.39-.07a9.71,9.71,0,0,0,.6-1.08l1.28.53a22.73,22.73,0,0,1-2.76,3.67l1.75-.22c-.12-.24-.27-.48-.39-.69l1-.36a11.06,11.06,0,0,1,1.11,2.42ZM115.23,31a4.35,4.35,0,0,1-.15.84c-.4,2-.88,3.05-1.51,3.53a3.11,3.11,0,0,1-2,.55c-.72,0-2.18,0-3.67-.07a3.91,3.91,0,0,0-.6-1.7c1.46.14,3,.16,3.62.16a1.8,1.8,0,0,0,1-.16,3.14,3.14,0,0,0,.87-1.71H100.47a39,39,0,0,0,1-3.79H112v-1H100.73V26.24h13.39V30H103.27L103,31Zm-13.59-5.28a11.7,11.7,0,0,0-.48-2.88l1.06-.26a11.41,11.41,0,0,1,.55,2.76Zm2.09-.6a12.35,12.35,0,0,0-.74-2.61l1-.34a10.2,10.2,0,0,1,.79,2.5Zm6.53-7.61h-5.71V16.23H107a13.9,13.9,0,0,0-.84-1.82l1.46-.34a9.39,9.39,0,0,1,1,1.88l-1.11.28h2.81ZM105.19,22h4.54v3.53h-4.54Zm4.52-2.57h-4.47V18.25h4.47Zm-4.47.65h4.47v1.12h-4.47Zm1.35,4.34h1.7V23.05h-1.7Zm5.33-1.61a12.61,12.61,0,0,1-1,3.24,7.23,7.23,0,0,0-1-.72,8.9,8.9,0,0,0,.86-2.8Zm3.14-.81c-.07-.22-.17-.51-.29-.82a22.52,22.52,0,0,0-4.1.7c-.07-.19-.32-.75-.46-1a2.11,2.11,0,0,0,1.13-.81,17,17,0,0,0,1.32-1.66,7.93,7.93,0,0,0-2.06.34,5.74,5.74,0,0,0-.46-1c.26,0,.5-.27.77-.63a11.58,11.58,0,0,0,1.44-3l1.29.45a13.54,13.54,0,0,1-1.53,2.71l1.37-.07c.19-.36.4-.72.57-1.08l1.27.55a19.88,19.88,0,0,1-2.76,3.68l1.76-.22-.39-.7,1-.36a12.37,12.37,0,0,1,1.2,2.53Zm-2.28,3.93a13.79,13.79,0,0,0-.5-3.09l1-.27a13.82,13.82,0,0,1,.55,3Zm2.3-3.79a11.12,11.12,0,0,1,1,3l-1,.45a12.44,12.44,0,0,0-.91-3.07Z"/><path class="cls-1" d="M123.58,22.57c.67.94,2.33,3.51,2.71,4.13l-1.18,1.61a33.24,33.24,0,0,0-1.53-3.17V35.87h-2V25.81a23.12,23.12,0,0,1-2.47,5.69A10,10,0,0,0,118,29.56,27.1,27.1,0,0,0,121.37,21h-2.83V18.92h3V13.86h2v5.06h2.47V21h-2.47Zm12.79-3.05a11.11,11.11,0,0,0,4.2,3.31,7.22,7.22,0,0,0-1.34,1.61A10.21,10.21,0,0,1,137,22.79v2.54h-7.76V22.76a13.15,13.15,0,0,1-2.35,1.71A4.78,4.78,0,0,0,125.47,23a11.62,11.62,0,0,0,4-3.46h-3.22V17.77h4.25A9.39,9.39,0,0,0,131,16.5c-1.3.07-2.59.12-3.82.14a6,6,0,0,0-.48-1.51,69.57,69.57,0,0,0,10.64-1l1.29,1.47a42,42,0,0,1-5.47.76c-.14.48-.29.94-.48,1.42H140v1.75Zm3.27,14.19c0,1-.2,1.51-.89,1.85a9.54,9.54,0,0,1-3.17.28,7.68,7.68,0,0,0-.67-1.82c1,0,2,0,2.25,0s.39-.09.39-.36V28h-9v7.87h-2v-9.6h13.09Zm-7.95-.07v1H130V29.15h6.08v4.49Zm.14-14.12a12.33,12.33,0,0,1-.83,1.3h4.17a10.06,10.06,0,0,1-.86-1.3ZM135,22.21h-3.91v1.73H135Zm-3.29,8.28v1.8h2.76v-1.8Z"/><path class="cls-1" d="M152.35,32.48c-3.38.8-7,1.61-9.64,2.21l-.53-2.09c1.73-.31,4.1-.79,6.6-1.32l-1-.26a38.41,38.41,0,0,0,1-4.82l2.16.5c-.43,1.51-.89,3.19-1.3,4.42l2.52-.53ZM152,17.12h-9.45V15.06H152Zm-.52,8.52h-8.26v-6.5h8.26Zm-7,5.55a16.34,16.34,0,0,0-.87-4.35l1.8-.45a16.79,16.79,0,0,1,1,4.34Zm4.94-10.25h-4.34v2.93h4.34Zm8,11.83a17.59,17.59,0,0,1-5.24,3.15,13.86,13.86,0,0,0-1.49-1.47,14.58,14.58,0,0,0,4.85-2.83Zm-.89-14c.14-.65.26-1.34.36-2h-4.25v-1.9h11.5v1.9h-4.76c-.21.7-.43,1.37-.62,2h4.7V31.28H153.27V18.8Zm4.8,1.66h-6v2h6Zm0,3.55h-6v2h6Zm0,3.58h-6v2h6Zm-.65,4.17a30.48,30.48,0,0,1,4.06,3l-1.8,1.2a27.59,27.59,0,0,0-4-3.08Z"/><path class="cls-1" d="M173.74,26.65l.53,2c-2.52,1.2-5.21,2.45-7.3,3.38l-.89-2.23c.87-.31,2-.74,3.19-1.25V21.61h-2.73V19.5h2.73V14.17h2.09V19.5h2.43v2.11h-2.43v6.05Zm10.92,6.75c1.32,0,1.56-.6,1.75-3.22a6.43,6.43,0,0,0,2,.82c-.31,3.31-1,4.39-3.58,4.39h-5.52c-2.95,0-3.79-.75-3.79-3.63V24.83l-1.66.72-.84-2,2.5-1.06V16.14h2.11v5.47l2.69-1.13v-6.6h2.09v5.71l3.22-1.36,1.65.55-.09.36A79.39,79.39,0,0,1,186,29.6l-1.82-.5a73.4,73.4,0,0,0,.74-8.33l-2.54,1.11v8.61h-2.09V22.76l-2.69,1.16v7.87c0,1.34.27,1.61,1.8,1.61Z"/><path class="cls-1" d="M199.59,20c-.08,1.12-.15,2.28-.29,3.41h10.2a6.53,6.53,0,0,1-.1,1c-.45,6.63-.91,9.27-1.87,10.25a3.26,3.26,0,0,1-2.28.94,33.36,33.36,0,0,1-4.05-.05,4.41,4.41,0,0,0-.8-2.18c1.71.14,3.34.16,4,.16a1.68,1.68,0,0,0,1.15-.28c.68-.56,1.11-2.79,1.49-7.68H199c-.76,4.12-2.52,8-7,10.39a6.84,6.84,0,0,0-1.63-1.83c5.95-3,6.51-8.85,6.75-14.13h-6.29V17.84H201.1a23.79,23.79,0,0,0-1.51-3.36l2.18-.81a24.16,24.16,0,0,1,1.71,3.48l-1.61.69h9.86V20Z"/><path class="cls-1" d="M218.71,24.76a22.32,22.32,0,0,0-4.41-2.6l1.17-1.68a20.33,20.33,0,0,1,4.47,2.43Zm-3.62,9.33a65.87,65.87,0,0,0,4.54-7.61L221.26,28c-1.25,2.5-2.83,5.38-4.25,7.63Zm1.78-20a24.27,24.27,0,0,1,4.51,2.45l-1.3,1.85a20.29,20.29,0,0,0-4.46-2.67Zm17,21.75a11.81,11.81,0,0,0-1-2.26c-8.47,1-9.55,1.23-10.27,1.56a19.26,19.26,0,0,0-.77-2.23c.51-.12,1-.67,1.54-1.56a34,34,0,0,0,3-5.54h-4.94V23.72h5.93V19.83h-4.93V17.72h4.93V13.86h2.28v3.86h5.11v2.11h-5.11v3.89h6v2.12H229a46.21,46.21,0,0,1-3.82,6.64l6.67-.72c-.57-1-1.25-1.92-1.87-2.8l1.8-.87a28.58,28.58,0,0,1,4.1,6.77Z"/><path class="cls-1" d="M246.29,15.59c-.67,2-1.51,4.32-2.23,6.16A7.84,7.84,0,0,1,246,26.87a3.54,3.54,0,0,1-1,2.93,2.94,2.94,0,0,1-1.3.48c-.43,0-1,0-1.58,0a4.83,4.83,0,0,0-.51-1.94,10.45,10.45,0,0,0,1.23,0,1.22,1.22,0,0,0,.69-.19,2,2,0,0,0,.49-1.56,6.92,6.92,0,0,0-2-4.63c.6-1.58,1.24-3.6,1.68-5.19h-2.62v19h-2v-21h5.35l.32-.09ZM258,33.68c.45,0,.55-.38.6-2.95a4.89,4.89,0,0,0,1.87.82c-.19,3.21-.7,4-2.23,4h-1.95C254.4,35.58,254,35,254,33V27.3h-2.09c-.38,4.2-1.53,7-6.07,8.59a6,6,0,0,0-1.27-1.77c4-1.28,4.87-3.44,5.18-6.82H246.6v-2h13.52v2h-4v5.64c0,.65.08.74.53.74Zm-9.53-12.53h-1.9V16.74h5.83a18.89,18.89,0,0,0-1.12-2.47l2.06-.6a16.22,16.22,0,0,1,1.46,3.07H260v4.41h-1.9V23h-9.67Zm.16-2.47V21h9.27V18.68Z"/><path class="cls-1" d="M71.8,45v-.78h4.33V45H74.37v7.12h-.81V45Z"/><path class="cls-1" d="M84.15,46.23v5.84h-.74v-1a3.17,3.17,0,0,1-1.06.86,2.77,2.77,0,0,1-1.28.29,2.84,2.84,0,0,1-2.12-.9,3,3,0,0,1-.88-2.18,3.06,3.06,0,0,1,3-3.06,2.69,2.69,0,0,1,1.3.31,2.92,2.92,0,0,1,1,.91V46.23Zm-3,.57a2.31,2.31,0,0,0-1.16.31,2.27,2.27,0,0,0-.84.87,2.38,2.38,0,0,0-.32,1.18,2.41,2.41,0,0,0,.32,1.18,2.25,2.25,0,0,0,.85.88,2.2,2.2,0,0,0,1.14.31,2.3,2.3,0,0,0,1.17-.31,2.21,2.21,0,0,0,.85-.84,2.43,2.43,0,0,0,.3-1.2,2.28,2.28,0,0,0-.67-1.69A2.18,2.18,0,0,0,81.15,46.8Z"/><path class="cls-1" d="M87.29,43.82a.58.58,0,0,1,.44.19.59.59,0,0,1,.18.44.58.58,0,0,1-.18.43.6.6,0,0,1-.44.18.6.6,0,0,1-.43-.18.58.58,0,0,1-.18-.43.59.59,0,0,1,.18-.44A.57.57,0,0,1,87.29,43.82Zm-.37,2.41h.75v5.84h-.75Z"/><path class="cls-1" d="M89.63,46.23h.78l1.79,4.24,1.86-4.24h.14l1.88,4.24,1.82-4.24h.78l-2.53,5.84H96l-1.87-4.18-1.87,4.18h-.14Z"/><path class="cls-1" d="M106.58,46.23v5.84h-.75v-1a3.08,3.08,0,0,1-1.06.86,2.77,2.77,0,0,1-1.28.29,2.84,2.84,0,0,1-2.12-.9,3,3,0,0,1-.88-2.18,2.94,2.94,0,0,1,.89-2.16,2.88,2.88,0,0,1,2.13-.9,2.69,2.69,0,0,1,1.3.31,2.92,2.92,0,0,1,1,.91V46.23Zm-3,.57a2.25,2.25,0,0,0-2,1.18,2.38,2.38,0,0,0-.32,1.18,2.41,2.41,0,0,0,.32,1.18,2.25,2.25,0,0,0,.85.88,2.22,2.22,0,0,0,1.14.31,2.28,2.28,0,0,0,1.17-.31,2.15,2.15,0,0,0,.85-.84,2.43,2.43,0,0,0,.3-1.2,2.28,2.28,0,0,0-.67-1.69A2.18,2.18,0,0,0,103.57,46.8Z"/><path class="cls-1" d="M109.46,46.23h.75v1.05a3.12,3.12,0,0,1,1-.9,2.42,2.42,0,0,1,1.19-.3,2.1,2.1,0,0,1,1.16.33,2,2,0,0,1,.75.9,4.79,4.79,0,0,1,.24,1.76v3h-.75V49.29a7.41,7.41,0,0,0-.08-1.35,1.37,1.37,0,0,0-1.47-1.17,1.84,1.84,0,0,0-1.22.45,2.18,2.18,0,0,0-.72,1.12,8.06,8.06,0,0,0-.1,1.59v2.14h-.75Z"/><path class="cls-1" d="M129.07,45.64l-.63.48a3.34,3.34,0,0,0-1.23-1,3.67,3.67,0,0,0-1.59-.35,3.44,3.44,0,0,0-1.75.46,3.19,3.19,0,0,0-1.25,1.22,3.31,3.31,0,0,0-.44,1.72,3.24,3.24,0,0,0,1,2.41,3.45,3.45,0,0,0,2.5,1,3.52,3.52,0,0,0,2.77-1.3l.63.47a4,4,0,0,1-1.48,1.16,4.66,4.66,0,0,1-2,.41,4.07,4.07,0,0,1-4.28-4.19,3.92,3.92,0,0,1,1.22-2.92,4.2,4.2,0,0,1,3-1.19,4.52,4.52,0,0,1,2,.44A3.87,3.87,0,0,1,129.07,45.64Z"/><path class="cls-1" d="M132,43.82a.63.63,0,0,1,.62.63.58.58,0,0,1-.18.43.62.62,0,0,1-.44.18.6.6,0,0,1-.44-.18.58.58,0,0,1-.18-.43.59.59,0,0,1,.18-.44A.58.58,0,0,1,132,43.82Zm-.38,2.41h.75v5.84h-.75Z"/><path class="cls-1" d="M140.93,46.23v5.84h-.74v-1a3.27,3.27,0,0,1-1.06.86,2.81,2.81,0,0,1-1.29.29,2.86,2.86,0,0,1-2.12-.9,3,3,0,0,1-.88-2.18,2.94,2.94,0,0,1,.89-2.16,2.88,2.88,0,0,1,2.13-.9,2.66,2.66,0,0,1,1.3.31,3,3,0,0,1,1,.91V46.23Zm-3,.57a2.25,2.25,0,0,0-2,1.18,2.37,2.37,0,0,0-.31,1.18,2.39,2.39,0,0,0,.31,1.18,2.32,2.32,0,0,0,.85.88,2.23,2.23,0,0,0,1.15.31,2.33,2.33,0,0,0,1.17-.31,2.21,2.21,0,0,0,.85-.84,2.43,2.43,0,0,0,.3-1.2,2.32,2.32,0,0,0-.67-1.69A2.22,2.22,0,0,0,137.92,46.8Z"/><path class="cls-1" d="M146.57,46.08a2.9,2.9,0,0,1,2.24,1,3.14,3.14,0,0,1,0,4.25,3.1,3.1,0,0,1-4.39,0,3.12,3.12,0,0,1,0-4.25A2.9,2.9,0,0,1,146.57,46.08Zm0,.74a2.18,2.18,0,0,0-1.61.69,2.3,2.3,0,0,0-.67,1.67,2.45,2.45,0,0,0,.3,1.19,2.24,2.24,0,0,0,2,1.14,2.27,2.27,0,0,0,1.15-.3,2.16,2.16,0,0,0,.83-.84,2.45,2.45,0,0,0,.31-1.19,2.31,2.31,0,0,0-.68-1.67A2.18,2.18,0,0,0,146.57,46.82Z"/><path class="cls-1" d="M152.86,44.06h.75v2.17h1.19v.65h-1.19v5.19h-.75V46.88h-1v-.65h1Z"/><path class="cls-1" d="M159.88,46.08a2.9,2.9,0,0,1,2.24,1,3,3,0,0,1,.81,2.11,3.05,3.05,0,0,1-.86,2.14,3.1,3.1,0,0,1-4.39,0,3.09,3.09,0,0,1-.85-2.14,3,3,0,0,1,.81-2.11A2.9,2.9,0,0,1,159.88,46.08Zm0,.74a2.16,2.16,0,0,0-1.61.69,2.31,2.31,0,0,0-.68,1.67,2.45,2.45,0,0,0,.31,1.19,2.23,2.23,0,0,0,.83.84,2.35,2.35,0,0,0,2.3,0,2.23,2.23,0,0,0,.83-.84,2.45,2.45,0,0,0,.3-1.19,2.3,2.3,0,0,0-.67-1.67A2.18,2.18,0,0,0,159.88,46.82Z"/><path class="cls-1" d="M165.41,46.23h.75V49a5.86,5.86,0,0,0,.11,1.37,1.55,1.55,0,0,0,.61.85,2.06,2.06,0,0,0,2.16,0,1.54,1.54,0,0,0,.6-.8,5.4,5.4,0,0,0,.11-1.43V46.23h.77V49.1a4.53,4.53,0,0,1-.28,1.82,2.14,2.14,0,0,1-.85,1,2.69,2.69,0,0,1-1.42.34,2.75,2.75,0,0,1-1.43-.34,2.17,2.17,0,0,1-.85-1,4.67,4.67,0,0,1-.28-1.87Z"/><path class="cls-1" d="M177.74,52.07v-7.9h1.64a8.29,8.29,0,0,1,2.57.29,3.51,3.51,0,0,1,1.8,1.39,4.29,4.29,0,0,1,.64,2.37,4.18,4.18,0,0,1-.51,2.09,3.27,3.27,0,0,1-1.33,1.33,5,5,0,0,1-2.3.43Zm.76-.74h.91a8.26,8.26,0,0,0,2.27-.21,2.62,2.62,0,0,0,1.4-1,3.21,3.21,0,0,0,.51-1.84,3.37,3.37,0,0,0-.55-2,2.78,2.78,0,0,0-1.54-1.11,9.45,9.45,0,0,0-2.45-.22h-.55Z"/><path class="cls-1" d="M187.25,43.82a.58.58,0,0,1,.44.19.59.59,0,0,1,.18.44.58.58,0,0,1-.18.43.6.6,0,0,1-.44.18.62.62,0,0,1-.44-.18.58.58,0,0,1-.18-.43.63.63,0,0,1,.62-.63Zm-.38,2.41h.76v5.84h-.76Z"/><path class="cls-1" d="M193.32,46.87l-.49.5a1.73,1.73,0,0,0-1.18-.59A.88.88,0,0,0,191,47a.75.75,0,0,0-.27.57.85.85,0,0,0,.22.54,2.91,2.91,0,0,0,.9.62,3.5,3.5,0,0,1,1.15.84,1.56,1.56,0,0,1,.29.91,1.65,1.65,0,0,1-.5,1.22,1.71,1.71,0,0,1-1.27.5,2.11,2.11,0,0,1-1-.22,2.05,2.05,0,0,1-.76-.6l.47-.54a1.65,1.65,0,0,0,1.22.65,1.12,1.12,0,0,0,.77-.29.9.9,0,0,0,.32-.68.88.88,0,0,0-.21-.58,3.54,3.54,0,0,0-1-.62,3,3,0,0,1-1.08-.81,1.59,1.59,0,0,1,.17-2,1.62,1.62,0,0,1,1.15-.44A2.38,2.38,0,0,1,193.32,46.87Z"/><path class="cls-1" d="M196.49,44.06h.75v2.17h1.2v.65h-1.2v5.19h-.75V46.88h-1v-.65h1Z"/><path class="cls-1" d="M200.47,46.23h.77v.85a2.73,2.73,0,0,1,.72-.75,1.4,1.4,0,0,1,.8-.25,1.38,1.38,0,0,1,.66.2l-.39.63a1,1,0,0,0-.4-.1,1.05,1.05,0,0,0-.72.31,1.84,1.84,0,0,0-.53,1,8.71,8.71,0,0,0-.14,2v2h-.77Z"/><path class="cls-1" d="M205.51,43.82A.58.58,0,0,1,206,44a.59.59,0,0,1,.18.44.58.58,0,0,1-.18.43.6.6,0,0,1-.44.18.58.58,0,0,1-.43-.18.56.56,0,0,1-.19-.43.56.56,0,0,1,.19-.44A.56.56,0,0,1,205.51,43.82Zm-.38,2.41h.76v5.84h-.76Z"/><path class="cls-1" d="M214.31,47.44l-.6.37a2.67,2.67,0,0,0-3.88-.34,2.25,2.25,0,0,0-.7,1.67,2.46,2.46,0,0,0,.32,1.21,2.32,2.32,0,0,0,.89.87,2.57,2.57,0,0,0,1.27.31,2.54,2.54,0,0,0,2.1-1l.6.4a2.88,2.88,0,0,1-1.12,1,3.66,3.66,0,0,1-1.61.34,3.16,3.16,0,0,1-2.3-.88,2.84,2.84,0,0,1-.91-2.14A3,3,0,0,1,210,46.49a3.48,3.48,0,0,1,1.68-.41,3.55,3.55,0,0,1,1.12.18,3.11,3.11,0,0,1,.91.46A2.63,2.63,0,0,1,214.31,47.44Z"/><path class="cls-1" d="M217.6,44.06h.75v2.17h1.19v.65h-1.19v5.19h-.75V46.88h-1v-.65h1Z"/><path class="cls-1" d="M233.58,45.64l-.63.48a3.29,3.29,0,0,0-1.24-1,3.62,3.62,0,0,0-1.58-.35,3.42,3.42,0,0,0-1.75.46,3.19,3.19,0,0,0-1.25,1.22,3.32,3.32,0,0,0-.45,1.72,3.24,3.24,0,0,0,1,2.41,3.46,3.46,0,0,0,2.5,1,3.53,3.53,0,0,0,2.78-1.3l.63.47a4,4,0,0,1-1.48,1.16,4.69,4.69,0,0,1-2,.41,4.08,4.08,0,0,1-3.27-1.38,4.14,4.14,0,0,1-1-2.81,3.92,3.92,0,0,1,1.22-2.92A4.19,4.19,0,0,1,230.12,44a4.47,4.47,0,0,1,2,.44A3.83,3.83,0,0,1,233.58,45.64Z"/><path class="cls-1" d="M239,46.08a2.9,2.9,0,0,1,2.24,1,3,3,0,0,1,.81,2.11,3.05,3.05,0,0,1-.86,2.14,3.1,3.1,0,0,1-4.39,0,3.14,3.14,0,0,1,0-4.25A2.9,2.9,0,0,1,239,46.08Zm0,.74a2.16,2.16,0,0,0-1.61.69,2.31,2.31,0,0,0-.68,1.67,2.35,2.35,0,0,0,.31,1.19,2.16,2.16,0,0,0,.83.84,2.35,2.35,0,0,0,2.3,0,2.31,2.31,0,0,0,.83-.84,2.45,2.45,0,0,0,.3-1.19,2.3,2.3,0,0,0-.67-1.67A2.18,2.18,0,0,0,239,46.82Z"/><path class="cls-1" d="M244.52,46.23h.75V49a5.86,5.86,0,0,0,.11,1.37,1.55,1.55,0,0,0,.61.85,2.06,2.06,0,0,0,2.16,0,1.54,1.54,0,0,0,.6-.8,5.4,5.4,0,0,0,.11-1.43V46.23h.77V49.1a4.53,4.53,0,0,1-.28,1.82,2.14,2.14,0,0,1-.85,1,2.69,2.69,0,0,1-1.42.34,2.75,2.75,0,0,1-1.43-.34,2.17,2.17,0,0,1-.85-1,4.67,4.67,0,0,1-.28-1.87Z"/><path class="cls-1" d="M252.21,46.23H253v.85a2.91,2.91,0,0,1,.73-.75,1.4,1.4,0,0,1,.8-.25,1.42,1.42,0,0,1,.66.2l-.39.63a1,1,0,0,0-.4-.1,1.05,1.05,0,0,0-.72.31,1.91,1.91,0,0,0-.54,1,9.33,9.33,0,0,0-.14,2v2h-.76Z"/><path class="cls-1" d="M257.64,44.06h.75v2.17h1.2v.65h-1.2v5.19h-.75V46.88h-1v-.65h1Z"/><circle class="cls-2" cx="32.65" cy="31.37" r="30.28"/><path class="cls-3" d="M61.52,37.78a29.81,29.81,0,0,1-28.83,23c-13.95,0-25.93-10.21-28.92-23.25h7.44c2.8,9,11.53,16.07,21.48,16.07A22.63,22.63,0,0,0,54.08,37.78Z"/><path class="cls-4" d="M53.63,31.28a21,21,0,1,1-21-21A21,21,0,0,1,53.63,31.28Z"/><path class="cls-2" d="M34.33,33.78H31V42a1.68,1.68,0,0,0,1.69,1.65A1.64,1.64,0,0,0,34.33,42Z"/><path class="cls-2" d="M35.56,44H29.74a.7.7,0,0,0-.76.65v.77a.7.7,0,0,0,.76.65h5.82a.69.69,0,0,0,.75-.65v-.77A.7.7,0,0,0,35.56,44Z"/><path class="cls-2" d="M36.69,46.86h-8c-.56,0-1,.3-1,.69v.75c0,.41.41.7,1,.7h8c.55,0,1-.29,1-.7v-.75C37.65,47.16,37.24,46.86,36.69,46.86Z"/><path class="cls-2" d="M48.92,23.27a.91.91,0,0,0-.41-.63,1.1,1.1,0,0,0-1.36.13,6.57,6.57,0,0,1-8.67.07,8.88,8.88,0,0,0-11.24-.17l.05,0-.2.16,0,0a6.27,6.27,0,0,1-4.38,1.67,6.23,6.23,0,0,1-4.38-1.67,1.09,1.09,0,0,0-.68-.3,1.13,1.13,0,0,0-.69.17.94.94,0,0,0-.41.63v.1a.8.8,0,0,0,.27.6,8.38,8.38,0,0,0,5.9,2.28,8.45,8.45,0,0,0,5.48-1.9l0,0s0,0,0,0l.15-.12a6.55,6.55,0,0,1,8.68-.07,8.47,8.47,0,0,0,5.71,2.09A8.37,8.37,0,0,0,48.66,24a.87.87,0,0,0,.26-.61Zm0,0h0v0Z"/><path class="cls-2" d="M36.14,17a3.45,3.45,0,1,1-3.46-3.46A3.46,3.46,0,0,1,36.14,17Z"/><path class="cls-2" d="M27.58,38.37l-5.32-12a.56.56,0,0,0-.52-.35.57.57,0,0,0-.52.36h0l-5.31,12a.75.75,0,0,0,0,.62,6.46,6.46,0,0,0,5.81,3.15A6.43,6.43,0,0,0,27.55,39,.72.72,0,0,0,27.58,38.37ZM21.74,28.14c.32.71,4.33,9.77,4.61,10.41H17.13l3.09-7Z"/><path class="cls-2" d="M49.53,38.37l-5.31-12A.56.56,0,0,0,43.7,26a.57.57,0,0,0-.53.37v0l-5.3,12a.71.71,0,0,0,0,.62,6.45,6.45,0,0,0,5.81,3.15A6.44,6.44,0,0,0,49.51,39,.72.72,0,0,0,49.53,38.37ZM43.7,28.14l4.61,10.41H39.08c.2-.43,2-4.5,2-4.5S43.4,28.83,43.7,28.14Z"/><path class="cls-2" d="M38.26,25.42a.82.82,0,0,0-.88.91H36.22v-.52h-7v.52H28a.82.82,0,0,0-.88-.91s-.77,0-.77,1v4.36c0,1.07.77,1,.77,1a.83.83,0,0,0,.88-.92h1.15v.54H31v1.59h3.31V31.47h1.89v-.54h1.16a.83.83,0,0,0,.88.92s.77,0,.77-1V26.45C39,25.4,38.26,25.42,38.26,25.42Z"/><path class="cls-2" d="M12.75,51.37l-3.41-4.2.2-.16,1.6,2,.28-.22-1.37-1.69.19-.15,1.37,1.68.26-.2c-.2-.24-.6-.72-1.2-1.47l.16-.19a1.77,1.77,0,0,0,1,.56l-.54-.67.18-.15,2.4,3-.19.15-.26-.33a5.93,5.93,0,0,1-.12.93L13,50.11a1.58,1.58,0,0,0,.07-.34l-1-1.12-.26.21,1.36,1.68L13,50.7,11.63,49l-.28.22,1.6,2Zm1.38-1.25-.21-.25.43-.36L11.51,46l-.43.34-.2-.25.62-.51,3.26,4Zm-1.05-.72a2.74,2.74,0,0,0,0-.31l.19,0-1.17-1.45a2.23,2.23,0,0,1-.79-.27C11.66,47.79,12.24,48.46,13.08,49.4ZM14.6,49l-2.5-3.09.64-.52,2.51,3.09Zm0-.42.25-.21-2.08-2.56-.25.2Zm1.76-.1-1.58-1.95-.24.19,1.41,1.74-.19.16L12.7,44.83l.2-.16,1.42,1.75.23-.2-1.59-2,.2-.17,1.59,2,.22-.17.21.26-.21.18,1.58,2Z"/><path class="cls-2" d="M15.92,51.67a11.61,11.61,0,0,1-1.84,1L14,52.4a12.6,12.6,0,0,0,1.82-1Zm2.77,3.27-.4.39a.43.43,0,0,1-.3.14.49.49,0,0,1-.37-.11l-1.14-.86.07-.3,1.24.93a.2.2,0,0,0,.28,0l.18-.18-2.89-2.16.8-.5,2.47,1.85.2-.28L16.1,51.79l.16-.2,3,2.24-.52.69-2.52-1.89-.33.2Zm-2.12-4.22-.3.07A4.82,4.82,0,0,0,16,49.7l.31-.06A5.66,5.66,0,0,1,16.57,50.72ZM17,51a4.82,4.82,0,0,1-.57.39l-.15-.23a3.62,3.62,0,0,0,.56-.37Zm0,.77-.21-.12a3.36,3.36,0,0,0,.29-.56l.23.12A4,4,0,0,1,17,51.79Zm1-.38-.24-.08a.37.37,0,0,0,0-.15,10.41,10.41,0,0,1-.93-.49l0-.21a10,10,0,0,0,1-.15L17.41,50l.05-.23a4,4,0,0,0,1.16-.34l.13.26a5.73,5.73,0,0,1-.92.28,3.58,3.58,0,0,0,.4.23l.32-.11.12.25a5.35,5.35,0,0,1-1.32.31l.48.24a.34.34,0,0,0,0-.18l.25.07A2.39,2.39,0,0,1,18,51.41Zm-.43-1.76-.31.05A5,5,0,0,0,17,48.6l.31-.05A5.4,5.4,0,0,1,17.55,49.65ZM17.45,52l-.24-.1a3.35,3.35,0,0,0,.23-.55l.24.09A3.16,3.16,0,0,1,17.45,52Zm1,.87-.88-.66.54-.72.88.66Zm-.06-.36.24-.32-.45-.33-.23.32Zm.73-.56-.87-.65.15-.2.87.65Zm.11.79a3.23,3.23,0,0,1-.53.46l-.17-.2a3.32,3.32,0,0,0,.52-.45Zm.19-1.19-.87-.65.15-.19.86.65Zm.43-.28-1.12-.85.15-.2.48.36a1.43,1.43,0,0,0,.07-.36l.27.08a2.54,2.54,0,0,1-.09.47l.39.29Zm-.53,2.29-.25-.13a2,2,0,0,0,.32-.56l.22.12A3.39,3.39,0,0,1,19.33,53.56Zm1-.36L20,53.11l.06-.19c-.39-.19-.7-.37-1-.52l.06-.21a8.07,8.07,0,0,0,1-.11l-.53-.35.06-.19a5.37,5.37,0,0,0,1.21-.32l.16.26a5,5,0,0,1-1,.25,4.88,4.88,0,0,0,.46.26l.34-.12.12.27a6,6,0,0,1-1.34.28,3.87,3.87,0,0,0,.45.25.58.58,0,0,0,0-.19l.27.08A5.51,5.51,0,0,1,20.28,53.2Zm-.47.68-.24-.1a4.17,4.17,0,0,0,.18-.63l.24.1A3.06,3.06,0,0,1,19.81,53.88Z"/><path class="cls-2" d="M22.49,54.94l-.31.14a4.74,4.74,0,0,0-.14-.89l-1.15,2.93L20.58,57l1.11-2.8a7.36,7.36,0,0,1-1.19,1l-.11-.31a8,8,0,0,0,1.53-1.37l-.75-.3.11-.28.78.31.44-1.14.31.12-.45,1.14.45.17-.12.28-.44-.17-.05.13A6,6,0,0,1,22.49,54.94Zm2.36,3.26a.45.45,0,0,1-.2.23.37.37,0,0,1-.27,0,3.24,3.24,0,0,1-.39-.14l-.28-.11v-.34l.42.18a1.36,1.36,0,0,0,.33.09.14.14,0,0,0,.12-.1l.53-1.35-2.45-1-.71,1.81-.3-.12.81-2.06,3,1.2Zm1.26-2.44-.26.18a3.53,3.53,0,0,1-.49-.64l-.28.71-1.95-.76.29-.75a3.16,3.16,0,0,1-.77.13l-.12-.3A3.34,3.34,0,0,0,24,54L23,53.61l.1-.25,1.13.44a1.75,1.75,0,0,0,.33-.28,10.69,10.69,0,0,1-1.15-.41v-.32a12.23,12.23,0,0,0,3,.84l0,.3a12,12,0,0,1-1.54-.31,2.41,2.41,0,0,1-.32.32l1.83.73-.09.25-1-.39A2.92,2.92,0,0,0,26.11,55.76Zm-2,2-1.5-.59.36-.91,1.5.6Zm-.19-.36.16-.4-.91-.36-.15.4Zm.94-1.8.17-.44-1.33-.53-.18.44Zm.28-.7A2.28,2.28,0,0,1,25,54.4l-.68-.27a4.51,4.51,0,0,1-.54.27Z"/><path class="cls-2" d="M29,58.62a22.52,22.52,0,0,1-2.45.36l-.06-.32.81-.09A9.31,9.31,0,0,0,27.06,57l.25-.16-.33,0,.2-1.75,2,.22-.2,1.76L28.56,57l.22.18a12.27,12.27,0,0,1-.48,1.24l.76-.13Zm.37-4.07-2.32-.26,0-.3,2.31.27Zm-.74,2.18.14-1.18-1.32-.15-.13,1.18Zm-.16.27-1.12-.12a12.38,12.38,0,0,1,.28,1.65l.27,0A11.6,11.6,0,0,0,28.49,57Zm4-2.06-1.23-.14c-.17.38-.27.6-.31.67l1.19.14-.33,2.87-1.54-.17.18.19a5,5,0,0,1-1.4.87l-.19-.28a4.76,4.76,0,0,0,1.31-.79l-.69-.08.32-2.88.82.09a5,5,0,0,0,.29-.67l-1.26-.14,0-.3,2.84.32Zm-1,3.23.07-.62-1.67-.19-.07.62Zm.11-.91.06-.57L30,56.5l-.07.58Zm.09-.86.07-.55-1.68-.19-.06.55Zm.3,3-.24.23a8,8,0,0,0-1.05-.89l.24-.21A8.65,8.65,0,0,1,32,59.44Z"/><path class="cls-2" d="M35.26,58.25a14.5,14.5,0,0,1-1.7,1l-.13-.29a7.84,7.84,0,0,0,.76-.39l-.29-2.35-.72.08,0-.3.73-.09-.18-1.42.33,0,.18,1.42.69-.08,0,.3-.69.08.27,2.23.67-.43Zm3.66-.38a1.78,1.78,0,0,1-.09.83.5.5,0,0,1-.28.27c-.1,0-.44.08-1,.15l-1.38.15a.4.4,0,0,1-.33-.11.53.53,0,0,1-.14-.3l-.29-2.42-.55.25-.08-.3.59-.27-.16-1.24.32,0L35.66,56l1-.44-.18-1.48.32,0,.17,1.38,1.32-.62a11.49,11.49,0,0,1,0,2.55l-.33,0a11,11,0,0,0,.07-2l-1,.46L37.25,58l-.32,0-.28-2.22-.95.45L36,58.84s0,0,0,.07a.2.2,0,0,0,.08,0,2.11,2.11,0,0,0,.38,0l.71-.08a6.78,6.78,0,0,0,1.24-.2c.11,0,.15-.33.13-.83Z"/><path class="cls-2" d="M44.24,52.87,41,54.18c.12.29.24.62.36,1l2.53-1a11.18,11.18,0,0,1,.51,1.55,3.76,3.76,0,0,1,.17,1,.66.66,0,0,1-.16.36,2.88,2.88,0,0,1-.71.38l-.39.15-.22-.28a5.37,5.37,0,0,0,.56-.21,1.92,1.92,0,0,0,.5-.25.4.4,0,0,0,.08-.2,5,5,0,0,0-.16-.78,12.14,12.14,0,0,0-.39-1.25l-2.23.91a3.29,3.29,0,0,1-.69,3.07l-.35-.13a3.89,3.89,0,0,0,.66-1.16A2.39,2.39,0,0,0,41.23,56a8.13,8.13,0,0,0-.54-1.68L39.13,55,39,54.64l2.47-1a4.31,4.31,0,0,0-.89-.56l.25-.26a4.55,4.55,0,0,1,1,.68l2.28-.93Z"/><path class="cls-2" d="M45.62,51.26l-.06.31a6.2,6.2,0,0,0-1.29,0l0-.31A5.4,5.4,0,0,1,45.62,51.26Zm.8,1.25,0,.34a4.42,4.42,0,0,0-1.31,0v-.32A5.16,5.16,0,0,1,46.42,52.51Zm3.6-2.2-1.59,1.21A10.49,10.49,0,0,1,48.57,54a23.77,23.77,0,0,0,1.79-1.88,6.66,6.66,0,0,0-1.12-.33l.13-.3a10.63,10.63,0,0,1,2.09.73l-.11.32a3.68,3.68,0,0,0-.7-.31,30.65,30.65,0,0,1-2.21,2.29l-.3-.17a2.08,2.08,0,0,0,.15-1,9.77,9.77,0,0,0-.17-1.57l-1.24,1-.19-.24,1.46-1.11-.72-.94-1.22.93L46,51.11l1.22-.93-.56-.74.26-.2.56.74,1.21-.92.18.24-1.21.92.72.94,1.43-1.09Zm-3,2.95a12.15,12.15,0,0,1,.32,2.29l-.34,0a9.52,9.52,0,0,0-.3-2.28Z"/><path class="cls-2" d="M50.84,48.1a2.2,2.2,0,0,1,1.41.45.7.7,0,0,1,.25.4c0,.15-.06.35-.26.6l-.16.18-.32-.11.22-.27a.62.62,0,0,0,.19-.34.29.29,0,0,0-.11-.21,2.14,2.14,0,0,0-1.4-.41c-.23-.36-.5-.79-.83-1.29l-.59.73,3.73,3-.2.25-4-3.21,1-1.25.23.19C50.32,47.24,50.58,47.66,50.84,48.1Zm2.55-3.24-.21.26-.69-.56-1.7,2.09.69.56-.2.26-.94-.76.93-1.15a3.06,3.06,0,0,0-.57-.17l.15-.32a4.34,4.34,0,0,1,.64.21l1-1.18Zm-.28.53-1.37,1.69-.23-.19,1.37-1.69Zm2.12.8a2.67,2.67,0,0,1,.51.5.55.55,0,0,1,.1.39,1.31,1.31,0,0,1-.32.52c-.22.28-.43.35-.63.19l-1.43-1.16-.46.56a2.63,2.63,0,0,1,.88,1.28,2.66,2.66,0,0,1-.09,1.35l-.35,0a2.37,2.37,0,0,0,.12-1.29,2,2,0,0,0-.77-1.1l-.6.74L52,48l2.12-2.63.24.19-.65.8,1.38,1.12a.16.16,0,0,0,.1,0s.11-.07.21-.19a1.06,1.06,0,0,0,.16-.24.26.26,0,0,0,0-.12.77.77,0,0,0-.19-.24,3.39,3.39,0,0,0-.39-.34Z"/><path class="cls-5" d="M9,30.59v.51L5.35,31l0,.74H4.72l0-2,.61,0,0,.74Z"/><path class="cls-5" d="M8.17,28.77l.91.42L9,29.78,4.85,27.91l.07-.5,4.49-.67-.08.6-1,.15Zm-2.26-.93,1.72.72.13-1Z"/><path class="cls-5" d="M9.65,25.87l-.13.55-4.14-.94.13-.56Z"/><path class="cls-5" d="M9.05,23.87,6.29,22.11l.1-.28,3.26.38L7,20.44l.2-.55,3.69,2.53-.15.41-3-.33,2.51,1.64-.15.4-4.43-.47.2-.56Z"/><path class="cls-5" d="M10.82,20.06l.69.72-.29.52L8,18.05l.25-.44,4.42,1-.29.53-1-.22Zm-1.76-1.7,1.33,1.3.49-.87Z"/><path class="cls-5" d="M9.43,15.71l.26-.34,3.69.42-2.46-1.87.34-.45,3.45,2.62-.25.34L10.77,16l2.48,1.88-.35.45Z"/><path class="cls-5" d="M16,10.31a.84.84,0,0,0-.84.13.87.87,0,0,0-.27.87,2,2,0,0,0,.48,1,1.89,1.89,0,0,0,.92.61.85.85,0,0,0,1.16-1l.57.67a1.54,1.54,0,0,1-.41.68,1.39,1.39,0,0,1-1.31.26,2.53,2.53,0,0,1-1.37-.87,2.67,2.67,0,0,1-.69-1.52,1.44,1.44,0,0,1,.46-1.27,1.38,1.38,0,0,1,.73-.3Z"/><path class="cls-5" d="M19,12.13l-.46.33L16.06,9l.46-.33Z"/><path class="cls-5" d="M19.55,10.61l.23,1-.51.31L18.16,7.47l.44-.26,3.31,3.11-.52.31L20.66,10Zm-.67-2.35.5,1.79.86-.51Z"/><path class="cls-5" d="M21.26,8.27a2.7,2.7,0,0,1-.17-1.64,1.4,1.4,0,0,1,2.19-.91,2.7,2.7,0,0,1,1,1.29,2.67,2.67,0,0,1,.17,1.63,1.4,1.4,0,0,1-.84,1.06,1.43,1.43,0,0,1-1.35-.15A2.68,2.68,0,0,1,21.26,8.27ZM21.79,8a2,2,0,0,0,.7.89.93.93,0,0,0,.89.15.92.92,0,0,0,.54-.72,2,2,0,0,0-.16-1.14,1.82,1.82,0,0,0-.67-.87.92.92,0,0,0-.89-.1.91.91,0,0,0-.55.7A1.93,1.93,0,0,0,21.79,8Z"/><path class="cls-5" d="M26.52,8.61,26,8.74l-1-3.5-.71.2-.17-.59,1.93-.54.16.59-.72.2Z"/><path class="cls-5" d="M27.09,6.24a2.7,2.7,0,0,1,.22-1.64,1.43,1.43,0,0,1,1.08-.83,1.41,1.41,0,0,1,1.27.47,2.73,2.73,0,0,1,.7,1.49,2.6,2.6,0,0,1-.23,1.63,1.38,1.38,0,0,1-1.07.83,1.41,1.41,0,0,1-1.27-.46A2.67,2.67,0,0,1,27.09,6.24Zm.57-.14a2,2,0,0,0,.47,1,.89.89,0,0,0,.83.35.87.87,0,0,0,.69-.56,2,2,0,0,0,.12-1.15,1.84,1.84,0,0,0-.44-1A.92.92,0,0,0,27.79,5,1.87,1.87,0,0,0,27.66,6.1Z"/><path class="cls-5" d="M31.06,3.58h.56l0,2.38c0,.92.25,1.37.7,1.36S33,6.84,33,5.93l0-2.38h.56l0,2.54c0,1.21-.39,1.83-1.21,1.84s-1.25-.59-1.27-1.8Z"/><path class="cls-5" d="M36.92,3.86l.92.18a1.39,1.39,0,0,1,1,.82A2.41,2.41,0,0,1,39,6.43a2.41,2.41,0,0,1-.74,1.41A1.38,1.38,0,0,1,37,8.21L36.09,8ZM36.78,7.5l.18,0c.79.15,1.28-.25,1.47-1.22s-.11-1.52-.89-1.68l-.19,0Z"/><path class="cls-5" d="M39.57,8.83,39,8.68l1.2-4.08.54.16Z"/><path class="cls-5" d="M42.82,6.39a.62.62,0,0,0-.37-.55.48.48,0,0,0-.39,0,.67.67,0,0,0-.29.36c-.06.16,0,.43.27.78s.35.53.36.53a1.14,1.14,0,0,1,.05.9,1.76,1.76,0,0,1-.65.89.94.94,0,0,1-.89.09,1.14,1.14,0,0,1-.67-1.13l.49-.3a1.15,1.15,0,0,0,.09.51.55.55,0,0,0,.3.33.42.42,0,0,0,.43-.06,1,1,0,0,0,.32-.43.65.65,0,0,0,0-.39,2.25,2.25,0,0,0-.48-.72A1.05,1.05,0,0,1,41.2,6.1a1.43,1.43,0,0,1,.57-.75.86.86,0,0,1,.79-.1,1,1,0,0,1,.68.77Z"/><path class="cls-5" d="M43.29,10.33l-.46-.23,1.61-3.26-.67-.33L44,6l1.79.88-.27.55-.66-.33Z"/><path class="cls-5" d="M46.13,12l-.59-.36.19-2.11-1,1.61-.48-.3,2.23-3.61.76.46q.94.59.27,1.68a1.48,1.48,0,0,1-.59.58.75.75,0,0,1-.65,0Zm-.25-2.72.14.09a.66.66,0,0,0,1-.28.63.63,0,0,0-.2-1L46.67,8Z"/><path class="cls-5" d="M46.89,12.57l-.46-.34L49,8.81l.46.34Z"/><path class="cls-5" d="M51.16,11.93a.86.86,0,0,0-.25-.82A.9.9,0,0,0,50,11a2,2,0,0,0-.95.62,1.92,1.92,0,0,0-.47,1,.93.93,0,0,0,.26.86.9.9,0,0,0,.86.14l-.58.66a1.33,1.33,0,0,1-1.19-1.56,2.56,2.56,0,0,1,.67-1.48,2.72,2.72,0,0,1,1.41-.9,1.38,1.38,0,0,1,1.32.27,1.33,1.33,0,0,1,.4.67Z"/><path class="cls-5" d="M50.11,15.5l-.35-.37,2.66-2.48-.5-.55.44-.41,1.37,1.46-.45.41L52.77,13Z"/><path class="cls-5" d="M55.93,18a.83.83,0,0,0,0-.85.88.88,0,0,0-.81-.39A2,2,0,0,0,54,17a1.91,1.91,0,0,0-.74.83.9.9,0,0,0,0,.9.87.87,0,0,0,.77.38l-.74.47a1.42,1.42,0,0,1-.61-.5,1.38,1.38,0,0,1-.08-1.33,2.55,2.55,0,0,1,1-1.24,2.65,2.65,0,0,1,1.61-.46,1.37,1.37,0,0,1,1.19.63,1.32,1.32,0,0,1,.19.76Z"/><path class="cls-5" d="M55.35,19.13A2.63,2.63,0,0,1,57,18.89a1.42,1.42,0,0,1,1.1.8A1.4,1.4,0,0,1,58,21a2.66,2.66,0,0,1-1.24,1.09,2.63,2.63,0,0,1-1.63.24,1.4,1.4,0,0,1-1.09-.8,1.42,1.42,0,0,1,.09-1.35A2.62,2.62,0,0,1,55.35,19.13Zm.29.52a1.93,1.93,0,0,0-.87.74.9.9,0,0,0-.11.88.89.89,0,0,0,.74.52,2,2,0,0,0,1.13-.21,1.8,1.8,0,0,0,.84-.71.9.9,0,0,0,.07-.88.91.91,0,0,0-.72-.53A1.84,1.84,0,0,0,55.64,19.65Z"/><path class="cls-5" d="M59,22.22l.17.54-2.28.69c-.88.26-1.25.61-1.12,1s.63.52,1.51.25l2.28-.68.16.53-2.43.74c-1.17.35-1.87.13-2.1-.67s.22-1.36,1.38-1.71Z"/><path class="cls-5" d="M56.16,28.58,56,27.89l1.7-1.25L55.88,27l-.1-.56L60,25.67l.15.87c.13.74-.23,1.17-1.07,1.32a1.51,1.51,0,0,1-.83-.05.76.76,0,0,1-.45-.46Zm1.87-2,0,.17c.08.46.37.64.87.56s.69-.36.61-.81l0-.18Z"/><path class="cls-5" d="M56.26,29.93l0-.51,3.63-.27-.06-.74.61,0,.15,2-.61,0,0-.74Z"/></svg>