<svg id="圖層_1" data-name="圖層 1" xmlns="http://www.w3.org/2000/svg" xmlns:xlink="http://www.w3.org/1999/xlink" viewBox="0 0 270.84 64"><defs><style>.cls-1{fill:#333;}.cls-2{fill:#fff;}.cls-3{fill:url(#linear-gradient);}.cls-4{fill:#005bab;}.cls-5{fill:#b7a246;}</style><linearGradient id="linear-gradient" x1="32.65" y1="60.77" x2="32.65" y2="37.52" gradientUnits="userSpaceOnUse"><stop offset="0.69" stop-color="#b7a246"/><stop offset="1" stop-color="#fff"/></linearGradient></defs><path class="cls-1" d="M91.73,15.18v1.46H82.3v1h7.58V19H72.63V17.67H80v-1H70.8V15.18H80V13.83H82.3v1.35ZM82.3,33.8h9.38v1.56H70.85V33.8H80v-1H73.18V31.36H80v-1c-4.39.12-5.09.19-5.57.33a12.07,12.07,0,0,0-.5-1.51,6.35,6.35,0,0,0,1.3-.31,13.8,13.8,0,0,0,2-1H73.56v-1.3h15.2V28H86.48a25.34,25.34,0,0,1,3.07,2.13L88.2,31.19a14.12,14.12,0,0,0-1.17-1l-4.73.12v1h7.25v1.39H82.3ZM71.16,24.32H91.35v3.46H89.24v-2H73.18v2h-2ZM89,19.93v3.53H73.61V19.93Zm-2.19,1.18H75.67v1.15H86.81ZM79.8,28a18.73,18.73,0,0,1-2.13,1.17L85.23,29c-.53-.33-1.08-.64-1.59-.91l.19-.14Z"/><path class="cls-1" d="M97.54,24.49A15,15,0,0,0,94.11,22l1.22-1.54a15,15,0,0,1,3.5,2.3Zm-3,10a79.8,79.8,0,0,0,3-7.61L99.34,28c-.77,2.47-1.8,5.35-2.76,7.58ZM98,18.32a15.3,15.3,0,0,0-3.34-2.66l1.3-1.47a15.51,15.51,0,0,1,3.4,2.45Zm2.8,4.54a11.76,11.76,0,0,1-1,3.24,5.4,5.4,0,0,0-1-.7,8.43,8.43,0,0,0,.87-2.83Zm3.1-1a4.67,4.67,0,0,0-.24-.72c-3.14.41-3.74.53-4.08.7a7.09,7.09,0,0,0-.48-1,2.17,2.17,0,0,0,1.13-.79,14.6,14.6,0,0,0,1.34-1.68,9.6,9.6,0,0,0-2.06.31,3.86,3.86,0,0,0-.48-1,1.35,1.35,0,0,0,.79-.62,12.62,12.62,0,0,0,1.42-3l1.32.46a14.22,14.22,0,0,1-1.59,2.73l1.39-.07a9.71,9.71,0,0,0,.6-1.08l1.28.53a22.73,22.73,0,0,1-2.76,3.67l1.75-.22c-.12-.24-.27-.48-.39-.69l1-.36a11.06,11.06,0,0,1,1.11,2.42ZM115.23,31a4.35,4.35,0,0,1-.15.84c-.4,2-.88,3.05-1.51,3.53a3.11,3.11,0,0,1-2,.55c-.72,0-2.18,0-3.67-.07a3.91,3.91,0,0,0-.6-1.7c1.46.14,3,.16,3.62.16a1.8,1.8,0,0,0,1-.16,3.14,3.14,0,0,0,.87-1.71H100.47a39,39,0,0,0,1-3.79H112v-1H100.73V26.24h13.39V30H103.27L103,31Zm-13.59-5.28a11.7,11.7,0,0,0-.48-2.88l1.06-.26a11.41,11.41,0,0,1,.55,2.76Zm2.09-.6a12.35,12.35,0,0,0-.74-2.61l1-.34a10.2,10.2,0,0,1,.79,2.5Zm6.53-7.61h-5.71V16.23H107a13.9,13.9,0,0,0-.84-1.82l1.46-.34a9.39,9.39,0,0,1,1,1.88l-1.11.28h2.81ZM105.19,22h4.54v3.53h-4.54Zm4.52-2.57h-4.47V18.25h4.47Zm-4.47.65h4.47v1.12h-4.47Zm1.35,4.34h1.7V23.05h-1.7Zm5.33-1.61a12.61,12.61,0,0,1-1,3.24,7.23,7.23,0,0,0-1-.72,8.9,8.9,0,0,0,.86-2.8Zm3.14-.81c-.07-.22-.17-.51-.29-.82a22.52,22.52,0,0,0-4.1.7c-.07-.19-.32-.75-.46-1a2.11,2.11,0,0,0,1.13-.81,17,17,0,0,0,1.32-1.66,7.93,7.93,0,0,0-2.06.34,5.74,5.74,0,0,0-.46-1c.26,0,.5-.27.77-.63a11.58,11.58,0,0,0,1.44-3l1.29.45a13.54,13.54,0,0,1-1.53,2.71l1.37-.07c.19-.36.4-.72.57-1.08l1.27.55a19.88,19.88,0,0,1-2.76,3.68l1.76-.22-.39-.7,1-.36a12.37,12.37,0,0,1,1.2,2.53Zm-2.28,3.93a13.79,13.79,0,0,0-.5-3.09l1-.27a13.82,13.82,0,0,1,.55,3Zm2.3-3.79a11.12,11.12,0,0,1,1,3l-1,.45a12.44,12.44,0,0,0-.91-3.07Z"/><path class="cls-1" d="M126.48,21.06a27.58,27.58,0,0,1-1.89,3.19V35.89h-2.21V27.11a23.3,23.3,0,0,1-2.47,2.42A20.47,20.47,0,0,0,118.06,28a20.52,20.52,0,0,0,6.19-7.56Zm0-4.92h2.35v2.11h-2.35v2.14h-2.19V18.25h-5.56V16.14h5.56V13.88h2.19Zm5.64,2.09h-2.45V16.14h2.45V13.88h2.23v2.26h5.4v2.09h-5.4v2.25H132.1Zm4.75,15.29c1.06,0,1.23-.63,1.37-3.63a6.57,6.57,0,0,0,2,.91c-.27,3.68-.87,4.78-3.2,4.78h-4.1c-2.57,0-3.27-.7-3.27-3.26V20.72h2.21v3.75h7.83v2.11h-7.83v5.74c0,1,.2,1.2,1.32,1.2Z"/><path class="cls-1" d="M148.61,26.72a20.62,20.62,0,0,1-2.21,4.88c.43.24.94.64,1.71,1.12,1.65,1,3.84,1.16,6.67,1.16a91.25,91.25,0,0,0,9.62-.56,9.93,9.93,0,0,0-.6,2.19c-1.89.14-6.31.29-9.09.29-3.17,0-5.24-.27-7-1.28-1-.57-1.85-1.36-2.36-1.36s-1.36,1.51-2.08,3l-1.42-1.94a10.81,10.81,0,0,1,2.28-2.43,15.31,15.31,0,0,0,1.94-3.64H143c.67-1.11,1.47-2.62,2.19-4.06h-2.57v-1.8h5.52c-.65,1.34-1.44,2.81-2.14,4.1h1.11l.33-.09Zm-1.3-9.62h-4.58V15.25h4.58V13.83h2.19v1.42h3.21V17.1H149.5v1.37h-2.19Zm-1.58,1.08c.55.89,1.25,2,1.63,2.71l-1.82.86c-.36-.71-1.11-1.94-1.59-2.83Zm9.22,15V31.67h-6.44V30H155V28.88h-5.24V22.23H155v-1.1h-6V19.55h6V18.3H157v1.25h6.24v1.58H157v1.1h5.4v6.65H157V30h6.65v1.63H157v1.51Zm-3.22-8.3H155V23.63h-3.22ZM155,27.49V26.22h-3.22v1.27Zm2.13-10.39H153.7V15.25h3.38V13.83h2.21v1.42h4.54V17.1h-4.54v1.08h-2.21ZM157,23.63v1.25h3.27V23.63Zm3.27,2.59H157v1.27h3.27Z"/><path class="cls-1" d="M173.74,26.65l.53,2c-2.52,1.2-5.21,2.45-7.3,3.38l-.89-2.23c.87-.31,2-.74,3.19-1.25V21.61h-2.73V19.5h2.73V14.17h2.09V19.5h2.43v2.11h-2.43v6.05Zm10.92,6.75c1.32,0,1.56-.6,1.75-3.22a6.43,6.43,0,0,0,2,.82c-.31,3.31-1,4.39-3.58,4.39h-5.52c-2.95,0-3.79-.75-3.79-3.63V24.83l-1.66.72-.84-2,2.5-1.06V16.14h2.11v5.47l2.69-1.13v-6.6h2.09v5.71l3.22-1.36,1.65.55-.09.36A79.39,79.39,0,0,1,186,29.6l-1.82-.5a73.4,73.4,0,0,0,.74-8.33l-2.54,1.11v8.61h-2.09V22.76l-2.69,1.16v7.87c0,1.34.27,1.61,1.8,1.61Z"/><path class="cls-1" d="M199.59,20c-.08,1.12-.15,2.28-.29,3.41h10.2a6.53,6.53,0,0,1-.1,1c-.45,6.63-.91,9.27-1.87,10.25a3.26,3.26,0,0,1-2.28.94,33.36,33.36,0,0,1-4.05-.05,4.41,4.41,0,0,0-.8-2.18c1.71.14,3.34.16,4,.16a1.68,1.68,0,0,0,1.15-.28c.68-.56,1.11-2.79,1.49-7.68H199c-.76,4.12-2.52,8-7,10.39a6.84,6.84,0,0,0-1.63-1.83c5.95-3,6.51-8.85,6.75-14.13h-6.29V17.84H201.1a23.79,23.79,0,0,0-1.51-3.36l2.18-.81a24.16,24.16,0,0,1,1.71,3.48l-1.61.69h9.86V20Z"/><path class="cls-1" d="M218.71,24.76a22.32,22.32,0,0,0-4.41-2.6l1.17-1.68a20.33,20.33,0,0,1,4.47,2.43Zm-3.62,9.33a65.87,65.87,0,0,0,4.54-7.61L221.26,28c-1.25,2.5-2.83,5.38-4.25,7.63Zm1.78-20a24.27,24.27,0,0,1,4.51,2.45l-1.3,1.85a20.29,20.29,0,0,0-4.46-2.67Zm17,21.75a11.81,11.81,0,0,0-1-2.26c-8.47,1-9.55,1.23-10.27,1.56a19.26,19.26,0,0,0-.77-2.23c.51-.12,1-.67,1.54-1.56a34,34,0,0,0,3-5.54h-4.94V23.72h5.93V19.83h-4.93V17.72h4.93V13.86h2.28v3.86h5.11v2.11h-5.11v3.89h6v2.12H229a46.21,46.21,0,0,1-3.82,6.64l6.67-.72c-.57-1-1.25-1.92-1.87-2.8l1.8-.87a28.58,28.58,0,0,1,4.1,6.77Z"/><path class="cls-1" d="M246.29,15.59c-.67,2-1.51,4.32-2.23,6.16A7.84,7.84,0,0,1,246,26.87a3.54,3.54,0,0,1-1,2.93,2.94,2.94,0,0,1-1.3.48c-.43,0-1,0-1.58,0a4.83,4.83,0,0,0-.51-1.94,10.45,10.45,0,0,0,1.23,0,1.22,1.22,0,0,0,.69-.19,2,2,0,0,0,.49-1.56,6.92,6.92,0,0,0-2-4.63c.6-1.58,1.24-3.6,1.68-5.19h-2.62v19h-2v-21h5.35l.32-.09ZM258,33.68c.45,0,.55-.38.6-2.95a4.89,4.89,0,0,0,1.87.82c-.19,3.21-.7,4-2.23,4h-1.95C254.4,35.58,254,35,254,33V27.3h-2.09c-.38,4.2-1.53,7-6.07,8.59a6,6,0,0,0-1.27-1.77c4-1.28,4.87-3.44,5.18-6.82H246.6v-2h13.52v2h-4v5.64c0,.65.08.74.53.74Zm-9.53-12.53h-1.9V16.74h5.83a18.89,18.89,0,0,0-1.12-2.47l2.06-.6a16.22,16.22,0,0,1,1.46,3.07H260v4.41h-1.9V23h-9.67Zm.16-2.47V21h9.27V18.68Z"/><path class="cls-1" d="M71.8,45v-.78h4.33V45H74.37v7.12h-.81V45Z"/><path class="cls-1" d="M84.32,46.23v5.84h-.74v-1a3.27,3.27,0,0,1-1.06.86,2.81,2.81,0,0,1-1.29.29,2.86,2.86,0,0,1-2.12-.9,3,3,0,0,1-.88-2.18A2.94,2.94,0,0,1,79.12,47a2.88,2.88,0,0,1,2.13-.9,2.66,2.66,0,0,1,1.3.31,3,3,0,0,1,1,.91V46.23Zm-3,.57a2.25,2.25,0,0,0-2,1.18A2.37,2.37,0,0,0,79,49.16a2.39,2.39,0,0,0,.31,1.18,2.32,2.32,0,0,0,.85.88,2.23,2.23,0,0,0,1.15.31,2.33,2.33,0,0,0,1.17-.31,2.21,2.21,0,0,0,.85-.84,2.42,2.42,0,0,0,.29-1.2A2.31,2.31,0,0,0,83,47.49,2.22,2.22,0,0,0,81.31,46.8Z"/><path class="cls-1" d="M87.62,43.82a.58.58,0,0,1,.44.19.59.59,0,0,1,.18.44.58.58,0,0,1-.18.43.6.6,0,0,1-.44.18.6.6,0,0,1-.43-.18.58.58,0,0,1-.18-.43.59.59,0,0,1,.18-.44A.57.57,0,0,1,87.62,43.82Zm-.37,2.41H88v5.84h-.75Z"/><path class="cls-1" d="M90.13,46.23h.77l1.79,4.24,1.87-4.24h.14l1.87,4.24,1.83-4.24h.78l-2.54,5.84H96.5l-1.87-4.18-1.86,4.18h-.14Z"/><path class="cls-1" d="M107.24,46.23v5.84h-.75v-1a3.08,3.08,0,0,1-1.06.86,2.77,2.77,0,0,1-1.28.29,2.84,2.84,0,0,1-2.12-.9,3,3,0,0,1-.88-2.18A2.94,2.94,0,0,1,102,47a2.88,2.88,0,0,1,2.13-.9,2.69,2.69,0,0,1,1.3.31,2.92,2.92,0,0,1,1,.91V46.23Zm-3,.57a2.25,2.25,0,0,0-2,1.18,2.38,2.38,0,0,0-.32,1.18,2.41,2.41,0,0,0,.32,1.18,2.25,2.25,0,0,0,.85.88,2.22,2.22,0,0,0,1.14.31,2.28,2.28,0,0,0,1.17-.31,2.24,2.24,0,0,0,.86-.84,2.53,2.53,0,0,0,.29-1.2,2.31,2.31,0,0,0-.66-1.69A2.22,2.22,0,0,0,104.23,46.8Z"/><path class="cls-1" d="M110.28,46.23H111v1.05a3.22,3.22,0,0,1,1-.9,2.45,2.45,0,0,1,1.19-.3,2.11,2.11,0,0,1,1.17.33,2.07,2.07,0,0,1,.75.9,4.79,4.79,0,0,1,.24,1.76v3h-.75V49.29a6.34,6.34,0,0,0-.09-1.35,1.45,1.45,0,0,0-.5-.88,1.55,1.55,0,0,0-1-.29,1.86,1.86,0,0,0-1.22.45,2.1,2.1,0,0,0-.71,1.12,7.84,7.84,0,0,0-.11,1.59v2.14h-.75Z"/><path class="cls-1" d="M122.85,44.17h.79v3.32h4V44.17h.79v7.9h-.79V48.26h-4v3.81h-.79Z"/><path class="cls-1" d="M131.51,46.23h.75V49a5.86,5.86,0,0,0,.11,1.37,1.52,1.52,0,0,0,.62.85,2,2,0,0,0,2.15,0,1.54,1.54,0,0,0,.6-.8,5.25,5.25,0,0,0,.12-1.43V46.23h.76V49.1a4.53,4.53,0,0,1-.28,1.82,2.14,2.14,0,0,1-.85,1,3.14,3.14,0,0,1-2.84,0,2.19,2.19,0,0,1-.86-1,4.67,4.67,0,0,1-.28-1.87Z"/><path class="cls-1" d="M145.47,46.23v5.84h-.74v-1a3.27,3.27,0,0,1-1.06.86,2.78,2.78,0,0,1-1.29.29,2.86,2.86,0,0,1-2.12-.9,3,3,0,0,1-.88-2.18,2.94,2.94,0,0,1,.89-2.16,2.88,2.88,0,0,1,2.13-.9,2.72,2.72,0,0,1,1.31.31,3.11,3.11,0,0,1,1,.91V46.23Zm-3,.57a2.28,2.28,0,0,0-2,1.18,2.37,2.37,0,0,0-.31,1.18,2.39,2.39,0,0,0,.31,1.18,2.32,2.32,0,0,0,.85.88,2.23,2.23,0,0,0,1.15.31,2.33,2.33,0,0,0,1.17-.31,2.21,2.21,0,0,0,.85-.84,2.43,2.43,0,0,0,.3-1.2,2.32,2.32,0,0,0-.67-1.69A2.2,2.2,0,0,0,142.46,46.8Z"/><path class="cls-1" d="M148.4,44h.75v8.1h-.75Z"/><path class="cls-1" d="M152.33,43.82a.58.58,0,0,1,.44.19.59.59,0,0,1,.18.44.58.58,0,0,1-.18.43.6.6,0,0,1-.44.18.61.61,0,0,1-.61-.61.59.59,0,0,1,.18-.44A.56.56,0,0,1,152.33,43.82ZM152,46.23h.75v5.84H152Z"/><path class="cls-1" d="M160.54,50.13l.64.34a3.52,3.52,0,0,1-.72,1,2.84,2.84,0,0,1-.92.57,3.25,3.25,0,0,1-1.16.19,2.78,2.78,0,0,1-2.23-.93,3.2,3.2,0,0,1-.13-4.1,2.79,2.79,0,0,1,2.32-1.11,2.9,2.9,0,0,1,2.39,1.13,3.15,3.15,0,0,1,.64,2h-5.26a2.39,2.39,0,0,0,.65,1.67,2.1,2.1,0,0,0,1.56.65,2.57,2.57,0,0,0,.87-.15,2.53,2.53,0,0,0,.72-.42A3.27,3.27,0,0,0,160.54,50.13Zm0-1.57a2.51,2.51,0,0,0-.43-1,2.14,2.14,0,0,0-.76-.58,2.31,2.31,0,0,0-1-.22,2.14,2.14,0,0,0-1.48.55,2.47,2.47,0,0,0-.68,1.21Z"/><path class="cls-1" d="M164.13,46.23h.75v1.05a3.12,3.12,0,0,1,1-.9,2.42,2.42,0,0,1,1.19-.3,2.07,2.07,0,0,1,1.16.33,2,2,0,0,1,.75.9,4.79,4.79,0,0,1,.24,1.76v3h-.75V49.29a7.41,7.41,0,0,0-.08-1.35,1.36,1.36,0,0,0-1.47-1.17,1.86,1.86,0,0,0-1.22.45,2.1,2.1,0,0,0-.71,1.12,7.84,7.84,0,0,0-.11,1.59v2.14h-.75Z"/><path class="cls-1" d="M176.71,52.07v-7.9h1.64a8.29,8.29,0,0,1,2.57.29,3.43,3.43,0,0,1,1.8,1.39,4.29,4.29,0,0,1,.65,2.37,4.18,4.18,0,0,1-.52,2.09,3.21,3.21,0,0,1-1.33,1.33,5,5,0,0,1-2.3.43Zm.76-.74h.91a8.26,8.26,0,0,0,2.27-.21,2.59,2.59,0,0,0,1.4-1,3.21,3.21,0,0,0,.52-1.84,3.38,3.38,0,0,0-.56-2,2.78,2.78,0,0,0-1.54-1.11A9.36,9.36,0,0,0,178,45h-.56Z"/><path class="cls-1" d="M186.39,43.82a.63.63,0,0,1,.62.63.58.58,0,0,1-.18.43.62.62,0,0,1-.44.18.6.6,0,0,1-.44-.18.58.58,0,0,1-.18-.43A.59.59,0,0,1,186,44,.58.58,0,0,1,186.39,43.82ZM186,46.23h.75v5.84H186Z"/><path class="cls-1" d="M192.62,46.87l-.48.5a1.77,1.77,0,0,0-1.18-.59.88.88,0,0,0-.63.24.74.74,0,0,0-.26.57.84.84,0,0,0,.21.54,3.13,3.13,0,0,0,.91.62,3.34,3.34,0,0,1,1.14.84,1.5,1.5,0,0,1,.29.91,1.61,1.61,0,0,1-.5,1.22,1.71,1.71,0,0,1-1.27.5,2.17,2.17,0,0,1-1-.22,2.05,2.05,0,0,1-.76-.6l.47-.54a1.65,1.65,0,0,0,1.22.65,1.12,1.12,0,0,0,.77-.29.9.9,0,0,0,.32-.68.88.88,0,0,0-.21-.58,3.54,3.54,0,0,0-.95-.62,2.9,2.9,0,0,1-1.07-.81,1.49,1.49,0,0,1-.29-.9,1.45,1.45,0,0,1,.46-1.11,1.58,1.58,0,0,1,1.14-.44A2.38,2.38,0,0,1,192.62,46.87Z"/><path class="cls-1" d="M196,44.06h.75v2.17h1.19v.65h-1.19v5.19H196V46.88h-1v-.65h1Z"/><path class="cls-1" d="M200.1,46.23h.77v.85a2.89,2.89,0,0,1,.72-.75,1.42,1.42,0,0,1,.8-.25,1.38,1.38,0,0,1,.66.2l-.39.63a1,1,0,0,0-.4-.1,1.05,1.05,0,0,0-.72.31,1.91,1.91,0,0,0-.53,1,8.71,8.71,0,0,0-.14,2v2h-.77Z"/><path class="cls-1" d="M205.31,43.82a.63.63,0,0,1,.62.63.58.58,0,0,1-.18.43.62.62,0,0,1-.44.18.6.6,0,0,1-.44-.18.58.58,0,0,1-.18-.43.59.59,0,0,1,.18-.44A.58.58,0,0,1,205.31,43.82Zm-.38,2.41h.75v5.84h-.75Z"/><path class="cls-1" d="M214.27,47.44l-.59.37a2.51,2.51,0,0,0-2.11-1,2.49,2.49,0,0,0-1.78.68,2.25,2.25,0,0,0-.7,1.67,2.46,2.46,0,0,0,.32,1.21,2.4,2.4,0,0,0,.89.87,2.7,2.7,0,0,0,3.38-.72l.59.4a2.88,2.88,0,0,1-1.12,1,3.63,3.63,0,0,1-1.61.34,3.16,3.16,0,0,1-2.3-.88,2.84,2.84,0,0,1-.91-2.14,3.11,3.11,0,0,1,.42-1.58,3.05,3.05,0,0,1,1.18-1.13,3.41,3.41,0,0,1,1.67-.41,3.55,3.55,0,0,1,1.12.18,3.11,3.11,0,0,1,.91.46A2.47,2.47,0,0,1,214.27,47.44Z"/><path class="cls-1" d="M217.73,44.06h.75v2.17h1.19v.65h-1.19v5.19h-.75V46.88h-1v-.65h1Z"/><path class="cls-1" d="M234,45.64l-.62.48a3.37,3.37,0,0,0-1.24-1,3.63,3.63,0,0,0-1.59-.35,3.44,3.44,0,0,0-1.75.46,3.33,3.33,0,0,0-1.25,1.22,3.41,3.41,0,0,0-.44,1.72,3.24,3.24,0,0,0,1,2.41,3.46,3.46,0,0,0,2.5,1,3.54,3.54,0,0,0,2.78-1.3l.62.47a3.9,3.9,0,0,1-1.47,1.16,4.71,4.71,0,0,1-2,.41,4.06,4.06,0,0,1-4.27-4.19,3.91,3.91,0,0,1,1.21-2.92,4.22,4.22,0,0,1,3-1.19,4.49,4.49,0,0,1,2,.44A3.8,3.8,0,0,1,234,45.64Z"/><path class="cls-1" d="M239.61,46.08a2.9,2.9,0,0,1,2.24,1,3,3,0,0,1,.81,2.11,3.05,3.05,0,0,1-.86,2.14,3.1,3.1,0,0,1-4.39,0,3.09,3.09,0,0,1-.85-2.14,3,3,0,0,1,.81-2.11A2.9,2.9,0,0,1,239.61,46.08Zm0,.74a2.16,2.16,0,0,0-1.61.69,2.31,2.31,0,0,0-.68,1.67,2.45,2.45,0,0,0,.31,1.19,2.23,2.23,0,0,0,.83.84,2.35,2.35,0,0,0,2.3,0,2.23,2.23,0,0,0,.83-.84,2.45,2.45,0,0,0,.3-1.19,2.3,2.3,0,0,0-.67-1.67A2.18,2.18,0,0,0,239.61,46.82Z"/><path class="cls-1" d="M245.3,46.23h.76V49a6,6,0,0,0,.1,1.37,1.57,1.57,0,0,0,.62.85,2,2,0,0,0,2.15,0,1.56,1.56,0,0,0,.61-.8,5.88,5.88,0,0,0,.11-1.43V46.23h.77V49.1a4.71,4.71,0,0,1-.28,1.82,2.14,2.14,0,0,1-.85,1,2.69,2.69,0,0,1-1.42.34,2.73,2.73,0,0,1-1.43-.34,2.11,2.11,0,0,1-.85-1A4.64,4.64,0,0,1,245.3,49Z"/><path class="cls-1" d="M253.16,46.23h.76v.85a2.91,2.91,0,0,1,.73-.75,1.4,1.4,0,0,1,.8-.25,1.38,1.38,0,0,1,.66.2l-.39.63a1,1,0,0,0-.4-.1,1.05,1.05,0,0,0-.72.31,1.91,1.91,0,0,0-.54,1,9.33,9.33,0,0,0-.14,2v2h-.76Z"/><path class="cls-1" d="M258.76,44.06h.75v2.17h1.19v.65h-1.19v5.19h-.75V46.88h-1v-.65h1Z"/><circle class="cls-2" cx="32.65" cy="31.37" r="30.28"/><path class="cls-3" d="M61.52,37.78a29.81,29.81,0,0,1-28.83,23c-13.95,0-25.93-10.21-28.92-23.25h7.44c2.8,9,11.53,16.07,21.48,16.07A22.63,22.63,0,0,0,54.08,37.78Z"/><path class="cls-4" d="M53.63,31.28a21,21,0,1,1-21-21A21,21,0,0,1,53.63,31.28Z"/><path class="cls-2" d="M34.33,33.78H31V42a1.68,1.68,0,0,0,1.69,1.65A1.64,1.64,0,0,0,34.33,42Z"/><path class="cls-2" d="M35.56,44H29.74a.7.7,0,0,0-.76.65v.77a.7.7,0,0,0,.76.65h5.82a.69.69,0,0,0,.75-.65v-.77A.7.7,0,0,0,35.56,44Z"/><path class="cls-2" d="M36.69,46.86h-8c-.56,0-1,.3-1,.69v.75c0,.41.41.7,1,.7h8c.55,0,1-.29,1-.7v-.75C37.65,47.16,37.24,46.86,36.69,46.86Z"/><path class="cls-2" d="M48.92,23.27a.91.91,0,0,0-.41-.63,1.1,1.1,0,0,0-1.36.13,6.57,6.57,0,0,1-8.67.07,8.88,8.88,0,0,0-11.24-.17l.05,0-.2.16,0,0a6.27,6.27,0,0,1-4.38,1.67,6.23,6.23,0,0,1-4.38-1.67,1.09,1.09,0,0,0-.68-.3,1.13,1.13,0,0,0-.69.17.94.94,0,0,0-.41.63v.1a.8.8,0,0,0,.27.6,8.38,8.38,0,0,0,5.9,2.28,8.45,8.45,0,0,0,5.48-1.9l0,0s0,0,0,0l.15-.12a6.55,6.55,0,0,1,8.68-.07,8.47,8.47,0,0,0,5.71,2.09A8.37,8.37,0,0,0,48.66,24a.87.87,0,0,0,.26-.61Zm0,0h0v0Z"/><path class="cls-2" d="M36.14,17a3.45,3.45,0,1,1-3.46-3.46A3.46,3.46,0,0,1,36.14,17Z"/><path class="cls-2" d="M27.58,38.37l-5.32-12a.56.56,0,0,0-.52-.35.57.57,0,0,0-.52.36h0l-5.31,12a.75.75,0,0,0,0,.62,6.46,6.46,0,0,0,5.81,3.15A6.43,6.43,0,0,0,27.55,39,.72.72,0,0,0,27.58,38.37ZM21.74,28.14c.32.71,4.33,9.77,4.61,10.41H17.13l3.09-7Z"/><path class="cls-2" d="M49.53,38.37l-5.31-12A.56.56,0,0,0,43.7,26a.57.57,0,0,0-.53.37v0l-5.3,12a.71.71,0,0,0,0,.62,6.45,6.45,0,0,0,5.81,3.15A6.44,6.44,0,0,0,49.51,39,.72.72,0,0,0,49.53,38.37ZM43.7,28.14l4.61,10.41H39.08c.2-.43,2-4.5,2-4.5S43.4,28.83,43.7,28.14Z"/><path class="cls-2" d="M38.26,25.42a.82.82,0,0,0-.88.91H36.22v-.52h-7v.52H28a.82.82,0,0,0-.88-.91s-.77,0-.77,1v4.36c0,1.07.77,1,.77,1a.83.83,0,0,0,.88-.92h1.15v.54H31v1.59h3.31V31.47h1.89v-.54h1.16a.83.83,0,0,0,.88.92s.77,0,.77-1V26.45C39,25.4,38.26,25.42,38.26,25.42Z"/><path class="cls-2" d="M12.75,51.37l-3.41-4.2.2-.16,1.6,2,.28-.22-1.37-1.69.19-.15,1.37,1.68.26-.2c-.2-.24-.6-.72-1.2-1.47l.16-.19a1.77,1.77,0,0,0,1,.56l-.54-.67.18-.15,2.4,3-.19.15-.26-.33a5.93,5.93,0,0,1-.12.93L13,50.11a1.58,1.58,0,0,0,.07-.34l-1-1.12-.26.21,1.36,1.68L13,50.7,11.63,49l-.28.22,1.6,2Zm1.38-1.25-.21-.25.43-.36L11.51,46l-.43.34-.2-.25.62-.51,3.26,4Zm-1.05-.72a2.74,2.74,0,0,0,0-.31l.19,0-1.17-1.45a2.23,2.23,0,0,1-.79-.27C11.66,47.79,12.24,48.46,13.08,49.4ZM14.6,49l-2.5-3.09.64-.52,2.51,3.09Zm0-.42.25-.21-2.08-2.56-.25.2Zm1.76-.1-1.58-1.95-.24.19,1.41,1.74-.19.16L12.7,44.83l.2-.16,1.42,1.75.23-.2-1.59-2,.2-.17,1.59,2,.22-.17.21.26-.21.18,1.58,2Z"/><path class="cls-2" d="M15.92,51.67a11.61,11.61,0,0,1-1.84,1L14,52.4a12.6,12.6,0,0,0,1.82-1Zm2.77,3.27-.4.39a.43.43,0,0,1-.3.14.49.49,0,0,1-.37-.11l-1.14-.86.07-.3,1.24.93a.2.2,0,0,0,.28,0l.18-.18-2.89-2.16.8-.5,2.47,1.85.2-.28L16.1,51.79l.16-.2,3,2.24-.52.69-2.52-1.89-.33.2Zm-2.12-4.22-.3.07A4.82,4.82,0,0,0,16,49.7l.31-.06A5.66,5.66,0,0,1,16.57,50.72ZM17,51a4.82,4.82,0,0,1-.57.39l-.15-.23a3.62,3.62,0,0,0,.56-.37Zm0,.77-.21-.12a3.36,3.36,0,0,0,.29-.56l.23.12A4,4,0,0,1,17,51.79Zm1-.38-.24-.08a.37.37,0,0,0,0-.15,10.41,10.41,0,0,1-.93-.49l0-.21a10,10,0,0,0,1-.15L17.41,50l.05-.23a4,4,0,0,0,1.16-.34l.13.26a5.73,5.73,0,0,1-.92.28,3.58,3.58,0,0,0,.4.23l.32-.11.12.25a5.35,5.35,0,0,1-1.32.31l.48.24a.34.34,0,0,0,0-.18l.25.07A2.39,2.39,0,0,1,18,51.41Zm-.43-1.76-.31.05A5,5,0,0,0,17,48.6l.31-.05A5.4,5.4,0,0,1,17.55,49.65ZM17.45,52l-.24-.1a3.35,3.35,0,0,0,.23-.55l.24.09A3.16,3.16,0,0,1,17.45,52Zm1,.87-.88-.66.54-.72.88.66Zm-.06-.36.24-.32-.45-.33-.23.32Zm.73-.56-.87-.65.15-.2.87.65Zm.11.79a3.23,3.23,0,0,1-.53.46l-.17-.2a3.32,3.32,0,0,0,.52-.45Zm.19-1.19-.87-.65.15-.19.86.65Zm.43-.28-1.12-.85.15-.2.48.36a1.43,1.43,0,0,0,.07-.36l.27.08a2.54,2.54,0,0,1-.09.47l.39.29Zm-.53,2.29-.25-.13a2,2,0,0,0,.32-.56l.22.12A3.39,3.39,0,0,1,19.33,53.56Zm1-.36L20,53.11l.06-.19c-.39-.19-.7-.37-1-.52l.06-.21a8.07,8.07,0,0,0,1-.11l-.53-.35.06-.19a5.37,5.37,0,0,0,1.21-.32l.16.26a5,5,0,0,1-1,.25,4.88,4.88,0,0,0,.46.26l.34-.12.12.27a6,6,0,0,1-1.34.28,3.87,3.87,0,0,0,.45.25.58.58,0,0,0,0-.19l.27.08A5.51,5.51,0,0,1,20.28,53.2Zm-.47.68-.24-.1a4.17,4.17,0,0,0,.18-.63l.24.1A3.06,3.06,0,0,1,19.81,53.88Z"/><path class="cls-2" d="M22.94,54.12a7.33,7.33,0,0,1-.82.59l-1,2.5-.31-.12L21.66,55a7.89,7.89,0,0,1-1.16.38l-.16-.3a4.53,4.53,0,0,0,2.33-1.14Zm.84-.53-.72-.28-.21.53-.31-.12.21-.54-1.43-.56.11-.27,1.43.56.23-.59.31.12-.23.59.72.29Zm1.6,3.87a2.8,2.8,0,0,1-.48.81.67.67,0,0,1-.35.15,4.19,4.19,0,0,1-.93-.3,3.32,3.32,0,0,1-1-.48.38.38,0,0,1,0-.42l1.12-2.85.32.13-.37,1,2,.81-.11.27-2.05-.81L23,57.33a.14.14,0,0,0,.05.19,3.87,3.87,0,0,0,.73.32,4.28,4.28,0,0,0,.81.28c.07,0,.16-.09.26-.26a4.52,4.52,0,0,0,.33-.63Zm1.13-2.8-1.41-.55-.23.58-.31-.12.23-.58L24,53.68l.11-.27.77.3.23-.59.31.12-.23.59,1.4.56Z"/><path class="cls-2" d="M32.06,59.28l-.13.29-2.5-.26a3,3,0,0,1-1.88-.76,3.71,3.71,0,0,1-.9.54l-.16-.26A2.77,2.77,0,0,0,28,57.57l-1.1-.13,0-.23c.43-.33.79-.62,1.08-.88l-1-.11L27,56l1.41.16,0,.26c-.38.33-.72.61-1,.84l1,.11,0,.29a4.1,4.1,0,0,1-.54.75,3,3,0,0,0,1.72.66C30.09,59.1,31,59.18,32.06,59.28ZM29.6,54.85l-.81-.09-.05.45-.31,0,.05-.45L27,54.55l0-.27,1.5.17,0-.41.31,0,0,.41.81.09Zm-1.32.82-.25.18a3.93,3.93,0,0,0-.78-.75l.25-.19A3.1,3.1,0,0,1,28.28,55.67Zm3.8,3-1.74-.2-.05.4-.33,0,0-.4-1.69-.19,0-.27,1.69.2,0-.37-1.36-.16.18-1.58,1.36.15,0-.37-1.68-.19,0-.25,1.68.19,0-.25.34,0,0,.26,1.63.18,0,.25-1.63-.18,0,.37,1.37.15L31.78,58l-1.37-.16,0,.37,1.74.2Zm-2-1.11,0-.44-1-.12-.05.44Zm.08-.68.05-.41-1-.12-.05.42Zm2.3-1.73L31,55l0,.26-.33,0,0-.26-.8-.09,0-.27.8.09.05-.41.32,0,0,.41,1.47.17Zm-1,2.56,0-.43-1-.12-.05.43Zm.07-.67.05-.42-1-.11,0,.41Z"/><path class="cls-2" d="M35.26,58.25a14.5,14.5,0,0,1-1.7,1l-.13-.29a7.84,7.84,0,0,0,.76-.39l-.29-2.35-.72.08,0-.3.73-.09-.18-1.42.33,0,.18,1.42.69-.08,0,.3-.69.08.27,2.23.67-.43Zm3.66-.38a1.78,1.78,0,0,1-.09.83.5.5,0,0,1-.28.27c-.1,0-.44.08-1,.15l-1.38.15a.4.4,0,0,1-.33-.11.53.53,0,0,1-.14-.3l-.29-2.42-.55.25-.08-.3.59-.27-.16-1.24.32,0L35.66,56l1-.44-.18-1.48.32,0,.17,1.38,1.32-.62a11.49,11.49,0,0,1,0,2.55l-.33,0a11,11,0,0,0,.07-2l-1,.46L37.25,58l-.32,0-.28-2.22-.95.45L36,58.84s0,0,0,.07a.2.2,0,0,0,.08,0,2.11,2.11,0,0,0,.38,0l.71-.08a6.78,6.78,0,0,0,1.24-.2c.11,0,.15-.33.13-.83Z"/><path class="cls-2" d="M44.24,52.87,41,54.18c.12.29.24.62.36,1l2.53-1a11.18,11.18,0,0,1,.51,1.55,3.76,3.76,0,0,1,.17,1,.66.66,0,0,1-.16.36,2.88,2.88,0,0,1-.71.38l-.39.15-.22-.28a5.37,5.37,0,0,0,.56-.21,1.92,1.92,0,0,0,.5-.25.4.4,0,0,0,.08-.2,5,5,0,0,0-.16-.78,12.14,12.14,0,0,0-.39-1.25l-2.23.91a3.29,3.29,0,0,1-.69,3.07l-.35-.13a3.89,3.89,0,0,0,.66-1.16A2.39,2.39,0,0,0,41.23,56a8.13,8.13,0,0,0-.54-1.68L39.13,55,39,54.64l2.47-1a4.31,4.31,0,0,0-.89-.56l.25-.26a4.55,4.55,0,0,1,1,.68l2.28-.93Z"/><path class="cls-2" d="M45.62,51.26l-.06.31a6.2,6.2,0,0,0-1.29,0l0-.31A5.4,5.4,0,0,1,45.62,51.26Zm.8,1.25,0,.34a4.42,4.42,0,0,0-1.31,0v-.32A5.16,5.16,0,0,1,46.42,52.51Zm3.6-2.2-1.59,1.21A10.49,10.49,0,0,1,48.57,54a23.77,23.77,0,0,0,1.79-1.88,6.66,6.66,0,0,0-1.12-.33l.13-.3a10.63,10.63,0,0,1,2.09.73l-.11.32a3.68,3.68,0,0,0-.7-.31,30.65,30.65,0,0,1-2.21,2.29l-.3-.17a2.08,2.08,0,0,0,.15-1,9.77,9.77,0,0,0-.17-1.57l-1.24,1-.19-.24,1.46-1.11-.72-.94-1.22.93L46,51.11l1.22-.93-.56-.74.26-.2.56.74,1.21-.92.18.24-1.21.92.72.94,1.43-1.09Zm-3,2.95a12.15,12.15,0,0,1,.32,2.29l-.34,0a9.52,9.52,0,0,0-.3-2.28Z"/><path class="cls-2" d="M50.84,48.1a2.2,2.2,0,0,1,1.41.45.7.7,0,0,1,.25.4c0,.15-.06.35-.26.6l-.16.18-.32-.11.22-.27a.62.62,0,0,0,.19-.34.29.29,0,0,0-.11-.21,2.14,2.14,0,0,0-1.4-.41c-.23-.36-.5-.79-.83-1.29l-.59.73,3.73,3-.2.25-4-3.21,1-1.25.23.19C50.32,47.24,50.58,47.66,50.84,48.1Zm2.55-3.24-.21.26-.69-.56-1.7,2.09.69.56-.2.26-.94-.76.93-1.15a3.06,3.06,0,0,0-.57-.17l.15-.32a4.34,4.34,0,0,1,.64.21l1-1.18Zm-.28.53-1.37,1.69-.23-.19,1.37-1.69Zm2.12.8a2.67,2.67,0,0,1,.51.5.55.55,0,0,1,.1.39,1.31,1.31,0,0,1-.32.52c-.22.28-.43.35-.63.19l-1.43-1.16-.46.56a2.63,2.63,0,0,1,.88,1.28,2.66,2.66,0,0,1-.09,1.35l-.35,0a2.37,2.37,0,0,0,.12-1.29,2,2,0,0,0-.77-1.1l-.6.74L52,48l2.12-2.63.24.19-.65.8,1.38,1.12a.16.16,0,0,0,.1,0s.11-.07.21-.19a1.06,1.06,0,0,0,.16-.24.26.26,0,0,0,0-.12.77.77,0,0,0-.19-.24,3.39,3.39,0,0,0-.39-.34Z"/><path class="cls-5" d="M9,29.91l0,.51-3.63-.2,0,.75-.6,0,.1-2,.61,0,0,.74Z"/><path class="cls-5" d="M8.26,28.08l.89.45-.1.59L5,27.13l.08-.5,4.51-.54-.1.6-1,.12ZM6,27.08l1.7.77.16-1Z"/><path class="cls-5" d="M9.82,25.2l-.14.55L5.57,24.68l.14-.55Z"/><path class="cls-5" d="M9.28,23.19,6.57,21.35l.11-.28,3.25.47L7.28,19.71l.21-.56,3.62,2.65-.16.4-3-.42,2.46,1.71-.16.4-4.42-.6.22-.55Z"/><path class="cls-5" d="M11.16,19.44l.66.74-.3.51L8.44,17.35l.25-.44,4.4,1.15-.31.52-1-.25ZM9.44,17.69,10.74,19l.51-.86Z"/><path class="cls-5" d="M9.89,15.05l.26-.33,3.68.53-2.4-1.94.35-.44,3.38,2.71-.27.34-3.67-.53,2.42,1.95-.35.44Z"/><path class="cls-5" d="M16.87,10.56,15.79,9.21l.44-.35,2.65,3.32-.44.35L17.22,11l-1.08.86,1.22,1.53-.44.35-2.65-3.32.44-.35,1.08,1.35Z"/><path class="cls-5" d="M17.15,8.22l.48-.29,1.23,2c.48.78.91,1.06,1.29.83S20.5,10,20,9.26l-1.23-2,.48-.29,1.31,2.17c.63,1,.59,1.77-.11,2.2s-1.38.12-2-.92Z"/><path class="cls-5" d="M22.17,9.18l.11,1-.55.24L21.17,5.9l.46-.21,2.91,3.49L24,9.42l-.64-.76Zm-.38-2.42.28,1.84L23,8.2Z"/><path class="cls-5" d="M25.2,8.36l1-.31.19.59-1.5.47-1.29-4,.54-.17Z"/><path class="cls-5" d="M27.23,8.43l-.55.13-1-4.12.55-.14Z"/><path class="cls-5" d="M27.71,4.61,27.9,5.7,29,5.51l.1.6L28,6.3l.22,1.3,1.14-.2.11.6-1.71.29-.72-4.18,1.71-.3.1.6Z"/><path class="cls-5" d="M29.81,3.55l.43,0,2,3.1-.14-3.08.56,0,.21,4.33-.42,0-2.05-3.1.15,3.11-.57,0Z"/><path class="cls-5" d="M36.14,3.75l.92.16a1.38,1.38,0,0,1,1,.78,2.49,2.49,0,0,1,.19,1.58,2.49,2.49,0,0,1-.7,1.42,1.39,1.39,0,0,1-1.25.4l-.92-.15Zm0,3.64.19,0c.79.14,1.26-.28,1.43-1.25s-.15-1.52-.94-1.65l-.19,0Z"/><path class="cls-5" d="M38.9,8.64l-.55-.14,1.07-4.11.55.14Z"/><path class="cls-5" d="M42.13,6.12a.63.63,0,0,0-.39-.54.45.45,0,0,0-.39,0,.67.67,0,0,0-.27.36c-.06.17,0,.43.28.78l.37.52a1.06,1.06,0,0,1,.08.9,1.75,1.75,0,0,1-.62.9.94.94,0,0,1-.89.12,1.15,1.15,0,0,1-.7-1.11l.48-.31a1.17,1.17,0,0,0,.11.51.54.54,0,0,0,.31.32.45.45,0,0,0,.43-.07,1,1,0,0,0,.3-.44.78.78,0,0,0,0-.4,2.48,2.48,0,0,0-.5-.7,1.08,1.08,0,0,1-.26-1.12,1.48,1.48,0,0,1,.56-.76A.86.86,0,0,1,41.83,5a1.06,1.06,0,0,1,.71.74Z"/><path class="cls-5" d="M42.68,10l-.47-.21,1.51-3.31-.67-.31.25-.55,1.82.82L44.86,7l-.67-.31Z"/><path class="cls-5" d="M45.57,11.61,45,11.25l.13-2.1-1,1.63-.49-.29,2.13-3.67.77.44c.64.38.75.93.32,1.67a1.51,1.51,0,0,1-.57.6.72.72,0,0,1-.65.05Zm-.33-2.72.14.08a.65.65,0,0,0,1-.3.63.63,0,0,0-.23-1L46,7.59Z"/><path class="cls-5" d="M46.34,12.17l-.46-.32,2.42-3.5.46.33Z"/><path class="cls-5" d="M50.6,11.41a.84.84,0,0,0-.28-.81.9.9,0,0,0-.9-.12,2.05,2.05,0,0,0-.93.65,1.94,1.94,0,0,0-.44,1,.87.87,0,0,0,.29.85.86.86,0,0,0,.85.12l-.56.68a1.43,1.43,0,0,1-.74-.29,1.41,1.41,0,0,1-.49-1.24,2.61,2.61,0,0,1,.63-1.5,2.65,2.65,0,0,1,1.38-.94,1.4,1.4,0,0,1,1.33.24,1.3,1.3,0,0,1,.42.66Z"/><path class="cls-5" d="M49.65,15l-.36-.36,2.59-2.56-.52-.53.43-.43,1.41,1.42-.44.43-.52-.53Z"/><path class="cls-5" d="M55.53,17.29a.83.83,0,0,0,0-.85.89.89,0,0,0-.82-.37,2,2,0,0,0-1.08.37,1.83,1.83,0,0,0-.71.85.85.85,0,0,0,0,.89.87.87,0,0,0,.78.36L53,19a1.5,1.5,0,0,1-.64-.48,1.4,1.4,0,0,1-.11-1.33,2.57,2.57,0,0,1,1-1.26,2.68,2.68,0,0,1,1.59-.51,1.41,1.41,0,0,1,1.21.6,1.28,1.28,0,0,1,.21.75Z"/><path class="cls-5" d="M55,18.48a2.67,2.67,0,0,1,1.63-.28,1.39,1.39,0,0,1,1.06,2.11,2.66,2.66,0,0,1-1.21,1.13,2.71,2.71,0,0,1-1.62.29,1.41,1.41,0,0,1-1.06-2.12A2.64,2.64,0,0,1,55,18.48Zm.31.51a1.92,1.92,0,0,0-.85.76.88.88,0,0,0,.67,1.39,2,2,0,0,0,1.13-.24,1.9,1.9,0,0,0,.82-.73.89.89,0,0,0,0-.89.88.88,0,0,0-.73-.5A1.76,1.76,0,0,0,55.29,19Z"/><path class="cls-5" d="M58.75,21.49l.18.54-2.26.75c-.87.29-1.23.64-1.09,1.07s.64.5,1.51.21l2.26-.75.18.54-2.41.8C56,25,55.26,24.83,55,24s.18-1.37,1.34-1.75Z"/><path class="cls-5" d="M56.07,27.9l-.14-.68,1.66-1.31-1.85.38-.11-.56,4.16-.85.18.87c.15.73-.2,1.18-1,1.35a1.59,1.59,0,0,1-.82,0,.71.71,0,0,1-.47-.45Zm1.81-2,0,.17c.1.45.39.63.89.53a.63.63,0,0,0,.58-.83l0-.17Z"/><path class="cls-5" d="M56.2,29.26l-.05-.51,3.62-.37-.07-.74.6-.07.21,2-.61.06-.08-.74Z"/></svg>