<svg id="圖層_1" data-name="圖層 1" xmlns="http://www.w3.org/2000/svg" xmlns:xlink="http://www.w3.org/1999/xlink" viewBox="0 0 270.84 64"><defs><style>.cls-1{fill:#333;}.cls-2{fill:#fff;}.cls-3{fill:url(#linear-gradient);}.cls-4{fill:#005bab;}.cls-5{fill:#b7a246;}</style><linearGradient id="linear-gradient" x1="32.65" y1="60.77" x2="32.65" y2="37.52" gradientUnits="userSpaceOnUse"><stop offset="0.69" stop-color="#b7a246"/><stop offset="1" stop-color="#fff"/></linearGradient></defs><path class="cls-1" d="M91.73,15.18v1.46H82.3v1h7.58V19H72.63V17.67H80v-1H70.8V15.18H80V13.83H82.3v1.35ZM82.3,33.8h9.38v1.56H70.85V33.8H80v-1H73.18V31.36H80v-1c-4.39.12-5.09.19-5.57.33a12.07,12.07,0,0,0-.5-1.51,6.35,6.35,0,0,0,1.3-.31,13.8,13.8,0,0,0,2-1H73.56v-1.3h15.2V28H86.48a25.34,25.34,0,0,1,3.07,2.13L88.2,31.19a14.12,14.12,0,0,0-1.17-1l-4.73.12v1h7.25v1.39H82.3ZM71.16,24.32H91.35v3.46H89.24v-2H73.18v2h-2ZM89,19.93v3.53H73.61V19.93Zm-2.19,1.18H75.67v1.15H86.81ZM79.8,28a18.73,18.73,0,0,1-2.13,1.17L85.23,29c-.53-.33-1.08-.64-1.59-.91l.19-.14Z"/><path class="cls-1" d="M97.54,24.49A15,15,0,0,0,94.11,22l1.22-1.54a15,15,0,0,1,3.5,2.3Zm-3,10a79.8,79.8,0,0,0,3-7.61L99.34,28c-.77,2.47-1.8,5.35-2.76,7.58ZM98,18.32a15.3,15.3,0,0,0-3.34-2.66l1.3-1.47a15.51,15.51,0,0,1,3.4,2.45Zm2.8,4.54a11.76,11.76,0,0,1-1,3.24,5.4,5.4,0,0,0-1-.7,8.43,8.43,0,0,0,.87-2.83Zm3.1-1a4.67,4.67,0,0,0-.24-.72c-3.14.41-3.74.53-4.08.7a7.09,7.09,0,0,0-.48-1,2.17,2.17,0,0,0,1.13-.79,14.6,14.6,0,0,0,1.34-1.68,9.6,9.6,0,0,0-2.06.31,3.86,3.86,0,0,0-.48-1,1.35,1.35,0,0,0,.79-.62,12.62,12.62,0,0,0,1.42-3l1.32.46a14.22,14.22,0,0,1-1.59,2.73l1.39-.07a9.71,9.71,0,0,0,.6-1.08l1.28.53a22.73,22.73,0,0,1-2.76,3.67l1.75-.22c-.12-.24-.27-.48-.39-.69l1-.36a11.06,11.06,0,0,1,1.11,2.42ZM115.23,31a4.35,4.35,0,0,1-.15.84c-.4,2-.88,3.05-1.51,3.53a3.11,3.11,0,0,1-2,.55c-.72,0-2.18,0-3.67-.07a3.91,3.91,0,0,0-.6-1.7c1.46.14,3,.16,3.62.16a1.8,1.8,0,0,0,1-.16,3.14,3.14,0,0,0,.87-1.71H100.47a39,39,0,0,0,1-3.79H112v-1H100.73V26.24h13.39V30H103.27L103,31Zm-13.59-5.28a11.7,11.7,0,0,0-.48-2.88l1.06-.26a11.41,11.41,0,0,1,.55,2.76Zm2.09-.6a12.35,12.35,0,0,0-.74-2.61l1-.34a10.2,10.2,0,0,1,.79,2.5Zm6.53-7.61h-5.71V16.23H107a13.9,13.9,0,0,0-.84-1.82l1.46-.34a9.39,9.39,0,0,1,1,1.88l-1.11.28h2.81ZM105.19,22h4.54v3.53h-4.54Zm4.52-2.57h-4.47V18.25h4.47Zm-4.47.65h4.47v1.12h-4.47Zm1.35,4.34h1.7V23.05h-1.7Zm5.33-1.61a12.61,12.61,0,0,1-1,3.24,7.23,7.23,0,0,0-1-.72,8.9,8.9,0,0,0,.86-2.8Zm3.14-.81c-.07-.22-.17-.51-.29-.82a22.52,22.52,0,0,0-4.1.7c-.07-.19-.32-.75-.46-1a2.11,2.11,0,0,0,1.13-.81,17,17,0,0,0,1.32-1.66,7.93,7.93,0,0,0-2.06.34,5.74,5.74,0,0,0-.46-1c.26,0,.5-.27.77-.63a11.58,11.58,0,0,0,1.44-3l1.29.45a13.54,13.54,0,0,1-1.53,2.71l1.37-.07c.19-.36.4-.72.57-1.08l1.27.55a19.88,19.88,0,0,1-2.76,3.68l1.76-.22-.39-.7,1-.36a12.37,12.37,0,0,1,1.2,2.53Zm-2.28,3.93a13.79,13.79,0,0,0-.5-3.09l1-.27a13.82,13.82,0,0,1,.55,3Zm2.3-3.79a11.12,11.12,0,0,1,1,3l-1,.45a12.44,12.44,0,0,0-.91-3.07Z"/><path class="cls-1" d="M135.36,27.06a13.68,13.68,0,0,0,5.09,3.26A8.93,8.93,0,0,0,139,32.05a15.18,15.18,0,0,1-6.05-5h-7.15a15,15,0,0,1-2.12,2.42h4.4v-1.8h2.25v1.8h4.76v1.78h-4.76V33.4h8.07v1.84H120.31V33.4h7.76V31.26h-4.59V29.68a16.78,16.78,0,0,1-4,2.64,7.61,7.61,0,0,0-1.44-1.71,14.27,14.27,0,0,0,5.19-3.55h-5V25.21H123V17.79H119.5V16H123V13.88h2.23V16h8.16V13.91h2.28V16h3.43v1.82h-3.43v7.42h4.51v1.85Zm-10.15-9.27v1.35h8.16V17.79Zm0,4.35h8.16V20.77h-8.16Zm0,3.07h8.16V23.77h-8.16Z"/><path class="cls-1" d="M150.29,15.66c-.67,2-1.54,4.56-2.28,6.46a7.46,7.46,0,0,1,2,5.06c0,1.39-.31,2.4-1,2.9a2.91,2.91,0,0,1-1.29.46,8.28,8.28,0,0,1-1.59,0,4.77,4.77,0,0,0-.5-1.92,7.74,7.74,0,0,0,1.25,0,1.1,1.1,0,0,0,.69-.22,1.91,1.91,0,0,0,.48-1.56,6.87,6.87,0,0,0-2-4.54c.62-1.63,1.24-3.79,1.68-5.44h-2.57v19h-2v-21h5.3l.32-.07Zm7.78,9.48V27.2H163v1.66h-4.94V30.3h4.58v1.61h-4.58v1.65h6.12v1.78H149.35V33.56H156V31.91h-4.09V30.3H156V28.86h-3.34A12.25,12.25,0,0,1,151.3,31a11.17,11.17,0,0,0-1.59-1A12.15,12.15,0,0,0,152,25.36l1.85.38c-.15.5-.29,1-.48,1.46H156V25.14h-3.39V23.58c-.74.26-1.49.46-2.23.65a6.94,6.94,0,0,0-1.06-1.75,24.84,24.84,0,0,0,6-2,13.85,13.85,0,0,1-2.07-2.13,16.29,16.29,0,0,1-2.4,2.09A5.84,5.84,0,0,0,149.4,19a13.09,13.09,0,0,0,4.68-5.35l2.14.34a15.23,15.23,0,0,1-.87,1.56h5.74l.36-.07,1.35.76a13.05,13.05,0,0,1-4,4.32,19.89,19.89,0,0,0,5.83,1.78,9.21,9.21,0,0,0-1.27,1.75c-.6-.12-1.18-.26-1.78-.43v1.49Zm3.17-1.61a18.27,18.27,0,0,1-4.18-1.85,26.62,26.62,0,0,1-4.32,1.85Zm-6.63-6.31a9.8,9.8,0,0,0,2.45,2.28,11.91,11.91,0,0,0,2.69-2.28Z"/><path class="cls-1" d="M173.74,26.65l.53,2c-2.52,1.2-5.21,2.45-7.3,3.38l-.89-2.23c.87-.31,2-.74,3.19-1.25V21.61h-2.73V19.5h2.73V14.17h2.09V19.5h2.43v2.11h-2.43v6.05Zm10.92,6.75c1.32,0,1.56-.6,1.75-3.22a6.43,6.43,0,0,0,2,.82c-.31,3.31-1,4.39-3.58,4.39h-5.52c-2.95,0-3.79-.75-3.79-3.63V24.83l-1.66.72-.84-2,2.5-1.06V16.14h2.11v5.47l2.69-1.13v-6.6h2.09v5.71l3.22-1.36,1.65.55-.09.36A79.39,79.39,0,0,1,186,29.6l-1.82-.5a73.4,73.4,0,0,0,.74-8.33l-2.54,1.11v8.61h-2.09V22.76l-2.69,1.16v7.87c0,1.34.27,1.61,1.8,1.61Z"/><path class="cls-1" d="M199.59,20c-.08,1.12-.15,2.28-.29,3.41h10.2a6.53,6.53,0,0,1-.1,1c-.45,6.63-.91,9.27-1.87,10.25a3.26,3.26,0,0,1-2.28.94,33.36,33.36,0,0,1-4.05-.05,4.41,4.41,0,0,0-.8-2.18c1.71.14,3.34.16,4,.16a1.68,1.68,0,0,0,1.15-.28c.68-.56,1.11-2.79,1.49-7.68H199c-.76,4.12-2.52,8-7,10.39a6.84,6.84,0,0,0-1.63-1.83c5.95-3,6.51-8.85,6.75-14.13h-6.29V17.84H201.1a23.79,23.79,0,0,0-1.51-3.36l2.18-.81a24.16,24.16,0,0,1,1.71,3.48l-1.61.69h9.86V20Z"/><path class="cls-1" d="M218.71,24.76a22.32,22.32,0,0,0-4.41-2.6l1.17-1.68a20.33,20.33,0,0,1,4.47,2.43Zm-3.62,9.33a65.87,65.87,0,0,0,4.54-7.61L221.26,28c-1.25,2.5-2.83,5.38-4.25,7.63Zm1.78-20a24.27,24.27,0,0,1,4.51,2.45l-1.3,1.85a20.29,20.29,0,0,0-4.46-2.67Zm17,21.75a11.81,11.81,0,0,0-1-2.26c-8.47,1-9.55,1.23-10.27,1.56a19.26,19.26,0,0,0-.77-2.23c.51-.12,1-.67,1.54-1.56a34,34,0,0,0,3-5.54h-4.94V23.72h5.93V19.83h-4.93V17.72h4.93V13.86h2.28v3.86h5.11v2.11h-5.11v3.89h6v2.12H229a46.21,46.21,0,0,1-3.82,6.64l6.67-.72c-.57-1-1.25-1.92-1.87-2.8l1.8-.87a28.58,28.58,0,0,1,4.1,6.77Z"/><path class="cls-1" d="M246.29,15.59c-.67,2-1.51,4.32-2.23,6.16A7.84,7.84,0,0,1,246,26.87a3.54,3.54,0,0,1-1,2.93,2.94,2.94,0,0,1-1.3.48c-.43,0-1,0-1.58,0a4.83,4.83,0,0,0-.51-1.94,10.45,10.45,0,0,0,1.23,0,1.22,1.22,0,0,0,.69-.19,2,2,0,0,0,.49-1.56,6.92,6.92,0,0,0-2-4.63c.6-1.58,1.24-3.6,1.68-5.19h-2.62v19h-2v-21h5.35l.32-.09ZM258,33.68c.45,0,.55-.38.6-2.95a4.89,4.89,0,0,0,1.87.82c-.19,3.21-.7,4-2.23,4h-1.95C254.4,35.58,254,35,254,33V27.3h-2.09c-.38,4.2-1.53,7-6.07,8.59a6,6,0,0,0-1.27-1.77c4-1.28,4.87-3.44,5.18-6.82H246.6v-2h13.52v2h-4v5.64c0,.65.08.74.53.74Zm-9.53-12.53h-1.9V16.74h5.83a18.89,18.89,0,0,0-1.12-2.47l2.06-.6a16.22,16.22,0,0,1,1.46,3.07H260v4.41h-1.9V23h-9.67Zm.16-2.47V21h9.27V18.68Z"/><path class="cls-1" d="M71.8,45v-.78h4.33V45H74.37v7.12h-.81V45Z"/><path class="cls-1" d="M84.18,46.23v5.84h-.75v-1a3.08,3.08,0,0,1-1.06.86,2.77,2.77,0,0,1-1.28.29,2.84,2.84,0,0,1-2.12-.9,3,3,0,0,1-.88-2.18A2.94,2.94,0,0,1,79,47a2.88,2.88,0,0,1,2.13-.9,2.69,2.69,0,0,1,1.3.31,2.92,2.92,0,0,1,1,.91V46.23Zm-3,.57a2.25,2.25,0,0,0-2,1.18,2.38,2.38,0,0,0-.32,1.18,2.41,2.41,0,0,0,.32,1.18,2.32,2.32,0,0,0,4,0,2.53,2.53,0,0,0,.29-1.2,2.31,2.31,0,0,0-.66-1.69A2.22,2.22,0,0,0,81.17,46.8Z"/><path class="cls-1" d="M87.34,43.82a.58.58,0,0,1,.44.19.59.59,0,0,1,.18.44.58.58,0,0,1-.18.43.6.6,0,0,1-.44.18.58.58,0,0,1-.43-.18.56.56,0,0,1-.19-.43.56.56,0,0,1,.19-.44A.56.56,0,0,1,87.34,43.82ZM87,46.23h.76v5.84H87Z"/><path class="cls-1" d="M89.7,46.23h.77l1.8,4.24,1.86-4.24h.14l1.87,4.24L98,46.23h.78l-2.54,5.84h-.14L94.2,47.89l-1.86,4.18H92.2Z"/><path class="cls-1" d="M106.66,46.23v5.84h-.74v-1a3.17,3.17,0,0,1-1.06.86,2.77,2.77,0,0,1-1.28.29,2.84,2.84,0,0,1-2.12-.9,3,3,0,0,1-.88-2.18,3,3,0,0,1,3-3.06,2.69,2.69,0,0,1,1.3.31,2.92,2.92,0,0,1,1,.91V46.23Zm-3,.57a2.31,2.31,0,0,0-1.16.31,2.27,2.27,0,0,0-.84.87,2.38,2.38,0,0,0-.32,1.18,2.41,2.41,0,0,0,.32,1.18,2.25,2.25,0,0,0,.85.88,2.2,2.2,0,0,0,1.14.31,2.3,2.3,0,0,0,1.17-.31,2.21,2.21,0,0,0,.85-.84,2.43,2.43,0,0,0,.3-1.2,2.28,2.28,0,0,0-.67-1.69A2.18,2.18,0,0,0,103.66,46.8Z"/><path class="cls-1" d="M109.57,46.23h.75v1.05a3.12,3.12,0,0,1,1-.9,2.42,2.42,0,0,1,1.19-.3,2.07,2.07,0,0,1,1.16.33,2,2,0,0,1,.75.9,4.79,4.79,0,0,1,.24,1.76v3h-.75V49.29a7.41,7.41,0,0,0-.08-1.35,1.36,1.36,0,0,0-1.47-1.17,1.84,1.84,0,0,0-1.22.45,2.18,2.18,0,0,0-.72,1.12,8.06,8.06,0,0,0-.1,1.59v2.14h-.75Z"/><path class="cls-1" d="M121.86,44.17h.81v3l3.16-3h1.06l-3.8,3.55,4.09,4.35h-1.05l-3.46-3.68v3.68h-.81Z"/><path class="cls-1" d="M134.37,50.13l.63.34a3.52,3.52,0,0,1-.72,1,2.84,2.84,0,0,1-.92.57,3.19,3.19,0,0,1-1.15.19,2.81,2.81,0,0,1-2.24-.93,3.16,3.16,0,0,1-.81-2.12,3.1,3.1,0,0,1,.69-2,2.78,2.78,0,0,1,2.31-1.11,2.89,2.89,0,0,1,2.39,1.13,3.22,3.22,0,0,1,.65,2h-5.26a2.35,2.35,0,0,0,.65,1.67,2.09,2.09,0,0,0,1.55.65,2.57,2.57,0,0,0,.87-.15,2.53,2.53,0,0,0,.72-.42A3.27,3.27,0,0,0,134.37,50.13Zm0-1.57a2.52,2.52,0,0,0-.44-1,2.14,2.14,0,0,0-.76-.58,2.31,2.31,0,0,0-1-.22,2.11,2.11,0,0,0-1.47.55,2.48,2.48,0,0,0-.69,1.21Z"/><path class="cls-1" d="M142.73,50.13l.63.34a3.52,3.52,0,0,1-.72,1,2.84,2.84,0,0,1-.92.57,3.19,3.19,0,0,1-1.15.19,2.81,2.81,0,0,1-2.24-.93,3.16,3.16,0,0,1-.81-2.12,3.1,3.1,0,0,1,.69-2,2.76,2.76,0,0,1,2.31-1.11,2.9,2.9,0,0,1,2.39,1.13,3.15,3.15,0,0,1,.64,2H138.3a2.35,2.35,0,0,0,.65,1.67,2.08,2.08,0,0,0,1.55.65,2.57,2.57,0,0,0,.87-.15,2.53,2.53,0,0,0,.72-.42A3.27,3.27,0,0,0,142.73,50.13Zm0-1.57a2.52,2.52,0,0,0-.44-1,2.14,2.14,0,0,0-.76-.58,2.31,2.31,0,0,0-1-.22,2.16,2.16,0,0,0-1.48.55,2.55,2.55,0,0,0-.68,1.21Z"/><path class="cls-1" d="M146.05,44h.75v8.1h-.75Z"/><path class="cls-1" d="M149.48,46.23h.75V49a5.86,5.86,0,0,0,.11,1.37,1.52,1.52,0,0,0,.62.85,2,2,0,0,0,2.15,0,1.54,1.54,0,0,0,.6-.8,5.25,5.25,0,0,0,.12-1.43V46.23h.76V49.1a4.53,4.53,0,0,1-.28,1.82,2.14,2.14,0,0,1-.85,1,3.14,3.14,0,0,1-2.84,0,2.19,2.19,0,0,1-.86-1,4.86,4.86,0,0,1-.28-1.87Z"/><path class="cls-1" d="M157.48,46.23h.75v1.05a3.12,3.12,0,0,1,1-.9,2.42,2.42,0,0,1,1.19-.3,2.07,2.07,0,0,1,1.16.33,2,2,0,0,1,.75.9,4.79,4.79,0,0,1,.24,1.76v3h-.75V49.29a7.41,7.41,0,0,0-.08-1.35,1.36,1.36,0,0,0-1.47-1.17,1.84,1.84,0,0,0-1.22.45,2.18,2.18,0,0,0-.72,1.12,8.06,8.06,0,0,0-.1,1.59v2.14h-.75Z"/><path class="cls-1" d="M170.43,46.23h.75v4.66a5.62,5.62,0,0,1-.21,1.8,2.37,2.37,0,0,1-1,1.24,3.34,3.34,0,0,1-1.75.43,4.07,4.07,0,0,1-1.35-.21,2.67,2.67,0,0,1-1-.57,3.41,3.41,0,0,1-.69-1H166a2.09,2.09,0,0,0,.86.86,3.11,3.11,0,0,0,2.6,0,1.77,1.77,0,0,0,.76-.72,3.22,3.22,0,0,0,.22-1.4V51a2.9,2.9,0,0,1-1,.83,3.1,3.1,0,0,1-2.81-.12,2.76,2.76,0,0,1-1.1-1.07,3,3,0,0,1,1.13-4.11,3,3,0,0,1,1.51-.41,2.82,2.82,0,0,1,1.22.27,3.29,3.29,0,0,1,1.09.9Zm-2.22.57a2.42,2.42,0,0,0-1.18.31,2.22,2.22,0,0,0-.86.86,2.29,2.29,0,0,0-.31,1.18,2.13,2.13,0,0,0,.64,1.59,2.29,2.29,0,0,0,1.67.62,2.26,2.26,0,0,0,1.67-.62,2.19,2.19,0,0,0,.63-1.64,2.43,2.43,0,0,0-.29-1.18,2.13,2.13,0,0,0-.82-.81A2.23,2.23,0,0,0,168.21,46.8Z"/><path class="cls-1" d="M178.38,52.07v-7.9H180a8.29,8.29,0,0,1,2.57.29,3.43,3.43,0,0,1,1.8,1.39,4.29,4.29,0,0,1,.65,2.37,4.18,4.18,0,0,1-.51,2.09,3.29,3.29,0,0,1-1.34,1.33,4.94,4.94,0,0,1-2.29.43Zm.76-.74h.91a8.34,8.34,0,0,0,2.28-.21,2.62,2.62,0,0,0,1.4-1,3.21,3.21,0,0,0,.51-1.84,3.45,3.45,0,0,0-.55-2,2.8,2.8,0,0,0-1.55-1.11A9.36,9.36,0,0,0,179.7,45h-.56Z"/><path class="cls-1" d="M187.92,43.82a.63.63,0,0,1,.62.63.58.58,0,0,1-.18.43.62.62,0,0,1-.44.18.6.6,0,0,1-.44-.18.58.58,0,0,1-.18-.43.59.59,0,0,1,.18-.44A.58.58,0,0,1,187.92,43.82Zm-.38,2.41h.75v5.84h-.75Z"/><path class="cls-1" d="M194,46.87l-.49.5a1.73,1.73,0,0,0-1.18-.59.88.88,0,0,0-.62.24.74.74,0,0,0-.26.57.84.84,0,0,0,.21.54,3,3,0,0,0,.9.62,3.5,3.5,0,0,1,1.15.84,1.56,1.56,0,0,1,.29.91,1.65,1.65,0,0,1-.5,1.22,1.71,1.71,0,0,1-1.27.5,2.11,2.11,0,0,1-1-.22,2.05,2.05,0,0,1-.76-.6l.47-.54a1.65,1.65,0,0,0,1.22.65,1.12,1.12,0,0,0,.77-.29.9.9,0,0,0,.32-.68.88.88,0,0,0-.21-.58,3.54,3.54,0,0,0-1-.62,3,3,0,0,1-1.08-.81,1.59,1.59,0,0,1,.17-2,1.62,1.62,0,0,1,1.15-.44A2.38,2.38,0,0,1,194,46.87Z"/><path class="cls-1" d="M197.2,44.06H198v2.17h1.19v.65H198v5.19h-.76V46.88h-1v-.65h1Z"/><path class="cls-1" d="M201.2,46.23H202v.85a2.76,2.76,0,0,1,.73-.75,1.37,1.37,0,0,1,.79-.25,1.42,1.42,0,0,1,.67.2l-.4.63a1,1,0,0,0-.39-.1,1.08,1.08,0,0,0-.73.31,1.91,1.91,0,0,0-.53,1,9.33,9.33,0,0,0-.14,2v2h-.77Z"/><path class="cls-1" d="M206.27,43.82a.56.56,0,0,1,.43.19.56.56,0,0,1,.19.44.56.56,0,0,1-.19.43.58.58,0,0,1-.43.18.6.6,0,0,1-.44-.18.58.58,0,0,1-.18-.43.59.59,0,0,1,.18-.44A.58.58,0,0,1,206.27,43.82Zm-.38,2.41h.75v5.84h-.75Z"/><path class="cls-1" d="M215.09,47.44l-.6.37a2.5,2.5,0,0,0-2.11-1,2.46,2.46,0,0,0-1.77.68,2.25,2.25,0,0,0-.7,1.67,2.36,2.36,0,0,0,.32,1.21,2.32,2.32,0,0,0,.89.87,2.57,2.57,0,0,0,1.27.31,2.54,2.54,0,0,0,2.1-1l.6.4a2.91,2.91,0,0,1-1.13,1,3.6,3.6,0,0,1-1.61.34,3.15,3.15,0,0,1-2.29-.88,2.85,2.85,0,0,1-.92-2.14,3.12,3.12,0,0,1,.43-1.58,3,3,0,0,1,1.17-1.13,3.59,3.59,0,0,1,2.79-.23,3.17,3.17,0,0,1,.92.46A2.63,2.63,0,0,1,215.09,47.44Z"/><path class="cls-1" d="M218.4,44.06h.75v2.17h1.19v.65h-1.19v5.19h-.75V46.88h-1v-.65h1Z"/><path class="cls-1" d="M234.42,45.64l-.62.48a3.45,3.45,0,0,0-1.24-1,3.63,3.63,0,0,0-1.59-.35,3.44,3.44,0,0,0-1.75.46A3.26,3.26,0,0,0,228,46.43a3.31,3.31,0,0,0-.44,1.72,3.24,3.24,0,0,0,1,2.41,3.45,3.45,0,0,0,2.5,1,3.56,3.56,0,0,0,2.78-1.3l.62.47a4,4,0,0,1-1.48,1.16,4.63,4.63,0,0,1-2,.41,4.07,4.07,0,0,1-4.28-4.19,3.92,3.92,0,0,1,1.22-2.92A4.2,4.2,0,0,1,231,44a4.52,4.52,0,0,1,2,.44A3.87,3.87,0,0,1,234.42,45.64Z"/><path class="cls-1" d="M239.85,46.08a2.9,2.9,0,0,1,2.24,1,3.14,3.14,0,0,1,0,4.25,3.1,3.1,0,0,1-4.39,0,3.12,3.12,0,0,1,0-4.25A2.9,2.9,0,0,1,239.85,46.08Zm0,.74a2.18,2.18,0,0,0-1.61.69,2.3,2.3,0,0,0-.67,1.67,2.45,2.45,0,0,0,.3,1.19,2.24,2.24,0,0,0,2,1.14,2.27,2.27,0,0,0,1.15-.3,2.16,2.16,0,0,0,.83-.84,2.35,2.35,0,0,0,.31-1.19,2.31,2.31,0,0,0-.68-1.67A2.18,2.18,0,0,0,239.85,46.82Z"/><path class="cls-1" d="M245.41,46.23h.75V49a6,6,0,0,0,.1,1.37,1.57,1.57,0,0,0,.62.85,2,2,0,0,0,2.15,0,1.56,1.56,0,0,0,.61-.8,5.88,5.88,0,0,0,.11-1.43V46.23h.77V49.1a4.71,4.71,0,0,1-.28,1.82,2.14,2.14,0,0,1-.85,1,2.69,2.69,0,0,1-1.42.34,2.73,2.73,0,0,1-1.43-.34,2.17,2.17,0,0,1-.85-1,4.67,4.67,0,0,1-.28-1.87Z"/><path class="cls-1" d="M253.11,46.23h.77v.85a2.76,2.76,0,0,1,.73-.75,1.39,1.39,0,0,1,.79-.25,1.42,1.42,0,0,1,.67.2l-.39.63a1,1,0,0,0-.4-.1,1.1,1.1,0,0,0-.73.31,1.91,1.91,0,0,0-.53,1,9.33,9.33,0,0,0-.14,2v2h-.77Z"/><path class="cls-1" d="M258.57,44.06h.76v2.17h1.19v.65h-1.19v5.19h-.76V46.88h-1v-.65h1Z"/><circle class="cls-2" cx="32.65" cy="31.37" r="30.28"/><path class="cls-3" d="M61.52,37.78a29.81,29.81,0,0,1-28.83,23c-13.95,0-25.93-10.21-28.92-23.25h7.44c2.8,9,11.53,16.07,21.48,16.07A22.63,22.63,0,0,0,54.08,37.78Z"/><path class="cls-4" d="M53.63,31.28a21,21,0,1,1-21-21A21,21,0,0,1,53.63,31.28Z"/><path class="cls-2" d="M34.33,33.78H31V42a1.68,1.68,0,0,0,1.69,1.65A1.64,1.64,0,0,0,34.33,42Z"/><path class="cls-2" d="M35.56,44H29.74a.7.7,0,0,0-.76.65v.77a.7.7,0,0,0,.76.65h5.82a.69.69,0,0,0,.75-.65v-.77A.7.7,0,0,0,35.56,44Z"/><path class="cls-2" d="M36.69,46.86h-8c-.56,0-1,.3-1,.69v.75c0,.41.41.7,1,.7h8c.55,0,1-.29,1-.7v-.75C37.65,47.16,37.24,46.86,36.69,46.86Z"/><path class="cls-2" d="M48.92,23.27a.91.91,0,0,0-.41-.63,1.1,1.1,0,0,0-1.36.13,6.57,6.57,0,0,1-8.67.07,8.88,8.88,0,0,0-11.24-.17l.05,0-.2.16,0,0a6.27,6.27,0,0,1-4.38,1.67,6.23,6.23,0,0,1-4.38-1.67,1.09,1.09,0,0,0-.68-.3,1.13,1.13,0,0,0-.69.17.94.94,0,0,0-.41.63v.1a.8.8,0,0,0,.27.6,8.38,8.38,0,0,0,5.9,2.28,8.45,8.45,0,0,0,5.48-1.9l0,0s0,0,0,0l.15-.12a6.55,6.55,0,0,1,8.68-.07,8.47,8.47,0,0,0,5.71,2.09A8.37,8.37,0,0,0,48.66,24a.87.87,0,0,0,.26-.61Zm0,0h0v0Z"/><path class="cls-2" d="M36.14,17a3.45,3.45,0,1,1-3.46-3.46A3.46,3.46,0,0,1,36.14,17Z"/><path class="cls-2" d="M27.58,38.37l-5.32-12a.56.56,0,0,0-.52-.35.57.57,0,0,0-.52.36h0l-5.31,12a.75.75,0,0,0,0,.62,6.46,6.46,0,0,0,5.81,3.15A6.43,6.43,0,0,0,27.55,39,.72.72,0,0,0,27.58,38.37ZM21.74,28.14c.32.71,4.33,9.77,4.61,10.41H17.13l3.09-7Z"/><path class="cls-2" d="M49.53,38.37l-5.31-12A.56.56,0,0,0,43.7,26a.57.57,0,0,0-.53.37v0l-5.3,12a.71.71,0,0,0,0,.62,6.45,6.45,0,0,0,5.81,3.15A6.44,6.44,0,0,0,49.51,39,.72.72,0,0,0,49.53,38.37ZM43.7,28.14l4.61,10.41H39.08c.2-.43,2-4.5,2-4.5S43.4,28.83,43.7,28.14Z"/><path class="cls-2" d="M38.26,25.42a.82.82,0,0,0-.88.91H36.22v-.52h-7v.52H28a.82.82,0,0,0-.88-.91s-.77,0-.77,1v4.36c0,1.07.77,1,.77,1a.83.83,0,0,0,.88-.92h1.15v.54H31v1.59h3.31V31.47h1.89v-.54h1.16a.83.83,0,0,0,.88.92s.77,0,.77-1V26.45C39,25.4,38.26,25.42,38.26,25.42Z"/><path class="cls-2" d="M12.75,51.37l-3.41-4.2.2-.16,1.6,2,.28-.22-1.37-1.69.19-.15,1.37,1.68.26-.2c-.2-.24-.6-.72-1.2-1.47l.16-.19a1.77,1.77,0,0,0,1,.56l-.54-.67.18-.15,2.4,3-.19.15-.26-.33a5.93,5.93,0,0,1-.12.93L13,50.11a1.58,1.58,0,0,0,.07-.34l-1-1.12-.26.21,1.36,1.68L13,50.7,11.63,49l-.28.22,1.6,2Zm1.38-1.25-.21-.25.43-.36L11.51,46l-.43.34-.2-.25.62-.51,3.26,4Zm-1.05-.72a2.74,2.74,0,0,0,0-.31l.19,0-1.17-1.45a2.23,2.23,0,0,1-.79-.27C11.66,47.79,12.24,48.46,13.08,49.4ZM14.6,49l-2.5-3.09.64-.52,2.51,3.09Zm0-.42.25-.21-2.08-2.56-.25.2Zm1.76-.1-1.58-1.95-.24.19,1.41,1.74-.19.16L12.7,44.83l.2-.16,1.42,1.75.23-.2-1.59-2,.2-.17,1.59,2,.22-.17.21.26-.21.18,1.58,2Z"/><path class="cls-2" d="M15.92,51.67a11.61,11.61,0,0,1-1.84,1L14,52.4a12.6,12.6,0,0,0,1.82-1Zm2.77,3.27-.4.39a.43.43,0,0,1-.3.14.49.49,0,0,1-.37-.11l-1.14-.86.07-.3,1.24.93a.2.2,0,0,0,.28,0l.18-.18-2.89-2.16.8-.5,2.47,1.85.2-.28L16.1,51.79l.16-.2,3,2.24-.52.69-2.52-1.89-.33.2Zm-2.12-4.22-.3.07A4.82,4.82,0,0,0,16,49.7l.31-.06A5.66,5.66,0,0,1,16.57,50.72ZM17,51a4.82,4.82,0,0,1-.57.39l-.15-.23a3.62,3.62,0,0,0,.56-.37Zm0,.77-.21-.12a3.36,3.36,0,0,0,.29-.56l.23.12A4,4,0,0,1,17,51.79Zm1-.38-.24-.08a.37.37,0,0,0,0-.15,10.41,10.41,0,0,1-.93-.49l0-.21a10,10,0,0,0,1-.15L17.41,50l.05-.23a4,4,0,0,0,1.16-.34l.13.26a5.73,5.73,0,0,1-.92.28,3.58,3.58,0,0,0,.4.23l.32-.11.12.25a5.35,5.35,0,0,1-1.32.31l.48.24a.34.34,0,0,0,0-.18l.25.07A2.39,2.39,0,0,1,18,51.41Zm-.43-1.76-.31.05A5,5,0,0,0,17,48.6l.31-.05A5.4,5.4,0,0,1,17.55,49.65ZM17.45,52l-.24-.1a3.35,3.35,0,0,0,.23-.55l.24.09A3.16,3.16,0,0,1,17.45,52Zm1,.87-.88-.66.54-.72.88.66Zm-.06-.36.24-.32-.45-.33-.23.32Zm.73-.56-.87-.65.15-.2.87.65Zm.11.79a3.23,3.23,0,0,1-.53.46l-.17-.2a3.32,3.32,0,0,0,.52-.45Zm.19-1.19-.87-.65.15-.19.86.65Zm.43-.28-1.12-.85.15-.2.48.36a1.43,1.43,0,0,0,.07-.36l.27.08a2.54,2.54,0,0,1-.09.47l.39.29Zm-.53,2.29-.25-.13a2,2,0,0,0,.32-.56l.22.12A3.39,3.39,0,0,1,19.33,53.56Zm1-.36L20,53.11l.06-.19c-.39-.19-.7-.37-1-.52l.06-.21a8.07,8.07,0,0,0,1-.11l-.53-.35.06-.19a5.37,5.37,0,0,0,1.21-.32l.16.26a5,5,0,0,1-1,.25,4.88,4.88,0,0,0,.46.26l.34-.12.12.27a6,6,0,0,1-1.34.28,3.87,3.87,0,0,0,.45.25.58.58,0,0,0,0-.19l.27.08A5.51,5.51,0,0,1,20.28,53.2Zm-.47.68-.24-.1a4.17,4.17,0,0,0,.18-.63l.24.1A3.06,3.06,0,0,1,19.81,53.88Z"/><path class="cls-2" d="M24.68,58.46l-4.63-1.81.11-.28,2.17.85.23-.59-1.22-.48.11-.27,1.22.48.21-.53.29.11-.21.54,1.21.47-.1.27-1.21-.47-.23.59,2.15.85Zm.7-.92-.28.21a3.52,3.52,0,0,1-1.17-1.84l-1.62-.64a4.08,4.08,0,0,1-2.08.51l-.09-.34a3.51,3.51,0,0,0,1.77-.32l-1.35-.53.11-.26,1.08.43.73-1.86-.94-.37.11-.28.94.37.16-.39.3.12-.16.39,2.4.94.15-.39.3.12-.15.39.95.38-.11.28-.95-.38-.73,1.85,1.08.43-.1.26-1.45-.57A3.36,3.36,0,0,0,25.38,57.54Zm-3.15-3.1-.18.43,2.4,1,.17-.44Zm2.5.65.18-.44-2.4-.94-.17.44Zm.28-.71.17-.42L22.78,53l-.16.42Z"/><path class="cls-2" d="M28.9,54.49a13.67,13.67,0,0,1-.77,1.37,1.93,1.93,0,0,1,.39,1.31.8.8,0,0,1-.22.51.79.79,0,0,1-.66.12l-.21,0-.09-.32.3,0a.76.76,0,0,0,.41,0c.07,0,.12-.14.14-.32a1.86,1.86,0,0,0-.42-1.29c.33-.56.59-1,.77-1.41l-1-.11L27,59.12l-.32,0L27.26,54l1.67.19Zm3.1,5-3.76-.42,0-.29,1.79.2.06-.54-1.07-.12,0-.29,1.07.12.06-.53-.93-.1a3.91,3.91,0,0,1-.66.68L28.39,58a3.74,3.74,0,0,0,.94-1.13l.26.15a1,1,0,0,1-.12.23l.77.09.06-.49-1.18-.14,0-.3,2.66.3,0,.3-1.17-.13-.05.5,1.41.16,0,.29-1.41-.16-.06.52,1.27.15,0,.29-1.27-.14-.06.54,1.67.19Zm.4-3.09-.19.26a6.11,6.11,0,0,1-1.7-.71,9,9,0,0,1-1.8.37l-.12-.31a7.22,7.22,0,0,0,1.62-.27,3,3,0,0,1-.55-.65,5.84,5.84,0,0,1-.61.26l-.18-.27a3.84,3.84,0,0,0,1.55-.92l.26.16a1.51,1.51,0,0,1-.28.29l1.63.18,0,.3a3.58,3.58,0,0,1-1.12.74A7.74,7.74,0,0,0,32.4,56.45Zm-.81-1.36-1.54-.17a.27.27,0,0,1-.12.09,2.61,2.61,0,0,0,.63.66A3.63,3.63,0,0,0,31.59,55.09Z"/><path class="cls-2" d="M35.26,58.25a14.5,14.5,0,0,1-1.7,1l-.13-.29a7.84,7.84,0,0,0,.76-.39l-.29-2.35-.72.08,0-.3.73-.09-.18-1.42.33,0,.18,1.42.69-.08,0,.3-.69.08.27,2.23.67-.43Zm3.66-.38a1.78,1.78,0,0,1-.09.83.5.5,0,0,1-.28.27c-.1,0-.44.08-1,.15l-1.38.15a.4.4,0,0,1-.33-.11.53.53,0,0,1-.14-.3l-.29-2.42-.55.25-.08-.3.59-.27-.16-1.24.32,0L35.66,56l1-.44-.18-1.48.32,0,.17,1.38,1.32-.62a11.49,11.49,0,0,1,0,2.55l-.33,0a11,11,0,0,0,.07-2l-1,.46L37.25,58l-.32,0-.28-2.22-.95.45L36,58.84s0,0,0,.07a.2.2,0,0,0,.08,0,2.11,2.11,0,0,0,.38,0l.71-.08a6.78,6.78,0,0,0,1.24-.2c.11,0,.15-.33.13-.83Z"/><path class="cls-2" d="M44.24,52.87,41,54.18c.12.29.24.62.36,1l2.53-1a11.18,11.18,0,0,1,.51,1.55,3.76,3.76,0,0,1,.17,1,.66.66,0,0,1-.16.36,2.88,2.88,0,0,1-.71.38l-.39.15-.22-.28a5.37,5.37,0,0,0,.56-.21,1.92,1.92,0,0,0,.5-.25.4.4,0,0,0,.08-.2,5,5,0,0,0-.16-.78,12.14,12.14,0,0,0-.39-1.25l-2.23.91a3.29,3.29,0,0,1-.69,3.07l-.35-.13a3.89,3.89,0,0,0,.66-1.16A2.39,2.39,0,0,0,41.23,56a8.13,8.13,0,0,0-.54-1.68L39.13,55,39,54.64l2.47-1a4.31,4.31,0,0,0-.89-.56l.25-.26a4.55,4.55,0,0,1,1,.68l2.28-.93Z"/><path class="cls-2" d="M45.62,51.26l-.06.31a6.2,6.2,0,0,0-1.29,0l0-.31A5.4,5.4,0,0,1,45.62,51.26Zm.8,1.25,0,.34a4.42,4.42,0,0,0-1.31,0v-.32A5.16,5.16,0,0,1,46.42,52.51Zm3.6-2.2-1.59,1.21A10.49,10.49,0,0,1,48.57,54a23.77,23.77,0,0,0,1.79-1.88,6.66,6.66,0,0,0-1.12-.33l.13-.3a10.63,10.63,0,0,1,2.09.73l-.11.32a3.68,3.68,0,0,0-.7-.31,30.65,30.65,0,0,1-2.21,2.29l-.3-.17a2.08,2.08,0,0,0,.15-1,9.77,9.77,0,0,0-.17-1.57l-1.24,1-.19-.24,1.46-1.11-.72-.94-1.22.93L46,51.11l1.22-.93-.56-.74.26-.2.56.74,1.21-.92.18.24-1.21.92.72.94,1.43-1.09Zm-3,2.95a12.15,12.15,0,0,1,.32,2.29l-.34,0a9.52,9.52,0,0,0-.3-2.28Z"/><path class="cls-2" d="M50.84,48.1a2.2,2.2,0,0,1,1.41.45.7.7,0,0,1,.25.4c0,.15-.06.35-.26.6l-.16.18-.32-.11.22-.27a.62.62,0,0,0,.19-.34.29.29,0,0,0-.11-.21,2.14,2.14,0,0,0-1.4-.41c-.23-.36-.5-.79-.83-1.29l-.59.73,3.73,3-.2.25-4-3.21,1-1.25.23.19C50.32,47.24,50.58,47.66,50.84,48.1Zm2.55-3.24-.21.26-.69-.56-1.7,2.09.69.56-.2.26-.94-.76.93-1.15a3.06,3.06,0,0,0-.57-.17l.15-.32a4.34,4.34,0,0,1,.64.21l1-1.18Zm-.28.53-1.37,1.69-.23-.19,1.37-1.69Zm2.12.8a2.67,2.67,0,0,1,.51.5.55.55,0,0,1,.1.39,1.31,1.31,0,0,1-.32.52c-.22.28-.43.35-.63.19l-1.43-1.16-.46.56a2.63,2.63,0,0,1,.88,1.28,2.66,2.66,0,0,1-.09,1.35l-.35,0a2.37,2.37,0,0,0,.12-1.29,2,2,0,0,0-.77-1.1l-.6.74L52,48l2.12-2.63.24.19-.65.8,1.38,1.12a.16.16,0,0,0,.1,0s.11-.07.21-.19a1.06,1.06,0,0,0,.16-.24.26.26,0,0,0,0-.12.77.77,0,0,0-.19-.24,3.39,3.39,0,0,0-.39-.34Z"/><path class="cls-5" d="M9,30.48,9,31l-3.64-.11,0,.74-.61,0,.06-2h.61l0,.75Z"/><path class="cls-5" d="M8.19,28.65l.9.43L9,29.67,4.87,27.78l.07-.5,4.49-.65-.08.6-1,.15Zm-2.26-.94,1.71.73.14-1Z"/><path class="cls-5" d="M9.68,25.77l-.13.55-4.14-1,.13-.55Z"/><path class="cls-5" d="M9.08,23.76,6.33,22l.1-.28,3.26.39L7,20.33l.2-.56,3.68,2.55-.15.41-3-.34L10.25,24l-.15.41L5.67,24l.2-.56Z"/><path class="cls-5" d="M10.89,19.93l.68.72-.29.52L8.12,17.9l.25-.44,4.42,1-.3.53-1-.22ZM9.14,18.22l1.33,1.31.49-.87Z"/><path class="cls-5" d="M9.52,15.57l.26-.34,3.69.45L11,13.79l.34-.44L14.81,16l-.26.34-3.69-.44,2.47,1.89-.35.45Z"/><path class="cls-5" d="M15.1,9.75l.54-.46.3,2.32,2.5.88-.57.48-2.28-.83L17,13.75l-.43.37-2.75-3.24.43-.37L15.49,12Z"/><path class="cls-5" d="M17.12,9l.62.91.93-.63L19,9.8l-.93.63.74,1.09,1-.65.34.5-1.43,1L16.31,8.82l1.43-1,.34.51Z"/><path class="cls-5" d="M19.31,7.64l.54,1,1-.54.29.53-1,.54.63,1.15,1-.55.29.53-1.52.83-2-3.73L20,6.54l.29.54Z"/><path class="cls-5" d="M22.85,9.26l.92-.41.24.56L22.57,10l-1.7-3.89.52-.23Z"/><path class="cls-5" d="M23,5.24l.54-.17.72,2.27c.28.87.63,1.24,1.06,1.1s.51-.64.23-1.51l-.72-2.27.54-.17.77,2.42c.36,1.16.15,1.86-.63,2.11s-1.37-.2-1.74-1.36Z"/><path class="cls-5" d="M26.49,4.09,26.91,4l2.4,2.83-.51-3,.55-.1L30.08,8l-.42.08-2.4-2.83.52,3.06-.56.1Z"/><path class="cls-5" d="M33.57,5.52v.1a3,3,0,0,1-.37,1.65,1.25,1.25,0,0,1-1.1.65A1.33,1.33,0,0,1,31,7.31a2.74,2.74,0,0,1-.49-1.57,2.73,2.73,0,0,1,.43-1.62,1.37,1.37,0,0,1,2.5.32l-.5.35c-.18-.49-.46-.72-.85-.71a.83.83,0,0,0-.72.5,2.17,2.17,0,0,0-.27,1.16,2.11,2.11,0,0,0,.32,1.12.83.83,0,0,0,.75.44.71.71,0,0,0,.61-.36,1.46,1.46,0,0,0,.21-.84l-.79,0,0-.57Z"/><path class="cls-5" d="M36.79,3.84l.92.18a1.39,1.39,0,0,1,1,.81,2.55,2.55,0,0,1,.15,1.57,2.47,2.47,0,0,1-.74,1.41,1.38,1.38,0,0,1-1.25.38L36,8Zm-.13,3.64.19,0c.79.15,1.27-.26,1.46-1.22s-.11-1.53-.9-1.68l-.19,0Z"/><path class="cls-5" d="M39.46,8.8l-.54-.15,1.17-4.09.55.16Z"/><path class="cls-5" d="M42.71,6.34a.64.64,0,0,0-.38-.55.45.45,0,0,0-.39,0,.66.66,0,0,0-.28.36c-.06.16,0,.42.26.78s.36.53.37.53a1.09,1.09,0,0,1,.06.9,1.82,1.82,0,0,1-.65.89.94.94,0,0,1-.89.09c-.41-.15-.63-.52-.67-1.13L40.63,8a1,1,0,0,0,.09.51.55.55,0,0,0,.3.33.45.45,0,0,0,.43-.07.87.87,0,0,0,.31-.43.65.65,0,0,0,0-.39,2.25,2.25,0,0,0-.48-.72,1.05,1.05,0,0,1-.23-1.12,1.44,1.44,0,0,1,.58-.75.82.82,0,0,1,.78-.1,1,1,0,0,1,.69.76Z"/><path class="cls-5" d="M43.2,10.28l-.46-.22,1.59-3.28-.67-.32.26-.55,1.8.87-.27.55L44.79,7Z"/><path class="cls-5" d="M46,11.92l-.59-.36.18-2.11-1,1.61-.49-.3,2.22-3.62.76.47c.63.39.73.94.28,1.67a1.52,1.52,0,0,1-.59.59.72.72,0,0,1-.64,0ZM45.78,9.2l.14.09a.65.65,0,0,0,1-.29.64.64,0,0,0-.21-1l-.15-.09Z"/><path class="cls-5" d="M46.77,12.48l-.45-.33,2.49-3.44.46.34Z"/><path class="cls-5" d="M51.07,11.85a.83.83,0,0,0-.26-.82.88.88,0,0,0-.89-.14,2,2,0,0,0-1,.63,1.91,1.91,0,0,0-.46,1,.86.86,0,0,0,.26.85.89.89,0,0,0,.85.15l-.57.66a1.33,1.33,0,0,1-1.19-1.56,2.55,2.55,0,0,1,.66-1.48,2.69,2.69,0,0,1,1.4-.91,1.41,1.41,0,0,1,1.33.27,1.29,1.29,0,0,1,.4.67Z"/><path class="cls-5" d="M50,15.4,49.67,15l2.64-2.5L51.8,12l.44-.42L53.62,13l-.45.42-.51-.54Z"/><path class="cls-5" d="M55.87,17.85a.87.87,0,0,0,0-.86.9.9,0,0,0-.82-.38,2,2,0,0,0-1.09.33,2,2,0,0,0-.73.84.84.84,0,0,0,.8,1.27l-.74.48a1.47,1.47,0,0,1-.62-.5,1.41,1.41,0,0,1-.09-1.33,2.61,2.61,0,0,1,1-1.24A2.74,2.74,0,0,1,55.22,16a1.41,1.41,0,0,1,1.19.63,1.33,1.33,0,0,1,.2.76Z"/><path class="cls-5" d="M55.29,19a2.64,2.64,0,0,1,1.63-.25,1.4,1.4,0,0,1,1,2.14,2.9,2.9,0,0,1-2.86,1.35,1.4,1.4,0,0,1-1-2.15A2.64,2.64,0,0,1,55.29,19Zm.29.51a2,2,0,0,0-.86.75.9.9,0,0,0-.11.88.87.87,0,0,0,.74.51,2,2,0,0,0,1.14-.21,1.73,1.73,0,0,0,.83-.71.91.91,0,0,0-.66-1.4A1.85,1.85,0,0,0,55.58,19.54Z"/><path class="cls-5" d="M59,22.1l.17.54-2.28.69c-.87.27-1.25.62-1.11,1.05s.63.52,1.51.25l2.27-.7.17.54-2.43.74c-1.16.36-1.86.14-2.11-.65s.22-1.36,1.38-1.72Z"/><path class="cls-5" d="M56.15,28.47,56,27.78l1.7-1.26-1.86.33-.1-.56,4.18-.75.16.87c.13.74-.23,1.18-1.07,1.33a1.62,1.62,0,0,1-.83,0,.73.73,0,0,1-.45-.46Zm1.86-2,0,.17c.08.46.37.64.87.55a.63.63,0,0,0,.6-.81l0-.17Z"/><path class="cls-5" d="M56.25,29.82l0-.51L59.84,29l-.06-.74.6-.05.16,2-.6.05-.06-.74Z"/></svg>