<svg id="圖層_1" data-name="圖層 1" xmlns="http://www.w3.org/2000/svg" xmlns:xlink="http://www.w3.org/1999/xlink" viewBox="0 0 270.84 64"><defs><style>.cls-1{fill:#333;}.cls-2{fill:#fff;}.cls-3{fill:url(#linear-gradient);}.cls-4{fill:#005bab;}.cls-5{fill:#b7a246;}</style><linearGradient id="linear-gradient" x1="32.65" y1="60.77" x2="32.65" y2="37.52" gradientUnits="userSpaceOnUse"><stop offset="0.69" stop-color="#b7a246"/><stop offset="1" stop-color="#fff"/></linearGradient></defs><path class="cls-1" d="M86.23,15.18v1.46H79.1v1h5.73V19h-13V17.67h5.6v-1h-7V15.18h7V13.83h1.7v1.35ZM79.1,33.8h7.09v1.56H70.46V33.8H77.4v-1H72.21V31.36H77.4v-1c-3.32.12-3.84.19-4.21.33a13.9,13.9,0,0,0-.38-1.51,3.77,3.77,0,0,0,1-.31,9.08,9.08,0,0,0,1.52-1H72.5v-1.3H84V28H82.26a20.12,20.12,0,0,1,2.32,2.13l-1,1.11a10.31,10.31,0,0,0-.89-1l-3.57.12v1h5.48v1.39H79.1Zm-8.41-9.48H85.94v3.46h-1.6v-2H72.21v2H70.69Zm13.47-4.39v3.53H72.54V19.93Zm-1.65,1.18H74.1v1.15h8.41ZM77.22,28a13.69,13.69,0,0,1-1.62,1.17L81.31,29c-.39-.33-.81-.64-1.19-.91l.14-.14Z"/><path class="cls-1" d="M90.61,24.49A12.16,12.16,0,0,0,88,22l.93-1.54a11.83,11.83,0,0,1,2.65,2.3Zm-2.23,10c.65-1.85,1.57-4.92,2.24-7.61L92,28c-.58,2.47-1.36,5.35-2.09,7.58Zm2.54-16.16a13,13,0,0,0-2.52-2.66l1-1.47A12.64,12.64,0,0,1,92,16.64ZM93,22.86a14.69,14.69,0,0,1-.77,3.24,4.31,4.31,0,0,0-.77-.7,10.67,10.67,0,0,0,.65-2.83Zm2.33-1a4.21,4.21,0,0,0-.18-.72c-2.37.41-2.82.53-3.08.7a7.64,7.64,0,0,0-.36-1c.29-.05.54-.36.85-.79a15.23,15.23,0,0,0,1-1.68,5.64,5.64,0,0,0-1.56.31,4.58,4.58,0,0,0-.37-1c.22,0,.4-.28.6-.62a14.09,14.09,0,0,0,1.07-3l1,.46a15.34,15.34,0,0,1-1.2,2.73l1-.07c.17-.36.33-.72.46-1.08l1,.53a22.88,22.88,0,0,1-2.09,3.67l1.33-.22c-.09-.24-.2-.48-.29-.69l.76-.36a13.65,13.65,0,0,1,.83,2.42ZM104,31a6.34,6.34,0,0,1-.11.84c-.31,2-.67,3.05-1.14,3.53a2,2,0,0,1-1.51.55c-.54,0-1.65,0-2.77-.07a4.63,4.63,0,0,0-.46-1.7,24,24,0,0,0,2.74.16c.4,0,.58,0,.78-.16a3.58,3.58,0,0,0,.65-1.71H92.82c.29-1.08.58-2.54.8-3.79h7.94v-1H93V26.24h10.11V30H94.94l-.22,1ZM93.71,25.69a15.57,15.57,0,0,0-.37-2.88l.8-.26a15.08,15.08,0,0,1,.42,2.76Zm1.57-.6a15.22,15.22,0,0,0-.56-2.61l.73-.34a12.09,12.09,0,0,1,.59,2.5Zm4.93-7.61H95.9V16.23h1.83a18.8,18.8,0,0,0-.63-1.82l1.1-.34A11.28,11.28,0,0,1,98.93,16l-.84.28h2.12ZM96.39,22h3.43v3.53H96.39Zm3.41-2.57H96.43V18.25H99.8ZM96.43,20H99.8v1.12H96.43Zm1,4.34h1.29V23.05H97.44Zm4-1.61A15,15,0,0,1,100.7,26a5.37,5.37,0,0,0-.78-.72,10.74,10.74,0,0,0,.66-2.8Zm2.38-.81c0-.22-.13-.51-.22-.82a13.42,13.42,0,0,0-3.1.7c0-.19-.23-.75-.34-1,.25,0,.52-.33.85-.81a19.38,19.38,0,0,0,1-1.66,4.77,4.77,0,0,0-1.56.34,6.6,6.6,0,0,0-.35-1c.2,0,.38-.27.58-.63a13.33,13.33,0,0,0,1.09-3l1,.45a15.46,15.46,0,0,1-1.16,2.71l1-.07c.15-.36.31-.72.44-1.08l1,.55A21.18,21.18,0,0,1,102,20.27l1.33-.22-.29-.7.74-.36a14.24,14.24,0,0,1,.91,2.53Zm-1.72,3.93a18.11,18.11,0,0,0-.38-3.09l.79-.27a18.36,18.36,0,0,1,.42,3Zm1.74-3.79a14.37,14.37,0,0,1,.72,3l-.78.45a15.4,15.4,0,0,0-.69-3.07Z"/><path class="cls-1" d="M122.41,16.26v1.89h-15.8V16.26h7.19c-.16-.65-.34-1.37-.51-2l1.71-.53c.23.77.52,1.73.71,2.5Zm-.49,17.42c0,1.06-.2,1.47-.76,1.76a6.52,6.52,0,0,1-2.61.26A9.11,9.11,0,0,0,118,34a18,18,0,0,0,1.86,0c.24,0,.33-.1.33-.39V27.23H108.83v8.66h-1.64V25.38h14.73Zm-1.85-14.37v4.92H109.2V19.31Zm-7.92,14.16v1.1h-1.56V28.4h7.69v5.07Zm6.15-12.6h-7.43v1.77h7.43ZM112.15,30v1.85h4.64V30Z"/><path class="cls-1" d="M128.35,19.83a36.5,36.5,0,0,1-2.88,11.43A13.72,13.72,0,0,0,124.05,30c1.36-2.47,2.18-6,2.69-10.16h-2V17.7H127c.13-1.25.22-2.55.29-3.84l1.61.19c-.09,1.25-.19,2.47-.3,3.65h3.6v2.13Zm2.83,7.11a71.92,71.92,0,0,1,1.49,7.44l-1.36.65c-.06-.53-.15-1.08-.24-1.71-3.61.87-4.19,1.06-4.53,1.35a13.17,13.17,0,0,0-.53-1.9c.35-.14.62-.84,1-1.87a52.28,52.28,0,0,0,2-8.52l1.6.5a66.07,66.07,0,0,1-2.56,9.29l2.7-.6c-.25-1.39-.56-2.83-.83-4.08Zm9.62,7.75h-6.16v1.18h-1.49v-14A17.86,17.86,0,0,1,132,24.11a11,11,0,0,0-1-1.76A27,27,0,0,0,134.15,14l1.43.5c-.3,1.3-.67,2.62-1.08,3.87h6.1v2h-2.22v2.86h2.17v1.9h-2.17V27.9h2.19v1.9h-2.19v2.88h2.42Zm-6.16-14.38v2.86h2.21V20.31Zm2.21,4.76h-2.21V27.9h2.21Zm-2.21,7.61h2.21V29.8h-2.21Zm2.88-18.51a23.63,23.63,0,0,1,1.22,3.41l-1.51.74a26,26,0,0,0-1.14-3.53Z"/><path class="cls-1" d="M156.82,27.11c-2.48,5.33-7.3,7.75-13.68,8.76a9,9,0,0,0-.8-2.14c6.09-.77,10.69-2.83,13-7.58Zm-9.39-9a44.57,44.57,0,0,1-3.28,8.12,9.44,9.44,0,0,0-1.47-1.08,31,31,0,0,0,3.14-7.59Zm3.95-4.17V28.62H149.7V13.91Zm4.23,3.55A70.24,70.24,0,0,1,159,24.92l-1.45,1.13a67.66,67.66,0,0,0-3.28-7.66Z"/><path class="cls-1" d="M177.08,30.59h-6.36v5.3H169v-5.3h-8.25V28.43h2.92V22.09H169V18.78h-4.15a22.73,22.73,0,0,1-2.61,4.56,14.32,14.32,0,0,0-1.47-1.44,20.85,20.85,0,0,0,3.95-8.14l1.7.6c-.21.75-.47,1.54-.7,2.26h10.49v2.16h-5.47v3.31h5.06v2.09h-5.06v4.25h6.36ZM169,28.43V24.18h-3.65v4.25Z"/><path class="cls-1" d="M194.53,22.26a20.4,20.4,0,0,1-3.79,8.93,12.16,12.16,0,0,0,4.68,2.61,10,10,0,0,0-1.16,2.14,13.28,13.28,0,0,1-4.93-3.22,16.45,16.45,0,0,1-5.55,3.44,9.38,9.38,0,0,0-1-2.09,13.45,13.45,0,0,0,5.2-2.95,22.94,22.94,0,0,1-3.28-7.3h-.5a21.35,21.35,0,0,1-4.37,11.69,9.24,9.24,0,0,0-1.22-1.9c3.72-4.46,4-10.41,4-14.5v-2h-3V14.94h11.24c-.35,2.18-.76,4.8-1.14,6.77H193l.33-.12Zm-10.11-3.12c0,.82,0,1.68-.06,2.57h3.5c.31-1.37.6-3,.87-4.61h-4.31Zm1.93,4.68a17.79,17.79,0,0,0,3,5.86,16.13,16.13,0,0,0,2.93-5.86Z"/><path class="cls-1" d="M211.6,23.87c-.78.84-1.67,1.68-2.56,2.49.78,3,2.38,5.57,4.54,6.72a7.69,7.69,0,0,0-1.11,1.8c-2.23-1.36-3.81-4.05-4.75-7.39l-.72.58c.58,3,.14,5.83-.84,6.84a2.17,2.17,0,0,1-2,1,11.4,11.4,0,0,1-1.5,0,7,7,0,0,0-.45-2.09c.63.07,1.21.12,1.61.12a1.12,1.12,0,0,0,1.09-.53,5.54,5.54,0,0,0,.63-3.4A24.71,24.71,0,0,1,198,34.81a8.52,8.52,0,0,0-.89-1.85,19.55,19.55,0,0,0,8.14-5.11,13.45,13.45,0,0,0-.38-1.34,27,27,0,0,1-6.62,4,11.74,11.74,0,0,0-.85-1.75,20,20,0,0,0,6.8-3.77,11.21,11.21,0,0,0-.71-1.15,21.46,21.46,0,0,1-5.11,2.69,11.82,11.82,0,0,0-.89-1.78,17.52,17.52,0,0,0,6.15-3.07H200V19.81h10.26v1.92H206a13.14,13.14,0,0,1-1.18,1.18,10.81,10.81,0,0,1,1.74,3.33,31.5,31.5,0,0,0,3.7-3.84ZM199.22,21h-1.63V15.9h6.63a14.94,14.94,0,0,0-.56-1.56l1.76-.67a18.25,18.25,0,0,1,.85,2.23h6.54V21h-1.72v-3.1H199.22Z"/><path class="cls-1" d="M231.5,29.17h-1.89v4.2h-1.7v-1H224v1.25c0,1.22-.23,1.73-.85,2a8.11,8.11,0,0,1-3.08.31,8,8,0,0,0-.58-1.8c1,0,2.09,0,2.38,0s.43-.14.43-.55V32.34h-5.66V30.66h5.66V29.17h-7.25V27.42h7.25V26.05h-5.49V24.47h5.49V23.05h-5V18.63h5V17.41h-6.87v-1.8h6.87V13.86H224v1.75h7.07v1.8H224v1.22h5.28v4.42H224v1.42h5.57v3h1.89Zm-9.16-7.61V20.12h-3.41v1.44Zm1.7-1.44v1.44h3.58V20.12Zm0,7.3h3.87V26.05H224Zm3.87,1.75H224v1.49h3.87Z"/><path class="cls-1" d="M236.45,24.76a16.46,16.46,0,0,0-3.33-2.6l.89-1.68a14.88,14.88,0,0,1,3.37,2.43Zm-2.73,9.33a71.78,71.78,0,0,0,3.42-7.61L238.38,28c-.95,2.5-2.14,5.38-3.21,7.63Zm1.34-20a17.56,17.56,0,0,1,3.41,2.45l-1,1.85a15.62,15.62,0,0,0-3.37-2.67Zm12.87,21.75a15.46,15.46,0,0,0-.74-2.26c-6.4,1-7.22,1.23-7.76,1.56-.09-.48-.38-1.61-.58-2.23.38-.12.72-.67,1.16-1.56a38.71,38.71,0,0,0,2.23-5.54H238.5V23.72H243V19.83h-3.72V17.72H243V13.86h1.72v3.86h3.86v2.11H244.7v3.89h4.55v2.12h-5a50.73,50.73,0,0,1-2.88,6.64l5-.72c-.44-1-.95-1.92-1.42-2.8l1.36-.87a31.65,31.65,0,0,1,3.1,6.77Z"/><path class="cls-1" d="M257.28,15.59c-.51,2-1.15,4.32-1.69,6.16a9.45,9.45,0,0,1,1.47,5.12,4.21,4.21,0,0,1-.75,2.93,1.9,1.9,0,0,1-1,.48,11.16,11.16,0,0,1-1.2,0,6.36,6.36,0,0,0-.38-1.94,5.85,5.85,0,0,0,.92,0,.8.8,0,0,0,.53-.19,2.49,2.49,0,0,0,.36-1.56A8.2,8.2,0,0,0,254.08,22c.46-1.58.95-3.6,1.27-5.19h-2v19h-1.49v-21h4l.24-.09Zm8.8,18.09c.35,0,.42-.38.46-2.95a3.35,3.35,0,0,0,1.41.82c-.14,3.21-.52,4-1.68,4H264.8c-1.4,0-1.72-.6-1.72-2.62V27.3H261.5c-.29,4.2-1.16,7-4.59,8.59a6.16,6.16,0,0,0-1-1.77c3-1.28,3.68-3.44,3.92-6.82h-2.36v-2h10.21v2h-3.05v5.64c0,.65.06.74.4.74Zm-7.19-12.53h-1.43V16.74h4.4a22.46,22.46,0,0,0-.85-2.47l1.56-.6a20.13,20.13,0,0,1,1.1,3.07h4v4.41h-1.44V23h-7.3Zm.13-2.47V21h7V18.68Z"/><path class="cls-1" d="M69.78,45v-.78h3.85V45H72.06v7.12h-.71V45Z"/><path class="cls-1" d="M79.42,46.23v5.84h-.66v-1a2.92,2.92,0,0,1-.94.86,2.25,2.25,0,0,1-1.14.29,2.41,2.41,0,0,1-1.89-.9A3.2,3.2,0,0,1,74,49.14,3.11,3.11,0,0,1,74.8,47a2.43,2.43,0,0,1,1.9-.9,2.16,2.16,0,0,1,1.15.31,2.73,2.73,0,0,1,.91.91V46.23Zm-2.67.57a1.89,1.89,0,0,0-1,.31A2.13,2.13,0,0,0,75,48a2.56,2.56,0,0,0-.28,1.18A2.59,2.59,0,0,0,75,50.34a2.19,2.19,0,0,0,.76.88,1.78,1.78,0,0,0,1,.31,1.91,1.91,0,0,0,1-.31,2.1,2.1,0,0,0,.75-.84,2.65,2.65,0,0,0,.27-1.2,2.44,2.44,0,0,0-.6-1.69A1.84,1.84,0,0,0,76.75,46.8Z"/><path class="cls-1" d="M80.87,43.82a.49.49,0,0,1,.39.19.61.61,0,0,1,.16.44.6.6,0,0,1-.16.43.51.51,0,0,1-.78,0,.65.65,0,0,1-.16-.43.66.66,0,0,1,.16-.44A.49.49,0,0,1,80.87,43.82Zm-.33,2.41h.67v5.84h-.67Z"/><path class="cls-1" d="M81.6,46.23h.69l1.59,4.24,1.66-4.24h.12l1.67,4.24L89,46.23h.69L87.4,52.07h-.13l-1.66-4.18L84,52.07h-.13Z"/><path class="cls-1" d="M95.33,46.23v5.84h-.66v-1a2.94,2.94,0,0,1-1,.86,2.25,2.25,0,0,1-1.14.29,2.41,2.41,0,0,1-1.89-.9,3.2,3.2,0,0,1-.78-2.18A3.11,3.11,0,0,1,90.7,47a2.45,2.45,0,0,1,1.9-.9,2.22,2.22,0,0,1,1.16.31,2.82,2.82,0,0,1,.91.91V46.23Zm-2.68.57a1.91,1.91,0,0,0-1,.31,2.29,2.29,0,0,0-.75.87,2.56,2.56,0,0,0-.28,1.18,2.59,2.59,0,0,0,.28,1.18,2.19,2.19,0,0,0,.76.88,1.82,1.82,0,0,0,1,.31,1.91,1.91,0,0,0,1-.31,2.12,2.12,0,0,0,.76-.84,2.78,2.78,0,0,0,.26-1.2,2.49,2.49,0,0,0-.59-1.69A1.88,1.88,0,0,0,92.65,46.8Z"/><path class="cls-1" d="M96.54,46.23h.67v1.05a2.94,2.94,0,0,1,.89-.9,2,2,0,0,1,1.06-.3,1.69,1.69,0,0,1,1,.33,1.92,1.92,0,0,1,.67.9,5.37,5.37,0,0,1,.22,1.76v3h-.67V49.29a7.41,7.41,0,0,0-.08-1.35,1.56,1.56,0,0,0-.44-.88,1.29,1.29,0,0,0-.87-.29,1.54,1.54,0,0,0-1.08.45,2.25,2.25,0,0,0-.64,1.12,9.24,9.24,0,0,0-.09,1.59v2.14h-.67Z"/><path class="cls-1" d="M104.74,44.17h.72v3l2.81-3h.94l-3.37,3.55,3.64,4.35h-.94l-3.08-3.68v3.68h-.72Z"/><path class="cls-1" d="M115.3,46.23v5.84h-.66v-1a2.92,2.92,0,0,1-.94.86,2.25,2.25,0,0,1-1.14.29,2.41,2.41,0,0,1-1.89-.9,3.2,3.2,0,0,1-.78-2.18,3.11,3.11,0,0,1,.79-2.16,2.43,2.43,0,0,1,1.9-.9,2.16,2.16,0,0,1,1.15.31,2.73,2.73,0,0,1,.91.91V46.23Zm-2.67.57a1.89,1.89,0,0,0-1,.31,2.13,2.13,0,0,0-.75.87,2.56,2.56,0,0,0-.28,1.18,2.59,2.59,0,0,0,.28,1.18,2.19,2.19,0,0,0,.76.88,1.77,1.77,0,0,0,1,.31,1.92,1.92,0,0,0,1-.31,2.1,2.1,0,0,0,.75-.84,2.65,2.65,0,0,0,.27-1.2,2.44,2.44,0,0,0-.6-1.69A1.84,1.84,0,0,0,112.63,46.8Z"/><path class="cls-1" d="M119,46.08a2.47,2.47,0,0,1,2,1,3.42,3.42,0,0,1,0,4.25,2.56,2.56,0,0,1-3.91,0,3.42,3.42,0,0,1,0-4.25A2.47,2.47,0,0,1,119,46.08Zm0,.74a1.85,1.85,0,0,0-1.44.69,2.46,2.46,0,0,0-.6,1.67,2.66,2.66,0,0,0,.27,1.19,2.17,2.17,0,0,0,.74.84,1.9,1.9,0,0,0,2,0,2.17,2.17,0,0,0,.74-.84,2.66,2.66,0,0,0,.27-1.19,2.46,2.46,0,0,0-.6-1.67A1.84,1.84,0,0,0,119,46.82Z"/><path class="cls-1" d="M122.63,44h.67v3.31a3,3,0,0,1,.9-.9,1.94,1.94,0,0,1,1-.3,1.72,1.72,0,0,1,1,.33,2,2,0,0,1,.67.9,5.38,5.38,0,0,1,.21,1.76v3h-.67V49.29a7.74,7.74,0,0,0-.07-1.35,1.57,1.57,0,0,0-.45-.88,1.28,1.28,0,0,0-.86-.29,1.55,1.55,0,0,0-1.09.45,2.16,2.16,0,0,0-.63,1.12,8.06,8.06,0,0,0-.1,1.59v2.14h-.67Z"/><path class="cls-1" d="M130.92,46.87l-.42.5a1.5,1.5,0,0,0-1.05-.59.74.74,0,0,0-.56.24.8.8,0,0,0-.24.57.88.88,0,0,0,.2.54,2.55,2.55,0,0,0,.8.62,3.07,3.07,0,0,1,1,.84,1.69,1.69,0,0,1,.26.91,1.74,1.74,0,0,1-.45,1.22,1.44,1.44,0,0,1-1.13.5,1.71,1.71,0,0,1-.85-.22,1.87,1.87,0,0,1-.68-.6l.42-.54a1.42,1.42,0,0,0,1.09.65.94.94,0,0,0,.68-.29.93.93,0,0,0,.28-.68,1,1,0,0,0-.18-.58,3.22,3.22,0,0,0-.85-.62,2.66,2.66,0,0,1-.95-.81,1.61,1.61,0,0,1-.26-.9,1.57,1.57,0,0,1,.41-1.11,1.34,1.34,0,0,1,1-.44A2,2,0,0,1,130.92,46.87Z"/><path class="cls-1" d="M132.05,43.82a.49.49,0,0,1,.39.19.61.61,0,0,1,.16.44.6.6,0,0,1-.16.43.51.51,0,0,1-.78,0,.65.65,0,0,1-.16-.43.66.66,0,0,1,.16-.44A.49.49,0,0,1,132.05,43.82Zm-.33,2.41h.67v5.84h-.67Z"/><path class="cls-1" d="M133.4,46.23h.67V49a6.91,6.91,0,0,0,.09,1.37,1.56,1.56,0,0,0,.55.85,1.51,1.51,0,0,0,1,.31,1.48,1.48,0,0,0,1-.3,1.55,1.55,0,0,0,.54-.8,6.07,6.07,0,0,0,.1-1.43V46.23H138V49.1a5.24,5.24,0,0,1-.25,1.82,2.08,2.08,0,0,1-.76,1,2.17,2.17,0,0,1-1.26.34,2.21,2.21,0,0,1-1.27-.34,2.11,2.11,0,0,1-.76-1A5.17,5.17,0,0,1,133.4,49Z"/><path class="cls-1" d="M139.14,46.23h.67v1.05a2.94,2.94,0,0,1,.89-.9,2,2,0,0,1,1.06-.3,1.69,1.69,0,0,1,1,.33,1.85,1.85,0,0,1,.67.9,5.11,5.11,0,0,1,.22,1.76v3H143V49.29a7.41,7.41,0,0,0-.08-1.35,1.5,1.5,0,0,0-.44-.88,1.28,1.28,0,0,0-.86-.29,1.55,1.55,0,0,0-1.09.45,2.16,2.16,0,0,0-.63,1.12,8.06,8.06,0,0,0-.1,1.59v2.14h-.67Z"/><path class="cls-1" d="M149.3,46.23H150v4.66a6.07,6.07,0,0,1-.19,1.8,2.36,2.36,0,0,1-.91,1.24,2.78,2.78,0,0,1-1.57.43,3.29,3.29,0,0,1-1.2-.21,2.44,2.44,0,0,1-.87-.57,3.59,3.59,0,0,1-.61-1h.72a2.1,2.1,0,0,0,.77.86,2.19,2.19,0,0,0,1.16.28,2.22,2.22,0,0,0,1.16-.29,1.65,1.65,0,0,0,.67-.72,3.44,3.44,0,0,0,.2-1.4V51a2.69,2.69,0,0,1-.92.83,2.48,2.48,0,0,1-1.16.28,2.45,2.45,0,0,1-1.35-.4,2.66,2.66,0,0,1-1-1.07,3.36,3.36,0,0,1-.34-1.49,3.23,3.23,0,0,1,.36-1.51,2.81,2.81,0,0,1,1-1.11,2.47,2.47,0,0,1,1.34-.41,2.29,2.29,0,0,1,1.09.27,3,3,0,0,1,1,.9Zm-2,.57a2,2,0,0,0-1.06.31,2.12,2.12,0,0,0-.76.86,2.48,2.48,0,0,0-.28,1.18,2.28,2.28,0,0,0,.57,1.59,1.93,1.93,0,0,0,1.49.62,1.88,1.88,0,0,0,1.48-.62,2.32,2.32,0,0,0,.56-1.64,2.65,2.65,0,0,0-.25-1.18,2,2,0,0,0-.73-.81A1.82,1.82,0,0,0,147.33,46.8Z"/><path class="cls-1" d="M155.94,44.17h.7v5.34a5.6,5.6,0,0,1-.17,1.71,1.54,1.54,0,0,1-.56.76,1.56,1.56,0,0,1-1,.29,2,2,0,0,1-.84-.18,3.56,3.56,0,0,1-.92-.66l.38-.62a5.3,5.3,0,0,0,.91.61,1.06,1.06,0,0,0,.47.12.84.84,0,0,0,.55-.21,1,1,0,0,0,.34-.54,5.36,5.36,0,0,0,.1-1.31Z"/><path class="cls-1" d="M157.87,46.23h.67V49a6.91,6.91,0,0,0,.09,1.37,1.56,1.56,0,0,0,.55.85,1.51,1.51,0,0,0,1,.31,1.5,1.5,0,0,0,1-.3,1.55,1.55,0,0,0,.54-.8,6.07,6.07,0,0,0,.1-1.43V46.23h.69V49.1a5.24,5.24,0,0,1-.25,1.82,2.08,2.08,0,0,1-.76,1,2.52,2.52,0,0,1-2.53,0,2,2,0,0,1-.76-1,5.17,5.17,0,0,1-.25-1.87Z"/><path class="cls-1" d="M163.12,46.23h.71l1.75,4.26,1.72-4.26H168l-2.38,5.84h-.13Z"/><path class="cls-1" d="M173.12,50.13l.56.34a3.2,3.2,0,0,1-.64,1,2.49,2.49,0,0,1-.81.57,2.63,2.63,0,0,1-1,.19,2.36,2.36,0,0,1-2-.93,3.4,3.4,0,0,1-.72-2.12,3.34,3.34,0,0,1,.61-2,2.39,2.39,0,0,1,2.06-1.11,2.48,2.48,0,0,1,2.12,1.13,3.45,3.45,0,0,1,.58,2h-4.68a2.49,2.49,0,0,0,.58,1.67,1.75,1.75,0,0,0,1.38.65,2.07,2.07,0,0,0,.77-.15,2.09,2.09,0,0,0,.64-.42A3.08,3.08,0,0,0,173.12,50.13Zm0-1.57a2.67,2.67,0,0,0-.39-1,1.93,1.93,0,0,0-.68-.58,1.82,1.82,0,0,0-.88-.22,1.8,1.8,0,0,0-1.32.55,2.59,2.59,0,0,0-.61,1.21Z"/><path class="cls-1" d="M174.81,46.23h.67v1.05a2.94,2.94,0,0,1,.89-.9,2,2,0,0,1,1.06-.3,1.69,1.69,0,0,1,1,.33,1.85,1.85,0,0,1,.67.9,5.11,5.11,0,0,1,.22,1.76v3h-.67V49.29a7.41,7.41,0,0,0-.08-1.35,1.5,1.5,0,0,0-.44-.88,1.28,1.28,0,0,0-.86-.29,1.55,1.55,0,0,0-1.09.45,2.16,2.16,0,0,0-.63,1.12,8.06,8.06,0,0,0-.1,1.59v2.14h-.67Z"/><path class="cls-1" d="M180.72,43.82a.49.49,0,0,1,.39.19.61.61,0,0,1,.16.44.6.6,0,0,1-.16.43.51.51,0,0,1-.78,0,.65.65,0,0,1-.16-.43.66.66,0,0,1,.16-.44A.49.49,0,0,1,180.72,43.82Zm-.33,2.41h.67v5.84h-.67Z"/><path class="cls-1" d="M182.05,44h.67v8.1h-.67Z"/><path class="cls-1" d="M188.2,50.13l.56.34a3.39,3.39,0,0,1-.64,1,2.43,2.43,0,0,1-.82.57,2.56,2.56,0,0,1-1,.19,2.39,2.39,0,0,1-2-.93,3.45,3.45,0,0,1-.71-2.12,3.4,3.4,0,0,1,.6-2,2.41,2.41,0,0,1,2.07-1.11,2.48,2.48,0,0,1,2.12,1.13,3.37,3.37,0,0,1,.57,2h-4.68a2.6,2.6,0,0,0,.58,1.67,1.79,1.79,0,0,0,1.39.65,2.07,2.07,0,0,0,.77-.15,2.22,2.22,0,0,0,.64-.42A3.62,3.62,0,0,0,188.2,50.13Zm0-1.57a2.67,2.67,0,0,0-.39-1,1.93,1.93,0,0,0-.68-.58,1.82,1.82,0,0,0-.88-.22,1.8,1.8,0,0,0-1.32.55,2.59,2.59,0,0,0-.61,1.21Z"/><path class="cls-1" d="M197.49,46.23v5.84h-.66v-1a2.94,2.94,0,0,1-1,.86,2.25,2.25,0,0,1-1.14.29,2.41,2.41,0,0,1-1.89-.9,3.2,3.2,0,0,1-.78-2.18,3.11,3.11,0,0,1,.79-2.16,2.45,2.45,0,0,1,1.9-.9,2.22,2.22,0,0,1,1.16.31,2.82,2.82,0,0,1,.91.91V46.23Zm-2.68.57a1.91,1.91,0,0,0-1,.31A2.29,2.29,0,0,0,193,48a2.56,2.56,0,0,0-.28,1.18,2.59,2.59,0,0,0,.28,1.18,2.19,2.19,0,0,0,.76.88,1.82,1.82,0,0,0,1,.31,1.91,1.91,0,0,0,1-.31,2.12,2.12,0,0,0,.76-.84,2.78,2.78,0,0,0,.26-1.2,2.49,2.49,0,0,0-.59-1.69A1.88,1.88,0,0,0,194.81,46.8Z"/><path class="cls-1" d="M198.7,46.23h.67v1.05a2.94,2.94,0,0,1,.89-.9,2,2,0,0,1,1.06-.3,1.69,1.69,0,0,1,1,.33,1.92,1.92,0,0,1,.67.9,5.37,5.37,0,0,1,.22,1.76v3h-.67V49.29a7.41,7.41,0,0,0-.08-1.35,1.56,1.56,0,0,0-.44-.88,1.29,1.29,0,0,0-.87-.29,1.54,1.54,0,0,0-1.08.45,2.25,2.25,0,0,0-.64,1.12,9.24,9.24,0,0,0-.09,1.59v2.14h-.67Z"/><path class="cls-1" d="M209.57,44v8.1h-.66v-1a2.94,2.94,0,0,1-.95.86,2.22,2.22,0,0,1-1.14.29,2.41,2.41,0,0,1-1.89-.9,3.2,3.2,0,0,1-.78-2.18,3.16,3.16,0,0,1,.79-2.16,2.45,2.45,0,0,1,1.9-.9,2.19,2.19,0,0,1,1.16.31,2.82,2.82,0,0,1,.91.91V44Zm-2.68,2.83a1.91,1.91,0,0,0-1,.31,2.29,2.29,0,0,0-.75.87,2.56,2.56,0,0,0-.28,1.18,2.59,2.59,0,0,0,.28,1.18,2.19,2.19,0,0,0,.76.88,1.82,1.82,0,0,0,1,.31,1.91,1.91,0,0,0,1-.31,2.12,2.12,0,0,0,.76-.84,2.78,2.78,0,0,0,.26-1.2,2.49,2.49,0,0,0-.59-1.69A1.88,1.88,0,0,0,206.89,46.8Z"/><path class="cls-1" d="M213.32,44.17h3.52V45H214v2.47h2.82v.78H214v3.87h-.7Z"/><path class="cls-1" d="M222.84,46.23v5.84h-.66v-1a2.92,2.92,0,0,1-.94.86,2.26,2.26,0,0,1-1.15.29,2.41,2.41,0,0,1-1.88-.9,3.21,3.21,0,0,1-.79-2.18,3.16,3.16,0,0,1,.79-2.16,2.45,2.45,0,0,1,1.9-.9,2.19,2.19,0,0,1,1.16.31,2.73,2.73,0,0,1,.91.91V46.23Zm-2.67.57a1.92,1.92,0,0,0-1,.31,2.29,2.29,0,0,0-.75.87,2.69,2.69,0,0,0-.28,1.18,2.73,2.73,0,0,0,.28,1.18,2.27,2.27,0,0,0,.76.88,1.82,1.82,0,0,0,1,.31,1.89,1.89,0,0,0,1-.31,2.12,2.12,0,0,0,.76-.84,2.64,2.64,0,0,0,.26-1.2,2.44,2.44,0,0,0-.59-1.69A1.86,1.86,0,0,0,220.17,46.8Z"/><path class="cls-1" d="M224.05,46.23h.67v1a2.83,2.83,0,0,1,.71-.82,1.88,1.88,0,0,1,1.07-.34,1.69,1.69,0,0,1,1.28.61,2.65,2.65,0,0,1,.37.79,2.61,2.61,0,0,1,.83-1,1.84,1.84,0,0,1,1.08-.36,1.51,1.51,0,0,1,.95.31,1.69,1.69,0,0,1,.61.85,4.82,4.82,0,0,1,.21,1.64v3.19h-.69V48.88a4.67,4.67,0,0,0-.12-1.29,1.21,1.21,0,0,0-.4-.57,1.17,1.17,0,0,0-.69-.21,1.41,1.41,0,0,0-.89.32,1.82,1.82,0,0,0-.59.86,6.23,6.23,0,0,0-.19,1.8v2.28h-.67v-3a5.85,5.85,0,0,0-.11-1.44,1.22,1.22,0,0,0-.41-.6,1.12,1.12,0,0,0-.69-.23,1.38,1.38,0,0,0-.87.31,1.88,1.88,0,0,0-.6.85,5.08,5.08,0,0,0-.19,1.63v2.47h-.67Z"/><path class="cls-1" d="M233.17,43.82a.47.47,0,0,1,.39.19.62.62,0,0,1,.17.44.61.61,0,0,1-.17.43.48.48,0,0,1-.39.18.49.49,0,0,1-.38-.18.6.6,0,0,1-.16-.43.61.61,0,0,1,.16-.44A.47.47,0,0,1,233.17,43.82Zm-.33,2.41h.67v5.84h-.67Z"/><path class="cls-1" d="M234.51,44h.67v8.1h-.67Z"/><path class="cls-1" d="M235.71,46.23h.71l1.79,4.5,1.74-4.5h.71l-3.11,8h-.7l1-2.58Z"/><path class="cls-1" d="M250.3,45.64l-.55.48a3.13,3.13,0,0,0-1.1-1,3,3,0,0,0-1.41-.35,2.79,2.79,0,0,0-1.56.46,3,3,0,0,0-1.11,1.22,3.61,3.61,0,0,0-.4,1.72,3.49,3.49,0,0,0,.88,2.41,2.91,2.91,0,0,0,2.23,1,3,3,0,0,0,2.47-1.3l.55.47A3.56,3.56,0,0,1,249,51.86a3.76,3.76,0,0,1-1.75.41,3.48,3.48,0,0,1-2.91-1.38,4.44,4.44,0,0,1-.9-2.81,4.17,4.17,0,0,1,1.08-2.92A3.55,3.55,0,0,1,247.23,44a3.6,3.6,0,0,1,1.77.44A3.48,3.48,0,0,1,250.3,45.64Z"/><path class="cls-1" d="M253.77,46.08a2.45,2.45,0,0,1,2,1,3.42,3.42,0,0,1,0,4.25,2.54,2.54,0,0,1-3.9,0,3.42,3.42,0,0,1,0-4.25A2.45,2.45,0,0,1,253.77,46.08Zm0,.74a1.83,1.83,0,0,0-1.43.69,2.46,2.46,0,0,0-.6,1.67,2.66,2.66,0,0,0,.27,1.19,2.09,2.09,0,0,0,.74.84,1.88,1.88,0,0,0,2,0,2.09,2.09,0,0,0,.74-.84,2.66,2.66,0,0,0,.27-1.19,2.46,2.46,0,0,0-.6-1.67A1.84,1.84,0,0,0,253.77,46.82Z"/><path class="cls-1" d="M257.34,46.23H258V49a6,6,0,0,0,.1,1.37,1.51,1.51,0,0,0,.55.85,1.49,1.49,0,0,0,1,.31,1.52,1.52,0,0,0,.95-.3,1.55,1.55,0,0,0,.54-.8,6.07,6.07,0,0,0,.1-1.43V46.23h.68V49.1a5,5,0,0,1-.25,1.82,2.13,2.13,0,0,1-.75,1,2.54,2.54,0,0,1-2.54,0,2.11,2.11,0,0,1-.76-1,5.4,5.4,0,0,1-.25-1.87Z"/><path class="cls-1" d="M262.83,46.23h.69v.85a2.57,2.57,0,0,1,.64-.75,1.05,1.05,0,0,1,1.3,0l-.35.63a.82.82,0,0,0-.35-.1.92.92,0,0,0-.65.31,2,2,0,0,0-.47,1,10.6,10.6,0,0,0-.12,2v2h-.69Z"/><path class="cls-1" d="M266.32,44.06H267v2.17h1.06v.65H267v5.19h-.67V46.88h-.91v-.65h.91Z"/><circle class="cls-2" cx="32.65" cy="31.37" r="30.28"/><path class="cls-3" d="M61.52,37.78a29.81,29.81,0,0,1-28.83,23c-13.95,0-25.93-10.21-28.92-23.25h7.44c2.8,9,11.53,16.07,21.48,16.07A22.63,22.63,0,0,0,54.08,37.78Z"/><path class="cls-4" d="M53.63,31.28a21,21,0,1,1-21-21A21,21,0,0,1,53.63,31.28Z"/><path class="cls-2" d="M34.33,33.78H31V42a1.68,1.68,0,0,0,1.69,1.65A1.64,1.64,0,0,0,34.33,42Z"/><path class="cls-2" d="M35.56,44H29.74a.7.7,0,0,0-.76.65v.77a.7.7,0,0,0,.76.65h5.82a.69.69,0,0,0,.75-.65v-.77A.7.7,0,0,0,35.56,44Z"/><path class="cls-2" d="M36.69,46.86h-8c-.56,0-1,.3-1,.69v.75c0,.41.41.7,1,.7h8c.55,0,1-.29,1-.7v-.75C37.65,47.16,37.24,46.86,36.69,46.86Z"/><path class="cls-2" d="M48.92,23.27a.91.91,0,0,0-.41-.63,1.1,1.1,0,0,0-1.36.13,6.57,6.57,0,0,1-8.67.07,8.88,8.88,0,0,0-11.24-.17l.05,0-.2.16,0,0a6.27,6.27,0,0,1-4.38,1.67,6.23,6.23,0,0,1-4.38-1.67,1.09,1.09,0,0,0-.68-.3,1.13,1.13,0,0,0-.69.17.94.94,0,0,0-.41.63v.1a.8.8,0,0,0,.27.6,8.38,8.38,0,0,0,5.9,2.28,8.45,8.45,0,0,0,5.48-1.9l0,0s0,0,0,0l.15-.12a6.55,6.55,0,0,1,8.68-.07,8.47,8.47,0,0,0,5.71,2.09A8.37,8.37,0,0,0,48.66,24a.87.87,0,0,0,.26-.61Zm0,0h0v0Z"/><path class="cls-2" d="M36.14,17a3.45,3.45,0,1,1-3.46-3.46A3.46,3.46,0,0,1,36.14,17Z"/><path class="cls-2" d="M27.58,38.37l-5.32-12a.56.56,0,0,0-.52-.35.57.57,0,0,0-.52.36h0l-5.31,12a.75.75,0,0,0,0,.62,6.46,6.46,0,0,0,5.81,3.15A6.43,6.43,0,0,0,27.55,39,.72.72,0,0,0,27.58,38.37ZM21.74,28.14c.32.71,4.33,9.77,4.61,10.41H17.13l3.09-7Z"/><path class="cls-2" d="M49.53,38.37l-5.31-12A.56.56,0,0,0,43.7,26a.57.57,0,0,0-.53.37v0l-5.3,12a.71.71,0,0,0,0,.62,6.45,6.45,0,0,0,5.81,3.15A6.44,6.44,0,0,0,49.51,39,.72.72,0,0,0,49.53,38.37ZM43.7,28.14l4.61,10.41H39.08c.2-.43,2-4.5,2-4.5S43.4,28.83,43.7,28.14Z"/><path class="cls-2" d="M38.26,25.42a.82.82,0,0,0-.88.91H36.22v-.52h-7v.52H28a.82.82,0,0,0-.88-.91s-.77,0-.77,1v4.36c0,1.07.77,1,.77,1a.83.83,0,0,0,.88-.92h1.15v.54H31v1.59h3.31V31.47h1.89v-.54h1.16a.83.83,0,0,0,.88.92s.77,0,.77-1V26.45C39,25.4,38.26,25.42,38.26,25.42Z"/><path class="cls-2" d="M11.52,49.94,9.14,46.77l.21-.16,1.12,1.5.28-.22-1-1.27.2-.15,1,1.28.26-.2-.84-1.11.18-.17a1.18,1.18,0,0,0,.8.37L11,46.13l.19-.14,1.67,2.23-.19.15-.18-.25a7.08,7.08,0,0,1-.26.78l-.25,0a3.11,3.11,0,0,0,.12-.3c-.33-.38-.57-.66-.71-.84l-.28.21L12,49.21l-.19.15-.95-1.27-.29.21,1.11,1.48ZM13,48.77l-.15-.19.45-.34-2-2.65-.44.33-.14-.19.64-.48,2.27,3Zm-.82-.51a2.15,2.15,0,0,0,.07-.26h.17l-.82-1.09a1.78,1.78,0,0,1-.66-.16C11.12,47.06,11.54,47.56,12.14,48.26Zm1.44-.5-1.75-2.34.67-.5,1.74,2.34Zm.06-.36.26-.19-1.46-1.94-.26.19Zm1.59-.25-1.1-1.47-.25.18,1,1.32-.2.15L12.55,44.5l.2-.16,1,1.32.24-.18L12.87,44l.2-.15,1.12,1.49.22-.17.15.2-.23.17L15.44,47Z"/><path class="cls-2" d="M14.15,50a13,13,0,0,1-1.77,1v-.26a15.81,15.81,0,0,0,1.76-1Zm1.59,2.79-.43.37a.64.64,0,0,1-.29.13.34.34,0,0,1-.28-.09L14,52.46l.13-.26.82.77q.11.09.24,0l.2-.16L13.44,51l.78-.47,1.65,1.55.23-.26-1.82-1.71.17-.18,2,1.87-.59.63-1.68-1.58-.33.19Zm-.58-3.4a5.23,5.23,0,0,1-.56.36l-.08-.19a4.3,4.3,0,0,0,.55-.35Zm-.25-.25-.26.07a4.72,4.72,0,0,0,0-.95l.28-.07A5.44,5.44,0,0,1,14.91,49.12Zm.09.93-.16-.1a4.71,4.71,0,0,0,.38-.51l.16.1C15.2,49.8,15.07,50,15,50.05Zm.94-.38-.19-.06a.54.54,0,0,0,.07-.13,4.94,4.94,0,0,1-.67-.4l.07-.19a7.26,7.26,0,0,0,.88-.17,2.37,2.37,0,0,1-.33-.24l.1-.2a4.23,4.23,0,0,0,1-.34l.05.22a5,5,0,0,1-.83.28,2,2,0,0,0,.29.19l.28-.11.05.22a5.11,5.11,0,0,1-1.18.32,2.91,2.91,0,0,0,.35.2A.6.6,0,0,0,16,49.1l.19,0A3.22,3.22,0,0,1,15.94,49.67Zm-.58.54-.18-.07a4.26,4.26,0,0,0,.32-.5l.18.07A3.2,3.2,0,0,1,15.36,50.21ZM16,51l-.59-.55.61-.66.59.55Zm0-2.82-.27.06a4.92,4.92,0,0,0,0-1l.27-.06A5.43,5.43,0,0,1,16,48.13Zm.06,2.5.27-.28-.3-.28-.27.28Zm.65.17a3.4,3.4,0,0,1-.55.43l-.1-.17a3.51,3.51,0,0,0,.55-.42Zm.09-.69-.58-.54.17-.18.58.54Zm-.2,1.42-.18-.1a2.63,2.63,0,0,0,.39-.51L17,51A4.09,4.09,0,0,1,16.58,51.53Zm.54-1.78-.58-.55.17-.17.58.54Zm.34,1.42-.2-.07a.51.51,0,0,0,.09-.16c-.27-.16-.5-.3-.68-.43l.1-.19a6.84,6.84,0,0,0,.85-.13l-.36-.29.09-.17a5.38,5.38,0,0,0,1.09-.33l.07.22a4.49,4.49,0,0,1-.87.26,1.44,1.44,0,0,0,.32.21l.31-.12,0,.24a6.12,6.12,0,0,1-1.19.3,2,2,0,0,0,.33.2.87.87,0,0,0,.07-.17l.2.07A5.85,5.85,0,0,1,17.46,51.17Zm-.55.62-.18-.08c.15-.26.25-.45.3-.56l.17.08A2.74,2.74,0,0,1,16.91,51.79Zm.64-2.31-.76-.71.18-.18.32.3a1.22,1.22,0,0,0,.14-.32l.21.06a3.29,3.29,0,0,1-.18.42l.26.25Z"/><path class="cls-2" d="M19.61,56a.57.57,0,0,1-.25.24c-.09,0-.23,0-.41-.11L18.74,56l.09-.3.32.21a.19.19,0,0,0,.29-.08l.89-1.4-2.57-1.63-1.17,1.85-.2-.13,1.33-2.1,3,1.88Zm-.6-.55-1.63-1,.63-1,1.62,1ZM19,55l.32-.5-1.2-.76-.32.5Zm1.57-1.36-2.21-1.4.61-1,2.21,1.4Zm1.37-.94-3.33-2.11.16-.24,1.56,1a1.82,1.82,0,0,0,.15-.48l.25.05a4.31,4.31,0,0,1-.18.57l1.55,1Zm-1.43.55.29-.46L19,51.7l-.29.46Z"/><path class="cls-2" d="M22.54,57.47l-.26.05c0-.14.06-.3.08-.47-.44,0-.9,0-1.37-.07v-.27a8.29,8.29,0,0,0,1.87-2.23l.18.19a14.83,14.83,0,0,1-1.6,2,6.22,6.22,0,0,0,.94.07,6.07,6.07,0,0,0,.06-.85l.24-.06A8.79,8.79,0,0,1,22.54,57.47Zm1.32-3.58-.8-.31a9.25,9.25,0,0,1-1.78,2.28l-.12-.25a8.53,8.53,0,0,0,1.67-2.11l-.68-.26.1-.27.71.28c.15-.29.29-.56.4-.82l.21.13a7.78,7.78,0,0,1-.38.77l.77.3Zm.7,4.31-1.63-.62-.11.28-.22-.08,1.26-3.3c-.16.14-.34.3-.57.47l-.08-.27A7,7,0,0,0,24.79,53l.19.15a8.51,8.51,0,0,1-.67.86l.79.3a3.84,3.84,0,0,0,.14-.9l.24,0a5.15,5.15,0,0,1-.16,1l.54.21-.11.28-.66-.25-.29.76.59.23-.1.28-.6-.23-.31.83.59.22-.11.29-.59-.23-.32.85.72.28Zm-.84-.66.33-.84-.68-.26-.33.84Zm.44-1.13.31-.82-.68-.26-.32.82Zm.42-1.1.29-.76-.68-.26-.29.76Z"/><path class="cls-2" d="M29.41,56.77a6.36,6.36,0,0,1-.9,1.1,2.83,2.83,0,0,1-1.05.71,7.3,7.3,0,0,1-1.35.35L26,58.6a4.11,4.11,0,0,0,1.93-.6,5.39,5.39,0,0,0,1.27-1.41Zm-1.74-2.26a6.65,6.65,0,0,1-1.5,2.13L26,56.43a6.73,6.73,0,0,0,1.43-2.08Zm.38,2.87-.25,0,.59-3.4.25,0Zm2-.57-.23.17a10,10,0,0,0-.75-2.16l.23-.15A11.28,11.28,0,0,1,30.07,56.81Z"/><path class="cls-2" d="M34.77,58.25l-1.72,0,0,1.28h-.25l0-1.29-2.06,0V58l.68,0,0-1.64,1.38,0,0-1.07-1.12,0a3.93,3.93,0,0,1-.75,1.1l-.2-.22a4.64,4.64,0,0,0,1.08-1.86l.26.09a6.23,6.23,0,0,1-.24.58l2.75-.05v.31l-1.54,0,0,1.07,1.46,0v.31l-1.45,0L33,58l1.73,0Zm-2-.29,0-1.33-1.13,0,0,1.33Z"/><path class="cls-2" d="M39.86,58.51l-.09.29a6.3,6.3,0,0,1-1.36-.7,4.54,4.54,0,0,1-1.36,1.19l-.2-.25a3.89,3.89,0,0,0,1.33-1.12,7.48,7.48,0,0,1-1.33-1.8h-.08A6.35,6.35,0,0,1,36,59.41l-.23-.21a6.12,6.12,0,0,0,.68-2,11.67,11.67,0,0,0-.1-2.73l-1,.19-.06-.31,3-.55c0,.46-.08,1-.15,1.72L39,55.4a5.58,5.58,0,0,1-.44,2.46A5.49,5.49,0,0,0,39.86,58.51ZM38,54.21l-1.4.26c.07.6.12,1,.14,1.34l1.15-.21C38,55.06,38,54.6,38,54.21Zm.74,1.56-1.64.3a6.27,6.27,0,0,0,1.22,1.62A4.41,4.41,0,0,0,38.76,55.77Z"/><path class="cls-2" d="M43.28,53.53l-.23.09-.28-.7-3,1.18.27.69-.22.09-.39-1,1.65-.66a2.53,2.53,0,0,0-.28-.35l.18-.19c.08.09.2.24.35.44l1.53-.6Zm1.31,2.9-.05.31a4,4,0,0,1-1.76-.84,4.12,4.12,0,0,1,.23.47,1.55,1.55,0,0,1,.17,1,.75.75,0,0,1-.49.41,1.19,1.19,0,0,1-.22.08l-.19-.26.3-.09a.67.67,0,0,0,.32-.21.41.41,0,0,0,0-.26,1.93,1.93,0,0,0-.16-.55,4.54,4.54,0,0,0-.21-.45,6.49,6.49,0,0,1-1.51,2.12l-.22-.2a5.63,5.63,0,0,0,1.54-2.22,1.76,1.76,0,0,0-.29-.37,5.13,5.13,0,0,1-1.33,1.73l-.24-.23a4.29,4.29,0,0,0,1.37-1.73,3.22,3.22,0,0,0-.31-.26A5.27,5.27,0,0,1,40.46,56l-.23-.22a4.27,4.27,0,0,0,1.4-1.52l-1.27.5-.11-.28,2.47-1,.11.29-.87.34a2.6,2.6,0,0,1-.24.52,3.81,3.81,0,0,1,.75.79,4,4,0,0,0,.64-1.3l.24.14a4.45,4.45,0,0,1-.6,1.28A3.36,3.36,0,0,0,44.59,56.43Z"/><path class="cls-2" d="M48.37,52.74l-.32.21.41.65-1.29.83.26.42a.37.37,0,0,1,.08.33.88.88,0,0,1-.37.35l-.22.13-.22-.2.49-.33c.07,0,.07-.11,0-.2L47,54.56l-1.4.9-.15-.22,1.4-.9-.27-.42-1.61,1-.16-.24,1.61-1-.24-.38-1.39.9L44.6,54l1.4-.9-.25-.37-1.27.82-.55-.85,1.27-.82L45,51.5l-1.58,1-.15-.23,1.58-1-.23-.36.2-.13.23.36,1.57-1,.15.23-1.57,1,.21.34,1.28-.83.55.86L46,52.56l.25.37,1.29-.84.4.62.32-.21Zm-2.77-.29-.24-.38-1.06.69.24.37Zm1.26-.82-.24-.38-1.06.69.24.38Zm.82,1.21-.24-.37-1.09.7.24.38Zm.43.66-.27-.42-1.09.71.27.42Z"/><path class="cls-2" d="M47.91,49.46l0,.28a4.41,4.41,0,0,0-1.09-.05l-.05-.27A4.09,4.09,0,0,1,47.91,49.46Zm1,1.14,0,.29a4.23,4.23,0,0,0-1.1,0l-.06-.28A4.31,4.31,0,0,1,48.87,50.6Zm2.53-1.8-1.07,1A10.53,10.53,0,0,1,51,52a13.66,13.66,0,0,0,1.09-1.59,8.7,8.7,0,0,0-1-.34l0-.25a10.7,10.7,0,0,1,1.91.72l0,.28a4.42,4.42,0,0,0-.65-.3A20.36,20.36,0,0,1,51,52.46l-.29-.17a1.86,1.86,0,0,0-.1-.89,10.33,10.33,0,0,0-.5-1.4l-.83.79-.2-.22,1-.92-.81-.86-.82.77-.2-.21.81-.78-.64-.67.18-.17.64.68.8-.76.21.21-.81.76.82.87.95-.91Zm-1.87,2.49a13,13,0,0,1,.77,2H50a10.29,10.29,0,0,0-.76-2Z"/><path class="cls-2" d="M51.74,47a2.74,2.74,0,0,1,1.34.51.87.87,0,0,1,.29.36c.05.13,0,.28-.14.47l-.11.14-.31-.12.16-.2a.4.4,0,0,0,.11-.27.32.32,0,0,0-.14-.18,2.56,2.56,0,0,0-1.32-.48l-1-1.16-.41.55,3.85,2.88-.14.19-4.09-3.06.7-.95.25.18C51.13,46.26,51.44,46.63,51.74,47Zm1.76-2.45-.14.19-.72-.53-1.18,1.58.71.54-.14.19-1-.72.65-.87a3.14,3.14,0,0,0-.54-.2l.08-.25a4.38,4.38,0,0,1,.62.24l.67-.89Zm-.16.41-1,1.28-.23-.18,1-1.27Zm2,.87a2.77,2.77,0,0,1,.54.48.51.51,0,0,1,.16.32.83.83,0,0,1-.2.41.35.35,0,0,1-.54.1l-1.48-1.11-.31.43a3.39,3.39,0,0,1,1,1.14,2.17,2.17,0,0,1,.14,1.12h-.32a1.72,1.72,0,0,0-.09-1.06,2.58,2.58,0,0,0-.87-1l-.42.55-.24-.18,1.48-2,.24.18-.45.6,1.42,1.07a.17.17,0,0,0,.1,0s.09-.05.16-.14a.56.56,0,0,0,.1-.18.37.37,0,0,0,0-.11l-.21-.21a4.88,4.88,0,0,0-.41-.32Z"/><path class="cls-5" d="M9.15,34.21l0,.37L5.58,35l.07.54L5,35.63l-.18-1.44.61-.07.06.54Z"/><path class="cls-5" d="M8.08,33l1,.17,0,.44-4.4-.76,0-.37L9,31.37l0,.44L8,32.05ZM5.7,32.64l1.81.27,0-.72Z"/><path class="cls-5" d="M9,30.71v.42L4.74,31v-.41Z"/><path class="cls-5" d="M8,29.41l-3.13-.87,0-.21,3.24-.21L5,27.25l0-.43,4.21,1.29,0,.31-3,.2,2.85.8,0,.32L4.73,30l0-.43Z"/><path class="cls-5" d="M8.55,26.39l.88.43-.09.42-4-1.89L5.38,25l4.45.08-.09.42h-1Zm-2.2-1L8,26.17l.17-.71Z"/><path class="cls-5" d="M5.78,23.42l.1-.29,3.47-.27-2.92-1,.13-.39,4.1,1.4-.1.29-3.46.27,2.94,1-.13.39Z"/><path class="cls-5" d="M8.17,18l.24-.46,1.31,1.74,2.48.2-.26.49-2.27-.21,1.86,1-.19.37-3.76-2,.19-.36,1.76.93Z"/><path class="cls-5" d="M11.76,18.43l.68.7-.24.36L9.06,16.32,9.27,16l4.15,1.61-.24.37-.91-.35ZM10,16.76,11.34,18l.4-.6Z"/><path class="cls-5" d="M11.85,16.18a3.28,3.28,0,0,1-1-1.27.89.89,0,0,1,1.08-1.34,3.42,3.42,0,0,1,1.44.74,3.36,3.36,0,0,1,1,1.25.9.9,0,0,1-1.09,1.35A3.4,3.4,0,0,1,11.85,16.18Zm.24-.36a2.47,2.47,0,0,0,1,.51c.34.08.58,0,.71-.13a.64.64,0,0,0,0-.72,2.65,2.65,0,0,0-.74-.87,2.37,2.37,0,0,0-1-.5.59.59,0,0,0-.71.88A2.58,2.58,0,0,0,12.09,15.82Z"/><path class="cls-5" d="M14.46,12.62,13.24,11.4l.29-.29,3,3-.29.29L14.86,13l-.7.71,1.38,1.38-.29.29-3-3,.29-.29,1.22,1.22Z"/><path class="cls-5" d="M15.58,10.48c-.25-.13-.43-.15-.56,0a.33.33,0,0,0-.09.29.91.91,0,0,0,.2.39,1,1,0,0,0,.7.25l.53,0a1.35,1.35,0,0,1,.74.46,2.23,2.23,0,0,1,.52.94.66.66,0,0,1-.19.69c-.24.2-.61.15-1.1-.15l-.09-.51a1.4,1.4,0,0,0,.44.22A.4.4,0,0,0,17,13a.31.31,0,0,0,.07-.34,1.17,1.17,0,0,0-.25-.46.84.84,0,0,0-.3-.24,1.86,1.86,0,0,0-.72-.05,1.17,1.17,0,0,1-1-.46,1.87,1.87,0,0,1-.43-.82.57.57,0,0,1,.15-.61A.75.75,0,0,1,15.4,10Z"/><path class="cls-5" d="M18.57,12.44l-.33.25L15.68,9.3,16,9.05Z"/><path class="cls-5" d="M16.57,8.63l.34-.22,1.31,2c.5.76.89,1,1.16.87s.16-.65-.34-1.42l-1.31-2,.34-.23,1.4,2.13c.67,1,.75,1.68.25,2s-1.09,0-1.76-1Z"/><path class="cls-5" d="M18.77,7.1,19,7l2.7,2.2L20.32,6.41l.36-.19,2,3.85-.28.14L19.72,8l1.43,2.76-.37.19Z"/><path class="cls-5" d="M24.23,6.92l0,.09a3.85,3.85,0,0,1,.32,1.64.91.91,0,0,1-.52.88,1,1,0,0,1-1-.3,3.52,3.52,0,0,1-.88-1.34,3.43,3.43,0,0,1-.28-1.62,1,1,0,0,1,.56-.92c.42-.16.84,0,1.27.6l-.22.45c-.29-.41-.57-.56-.83-.46s-.31.29-.32.65a2.81,2.81,0,0,0,.22,1.15,2.65,2.65,0,0,0,.61,1,.62.62,0,0,0,.67.23.52.52,0,0,0,.29-.49A1.83,1.83,0,0,0,24,7.62l-.54.21-.21-.53Z"/><path class="cls-5" d="M27.21,7c.24,1,.15,1.56-.27,1.66-.17,0-.36,0-.56-.27l.14-.6c.11.17.2.25.28.23s.12-.09.12-.23a3.57,3.57,0,0,0-.14-.83l-.62-2.59.4-.1Z"/><path class="cls-5" d="M27.3,4.06,27.7,4l.38,2.35c.15.9.38,1.33.7,1.28s.42-.53.27-1.44l-.37-2.35.4-.06.4,2.51c.19,1.2,0,1.84-.6,1.94s-1-.46-1.18-1.66Z"/><path class="cls-5" d="M31,6.79l.38-3.21.46,0L31.15,8l-.27,0L29.66,3.7l.44,0Z"/><path class="cls-5" d="M32.78,4.17l0,1.1h.82v.61h-.82l0,1.32h.84v.61l-1.25,0,.07-4.25,1.25,0v.61Z"/><path class="cls-5" d="M34.37,3.48l.31,0,1,3.32L36,3.76l.41,0L36,8.11l-.3,0L34.66,4.77l-.31,3.09-.41,0Z"/><path class="cls-5" d="M36.89,8.19l-.41-.07.72-4.19.41.07Z"/><path class="cls-5" d="M37.82,7.75l.71.16-.13.59-1.11-.24.91-4.15.4.09Z"/><path class="cls-5" d="M40,5.17l-.31,1.06.79.23L40.31,7l-.78-.22-.37,1.26.81.24-.16.58L38.6,8.55l1.17-4.08L41,4.82l-.17.58Z"/><path class="cls-5" d="M42.31,8.82l-.58.78-.4-.18L44,5.83l.33.15-1,4.36-.4-.18.21-.95Zm1.39-2-1.06,1.5.66.29Z"/><path class="cls-5" d="M45.76,6.68l.27.15-.42,3.46,1.56-2.67.35.2-2.17,3.75-.27-.15L45.49,8l-1.56,2.69-.36-.21Z"/><path class="cls-5" d="M48.23,8.3l.56.39a1,1,0,0,1,.33,1,3.28,3.28,0,0,1-.62,1.42,3.18,3.18,0,0,1-1.16,1,1,1,0,0,1-1,0l-.55-.39Zm-1.76,3.16.11.08c.47.34,1,.11,1.57-.69s.62-1.36.15-1.7l-.11-.08Z"/><path class="cls-5" d="M51.36,11.59l-.76.8.54.52-.42.44-.54-.52-1.33,1.39-.3-.28,2.93-3.08.88.84-.42.44Z"/><path class="cls-5" d="M50.7,14.73l-.86.47-.29-.32,3.89-2.2.24.27L51,16.54l-.29-.33.57-.78Zm2.06-1.24-1.57.94.48.54Z"/><path class="cls-5" d="M54.58,16.54l-2.72,1.21-.06-.08,2.05-2.18L51.35,17l-.24-.34,3.78-2.21.18.25-2,2.21,2.73-1.21.18.25-3.33,2.84-.24-.33Z"/><path class="cls-5" d="M53,19.4l-.21-.35,3.63-2.21.22.36Z"/><path class="cls-5" d="M54,19.83l.35.65-.54.29-.54-1,3.73-2,.2.36Z"/><path class="cls-5" d="M57.64,19l.2.45-1.25,1.08,1.66-.2.2.45L56,21l-1.76.8-.17-.37,1.76-.8Z"/><path class="cls-5" d="M58.7,24.73c.25-.22.34-.43.28-.63s-.26-.35-.61-.4a2.43,2.43,0,0,0-1.12.09,2.46,2.46,0,0,0-1,.51q-.39.35-.3.66c.06.21.25.34.58.39l-.84.25a.89.89,0,0,1-.4-.46,1,1,0,0,1,.39-1,3.27,3.27,0,0,1,1.4-.77,3.59,3.59,0,0,1,1.63-.12c.49.1.79.31.88.64a.85.85,0,0,1-.08.59Z"/><path class="cls-5" d="M57.76,25.52a3.36,3.36,0,0,1,1.62,0c.47.15.74.39.81.73a1,1,0,0,1-.49,1,3.32,3.32,0,0,1-1.49.63,3.49,3.49,0,0,1-1.62,0c-.47-.14-.74-.39-.8-.73a1,1,0,0,1,.48-1A3.38,3.38,0,0,1,57.76,25.52Zm.12.41a2.66,2.66,0,0,0-1,.42c-.28.2-.41.41-.37.63a.65.65,0,0,0,.55.47,2.55,2.55,0,0,0,1.14,0,2.41,2.41,0,0,0,1-.41.63.63,0,0,0,.32-.63c0-.24-.22-.39-.53-.48A2.44,2.44,0,0,0,57.88,25.93Z"/><path class="cls-5" d="M60.38,28.24l0,.41-2.38.2q-1.36.11-1.32.6c0,.33.49.45,1.41.38l2.37-.2,0,.41L58,30.25q-1.81.15-1.89-.75t1.74-1.05Z"/><path class="cls-5" d="M56.29,32.45v-.51l1.9-.66-1.89,0v-.41l4.25.07v.64c0,.54-.44.8-1.29.79a2,2,0,0,1-.8-.16.53.53,0,0,1-.37-.39Zm2.2-1.17v.13c0,.34.25.51.75.52s.74-.16.75-.49v-.13Z"/><path class="cls-5" d="M56.23,33.38l0-.37,3.63.27,0-.54.61,0-.11,1.45-.6,0,0-.54Z"/></svg>