<svg id="圖層_1" data-name="圖層 1" xmlns="http://www.w3.org/2000/svg" xmlns:xlink="http://www.w3.org/1999/xlink" viewBox="0 0 270.84 64"><defs><style>.cls-1{fill:#333;}.cls-2{fill:#fff;}.cls-3{fill:url(#linear-gradient);}.cls-4{fill:#005bab;}.cls-5{fill:#b7a246;}</style><linearGradient id="linear-gradient" x1="32.65" y1="60.77" x2="32.65" y2="37.52" gradientUnits="userSpaceOnUse"><stop offset="0.69" stop-color="#b7a246"/><stop offset="1" stop-color="#fff"/></linearGradient></defs><path class="cls-1" d="M79.15,25.24H91.66V35.82H89.52v-1h-8.3v1.06H79.15V27L78.1,28.45c-.48-.62-1.39-1.68-2.21-2.52v9.94H73.71V27.28a21.5,21.5,0,0,1-2.88,2.47,8.08,8.08,0,0,0-1.08-2.09,18.72,18.72,0,0,0,6.52-7.35H70.63v-2H77.4l.39-.07L79,19a24.81,24.81,0,0,1-2.61,5c.69.57,2.06,1.8,2.73,2.42Zm-5-7a26,26,0,0,0-1.85-3.48L74.07,14A30.76,30.76,0,0,1,76,17.36ZM91.78,15v1.9H79V15ZM90.6,18.18v5.74H80.38V18.18Zm-9.38,8.88v2.09h3.07V27.06Zm0,5.95h3.07V30.85H81.22Zm7.32-13.08H82.37v2.23h6.17Zm1,7.13H86.31v2.09h3.21Zm0,5.95V30.85H86.31V33Z"/><path class="cls-1" d="M101.47,22.23a28.9,28.9,0,0,1-2,8.5c2.28,2.14,5.45,2.62,9.24,2.62,1.13,0,6.17,0,7.56,0a7.31,7.31,0,0,0-.81,2h-6.8c-4.24,0-7.6-.55-10.1-2.8a11.31,11.31,0,0,1-2.81,3.24,7.64,7.64,0,0,0-1.61-1.49,9.68,9.68,0,0,0,3-3.41A16.14,16.14,0,0,1,95,26.32l1.65-.63A14.35,14.35,0,0,0,98,28.93a24.08,24.08,0,0,0,1.2-5H95.4c1-1.76,2.28-4.35,3.31-6.7H94.8V15.27h7c-1,2.12-2.16,4.64-3.19,6.7h1.2l.41-.07ZM107,17.58H102.7V15.83H107V14h2.09v1.88h5.21V19h1.49v1.75h-1.49V24h-5.21v1.49h5.57v1.68h-5.57v1.6h6.39v1.8h-6.39v2H107v-2h-5.61v-1.8H107v-1.6h-4.65V25.48H107V24h-4.49V22.23H107V20.77h-5.78V19H107Zm2.09,0V19h3.22V17.58Zm3.22,3.19h-3.22v1.46h3.22Z"/><path class="cls-1" d="M124.47,25.16a30.38,30.38,0,0,1-2,6.2c.43.24,1,.64,1.73,1.12,1.68,1,3.86,1.16,6.67,1.16a87.53,87.53,0,0,0,9.63-.56,9.1,9.1,0,0,0-.65,2.31c-1.87.12-6.26.26-9.07.26-3.15,0-5.21-.26-6.94-1.27-1-.55-1.85-1.39-2.35-1.39s-1.37,1.56-2,3L118,34a11.13,11.13,0,0,1,2.4-2.5A22.06,22.06,0,0,0,122,26.8h-3.07c.58-1.42,1.3-3.36,1.9-5.24h-2.43v-2h5.19c-.53,1.7-1.2,3.67-1.8,5.33h1.34l.34-.1Zm-3.58-6.62c-.29-1.06-.86-2.74-1.25-4l2-.58c.45,1.25,1,2.84,1.32,3.87Zm10,11.81h-6.25V28.52h6.25V27.06h-5.21V19.19h5.21V17.65h-6.25V15.83h6.25V13.88H133v1.95h6.52v1.82H133v1.54h5.37v7.87H133v1.46h6.84v1.83H133v2.57h-2.16Zm-3.15-8h3.15V20.79h-3.15Zm3.15,3.1V23.87h-3.15v1.58ZM133,20.79v1.56h3.24V20.79Zm3.24,3.08H133v1.58h3.24Z"/><path class="cls-1" d="M146.69,24.9a38.1,38.1,0,0,0-4.39-2.59l1.2-1.64a31.51,31.51,0,0,1,4.44,2.38Zm2.54,3.1c-1.24,2.47-2.85,5.35-4.24,7.6l-1.9-1.51a62.19,62.19,0,0,0,4.51-7.58Zm-1.36-9.39a35.2,35.2,0,0,0-4.23-2.83l1.3-1.56a38.2,38.2,0,0,1,4.29,2.61Zm16.37,13.56V34.4H149V32.17h6.24V18.23h-5V16H163v2.24h-5.4V32.17Z"/><path class="cls-1" d="M173.74,26.65l.53,2c-2.52,1.2-5.21,2.45-7.3,3.38l-.89-2.23c.87-.31,2-.74,3.19-1.25V21.61h-2.73V19.5h2.73V14.17h2.09V19.5h2.43v2.11h-2.43v6.05Zm10.92,6.75c1.32,0,1.56-.6,1.75-3.22a6.43,6.43,0,0,0,2,.82c-.31,3.31-1,4.39-3.58,4.39h-5.52c-2.95,0-3.79-.75-3.79-3.63V24.83l-1.66.72-.84-2,2.5-1.06V16.14h2.11v5.47l2.69-1.13v-6.6h2.09v5.71l3.22-1.36,1.65.55-.09.36A79.39,79.39,0,0,1,186,29.6l-1.82-.5a73.4,73.4,0,0,0,.74-8.33l-2.54,1.11v8.61h-2.09V22.76l-2.69,1.16v7.87c0,1.34.27,1.61,1.8,1.61Z"/><path class="cls-1" d="M199.59,20c-.08,1.12-.15,2.28-.29,3.41h10.2a6.53,6.53,0,0,1-.1,1c-.45,6.63-.91,9.27-1.87,10.25a3.26,3.26,0,0,1-2.28.94,33.36,33.36,0,0,1-4.05-.05,4.41,4.41,0,0,0-.8-2.18c1.71.14,3.34.16,4,.16a1.68,1.68,0,0,0,1.15-.28c.68-.56,1.11-2.79,1.49-7.68H199c-.76,4.12-2.52,8-7,10.39a6.84,6.84,0,0,0-1.63-1.83c5.95-3,6.51-8.85,6.75-14.13h-6.29V17.84H201.1a23.79,23.79,0,0,0-1.51-3.36l2.18-.81a24.16,24.16,0,0,1,1.71,3.48l-1.61.69h9.86V20Z"/><path class="cls-1" d="M218.71,24.76a22.32,22.32,0,0,0-4.41-2.6l1.17-1.68a20.33,20.33,0,0,1,4.47,2.43Zm-3.62,9.33a65.87,65.87,0,0,0,4.54-7.61L221.26,28c-1.25,2.5-2.83,5.38-4.25,7.63Zm1.78-20a24.27,24.27,0,0,1,4.51,2.45l-1.3,1.85a20.29,20.29,0,0,0-4.46-2.67Zm17,21.75a11.81,11.81,0,0,0-1-2.26c-8.47,1-9.55,1.23-10.27,1.56a19.26,19.26,0,0,0-.77-2.23c.51-.12,1-.67,1.54-1.56a34,34,0,0,0,3-5.54h-4.94V23.72h5.93V19.83h-4.93V17.72h4.93V13.86h2.28v3.86h5.11v2.11h-5.11v3.89h6v2.12H229a46.21,46.21,0,0,1-3.82,6.64l6.67-.72c-.57-1-1.25-1.92-1.87-2.8l1.8-.87a28.58,28.58,0,0,1,4.1,6.77Z"/><path class="cls-1" d="M246.29,15.59c-.67,2-1.51,4.32-2.23,6.16A7.84,7.84,0,0,1,246,26.87a3.54,3.54,0,0,1-1,2.93,2.94,2.94,0,0,1-1.3.48c-.43,0-1,0-1.58,0a4.83,4.83,0,0,0-.51-1.94,10.45,10.45,0,0,0,1.23,0,1.22,1.22,0,0,0,.69-.19,2,2,0,0,0,.49-1.56,6.92,6.92,0,0,0-2-4.63c.6-1.58,1.24-3.6,1.68-5.19h-2.62v19h-2v-21h5.35l.32-.09ZM258,33.68c.45,0,.55-.38.6-2.95a4.89,4.89,0,0,0,1.87.82c-.19,3.21-.7,4-2.23,4h-1.95C254.4,35.58,254,35,254,33V27.3h-2.09c-.38,4.2-1.53,7-6.07,8.59a6,6,0,0,0-1.27-1.77c4-1.28,4.87-3.44,5.18-6.82H246.6v-2h13.52v2h-4v5.64c0,.65.08.74.53.74Zm-9.53-12.53h-1.9V16.74h5.83a18.89,18.89,0,0,0-1.12-2.47l2.06-.6a16.22,16.22,0,0,1,1.46,3.07H260v4.41h-1.9V23h-9.67Zm.16-2.47V21h9.27V18.68Z"/><path class="cls-1" d="M72.58,44.17h4V45H73.37v2.47h3.17v.78H73.37v3.87h-.79Z"/><path class="cls-1" d="M78.16,46.23h.75V49A5.86,5.86,0,0,0,79,50.33a1.55,1.55,0,0,0,.61.85,2.06,2.06,0,0,0,2.16,0,1.54,1.54,0,0,0,.6-.8A5.4,5.4,0,0,0,82.5,49V46.23h.77V49.1A4.53,4.53,0,0,1,83,50.92a2.14,2.14,0,0,1-.85,1,2.69,2.69,0,0,1-1.42.34,2.75,2.75,0,0,1-1.43-.34,2.17,2.17,0,0,1-.85-1A4.67,4.67,0,0,1,78.16,49Z"/><path class="cls-1" d="M91.08,47.44l-.6.37a2.51,2.51,0,0,0-2.11-1,2.46,2.46,0,0,0-1.77.68,2.26,2.26,0,0,0-.71,1.67,2.37,2.37,0,0,0,.33,1.21,2.26,2.26,0,0,0,.89.87,2.57,2.57,0,0,0,1.27.31,2.54,2.54,0,0,0,2.1-1l.6.4a2.91,2.91,0,0,1-1.13,1,3.63,3.63,0,0,1-1.61.34,3.18,3.18,0,0,1-2.3-.88,2.84,2.84,0,0,1-.91-2.14,3,3,0,0,1,.43-1.58,3,3,0,0,1,1.17-1.13,3.59,3.59,0,0,1,2.79-.23,3.17,3.17,0,0,1,.92.46A2.63,2.63,0,0,1,91.08,47.44Z"/><path class="cls-1" d="M93,44h.76v3.31a3.12,3.12,0,0,1,1-.9,2.42,2.42,0,0,1,1.19-.3,2.1,2.1,0,0,1,1.16.33,2,2,0,0,1,.75.9,4.76,4.76,0,0,1,.24,1.76v3h-.75V49.29a7.41,7.41,0,0,0-.08-1.35,1.37,1.37,0,0,0-1.47-1.17,1.87,1.87,0,0,0-1.23.45,2.16,2.16,0,0,0-.71,1.12,8.06,8.06,0,0,0-.1,1.59v2.14H93Z"/><path class="cls-1" d="M100.41,43.82a.58.58,0,0,1,.44.19.59.59,0,0,1,.18.44.58.58,0,0,1-.18.43.6.6,0,0,1-.44.18.6.6,0,0,1-.43-.18.58.58,0,0,1-.18-.43A.59.59,0,0,1,100,44,.57.57,0,0,1,100.41,43.82ZM100,46.23h.75v5.84H100Z"/><path class="cls-1" d="M107.74,50.13l.63.34a3.52,3.52,0,0,1-.72,1,2.84,2.84,0,0,1-.92.57,3.19,3.19,0,0,1-1.15.19,2.81,2.81,0,0,1-2.24-.93,3.16,3.16,0,0,1-.81-2.12,3.1,3.1,0,0,1,.69-2,2.76,2.76,0,0,1,2.31-1.11,2.9,2.9,0,0,1,2.39,1.13,3.15,3.15,0,0,1,.64,2h-5.25a2.35,2.35,0,0,0,.65,1.67,2.08,2.08,0,0,0,1.55.65,2.57,2.57,0,0,0,.87-.15,2.53,2.53,0,0,0,.72-.42A3.51,3.51,0,0,0,107.74,50.13Zm0-1.57a2.52,2.52,0,0,0-.44-1,2.14,2.14,0,0,0-.76-.58,2.31,2.31,0,0,0-1-.22,2.16,2.16,0,0,0-1.48.55,2.55,2.55,0,0,0-.68,1.21Z"/><path class="cls-1" d="M110.43,46.23h.75v1.05a3.12,3.12,0,0,1,1-.9,2.42,2.42,0,0,1,1.19-.3,2.11,2.11,0,0,1,1.17.33,2,2,0,0,1,.74.9,4.55,4.55,0,0,1,.25,1.76v3h-.76V49.29a6.57,6.57,0,0,0-.08-1.35,1.5,1.5,0,0,0-.5-.88,1.55,1.55,0,0,0-1-.29,1.86,1.86,0,0,0-1.22.45,2.1,2.1,0,0,0-.71,1.12,7.84,7.84,0,0,0-.11,1.59v2.14h-.75Z"/><path class="cls-1" d="M121.23,44.17H122v7.14h3v.76h-3.83Z"/><path class="cls-1" d="M126.91,43.82a.58.58,0,0,1,.44.19.59.59,0,0,1,.18.44.58.58,0,0,1-.18.43.6.6,0,0,1-.44.18.58.58,0,0,1-.43-.18.59.59,0,0,1,0-.87A.56.56,0,0,1,126.91,43.82Zm-.37,2.41h.75v5.84h-.75Z"/><path class="cls-1" d="M134.23,50.13l.64.34a3.52,3.52,0,0,1-.72,1,3,3,0,0,1-.92.57,3.25,3.25,0,0,1-1.16.19,2.82,2.82,0,0,1-2.24-.93,3.2,3.2,0,0,1-.8-2.12,3.15,3.15,0,0,1,.68-2A2.79,2.79,0,0,1,132,46.08a2.92,2.92,0,0,1,2.39,1.13,3.21,3.21,0,0,1,.64,2H129.8a2.39,2.39,0,0,0,.65,1.67,2.1,2.1,0,0,0,1.56.65,2.65,2.65,0,0,0,.87-.15,2.34,2.34,0,0,0,.71-.42A3.27,3.27,0,0,0,134.23,50.13Zm0-1.57a2.38,2.38,0,0,0-.44-1A2.05,2.05,0,0,0,133,47a2.24,2.24,0,0,0-1-.22,2.14,2.14,0,0,0-1.48.55,2.47,2.47,0,0,0-.68,1.21Z"/><path class="cls-1" d="M136.92,46.23h.76v1.05a3.12,3.12,0,0,1,1-.9,2.42,2.42,0,0,1,1.19-.3,2.1,2.1,0,0,1,1.16.33,2,2,0,0,1,.75.9,4.79,4.79,0,0,1,.24,1.76v3h-.75V49.29a7.41,7.41,0,0,0-.08-1.35,1.37,1.37,0,0,0-1.47-1.17,1.84,1.84,0,0,0-1.22.45,2.18,2.18,0,0,0-.72,1.12,8.06,8.06,0,0,0-.1,1.59v2.14h-.76Z"/><path class="cls-1" d="M149.77,47.44l-.6.37a2.5,2.5,0,0,0-2.11-1,2.46,2.46,0,0,0-1.77.68,2.26,2.26,0,0,0-.71,1.67,2.37,2.37,0,0,0,.33,1.21,2.26,2.26,0,0,0,.89.87,2.57,2.57,0,0,0,1.27.31,2.54,2.54,0,0,0,2.1-1l.6.4a2.91,2.91,0,0,1-1.13,1,3.63,3.63,0,0,1-1.61.34,3.18,3.18,0,0,1-2.3-.88,2.88,2.88,0,0,1-.91-2.14,3,3,0,0,1,.43-1.58,3,3,0,0,1,1.17-1.13,3.59,3.59,0,0,1,2.79-.23,3.17,3.17,0,0,1,.92.46A2.63,2.63,0,0,1,149.77,47.44Z"/><path class="cls-1" d="M151.67,44h.76v3.31a3.12,3.12,0,0,1,1-.9,2.42,2.42,0,0,1,1.19-.3,2.1,2.1,0,0,1,1.16.33,2,2,0,0,1,.75.9,4.76,4.76,0,0,1,.24,1.76v3H156V49.29a7.41,7.41,0,0,0-.08-1.35,1.37,1.37,0,0,0-1.47-1.17,1.82,1.82,0,0,0-1.22.45,2.12,2.12,0,0,0-.72,1.12,8.06,8.06,0,0,0-.1,1.59v2.14h-.76Z"/><path class="cls-1" d="M159.11,43.82a.56.56,0,0,1,.43.19.56.56,0,0,1,.19.44.56.56,0,0,1-.19.43.58.58,0,0,1-.43.18.6.6,0,0,1-.44-.18.58.58,0,0,1-.18-.43.59.59,0,0,1,.18-.44A.58.58,0,0,1,159.11,43.82Zm-.38,2.41h.75v5.84h-.75Z"/><path class="cls-1" d="M167.33,46.23v5.84h-.74v-1a3.27,3.27,0,0,1-1.06.86,2.78,2.78,0,0,1-1.29.29,2.87,2.87,0,0,1-2.12-.9,3,3,0,0,1-.87-2.18,2.93,2.93,0,0,1,.88-2.16,2.88,2.88,0,0,1,2.13-.9,2.72,2.72,0,0,1,1.31.31,2.92,2.92,0,0,1,1,.91V46.23Zm-3,.57a2.28,2.28,0,0,0-2,1.18,2.37,2.37,0,0,0-.31,1.18,2.48,2.48,0,0,0,1.16,2.06,2.23,2.23,0,0,0,1.15.31,2.33,2.33,0,0,0,1.17-.31,2.21,2.21,0,0,0,.85-.84,2.43,2.43,0,0,0,.3-1.2,2.28,2.28,0,0,0-.67-1.69A2.18,2.18,0,0,0,164.33,46.8Z"/><path class="cls-1" d="M169.48,46.23h.76v1.05a3.12,3.12,0,0,1,1-.9,2.42,2.42,0,0,1,1.19-.3,2.1,2.1,0,0,1,1.16.33,2,2,0,0,1,.75.9,4.79,4.79,0,0,1,.24,1.76v3h-.75V49.29a7.41,7.41,0,0,0-.08-1.35,1.37,1.37,0,0,0-1.47-1.17,1.84,1.84,0,0,0-1.22.45,2.18,2.18,0,0,0-.72,1.12,8.06,8.06,0,0,0-.1,1.59v2.14h-.76Z"/><path class="cls-1" d="M181.69,46.23h.76v4.66a5.57,5.57,0,0,1-.22,1.8,2.37,2.37,0,0,1-1,1.24,3.34,3.34,0,0,1-1.75.43,4.07,4.07,0,0,1-1.35-.21,2.67,2.67,0,0,1-1-.57,3.41,3.41,0,0,1-.69-1h.82a2.09,2.09,0,0,0,.86.86,3.11,3.11,0,0,0,2.6,0,1.72,1.72,0,0,0,.76-.72,3.22,3.22,0,0,0,.22-1.4V51a3,3,0,0,1-1,.83,3.08,3.08,0,0,1-1.31.28,3,3,0,0,1-1.51-.4,2.83,2.83,0,0,1-1.1-1.07,3,3,0,0,1,1.13-4.11,3,3,0,0,1,1.51-.41,2.82,2.82,0,0,1,1.22.27,3.29,3.29,0,0,1,1.09.9Zm-2.21.57a2.43,2.43,0,0,0-1.19.31,2.22,2.22,0,0,0-.86.86,2.29,2.29,0,0,0-.31,1.18,2.13,2.13,0,0,0,.64,1.59,2.29,2.29,0,0,0,1.67.62,2.26,2.26,0,0,0,1.67-.62,2.19,2.19,0,0,0,.63-1.64,2.43,2.43,0,0,0-.29-1.18,2.13,2.13,0,0,0-.82-.81A2.22,2.22,0,0,0,179.48,46.8Z"/><path class="cls-1" d="M188.15,52.07v-7.9h1.64a8.29,8.29,0,0,1,2.57.29,3.43,3.43,0,0,1,1.8,1.39,4.29,4.29,0,0,1,.64,2.37,4.18,4.18,0,0,1-.51,2.09A3.21,3.21,0,0,1,193,51.64a5,5,0,0,1-2.3.43Zm.76-.74h.91a8.26,8.26,0,0,0,2.27-.21,2.59,2.59,0,0,0,1.4-1,3.21,3.21,0,0,0,.51-1.84,3.37,3.37,0,0,0-.55-2,2.78,2.78,0,0,0-1.54-1.11,9.36,9.36,0,0,0-2.44-.22h-.56Z"/><path class="cls-1" d="M196.93,43.82a.56.56,0,0,1,.44.19.59.59,0,0,1,.18.44.58.58,0,0,1-.18.43.59.59,0,0,1-.44.18.6.6,0,0,1-.43-.18.58.58,0,0,1-.18-.43.59.59,0,0,1,.18-.44A.57.57,0,0,1,196.93,43.82Zm-.37,2.41h.75v5.84h-.75Z"/><path class="cls-1" d="M202.28,46.87l-.49.5a1.73,1.73,0,0,0-1.18-.59A.88.88,0,0,0,200,47a.75.75,0,0,0-.27.57.85.85,0,0,0,.22.54,2.91,2.91,0,0,0,.9.62,3.5,3.5,0,0,1,1.15.84,1.56,1.56,0,0,1,.29.91,1.65,1.65,0,0,1-.5,1.22,1.71,1.71,0,0,1-1.27.5,2.11,2.11,0,0,1-1-.22,2.05,2.05,0,0,1-.76-.6l.47-.54a1.65,1.65,0,0,0,1.22.65,1.12,1.12,0,0,0,.77-.29.9.9,0,0,0,.32-.68.88.88,0,0,0-.21-.58,3.54,3.54,0,0,0-1-.62,3,3,0,0,1-1.08-.81,1.59,1.59,0,0,1,.17-2,1.62,1.62,0,0,1,1.15-.44A2.38,2.38,0,0,1,202.28,46.87Z"/><path class="cls-1" d="M204.72,44.06h.76v2.17h1.19v.65h-1.19v5.19h-.76V46.88h-1v-.65h1Z"/><path class="cls-1" d="M208,46.23h.77v.85a2.76,2.76,0,0,1,.73-.75,1.39,1.39,0,0,1,.79-.25,1.42,1.42,0,0,1,.67.2l-.39.63a1,1,0,0,0-.4-.1,1.1,1.1,0,0,0-.73.31,1.91,1.91,0,0,0-.53,1,9.33,9.33,0,0,0-.14,2v2H208Z"/><path class="cls-1" d="M212.29,43.82a.58.58,0,0,1,.44.19.59.59,0,0,1,.18.44.58.58,0,0,1-.18.43.6.6,0,0,1-.44.18.61.61,0,0,1-.61-.61.59.59,0,0,1,.18-.44A.56.56,0,0,1,212.29,43.82Zm-.37,2.41h.75v5.84h-.75Z"/><path class="cls-1" d="M220.37,47.44l-.6.37a2.51,2.51,0,0,0-2.11-1,2.46,2.46,0,0,0-1.77.68,2.26,2.26,0,0,0-.71,1.67,2.37,2.37,0,0,0,.33,1.21,2.26,2.26,0,0,0,.89.87,2.57,2.57,0,0,0,1.27.31,2.54,2.54,0,0,0,2.1-1l.6.4a2.91,2.91,0,0,1-1.13,1,3.63,3.63,0,0,1-1.61.34,3.18,3.18,0,0,1-2.3-.88,2.84,2.84,0,0,1-.91-2.14,3,3,0,0,1,.43-1.58A3,3,0,0,1,216,46.49a3.59,3.59,0,0,1,2.79-.23,3.17,3.17,0,0,1,.92.46A2.63,2.63,0,0,1,220.37,47.44Z"/><path class="cls-1" d="M222.93,44.06h.75v2.17h1.19v.65h-1.19v5.19h-.75V46.88h-1v-.65h1Z"/><path class="cls-1" d="M237.45,45.64l-.62.48a3.37,3.37,0,0,0-1.24-1,3.63,3.63,0,0,0-1.59-.35,3.44,3.44,0,0,0-1.75.46A3.33,3.33,0,0,0,231,46.43a3.41,3.41,0,0,0-.44,1.72,3.24,3.24,0,0,0,1,2.41,3.46,3.46,0,0,0,2.5,1,3.54,3.54,0,0,0,2.78-1.3l.62.47A3.9,3.9,0,0,1,236,51.86a4.71,4.71,0,0,1-2,.41,4.06,4.06,0,0,1-4.27-4.19,3.91,3.91,0,0,1,1.21-2.92A4.22,4.22,0,0,1,234,44a4.49,4.49,0,0,1,2,.44A3.87,3.87,0,0,1,237.45,45.64Z"/><path class="cls-1" d="M242.14,46.08a2.9,2.9,0,0,1,2.24,1,3,3,0,0,1,.81,2.11,3.05,3.05,0,0,1-.86,2.14,3.1,3.1,0,0,1-4.39,0,3.09,3.09,0,0,1-.85-2.14,3,3,0,0,1,.81-2.11A2.9,2.9,0,0,1,242.14,46.08Zm0,.74a2.16,2.16,0,0,0-1.61.69,2.31,2.31,0,0,0-.68,1.67,2.45,2.45,0,0,0,.31,1.19,2.23,2.23,0,0,0,.83.84,2.35,2.35,0,0,0,2.3,0,2.31,2.31,0,0,0,.83-.84,2.45,2.45,0,0,0,.3-1.19,2.3,2.3,0,0,0-.67-1.67A2.18,2.18,0,0,0,242.14,46.82Z"/><path class="cls-1" d="M246.94,46.23h.75V49a5.86,5.86,0,0,0,.11,1.37,1.57,1.57,0,0,0,.62.85,2,2,0,0,0,2.15,0,1.54,1.54,0,0,0,.6-.8,5.25,5.25,0,0,0,.12-1.43V46.23h.77V49.1a4.5,4.5,0,0,1-.29,1.82,2.09,2.09,0,0,1-.85,1,2.67,2.67,0,0,1-1.42.34,2.72,2.72,0,0,1-1.42-.34,2.19,2.19,0,0,1-.86-1,4.86,4.86,0,0,1-.28-1.87Z"/><path class="cls-1" d="M253.9,46.23h.77v.85a2.76,2.76,0,0,1,.73-.75,1.39,1.39,0,0,1,.79-.25,1.42,1.42,0,0,1,.67.2l-.39.63a1,1,0,0,0-.4-.1,1.1,1.1,0,0,0-.73.31,1.91,1.91,0,0,0-.53,1,9.33,9.33,0,0,0-.14,2v2h-.77Z"/><path class="cls-1" d="M258.61,44.06h.76v2.17h1.19v.65h-1.19v5.19h-.76V46.88h-1v-.65h1Z"/><circle class="cls-2" cx="32.65" cy="31.37" r="30.28"/><path class="cls-3" d="M61.52,37.78a29.81,29.81,0,0,1-28.83,23c-13.95,0-25.93-10.21-28.92-23.25h7.44c2.8,9,11.53,16.07,21.48,16.07A22.63,22.63,0,0,0,54.08,37.78Z"/><path class="cls-4" d="M53.63,31.28a21,21,0,1,1-21-21A21,21,0,0,1,53.63,31.28Z"/><path class="cls-2" d="M34.33,33.78H31V42a1.68,1.68,0,0,0,1.69,1.65A1.64,1.64,0,0,0,34.33,42Z"/><path class="cls-2" d="M35.56,44H29.74a.7.7,0,0,0-.76.65v.77a.7.7,0,0,0,.76.65h5.82a.69.69,0,0,0,.75-.65v-.77A.7.7,0,0,0,35.56,44Z"/><path class="cls-2" d="M36.69,46.86h-8c-.56,0-1,.3-1,.69v.75c0,.41.41.7,1,.7h8c.55,0,1-.29,1-.7v-.75C37.65,47.16,37.24,46.86,36.69,46.86Z"/><path class="cls-2" d="M48.92,23.27a.91.91,0,0,0-.41-.63,1.1,1.1,0,0,0-1.36.13,6.57,6.57,0,0,1-8.67.07,8.88,8.88,0,0,0-11.24-.17l.05,0-.2.16,0,0a6.27,6.27,0,0,1-4.38,1.67,6.23,6.23,0,0,1-4.38-1.67,1.09,1.09,0,0,0-.68-.3,1.13,1.13,0,0,0-.69.17.94.94,0,0,0-.41.63v.1a.8.8,0,0,0,.27.6,8.38,8.38,0,0,0,5.9,2.28,8.45,8.45,0,0,0,5.48-1.9l0,0s0,0,0,0l.15-.12a6.55,6.55,0,0,1,8.68-.07,8.47,8.47,0,0,0,5.71,2.09A8.37,8.37,0,0,0,48.66,24a.87.87,0,0,0,.26-.61Zm0,0h0v0Z"/><path class="cls-2" d="M36.14,17a3.45,3.45,0,1,1-3.46-3.46A3.46,3.46,0,0,1,36.14,17Z"/><path class="cls-2" d="M27.58,38.37l-5.32-12a.56.56,0,0,0-.52-.35.57.57,0,0,0-.52.36h0l-5.31,12a.75.75,0,0,0,0,.62,6.46,6.46,0,0,0,5.81,3.15A6.43,6.43,0,0,0,27.55,39,.72.72,0,0,0,27.58,38.37ZM21.74,28.14c.32.71,4.33,9.77,4.61,10.41H17.13l3.09-7Z"/><path class="cls-2" d="M49.53,38.37l-5.31-12A.56.56,0,0,0,43.7,26a.57.57,0,0,0-.53.37v0l-5.3,12a.71.71,0,0,0,0,.62,6.45,6.45,0,0,0,5.81,3.15A6.44,6.44,0,0,0,49.51,39,.72.72,0,0,0,49.53,38.37ZM43.7,28.14l4.61,10.41H39.08c.2-.43,2-4.5,2-4.5S43.4,28.83,43.7,28.14Z"/><path class="cls-2" d="M38.26,25.42a.82.82,0,0,0-.88.91H36.22v-.52h-7v.52H28a.82.82,0,0,0-.88-.91s-.77,0-.77,1v4.36c0,1.07.77,1,.77,1a.83.83,0,0,0,.88-.92h1.15v.54H31v1.59h3.31V31.47h1.89v-.54h1.16a.83.83,0,0,0,.88.92s.77,0,.77-1V26.45C39,25.4,38.26,25.42,38.26,25.42Z"/><path class="cls-2" d="M12.17,47.23h-.32a4.66,4.66,0,0,0,0-.78L10,48l-.2-.25,1.74-1.42a7.4,7.4,0,0,1-.94,0l.07-.31a6,6,0,0,0,2.46-.21l-.81-1,.22-.18,1,1.28-.22.18a5.8,5.8,0,0,1-1.2.24A4.14,4.14,0,0,1,12.17,47.23Zm.45,4-.2-.24.23-.19-1.65-2-.24.19-.2-.25,2-1.65,2.05,2.53ZM12,49.5l.57-.46-.73-.9-.56.46Zm.8-.65.54-.44-.73-.89L12,48Zm.13,1.79.57-.46-.73-.89-.56.46Zm.8-.64.54-.44-.73-.9L13,49.1Zm1.15-.86L13.08,47l1-.78,1.75,2.15Zm-1.32-3.89-.31-.13a2.75,2.75,0,0,0,.27-.87l.28.09A2.72,2.72,0,0,1,13.51,45.25Zm1.36,3.44.49-.4L14,46.65l-.5.4Zm1.61-.27-2.34-2.89.23-.18,2.34,2.88Z"/><path class="cls-2" d="M18.57,55.57l-.25.21c-.32-.22-.61-.44-.89-.65a13.83,13.83,0,0,1-1.25-1,4,4,0,0,1-.63-.73,2.09,2.09,0,0,1-.36-.9,4.67,4.67,0,0,1-1.2.15l0-.33a4.69,4.69,0,0,0,1.17-.15,3.94,3.94,0,0,1,.23-1.31l.31.09A2.78,2.78,0,0,0,15.45,52a3.68,3.68,0,0,0,1.22-1l-.94-.71.17-.22a16.77,16.77,0,0,0,1.91-.58l-1-.79.18-.24,1.34,1-.18.24a17,17,0,0,1-1.85.6l.88.67a4.76,4.76,0,0,1-1.65,1.38,2.21,2.21,0,0,0,.27.77,3,3,0,0,0,.52.66c.21.2.65.55,1.33,1.06C17.93,55.12,18.26,55.36,18.57,55.57Zm1.91-2.63-.36-.27-.51.68-1.17-.87-.3.4,1.27.94-.18.24-1.26-1-.3.39,1.44,1.08-.17.24-1.45-1.08-.35.48L16.88,54l.36-.48L16,52.6l.18-.24,1.27,1,.29-.39-1.07-.8.17-.24,1.08.8.3-.39-1-.74.18-.23,1,.73.34-.45-1.27-.94.19-.25,1.26,1,.31-.42-1-.73L18.4,50l1,.73.27-.36.25.19-.27.36,1.17.87-.49.65.36.28Zm-1,0,.34-.45L19,51.79l-.33.45Zm.52-.69.3-.41-.9-.68-.31.41Z"/><path class="cls-2" d="M25.09,58.33l-.21.24-2.17-.86a3,3,0,0,1-1.79-1.42,4.37,4.37,0,0,1-1,.48l-.16-.29a3.41,3.41,0,0,0,1.89-1.34l-1-.4.11-.26a15.42,15.42,0,0,0,1.39-.76l-1-.41L21.2,53l1.4.55-.11.28c-.29.18-.74.43-1.34.76l.91.36-.11.28a4.26,4.26,0,0,1-.79.86,2.71,2.71,0,0,0,1.57,1.28Zm-2.52-5.21-.31.11a4.26,4.26,0,0,0-.52-1.16L22,52A5.23,5.23,0,0,1,22.57,53.12Zm2.81,4.35-1.55-.61-.25.62-.31-.12.24-.62L22,56.13l.1-.28,1.56.62.17-.44-1.31-.52.71-1.81,1.32.52.17-.43-1.5-.59.11-.27,1.49.59.18-.44.31.12-.17.44,1.48.58-.11.27L25,53.91l-.17.43,1.32.53-.71,1.81-1.32-.53-.17.44,1.55.61ZM23.9,55.76l.2-.51-1-.4-.2.52Zm.31-.78.19-.48-1-.4-.19.48Zm1,1.31.2-.52-1-.4-.2.52Zm.31-.79.18-.47-1-.41-.19.48Z"/><path class="cls-2" d="M28.17,57.28a7.8,7.8,0,0,1-1.47,1.8l-.22-.25A7.17,7.17,0,0,0,27.91,57Zm.07-1L28,56.5a4.57,4.57,0,0,0-1-.84l.2-.27A5.45,5.45,0,0,1,28.24,56.28Zm.3-1.41-.26.23a6,6,0,0,0-1-1l.26-.22A5.64,5.64,0,0,1,28.54,54.87ZM32,59.49,27.93,59l0-.31,2,.22.48-4.19-1.64-.19,0-.31,3.61.41,0,.31-1.65-.18L30.27,59l1.8.2Z"/><path class="cls-2" d="M35.26,58.25a14.5,14.5,0,0,1-1.7,1l-.13-.29a7.84,7.84,0,0,0,.76-.39l-.29-2.35-.72.08,0-.3.73-.09-.18-1.42.33,0,.18,1.42.69-.08,0,.3-.69.08.27,2.23.67-.43Zm3.66-.38a1.78,1.78,0,0,1-.09.83.5.5,0,0,1-.28.27c-.1,0-.44.08-1,.15l-1.38.15a.4.4,0,0,1-.33-.11.53.53,0,0,1-.14-.3l-.29-2.42-.55.25-.08-.3.59-.27-.16-1.24.32,0L35.66,56l1-.44-.18-1.48.32,0,.17,1.38,1.32-.62a11.49,11.49,0,0,1,0,2.55l-.33,0a11,11,0,0,0,.07-2l-1,.46L37.25,58l-.32,0-.28-2.22-.95.45L36,58.84s0,0,0,.07a.2.2,0,0,0,.08,0,2.11,2.11,0,0,0,.38,0l.71-.08a6.78,6.78,0,0,0,1.24-.2c.11,0,.15-.33.13-.83Z"/><path class="cls-2" d="M44.24,52.87,41,54.18c.12.29.24.62.36,1l2.53-1a11.18,11.18,0,0,1,.51,1.55,3.76,3.76,0,0,1,.17,1,.66.66,0,0,1-.16.36,2.88,2.88,0,0,1-.71.38l-.39.15-.22-.28a5.37,5.37,0,0,0,.56-.21,1.92,1.92,0,0,0,.5-.25.4.4,0,0,0,.08-.2,5,5,0,0,0-.16-.78,12.14,12.14,0,0,0-.39-1.25l-2.23.91a3.29,3.29,0,0,1-.69,3.07l-.35-.13a3.89,3.89,0,0,0,.66-1.16A2.39,2.39,0,0,0,41.23,56a8.13,8.13,0,0,0-.54-1.68L39.13,55,39,54.64l2.47-1a4.31,4.31,0,0,0-.89-.56l.25-.26a4.55,4.55,0,0,1,1,.68l2.28-.93Z"/><path class="cls-2" d="M45.62,51.26l-.06.31a6.2,6.2,0,0,0-1.29,0l0-.31A5.4,5.4,0,0,1,45.62,51.26Zm.8,1.25,0,.34a4.42,4.42,0,0,0-1.31,0v-.32A5.16,5.16,0,0,1,46.42,52.51Zm3.6-2.2-1.59,1.21A10.49,10.49,0,0,1,48.57,54a23.77,23.77,0,0,0,1.79-1.88,6.66,6.66,0,0,0-1.12-.33l.13-.3a10.63,10.63,0,0,1,2.09.73l-.11.32a3.68,3.68,0,0,0-.7-.31,30.65,30.65,0,0,1-2.21,2.29l-.3-.17a2.08,2.08,0,0,0,.15-1,9.77,9.77,0,0,0-.17-1.57l-1.24,1-.19-.24,1.46-1.11-.72-.94-1.22.93L46,51.11l1.22-.93-.56-.74.26-.2.56.74,1.21-.92.18.24-1.21.92.72.94,1.43-1.09Zm-3,2.95a12.15,12.15,0,0,1,.32,2.29l-.34,0a9.52,9.52,0,0,0-.3-2.28Z"/><path class="cls-2" d="M50.84,48.1a2.2,2.2,0,0,1,1.41.45.7.7,0,0,1,.25.4c0,.15-.06.35-.26.6l-.16.18-.32-.11.22-.27a.62.62,0,0,0,.19-.34.29.29,0,0,0-.11-.21,2.14,2.14,0,0,0-1.4-.41c-.23-.36-.5-.79-.83-1.29l-.59.73,3.73,3-.2.25-4-3.21,1-1.25.23.19C50.32,47.24,50.58,47.66,50.84,48.1Zm2.55-3.24-.21.26-.69-.56-1.7,2.09.69.56-.2.26-.94-.76.93-1.15a3.06,3.06,0,0,0-.57-.17l.15-.32a4.34,4.34,0,0,1,.64.21l1-1.18Zm-.28.53-1.37,1.69-.23-.19,1.37-1.69Zm2.12.8a2.67,2.67,0,0,1,.51.5.55.55,0,0,1,.1.39,1.31,1.31,0,0,1-.32.52c-.22.28-.43.35-.63.19l-1.43-1.16-.46.56a2.63,2.63,0,0,1,.88,1.28,2.66,2.66,0,0,1-.09,1.35l-.35,0a2.37,2.37,0,0,0,.12-1.29,2,2,0,0,0-.77-1.1l-.6.74L52,48l2.12-2.63.24.19-.65.8,1.38,1.12a.16.16,0,0,0,.1,0s.11-.07.21-.19a1.06,1.06,0,0,0,.16-.24.26.26,0,0,0,0-.12.77.77,0,0,0-.19-.24,3.39,3.39,0,0,0-.39-.34Z"/><path class="cls-5" d="M5.48,34.11,6.58,34l-.09-1,.6,0,.09,1,1.92-.17.05.56-4.23.37L4.77,33.1,5.38,33Z"/><path class="cls-5" d="M4.72,32.18v-.56l2.38.05c.92,0,1.38-.2,1.39-.65s-.45-.67-1.36-.68l-2.38-.05v-.54l2.54,0c1.21,0,1.81.44,1.79,1.25s-.62,1.21-1.84,1.18Z"/><path class="cls-5" d="M6.16,26.64a.82.82,0,0,0-.54.65A.89.89,0,0,0,6,28.1a2,2,0,0,0,1,.44,1.84,1.84,0,0,0,1.09-.15.82.82,0,0,0,.23-1.45l.87.12a1.43,1.43,0,0,1,.15.77,1.36,1.36,0,0,1-.81,1,2.59,2.59,0,0,1-1.6.25,2.71,2.71,0,0,1-1.52-.68A1.35,1.35,0,0,1,5,27.2a1.22,1.22,0,0,1,.34-.68Z"/><path class="cls-5" d="M7.52,24.07l-1.67-.45L6,23.09l4.1,1.09-.14.53-1.88-.5-.35,1.31,1.89.5-.15.54-4.1-1.09.14-.54,1.67.45Z"/><path class="cls-5" d="M10.51,23.09l-.19.53-4-1.46.19-.52Z"/><path class="cls-5" d="M7.62,20.54l1,.46.45-1,.55.25-.45,1,1.2.54.47-1,.55.25-.69,1.54L6.83,20.8l.7-1.54.55.24Z"/><path class="cls-5" d="M7.89,18.25l.22-.36,3.7.06-2.64-1.6.28-.47,3.71,2.23-.21.36-3.69-.06L11.92,20l-.29.48Z"/><path class="cls-5" d="M14.53,15.31l.66-.73.45.41-1,1.15L11.45,13.3l.37-.42Z"/><path class="cls-5" d="M16.27,14.39l-.4.38-3-3,.39-.39Z"/><path class="cls-5" d="M14.73,10.86l.72.85.83-.72.4.47-.84.71.85,1,.87-.74.4.47L16.67,14l-2.76-3.24,1.29-1.1.4.47Z"/><path class="cls-5" d="M16,8.9l.35-.23,3.32,1.64-1.7-2.58.45-.31L20.79,11l-.34.23L17.13,9.63l1.72,2.59-.47.31Z"/><path class="cls-5" d="M21.81,6.82A.85.85,0,0,0,21,6.74a.86.86,0,0,0-.46.76,2,2,0,0,0,.21,1.11,1.93,1.93,0,0,0,.74.83.87.87,0,0,0,.88.1.85.85,0,0,0,.45-.73l.39.79a1.44,1.44,0,0,1-.55.55,1.36,1.36,0,0,1-1.32-.08,2.56,2.56,0,0,1-1.1-1.19,2.71,2.71,0,0,1-.29-1.64A1.28,1.28,0,0,1,21.42,6Z"/><path class="cls-5" d="M24.7,6.5l-.57-1.63.52-.18,1.4,4-.52.18L24.89,7l-1.28.44.64,1.85-.53.18-1.39-4,.52-.18L23.42,7Z"/><path class="cls-5" d="M27.18,8.44l-.54.13-1-4.12.54-.14Z"/><path class="cls-5" d="M28.2,7.25l-.14,1-.58.09.59-4.5.49-.08,1.9,4.12L29.87,8l-.42-.9Zm.24-2.43-.19,1.85,1-.15Z"/><path class="cls-5" d="M30.71,3.48h.42L33,6.63l0-3.08h.55l.07,4.33h-.41L31.29,4.72l.05,3.11h-.55Z"/><path class="cls-5" d="M37.37,5.93V6a3,3,0,0,1-.6,1.58,1.22,1.22,0,0,1-1.16.48,1.3,1.3,0,0,1-1-.77,2.71,2.71,0,0,1-.25-1.62A2.68,2.68,0,0,1,35,4.17a1.34,1.34,0,0,1,2.38.66l-.53.28c-.11-.5-.35-.78-.72-.83a.85.85,0,0,0-.78.4,2.29,2.29,0,0,0-.43,1.11A2.25,2.25,0,0,0,35,6.94a.84.84,0,0,0,.67.55.7.7,0,0,0,.65-.28,1.45,1.45,0,0,0,.33-.79l-.78-.1L36,5.76Z"/><path class="cls-5" d="M40.77,4.73l.87.31a1.36,1.36,0,0,1,.88.94,2.55,2.55,0,0,1-.09,1.58,2.44,2.44,0,0,1-.93,1.29,1.34,1.34,0,0,1-1.27.2l-.86-.3Zm-.66,3.58.17.07c.74.26,1.28-.08,1.6-1S42,5.86,41.26,5.6l-.18-.07Z"/><path class="cls-5" d="M42.6,10l-.5-.23,1.74-3.88.51.23Z"/><path class="cls-5" d="M46.17,8a.64.64,0,0,0-.29-.6.46.46,0,0,0-.38,0,.65.65,0,0,0-.33.31q-.12.24.15.81l.27.57a1.09,1.09,0,0,1-.08.9,1.8,1.8,0,0,1-.75.79.94.94,0,0,1-.89,0,1.13,1.13,0,0,1-.49-1.21l.52-.22a1.15,1.15,0,0,0,0,.52.52.52,0,0,0,.24.36.44.44,0,0,0,.43,0A.93.93,0,0,0,45,9.82a.65.65,0,0,0,.09-.38,2.38,2.38,0,0,0-.37-.78,1.05,1.05,0,0,1,0-1.13,1.45,1.45,0,0,1,.67-.67.86.86,0,0,1,.78,0,1.05,1.05,0,0,1,.56.85Z"/><path class="cls-5" d="M46.05,12l-.42-.28,2-3-.61-.41.34-.51L49,8.85l-.34.5L48.08,9Z"/><path class="cls-5" d="M48.59,13.94l-.53-.43.48-2-1.2,1.45-.43-.35,2.7-3.28.67.55c.56.47.57,1,0,1.69a1.53,1.53,0,0,1-.66.5A.72.72,0,0,1,49,12Zm.14-2.71.12.1a.65.65,0,0,0,1-.15.63.63,0,0,0-.06-1l-.13-.11Z"/><path class="cls-5" d="M49.25,14.6l-.41-.38,2.95-3.07.4.39Z"/><path class="cls-5" d="M53.53,14.48a.82.82,0,0,0-.14-.83.87.87,0,0,0-.86-.25,2.08,2.08,0,0,0-1.62,1.44.9.9,0,0,0,.14.87.87.87,0,0,0,.82.24l-.66.58a1.32,1.32,0,0,1-.67-.38,1.35,1.35,0,0,1-.28-1.29,2.63,2.63,0,0,1,.86-1.38,2.74,2.74,0,0,1,1.51-.71,1.35,1.35,0,0,1,1.26.42,1.32,1.32,0,0,1,.3.71Z"/><path class="cls-5" d="M52,17.85l-.29-.41,2.95-2.13-.43-.59.5-.35L55.87,16l-.49.35L55,15.72Z"/><path class="cls-5" d="M57.43,21a.84.84,0,0,0,.1-.84.87.87,0,0,0-.76-.47,2.1,2.1,0,0,0-2,.92.87.87,0,0,0-.11.88.85.85,0,0,0,.72.46l-.79.38a1.46,1.46,0,0,1-.55-.56,1.37,1.37,0,0,1,.1-1.31,2.61,2.61,0,0,1,1.2-1.09A2.73,2.73,0,0,1,57,19.05a1.4,1.4,0,0,1,1.1.76,1.37,1.37,0,0,1,.09.77Z"/><path class="cls-5" d="M56.71,22.05a2.74,2.74,0,0,1,1.65,0,1.36,1.36,0,0,1,.7,2.22,2.92,2.92,0,0,1-3,1A1.37,1.37,0,0,1,55.34,23,2.72,2.72,0,0,1,56.71,22.05Zm.21.54a2,2,0,0,0-1,.62.88.88,0,0,0-.22.86.87.87,0,0,0,.66.58,2,2,0,0,0,1.15-.06,1.93,1.93,0,0,0,.93-.6.88.88,0,0,0,.17-.86.86.86,0,0,0-.64-.59A1.9,1.9,0,0,0,56.92,22.59Z"/><path class="cls-5" d="M59.94,25.5,60,26l-2.34.41c-.9.15-1.32.45-1.24.89s.56.57,1.46.42l2.35-.41.09.55-2.5.43c-1.2.2-1.86-.09-2-.89s.39-1.31,1.59-1.51Z"/><path class="cls-5" d="M56.33,31.36l0-.69,1.83-1-1.88.09,0-.55L60.46,29l0,.87c0,.73-.36,1.11-1.22,1.16a1.47,1.47,0,0,1-.81-.15.72.72,0,0,1-.4-.5Zm2.1-1.74v.17c0,.46.29.67.79.65s.73-.27.7-.72v-.18Z"/><path class="cls-5" d="M56.27,32.7l0-.51,3.64.15,0-.73.61,0-.08,2-.61,0,0-.73Z"/></svg>